<svg width="1120" height="385" viewBox="0 0 1120 385" fill="none" xmlns="http://www.w3.org/2000/svg">
<g clip-path="url(#clip0_892_10191)">
<path d="M259.241 0.222168C450.645 0.222168 642.049 0.222168 833.454 0.222168C973.13 128.482 1112.88 256.701 1252.69 384.88C781.797 385.149 310.898 385.149 -160 384.88C-20.1291 256.742 119.618 128.522 259.241 0.222168Z" stroke="#374151" stroke-width="0.5" stroke-miterlimit="10"/>
<path d="M-139.262 365.873C89.1063 368.842 317.873 364.035 546.347 364.035C774.821 364.035 1003.51 368.842 1231.96 365.873" stroke="#374151" stroke-width="0.5" stroke-miterlimit="10"/>
<path d="M-119.664 347.937C102.278 351.977 324.326 339.312 546.347 339.696C768.369 340.08 990.523 352.057 1212.36 347.937" stroke="#374151" stroke-width="0.5" stroke-miterlimit="10"/>
<path d="M-101.182 331.031C114.998 334.93 330.115 311.843 546.348 312.206C762.58 312.57 977.857 334.849 1193.88 331.031" stroke="#374151" stroke-width="0.5" stroke-miterlimit="10"/>
<path d="M-83.6836 314.873C127.424 317.539 335.159 282.151 546.346 282.151C757.534 282.151 965.242 317.579 1176.38 314.873" stroke="#374151" stroke-width="0.5" stroke-miterlimit="10"/>
<path d="M-67.1387 299.724C139.667 300.431 339.463 251.591 546.268 251.591C753.074 251.591 952.922 300.431 1159.68 299.724" stroke="#374151" stroke-width="0.5" stroke-miterlimit="10"/>
<path d="M-51.4707 285.342C151.644 283.605 343.101 220.283 546.349 220.283C749.596 220.283 941.027 283.605 1144.17 285.342" stroke="#374151" stroke-width="0.5" stroke-miterlimit="10"/>
<path d="M-36.5215 271.689C163.327 267.407 346.154 189.643 546.348 189.643C746.542 189.643 929.369 267.407 1129.22 271.689" stroke="#374151" stroke-width="0.5" stroke-miterlimit="10"/>
<path d="M-22.4746 258.722C174.719 252.016 348.756 160.497 546.348 160.497C743.939 160.497 918.11 252.016 1115.17 258.722" stroke="#374151" stroke-width="0.5" stroke-miterlimit="10"/>
<path d="M-9.01172 246.36C185.738 237.715 351.013 133.249 546.347 133.249C741.682 133.249 906.983 237.715 1101.71 246.36" stroke="#374151" stroke-width="0.5" stroke-miterlimit="10"/>
<path d="M5.67383 232.887C197.954 223.697 353.537 109.677 546.348 109.677C739.16 109.677 894.901 223.737 1087.02 232.887" stroke="#374151" stroke-width="0.5" stroke-miterlimit="10"/>
<path d="M23.0918 216.91C211.92 205.559 356.482 78.5513 546.347 78.5513C736.211 78.5513 880.667 205.498 1069.47 216.87" stroke="#374151" stroke-width="0.5" stroke-miterlimit="10"/>
<path d="M39.3965 201.924C225.755 188.734 358.793 50.6987 546.347 50.6987C733.901 50.6987 866.938 188.734 1053.3 201.924" stroke="#374151" stroke-width="0.5" stroke-miterlimit="10"/>
<path d="M54.7461 187.885C239.06 175.281 360.812 29.7319 546.348 29.7319C731.884 29.7319 853.636 175.281 1037.95 187.885" stroke="#374151" stroke-width="0.5" stroke-miterlimit="10"/>
<path d="M71.502 172.494C247.956 159.729 368.699 24.4805 546.348 24.4805C723.997 24.4805 844.74 159.81 1021.19 172.494" stroke="#374151" stroke-width="0.5" stroke-miterlimit="10"/>
<path d="M87.1426 158.134C255.763 145.57 376.32 20.1587 546.348 20.1587C716.376 20.1587 836.8 145.55 1005.55 158.134" stroke="#374151" stroke-width="0.5" stroke-miterlimit="10"/>
<path d="M102.119 144.399C263.464 132.28 383.915 18.2197 546.348 18.2197C708.781 18.2197 829.152 132.341 990.577 144.399" stroke="#374151" stroke-width="0.5" stroke-miterlimit="10"/>
<path d="M119.91 128.078C273.395 117.857 391.934 16.3604 546.347 16.3604C700.761 16.3604 819.46 117.877 972.785 128.078" stroke="#374151" stroke-width="0.5" stroke-miterlimit="10"/>
<path d="M136.32 113.01C282.529 104.466 399.475 16.0576 546.347 16.0576C693.22 16.0576 810.085 104.446 956.374 113.01" stroke="#374151" stroke-width="0.5" stroke-miterlimit="10"/>
<path d="M151.51 99.0738C290.496 92.0043 406.884 15.0283 546.347 15.5535C685.811 16.0786 801.987 91.9841 941.185 99.0738" stroke="#374151" stroke-width="0.5" stroke-miterlimit="10"/>
<path d="M165.611 86.146C298.383 80.0865 413.258 15.4517 546.349 15.4517C679.439 15.4517 794.367 80.0865 927.086 86.146" stroke="#374151" stroke-width="0.5" stroke-miterlimit="10"/>
<path d="M181.783 71.3001C307.518 66.3919 420.348 13.149 546.349 12.846C672.349 12.543 785.338 66.3919 910.914 71.3001" stroke="#374151" stroke-width="0.5" stroke-miterlimit="10"/>
<path d="M198.111 56.3336C316.916 52.7989 427.329 11.2104 546.346 11.2104C665.363 11.2104 775.75 52.7989 894.581 56.3336" stroke="#374151" stroke-width="0.5" stroke-miterlimit="10"/>
<path d="M213.09 42.6391C325.787 40.4374 433.491 10.4428 546.401 10.3217C659.31 10.2005 767.015 40.4374 879.712 42.6391" stroke="#374151" stroke-width="0.5" stroke-miterlimit="10"/>
<path d="M228.465 28.4999C335.134 27.5304 439.652 8.60449 546.348 8.60449C653.043 8.60449 757.562 27.5304 864.231 28.4999" stroke="#374151" stroke-width="0.5" stroke-miterlimit="10"/>
<path d="M244.637 13.634C345.358 13.735 445.601 5.55469 546.348 5.55469C647.095 5.55469 747.338 13.8158 848.059 13.634" stroke="#374151" stroke-width="0.5" stroke-miterlimit="10"/>
<path d="M811.361 0.242676C939.566 128.704 1066.95 258.317 1198.26 384.9" stroke="#374151" stroke-width="0.5" stroke-miterlimit="10"/>
<path d="M789.32 0.242676C845.297 60.1511 905.655 117.636 961.207 177.786C1024.11 245.875 1079.45 317.68 1144.03 384.921" stroke="#374151" stroke-width="0.5" stroke-miterlimit="10"/>
<path d="M767.201 0.222168C817.256 56.5757 874.746 109.293 923.049 166.475C982.929 237.371 1028.6 314.469 1089.68 384.921" stroke="#374151" stroke-width="0.5" stroke-miterlimit="10"/>
<path d="M745.107 0.202148C789.347 51.8292 843.359 99.0531 884.518 152.175C942.221 226.727 978.122 309.924 1035.35 384.921" stroke="#374151" stroke-width="0.5" stroke-miterlimit="10"/>
<path d="M722.934 0.162109C759.26 47.6081 811.838 87.2575 846.013 135.612C901.778 214.487 927.96 304.612 980.936 384.921" stroke="#374151" stroke-width="0.5" stroke-miterlimit="10"/>
<path d="M700.947 0.140625C731.485 41.7089 781.991 74.3495 809.82 117.049C863.859 200.145 879.446 299.117 926.66 384.899" stroke="#374151" stroke-width="0.5" stroke-miterlimit="10"/>
<path d="M678.854 0.101562C703.921 36.0951 751.799 62.0096 773.759 99.1948C796.091 136.986 803.845 185.785 815.874 226.263C831.807 279.91 848.908 332.85 872.356 384.901" stroke="#374151" stroke-width="0.5" stroke-miterlimit="10"/>
<path d="M656.787 0.0810547C677.712 30.1968 720.518 50.375 737.884 81.8441C759.632 121.029 762.606 175.14 772.06 217.173C784.726 273.607 798.296 329.557 818.026 384.82" stroke="#374151" stroke-width="0.5" stroke-miterlimit="10"/>
<path d="M634.693 0.0400391C651.582 26.9847 687.324 41.3861 701.557 69.4821C723.465 112.686 722.243 172.07 729.679 218.203C738.707 274.132 748.904 329.657 763.695 384.88" stroke="#374151" stroke-width="0.5" stroke-miterlimit="10"/>
<path d="M612.627 0.0209961C625.426 22.7038 654.397 32.3384 665.444 56.0715C686.156 100.508 680.234 164.254 685.306 211.599C691.494 269.589 698.584 327.356 709.365 384.962" stroke="#374151" stroke-width="0.5" stroke-miterlimit="10"/>
<path d="M590.535 0.0209961C599.218 18.4419 619.267 25.7739 627.207 44.9422C646.299 90.9743 636.66 157.447 639.767 206.044C643.617 265.751 647.972 325.356 655.036 384.881" stroke="#374151" stroke-width="0.5" stroke-miterlimit="10"/>
<path d="M568.439 0C571.759 13.3309 582.301 23.7735 586.868 37.2054C603.332 85.6815 591.568 152.033 593.108 202.408C594.994 263.266 597.092 324.083 600.676 384.9" stroke="#374151" stroke-width="0.5" stroke-miterlimit="10"/>
<path d="M546.348 0.0209961V384.921" stroke="#374151" stroke-width="0.5" stroke-miterlimit="10"/>
<path d="M524.255 0C520.935 13.3309 510.393 23.7735 505.826 37.2054C489.362 85.6815 501.126 152.033 499.586 202.408C497.7 263.266 495.602 324.083 492.018 384.9" stroke="#374151" stroke-width="0.5" stroke-miterlimit="10"/>
<path d="M502.161 0.0209961C493.477 18.4419 473.429 25.7739 465.489 44.9422C446.397 90.9743 456.036 157.447 452.929 206.044C449.079 265.751 444.724 325.356 437.66 384.881" stroke="#374151" stroke-width="0.5" stroke-miterlimit="10"/>
<path d="M480.068 0.0209961C467.269 22.7038 438.298 32.3384 427.251 56.0715C406.539 100.508 412.46 164.254 407.388 211.599C401.201 269.589 394.111 327.356 383.33 384.962" stroke="#374151" stroke-width="0.5" stroke-miterlimit="10"/>
<path d="M458.001 0.0400391C441.113 26.9847 405.37 41.3861 391.137 69.4821C369.23 112.686 370.451 172.07 363.016 218.203C353.988 274.132 343.791 329.657 329 384.88" stroke="#374151" stroke-width="0.5" stroke-miterlimit="10"/>
<path d="M435.908 0.0810547C414.983 30.1968 372.178 50.375 354.811 81.8441C333.063 121.029 330.089 175.14 320.636 217.173C307.969 273.607 294.4 329.557 274.67 384.82" stroke="#374151" stroke-width="0.5" stroke-miterlimit="10"/>
<path d="M413.842 0.101562C388.775 36.0951 340.897 62.0096 318.936 99.1948C296.604 136.986 288.85 185.785 276.821 226.263C260.888 279.91 243.787 332.85 220.34 384.901" stroke="#374151" stroke-width="0.5" stroke-miterlimit="10"/>
<path d="M391.748 0.140625C361.21 41.7089 310.704 74.3495 282.875 117.049C228.836 200.145 213.249 299.117 166.035 384.899" stroke="#374151" stroke-width="0.5" stroke-miterlimit="10"/>
<path d="M369.761 0.162109C333.434 47.6081 280.856 87.2575 246.681 135.612C190.917 214.487 164.734 304.612 111.758 384.921" stroke="#374151" stroke-width="0.5" stroke-miterlimit="10"/>
<path d="M347.587 0.202148C303.348 51.8292 249.336 99.0531 208.177 152.175C150.474 226.727 114.572 309.924 57.3477 384.921" stroke="#374151" stroke-width="0.5" stroke-miterlimit="10"/>
<path d="M325.494 0.222168C275.439 56.5756 217.949 109.293 169.647 166.475C109.766 237.371 64.0927 314.469 3.01758 384.921" stroke="#374151" stroke-width="0.5" stroke-miterlimit="10"/>
<path d="M303.374 0.242676C247.397 60.1511 187.039 117.636 131.487 177.786C68.5799 245.875 13.2405 317.68 -51.3398 384.921" stroke="#374151" stroke-width="0.5" stroke-miterlimit="10"/>
<path d="M281.333 0.242676C153.129 128.704 25.7472 258.317 -105.564 384.9" stroke="#374151" stroke-width="0.5" stroke-miterlimit="10"/>
</g>
<defs>
<clipPath id="clip0_892_10191">
<rect width="1120" height="385" rx="24" fill="white"/>
</clipPath>
</defs>
</svg>
