<svg width="589" height="337" viewBox="0 0 589 337" fill="none" xmlns="http://www.w3.org/2000/svg">
<g clip-path="url(#clip0_894_11970)">
<path d="M185.223 391.919C172.864 397.091 168.17 409.768 176.248 417.006C192.866 431.898 261.281 424.541 264.5 414.447C267.671 404.501 211.01 381.125 185.223 391.919Z" stroke="#1F2937" stroke-miterlimit="10"/>
<path d="M215.845 358.795C244.074 348.913 291.473 419.274 271.908 435.886C259.878 446.1 230.758 444.824 207.011 441.467C184.717 438.316 152.862 425.432 145.003 404.035C140.842 392.676 143.34 376.492 152.153 370.824C158.974 366.439 168.182 368.412 170.214 367.682C179.898 371.697 181.319 373.257 189.034 374.199C199.119 375.43 208.082 361.512 215.845 358.795Z" stroke="#1F2937" stroke-miterlimit="10"/>
<path d="M244.486 324.188C277.272 329.419 312.899 432.191 277.334 455.842C254.685 470.905 215.199 464.254 187.676 456.291C162.394 448.976 120.296 424.565 111.778 389.582C106.827 369.255 112.844 340.659 130.081 332.388C143.822 325.796 161.526 331.464 164.643 331.9C183.069 341.807 184.558 346.847 198.278 350.24C216.443 354.727 230.785 321.991 244.486 324.188Z" stroke="#1F2937" stroke-miterlimit="10"/>
<path d="M271.052 289.811C307.251 299.455 332.248 445.254 280.685 476.026C247.406 495.884 197.542 483.972 166.265 471.342C137.97 459.92 85.8053 423.977 76.4775 375.356C70.8502 346.034 80.2409 305.09 105.93 294.179C126.572 285.408 152.934 294.409 156.991 296.346C185.351 309.896 185.71 320.664 205.455 326.508C231.682 334.292 252.094 284.771 271.052 289.811Z" stroke="#1F2937" stroke-miterlimit="10"/>
<path d="M296.02 256.998C336.108 270.91 349.935 459.734 282.438 497.776C238.485 522.327 178.264 505.285 143.259 487.962C111.919 472.457 49.7534 424.984 39.5669 362.693C33.3055 324.403 46.0288 271.095 80.1721 257.527C107.728 246.586 142.538 259.419 147.735 262.346C184.292 282.936 185.238 296.089 211.001 304.342C245.297 315.424 272.024 248.673 296.02 256.998Z" stroke="#1F2937" stroke-miterlimit="10"/>
<path d="M53.2925 221.312C87.7499 208.204 130.988 224.851 137.357 228.785C182.013 256.37 183.664 271.852 215.438 282.592C257.808 296.914 291.009 212.762 319.845 224.6C364.139 242.784 366.625 474.875 283.048 519.942C228.514 549.347 157.819 527.035 119.108 504.995C84.7283 485.424 12.6065 426.422 1.53754 350.449C-5.34317 303.194 10.6889 237.517 53.2925 221.312Z" stroke="#1F2937" stroke-miterlimit="10"/>
<path d="M426.155 197.397C412.582 197.284 396.305 173.761 408.478 169.833C415.508 167.561 434.122 171.155 441.433 177.549C451.73 186.546 435.495 197.478 426.155 197.397Z" stroke="#1F2937" stroke-miterlimit="10"/>
<path d="M389.269 173.127C390.597 169.971 396.816 168.569 402.492 164.725C414.003 156.923 415.655 153.216 423.831 148.511C427.02 146.672 431.31 144.257 435.498 145.363C441.912 147.058 443.513 154.394 451.653 167.313C462.207 184.101 466.204 188.442 463.188 197.338C462.485 199.406 461.576 206.105 456.493 210.192C449.454 215.841 441.203 211.477 430.888 215.217C418.5 219.701 412.358 227.682 406.982 224.155C403.195 221.67 403.054 214.867 400.218 203.02C398.058 193.996 396.7 188.074 394.073 183.243C390.923 177.492 387.791 176.637 389.269 173.127Z" stroke="#1F2937" stroke-miterlimit="10"/>
<path d="M368.522 179.707C368.752 174.111 377.547 171.403 384.796 163.317C399.661 146.729 392.775 134.877 404.69 122.758C409.746 117.613 417.68 112.63 425.632 113.596C436.916 114.968 440.706 126.617 458.079 150.235C480.791 181.115 490.466 187.162 488.345 203.618C487.911 206.972 487.489 219.85 478.613 227.601C466.775 237.938 452.586 228.534 434.053 236.303C413.345 244.972 405.606 263.506 398.623 259.67C393.774 257.007 395.632 246.281 391.904 225.362C389.266 210.494 387.635 201.804 382.361 194.686C375.705 185.709 368.273 185.784 368.522 179.707Z" stroke="#1F2937" stroke-miterlimit="10"/>
<path d="M347.754 186.215C346.857 178.194 358.246 174.162 367.08 161.834C385.269 136.455 369.587 116.618 385.529 96.9305C392.353 88.5067 404.056 80.9707 415.744 81.7569C431.944 82.845 437.93 98.7181 464.508 133.086C499.45 177.991 514.498 185.898 513.51 209.827C513.316 214.493 513.406 233.517 500.742 244.948C484.103 259.963 463.945 245.501 437.23 257.324C408.182 270.178 398.872 299.254 390.262 295.123C384.353 292.265 388.138 277.63 383.588 247.638C380.446 226.926 378.553 215.51 370.643 206.063C360.447 193.891 348.714 194.854 347.754 186.215Z" stroke="#1F2937" stroke-miterlimit="10"/>
<path d="M326.938 192.704C324.925 182.269 338.875 176.897 349.316 160.336C370.789 126.151 346.279 98.4072 366.323 71.0881C374.891 59.4 390.393 49.3081 405.812 49.9C426.939 50.7131 435.025 70.8639 470.877 115.921C517.938 174.93 538.419 184.675 538.601 216.021C538.637 221.999 539.229 247.151 522.793 262.277C501.332 281.952 475.245 262.441 440.329 278.329C402.934 295.35 392.054 334.997 381.852 330.561C374.882 327.518 380.596 308.961 375.223 269.9C371.57 243.34 369.425 229.212 358.88 217.426C345.136 202.073 329.104 203.926 326.938 192.704Z" stroke="#1F2937" stroke-miterlimit="10"/>
<path d="M306.084 199.191C309.455 213.002 329.78 210.251 347.069 228.785C360.253 242.915 362.649 259.748 366.814 292.158C372.997 340.285 365.363 362.768 373.395 365.993C385.203 370.737 397.651 320.517 443.399 299.332C486.496 279.376 518.566 303.978 544.815 279.603C565.05 260.809 563.925 229.529 563.662 222.209C562.268 183.455 536.387 171.863 477.204 98.751C432.076 43.0037 421.898 18.5812 395.832 18.0402C376.686 17.6426 357.375 30.2963 347.069 45.2427C322.936 80.2174 356.322 115.883 331.513 158.836C319.489 179.65 302.946 186.343 306.084 199.191Z" stroke="#1F2937" stroke-miterlimit="10"/>
<path d="M478.565 421.474C475.023 419.681 467.586 423.137 466.928 428.52C466.183 434.627 474.598 439.679 478.296 438.11C482.67 436.25 483.265 423.848 478.565 421.474Z" stroke="#1F2937" stroke-miterlimit="10"/>
<path d="M488.545 453.923C494.582 448.282 497.221 437.93 500.24 420.186C503.231 402.591 502.761 389.994 500.132 389.08C498.699 388.586 494.639 392.445 491.157 395.273C484.638 400.552 473.48 399.967 470.62 400.537C460.149 402.63 457.073 406.516 452.697 413.959C450.671 417.397 445.948 425.02 443.869 433.988C440.697 447.568 426.484 451.753 428.216 457.196C429.673 461.74 443.755 462.843 452.885 462.972C465.971 463.157 479.211 462.634 488.545 453.923Z" stroke="#1F2937" stroke-miterlimit="10"/>
<path d="M499.01 469.088C508.933 459.008 512.837 442.092 518.85 410.456C524.959 378.668 524.92 356.864 521.911 356.051C519.652 355.429 512.338 363.288 506.121 368.905C494.403 379.538 473.426 377.789 469.103 378.471C449.388 381.514 444.53 388.805 436.889 402.585C433.706 408.325 424.973 422.314 420.995 438.836C414.871 464.147 385.837 470.774 388.239 480.157C390.247 487.971 417.171 489.17 434.113 488.527C458.034 487.598 482.242 486.127 499.01 469.088Z" stroke="#1F2937" stroke-miterlimit="10"/>
<path d="M509.418 484.154C523.236 469.638 528.361 446.145 537.401 400.627C546.583 354.637 547.01 323.677 543.63 322.906C540.534 322.188 529.97 334.026 521.037 342.447C504.15 358.46 473.327 355.516 467.538 356.287C438.585 360.149 431.917 370.95 421.034 391.097C416.69 399.136 403.954 419.496 398.07 443.562C389.002 480.606 345.145 489.669 348.212 502.995C350.772 514.08 390.546 515.422 415.293 513.954C450.043 511.996 485.254 509.539 509.418 484.154Z" stroke="#1F2937" stroke-miterlimit="10"/>
<path d="M519.793 499.211C537.515 480.259 543.854 450.187 555.922 390.786C568.188 330.6 569.085 290.493 565.322 289.749C561.385 288.962 547.567 304.731 535.923 315.962C513.833 337.32 473.201 333.21 465.947 334.092C427.756 338.722 419.227 353.059 405.148 379.595C399.626 389.926 382.905 416.662 375.121 448.276C363.101 497.05 304.42 508.552 308.16 525.822C311.268 540.17 363.891 541.602 396.445 539.372C442.011 536.302 488.246 532.951 519.793 499.211Z" stroke="#1F2937" stroke-miterlimit="10"/>
<path d="M464.34 311.887C416.914 317.268 406.602 335.204 389.251 368.086C382.579 380.727 361.841 413.822 352.155 452.982C337.197 513.491 263.684 527.43 268.09 548.639C271.752 566.276 337.221 567.77 377.583 564.781C433.981 560.596 491.232 556.357 530.156 514.262C551.782 490.871 559.333 454.228 574.432 380.94C589.758 306.554 591.125 257.309 586.996 256.585C582.21 255.748 565.158 275.418 550.798 289.468C523.502 316.168 473.064 310.898 464.34 311.887Z" stroke="#1F2937" stroke-miterlimit="10"/>
<path d="M78.7212 168.102C84.1061 188.729 122.758 179.04 168.769 225.497C185.256 242.144 196.31 259.557 218.13 262.265C220.332 262.537 242.192 264.925 257.62 250.906C277.029 233.269 265.182 208.802 287.835 174.679C296.179 162.109 297.567 165.759 303.691 155.846C329.825 113.533 289.965 70.5769 312.965 27.6059C323.552 7.82579 339.291 3.28506 337.795 0.702317C331.339 -10.379 64.17 112.523 78.7212 168.102Z" stroke="#1F2937" stroke-miterlimit="10"/>
<path d="M224.114 234.067C225.436 233.888 239.849 234.964 249.737 225.051C262.239 212.535 253.327 195.302 267.651 172.036C272.922 163.469 273.655 165.792 277.406 159.015C293.411 130.097 264.686 101.005 278.752 72.6963C285.262 59.5913 295.538 56.5871 294.01 55.3076C287.096 49.4725 110.749 135.675 124.601 173.184C129.794 187.252 158.146 182.26 190.587 212.559C202.383 223.569 210.37 235.929 224.114 234.067Z" stroke="#1F2937" stroke-miterlimit="10"/>
<path d="M230.097 205.866C230.474 204.919 237.522 204.939 241.854 199.197C247.478 191.748 241.489 181.823 247.466 169.397C249.659 164.835 249.749 165.81 251.125 162.184C257.033 146.589 239.383 131.451 244.543 117.784C246.958 111.351 251.445 110.254 250.248 109.91C241.501 111.151 157.508 158.91 170.465 178.266C175.524 185.829 193.632 185.467 212.389 199.621C219.518 205.002 224.185 208.942 230.097 205.866Z" stroke="#1F2937" stroke-miterlimit="10"/>
<path d="M236.08 177.668C231.437 164.112 213.158 159.502 206.463 164.515C196.591 171.917 205.012 181.554 216.335 183.348C224.799 184.678 241.393 193.183 236.08 177.668Z" stroke="#1F2937" stroke-miterlimit="10"/>
</g>
<defs>
<clipPath id="clip0_894_11970">
<rect width="589" height="337" fill="white"/>
</clipPath>
</defs>
</svg>
