<svg width="1360" height="468" viewBox="0 0 1360 468" fill="none" xmlns="http://www.w3.org/2000/svg">
<g clip-path="url(#clip0_421_1418)">
<path d="M314.791 0.769958C547.211 0.769958 779.63 0.769958 1012.05 0.769958C1181.66 156.514 1351.35 312.209 1521.13 467.855C949.323 468.182 377.518 468.182 -194.287 467.855C-24.4438 312.258 145.249 156.563 314.791 0.769958Z" stroke="white" stroke-width="0.607143" stroke-miterlimit="10"/>
<path d="M-169.105 444.775C108.198 448.38 385.986 442.543 663.419 442.543C940.852 442.543 1218.54 448.38 1495.94 444.775" stroke="white" stroke-width="0.607143" stroke-miterlimit="10"/>
<path d="M-145.309 422.995C124.192 427.9 393.822 412.522 663.419 412.988C933.017 413.454 1202.78 427.999 1472.15 422.995" stroke="white" stroke-width="0.607143" stroke-miterlimit="10"/>
<path d="M-122.865 402.467C139.638 407.2 400.852 379.166 663.42 379.608C925.989 380.049 1187.4 407.102 1449.71 402.467" stroke="white" stroke-width="0.607143" stroke-miterlimit="10"/>
<path d="M-101.617 382.845C154.728 386.083 406.978 343.112 663.419 343.112C919.861 343.112 1172.08 386.132 1428.46 382.845" stroke="white" stroke-width="0.607143" stroke-miterlimit="10"/>
<path d="M-81.5273 364.451C169.594 365.309 412.203 306.004 663.324 306.004C914.445 306.004 1157.12 365.309 1408.18 364.451" stroke="white" stroke-width="0.607143" stroke-miterlimit="10"/>
<path d="M-62.502 346.987C184.137 344.878 416.621 267.987 663.422 267.987C910.222 267.987 1142.67 344.878 1389.35 346.987" stroke="white" stroke-width="0.607143" stroke-miterlimit="10"/>
<path d="M-44.3496 330.408C198.324 325.208 420.328 230.781 663.42 230.781C906.513 230.781 1128.52 325.208 1371.19 330.408" stroke="white" stroke-width="0.607143" stroke-miterlimit="10"/>
<path d="M-27.293 314.662C212.156 306.519 423.487 195.389 663.42 195.389C903.352 195.389 1114.84 306.519 1354.13 314.662" stroke="white" stroke-width="0.607143" stroke-miterlimit="10"/>
<path d="M-10.9434 299.651C225.539 289.154 426.23 162.302 663.421 162.302C900.613 162.302 1101.34 289.154 1337.79 299.651" stroke="white" stroke-width="0.607143" stroke-miterlimit="10"/>
<path d="M6.88867 283.292C240.372 272.132 429.294 133.68 663.422 133.68C897.55 133.68 1086.67 272.181 1319.96 283.292" stroke="white" stroke-width="0.607143" stroke-miterlimit="10"/>
<path d="M28.0391 263.891C257.331 250.107 432.871 95.8839 663.42 95.8839C893.969 95.8839 1069.38 250.034 1298.64 263.842" stroke="white" stroke-width="0.607143" stroke-miterlimit="10"/>
<path d="M47.8379 245.693C274.131 229.677 435.677 62.0625 663.42 62.0625C891.164 62.0625 1052.71 229.677 1279 245.693" stroke="white" stroke-width="0.607143" stroke-miterlimit="10"/>
<path d="M66.4766 228.646C290.287 213.342 438.128 36.6031 663.422 36.6031C888.715 36.6031 1036.56 213.342 1260.37 228.646" stroke="white" stroke-width="0.607143" stroke-miterlimit="10"/>
<path d="M86.8223 209.957C301.088 194.456 447.704 30.2264 663.421 30.2264C879.138 30.2264 1025.75 194.555 1240.02 209.957" stroke="white" stroke-width="0.607143" stroke-miterlimit="10"/>
<path d="M105.814 192.519C310.568 177.264 456.959 24.9782 663.421 24.9782C869.884 24.9782 1016.11 177.239 1221.03 192.519" stroke="white" stroke-width="0.607143" stroke-miterlimit="10"/>
<path d="M124 175.841C319.918 161.125 466.18 22.6237 663.421 22.6237C860.661 22.6237 1006.83 161.199 1202.84 175.841" stroke="white" stroke-width="0.607143" stroke-miterlimit="10"/>
<path d="M145.604 156.023C331.978 143.612 475.918 20.3661 663.42 20.3661C850.923 20.3661 995.056 143.637 1181.24 156.023" stroke="white" stroke-width="0.607143" stroke-miterlimit="10"/>
<path d="M165.531 137.726C343.07 127.352 485.076 19.9988 663.421 19.9988C841.766 19.9988 983.675 127.327 1161.31 137.726" stroke="white" stroke-width="0.607143" stroke-miterlimit="10"/>
<path d="M183.975 120.804C352.743 112.22 494.071 18.7486 663.42 19.3863C832.769 20.024 973.84 112.195 1142.87 120.804" stroke="white" stroke-width="0.607143" stroke-miterlimit="10"/>
<path d="M201.098 105.106C362.321 97.7479 501.811 19.2628 663.421 19.2628C825.032 19.2628 964.586 97.7479 1125.75 105.106" stroke="white" stroke-width="0.607143" stroke-miterlimit="10"/>
<path d="M220.734 87.0789C373.413 81.1189 510.42 16.4668 663.421 16.0989C816.422 15.731 953.623 81.1189 1106.11 87.0789" stroke="white" stroke-width="0.607143" stroke-miterlimit="10"/>
<path d="M240.562 68.905C384.825 64.6129 518.898 14.1126 663.419 14.1126C807.939 14.1126 941.98 64.6129 1086.28 68.905" stroke="white" stroke-width="0.607143" stroke-miterlimit="10"/>
<path d="M258.75 52.2758C395.596 49.6024 526.381 13.1804 663.485 13.0332C800.589 12.8861 931.373 49.6024 1068.22 52.2758" stroke="white" stroke-width="0.607143" stroke-miterlimit="10"/>
<path d="M277.42 35.107C406.947 33.9298 533.862 10.9483 663.421 10.9483C792.98 10.9483 919.894 33.9298 1049.42 35.107" stroke="white" stroke-width="0.607143" stroke-miterlimit="10"/>
<path d="M297.057 17.0553C419.361 17.1779 541.084 7.24467 663.42 7.24467C785.756 7.24467 907.48 17.2761 1029.78 17.0553" stroke="white" stroke-width="0.607143" stroke-miterlimit="10"/>
<path d="M985.223 0.794601C1140.9 156.784 1295.58 314.171 1455.03 467.879" stroke="white" stroke-width="0.607143" stroke-miterlimit="10"/>
<path d="M958.459 0.794601C1026.43 73.5405 1099.72 143.343 1167.18 216.383C1243.57 299.063 1310.76 386.255 1389.18 467.904" stroke="white" stroke-width="0.607143" stroke-miterlimit="10"/>
<path d="M931.6 0.770004C992.381 69.1992 1062.19 133.214 1120.84 202.648C1193.56 288.737 1249.02 382.355 1323.18 467.904" stroke="white" stroke-width="0.607143" stroke-miterlimit="10"/>
<path d="M904.771 0.745316C958.491 63.4353 1024.08 120.779 1074.06 185.284C1144.12 275.811 1187.72 376.836 1257.21 467.903" stroke="white" stroke-width="0.607143" stroke-miterlimit="10"/>
<path d="M877.846 0.696625C921.956 58.3096 985.801 106.455 1027.3 165.172C1095.01 260.948 1126.81 370.386 1191.13 467.904" stroke="white" stroke-width="0.607143" stroke-miterlimit="10"/>
<path d="M851.148 0.670761C888.23 51.1465 949.559 90.7815 983.351 142.631C1048.97 243.533 1067.9 363.713 1125.23 467.878" stroke="white" stroke-width="0.607143" stroke-miterlimit="10"/>
<path d="M824.32 0.623245C854.759 44.3296 912.896 75.7973 939.563 120.951C966.681 166.84 976.096 226.096 990.703 275.248C1010.05 340.39 1030.82 404.674 1059.29 467.879" stroke="white" stroke-width="0.607143" stroke-miterlimit="10"/>
<path d="M797.525 0.598572C822.934 37.1677 874.913 61.6698 896.001 99.8823C922.409 147.464 926.02 213.171 937.499 264.211C952.88 332.738 969.357 400.677 993.315 467.781" stroke="white" stroke-width="0.607143" stroke-miterlimit="10"/>
<path d="M770.697 0.548691C791.205 33.2672 834.606 50.7547 851.889 84.8712C878.491 137.334 877.008 209.442 886.036 265.461C897 333.375 909.382 400.798 927.342 467.854" stroke="white" stroke-width="0.607143" stroke-miterlimit="10"/>
<path d="M743.902 0.525269C759.444 28.0686 794.623 39.7678 808.037 68.5866C833.188 122.545 825.997 199.951 832.156 257.441C839.669 327.857 848.278 398.003 861.37 467.953" stroke="white" stroke-width="0.607143" stroke-miterlimit="10"/>
<path d="M717.076 0.525269C727.62 22.8935 751.965 31.7967 761.606 55.0724C784.79 110.969 773.085 191.686 776.858 250.697C781.533 323.197 786.821 395.575 795.398 467.855" stroke="white" stroke-width="0.607143" stroke-miterlimit="10"/>
<path d="M690.246 0.5C694.277 16.6876 707.078 29.3678 712.624 45.678C732.616 104.542 718.331 185.112 720.201 246.281C722.491 320.18 725.038 394.029 729.391 467.879" stroke="white" stroke-width="0.607143" stroke-miterlimit="10"/>
<path d="M663.42 0.525269V467.904" stroke="white" stroke-width="0.607143" stroke-miterlimit="10"/>
<path d="M636.594 0.5C632.564 16.6876 619.762 29.3678 614.216 45.678C594.225 104.542 608.509 185.112 606.639 246.281C604.35 320.18 601.802 394.029 597.449 467.879" stroke="white" stroke-width="0.607143" stroke-miterlimit="10"/>
<path d="M609.766 0.525269C599.222 22.8935 574.877 31.7967 565.236 55.0724C542.052 110.969 553.757 191.686 549.984 250.697C545.309 323.197 540.02 395.575 531.443 467.855" stroke="white" stroke-width="0.607143" stroke-miterlimit="10"/>
<path d="M582.938 0.525269C567.396 28.0686 532.217 39.7678 518.803 68.5866C493.653 122.545 500.843 199.951 494.684 257.441C487.171 327.857 478.562 398.003 465.471 467.953" stroke="white" stroke-width="0.607143" stroke-miterlimit="10"/>
<path d="M556.143 0.548691C535.635 33.2672 492.234 50.7547 474.951 84.8712C448.349 137.334 449.832 209.442 440.803 265.461C429.84 333.375 417.458 400.798 399.498 467.854" stroke="white" stroke-width="0.607143" stroke-miterlimit="10"/>
<path d="M529.317 0.598602C503.908 37.1678 451.93 61.6699 430.842 99.8823C404.433 147.464 400.822 213.171 389.343 264.211C373.962 332.738 357.485 400.677 333.527 467.781" stroke="white" stroke-width="0.607143" stroke-miterlimit="10"/>
<path d="M502.521 0.623245C472.082 44.3296 413.945 75.7973 387.279 120.951C360.161 166.84 350.746 226.096 336.139 275.248C316.792 340.39 296.027 404.674 267.555 467.879" stroke="white" stroke-width="0.607143" stroke-miterlimit="10"/>
<path d="M475.693 0.670761C438.611 51.1465 377.282 90.7815 343.49 142.631C277.872 243.533 258.944 363.713 201.613 467.878" stroke="white" stroke-width="0.607143" stroke-miterlimit="10"/>
<path d="M448.994 0.696625C404.883 58.3096 341.039 106.455 299.54 165.172C231.826 260.948 200.033 370.386 135.705 467.904" stroke="white" stroke-width="0.607143" stroke-miterlimit="10"/>
<path d="M422.069 0.745316C368.349 63.4353 302.764 120.779 252.784 185.284C182.717 275.811 139.122 376.836 69.6348 467.903" stroke="white" stroke-width="0.607143" stroke-miterlimit="10"/>
<path d="M395.241 0.770004C334.46 69.1992 264.65 133.214 205.997 202.648C133.286 288.737 77.8248 382.355 3.66211 467.904" stroke="white" stroke-width="0.607143" stroke-miterlimit="10"/>
<path d="M368.382 0.794601C300.41 73.5405 227.118 143.343 159.663 216.383C83.275 299.063 16.0772 386.255 -62.3418 467.904" stroke="white" stroke-width="0.607143" stroke-miterlimit="10"/>
<path d="M341.617 0.794601C185.94 156.784 31.2623 314.171 -128.188 467.879" stroke="white" stroke-width="0.607143" stroke-miterlimit="10"/>
</g>
<defs>
<clipPath id="clip0_421_1418">
<rect y="0.5" width="1360" height="467.5" rx="24" fill="white"/>
</clipPath>
</defs>
</svg>
