<svg width="99" height="32" viewBox="0 0 99 32" fill="none" xmlns="http://www.w3.org/2000/svg">
<path d="M29.4058 2.91972C29.9095 3.4239 30.2895 4.0338 30.517 4.70323C30.7445 5.37265 30.8137 6.08405 30.7192 6.78354C30.6246 7.48303 30.3689 8.15227 29.9714 8.74056C29.5739 9.32886 29.0451 9.82079 28.4248 10.1791C23.9539 12.7553 18.7367 13.8036 13.592 13.1595C9.802 12.685 6.20942 11.3118 3.1143 9.18419C1.28137 7.9242 1.28282 5.33704 2.85526 3.76394L3.81787 2.80093C5.36863 1.24952 7.86605 1.29921 9.79841 2.33733C11.3196 3.15452 12.9921 3.69413 14.735 3.91704C17.8074 4.30999 20.9261 3.69677 23.6061 2.17278C24.5184 1.64593 25.5841 1.43257 26.6341 1.56654C27.6841 1.7005 28.6585 2.17412 29.4028 2.91233L29.4058 2.91972Z" fill="#3B82F6"/>
<path d="M29.4333 2.78473C28.5531 1.9446 27.3595 1.47266 26.115 1.47266C24.8705 1.47266 23.677 1.9446 22.7968 2.78473L2.87666 21.8074C1.99689 22.648 1.50269 23.7878 1.50269 24.9762C1.50269 26.1646 1.99689 27.3044 2.87666 28.145C3.3123 28.5613 3.82958 28.8916 4.39895 29.1169C4.96831 29.3423 5.5786 29.4583 6.19492 29.4583C6.81125 29.4583 7.42154 29.3423 7.9909 29.1169C8.56027 28.8916 9.07755 28.5613 9.51319 28.145L29.4333 9.12229C29.8693 8.70628 30.2151 8.2123 30.4511 7.66858C30.6871 7.12486 30.8085 6.54207 30.8085 5.95351C30.8085 5.36495 30.6871 4.78216 30.4511 4.23844C30.2151 3.69473 29.8693 3.20075 29.4333 2.78473Z" fill="url(#paint0_linear_130_6324)"/>
<path d="M2.59447 21.5771C2.09075 22.081 1.71066 22.6907 1.483 23.3599C1.25534 24.0292 1.18607 24.7405 1.28045 25.4398C1.37483 26.1392 1.63038 26.8083 2.02774 27.3966C2.42509 27.9848 2.95384 28.4767 3.57391 28.835C8.04517 31.4107 13.2624 32.4589 18.407 31.8151C22.1967 31.3409 25.789 29.9684 28.8843 27.8417C30.718 26.5818 30.7167 23.9939 29.1437 22.4207L28.1794 21.4561C26.6286 19.905 24.1314 19.9549 22.1992 20.993C20.678 21.8103 19.0053 22.35 17.2623 22.5729C14.1899 22.9659 11.0711 22.3526 8.39112 20.8287C7.47778 20.3032 6.41164 20.0914 5.36162 20.227C4.31161 20.3626 3.33779 20.8377 2.59447 21.5771Z" fill="url(#paint1_linear_130_6324)"/>
<path d="M48.8677 21.291V18.5821H44L48.8677 13.418V10.709H40V13.418H44.7407L40 18.5821V21.291H48.8677Z" fill="#111827"/>
<path d="M53.6341 21.5662C55.2214 21.5662 56.6182 20.8678 56.9568 19.8942L57.1685 21.291H60.0468V15.1112C60.0468 12.0847 58.3113 10.3704 55.2426 10.3704C52.2161 10.3704 50.2479 11.9365 50.2479 14.3281H52.9568C52.9568 13.3757 53.6976 12.8466 55.0732 12.8466C56.2373 12.8466 56.8722 13.3969 56.8722 14.4339V14.6032L53.9092 14.836C51.3695 15.0265 49.9939 16.2328 49.9939 18.1799C49.9939 20.254 51.3907 21.5662 53.6341 21.5662ZM54.777 19.1535C53.7822 19.1535 53.3166 18.7937 53.3166 18.0318C53.3166 17.3545 53.8246 17.0371 55.2426 16.9101L56.8934 16.7619V17.3334C56.8934 18.5397 56.0256 19.1535 54.777 19.1535Z" fill="#111827"/>
<path d="M65.2204 21.291V15.4921C65.2204 14.1799 66.0458 13.3334 67.3368 13.3334C68.4585 13.3334 69.1992 14.2011 69.1992 15.5344V21.291H72.4585V14.7514C72.4585 11.9789 70.9982 10.3704 68.4797 10.3704C67.104 10.3704 65.8977 10.8995 65.2416 11.8096L65.0299 10.709H61.9611V21.291H65.2204Z" fill="#111827"/>
<path d="M81.6531 10.709C81.2087 10.6032 80.7854 10.5609 80.4044 10.5609C78.9864 10.5609 78.0552 11.2593 77.6108 12.2963L77.4415 10.7302H74.3727V21.291H77.6319V16.6985C77.6319 14.6032 78.7536 13.7778 80.6161 13.7778H81.6531V10.709Z" fill="#111827"/>
<path d="M86.1372 21.291V5.33337H82.878V21.291H86.1372Z" fill="#111827"/>
<path d="M87.3125 26.3704C87.9474 26.5609 88.6882 26.6667 89.4712 26.6667C91.3337 26.6667 92.5188 25.7567 93.4077 23.5979L98.7834 10.709H95.3972L92.8363 17.5027L90.5294 10.709H87.0374L91.2913 21.6508L91.1009 22.1588C90.6776 23.3016 90.212 23.6403 89.1114 23.6403H87.3125V26.3704Z" fill="#111827"/>
<defs>
<linearGradient id="paint0_linear_130_6324" x1="30.5057" y1="4.19069" x2="10.9321" y2="21.0511" gradientUnits="userSpaceOnUse">
<stop stop-color="#2563EB"/>
<stop offset="0.15" stop-color="#2563EB"/>
<stop offset="0.57" stop-color="#3B82F6" stop-opacity="0.8"/>
<stop offset="0.87" stop-color="#3B82F6" stop-opacity="0.12"/>
<stop offset="1" stop-color="#3B82F6" stop-opacity="0"/>
</linearGradient>
<linearGradient id="paint1_linear_130_6324" x1="1.61956" y1="25.1934" x2="31.804" y2="25.4183" gradientUnits="userSpaceOnUse">
<stop stop-color="#3B82F6"/>
<stop offset="0.67" stop-color="#2563EB"/>
<stop offset="1" stop-color="#1D4ED8"/>
</linearGradient>
</defs>
</svg>
