<svg width="149" height="48" viewBox="0 0 149 48" fill="none" xmlns="http://www.w3.org/2000/svg">
<path d="M44.1087 4.37958C44.8642 5.13585 45.4342 6.0507 45.7755 7.05484C46.1168 8.05898 46.2205 9.12608 46.0787 10.1753C45.937 11.2245 45.5534 12.2284 44.9572 13.1108C44.3609 13.9933 43.5676 14.7312 42.6373 15.2686C35.9308 19.133 28.105 20.7055 20.3881 19.7393C14.703 19.0276 9.31413 16.9677 4.67145 13.7763C1.92205 11.8863 1.92423 8.00556 4.28289 5.64591L5.7268 4.2014C8.05295 1.87428 11.7991 1.94881 14.6976 3.50599C16.9793 4.73179 19.4881 5.5412 22.1025 5.87556C26.7111 6.46499 31.3892 5.54516 35.4092 3.25917C36.7776 2.46889 38.3761 2.14886 39.9511 2.34981C41.5262 2.55075 42.9878 3.26118 44.1042 4.36849L44.1087 4.37958Z" fill="#3B82F6"/>
<path d="M44.1503 4.1774C42.83 2.91721 41.0396 2.20929 39.1729 2.20929C37.3062 2.20929 35.5158 2.91721 34.1955 4.1774L4.31535 32.7115C2.99571 33.9723 2.25439 35.682 2.25439 37.4646C2.25439 39.2473 2.99571 40.9569 4.31535 42.2178C4.96881 42.8423 5.74474 43.3377 6.59879 43.6757C7.45284 44.0137 8.36827 44.1877 9.29275 44.1877C10.2172 44.1877 11.1327 44.0137 11.9867 43.6757C12.8408 43.3377 13.6167 42.8423 14.2702 42.2178L44.1503 13.6837C44.8043 13.0597 45.323 12.3187 45.677 11.5032C46.0309 10.6876 46.2131 9.81341 46.2131 8.93057C46.2131 8.04773 46.0309 7.17354 45.677 6.35797C45.323 5.5424 44.8043 4.80142 44.1503 4.1774Z" fill="url(#paint0_linear_130_2193)"/>
<path d="M3.89085 32.3661C3.13527 33.122 2.56514 34.0365 2.22365 35.0404C1.88215 36.0443 1.77826 37.1112 1.91982 38.1602C2.06139 39.2093 2.44472 40.213 3.04075 41.0954C3.63679 41.9777 4.4299 42.7155 5.36001 43.2529C12.0669 47.1166 19.8927 48.6889 27.6097 47.7232C33.2942 47.0118 38.6827 44.953 43.3256 41.763C46.0761 39.8732 46.0742 35.9914 43.7147 33.6315L42.2682 32.1847C39.942 29.8581 36.1963 29.9328 33.298 31.49C31.0161 32.7159 28.5071 33.5255 25.8925 33.8599C21.284 34.4493 16.6058 33.5295 12.5858 31.2435C11.2158 30.4552 9.6166 30.1376 8.04158 30.341C6.46656 30.5443 5.00582 31.257 3.89085 32.3661Z" fill="url(#paint1_linear_130_2193)"/>
<path d="M73.3016 31.937V27.8735H66L73.3016 20.1275V16.064H60V20.1275H67.1111L60 27.8735V31.937H73.3016Z" fill="black"/>
<path d="M80.4511 32.3497C82.8321 32.3497 84.9273 31.3021 85.4353 29.8418L85.7527 31.937H90.0702V22.6672C90.0702 18.1275 87.467 15.556 82.8638 15.556C78.3242 15.556 75.3718 17.9052 75.3718 21.4926H79.4353C79.4353 20.064 80.5464 19.2703 82.6099 19.2703C84.3559 19.2703 85.3083 20.0957 85.3083 21.6513V21.9052L80.8638 22.2545C77.0543 22.5402 74.9908 24.3497 74.9908 27.2703C74.9908 30.3814 77.0861 32.3497 80.4511 32.3497ZM82.1654 28.7306C80.6734 28.7306 79.975 28.191 79.975 27.0481C79.975 26.0322 80.7369 25.556 82.8638 25.3656L85.34 25.1433V26.0005C85.34 27.81 84.0384 28.7306 82.1654 28.7306Z" fill="black"/>
<path d="M97.8306 31.937V23.2386C97.8306 21.2703 99.0687 20.0005 101.005 20.0005C102.688 20.0005 103.799 21.3021 103.799 23.3021V31.937H108.688V22.1275C108.688 17.9687 106.497 15.556 102.719 15.556C100.656 15.556 98.8465 16.3497 97.8624 17.7148L97.5449 16.064H92.9417V31.937H97.8306Z" fill="black"/>
<path d="M122.48 16.064C121.813 15.9053 121.178 15.8418 120.607 15.8418C118.48 15.8418 117.083 16.8894 116.416 18.4449L116.162 16.0957H111.559V31.937H116.448V25.0481C116.448 21.9053 118.13 20.6672 120.924 20.6672H122.48V16.064Z" fill="black"/>
<path d="M129.206 31.937V8.00049H124.317V31.937H129.206Z" fill="black"/>
<path d="M130.969 39.556C131.921 39.8418 133.032 40.0005 134.207 40.0005C137 40.0005 138.778 38.6354 140.112 35.3973L148.175 16.064H143.096L139.254 26.2545L135.794 16.064H130.556L136.937 32.4767L136.651 33.2386C136.016 34.9529 135.318 35.4608 133.667 35.4608H130.969V39.556Z" fill="black"/>
<defs>
<linearGradient id="paint0_linear_130_2193" x1="45.7589" y1="6.28634" x2="16.3985" y2="31.577" gradientUnits="userSpaceOnUse">
<stop stop-color="#2563EB"/>
<stop offset="0.15" stop-color="#2563EB"/>
<stop offset="0.57" stop-color="#3B82F6" stop-opacity="0.8"/>
<stop offset="0.87" stop-color="#3B82F6" stop-opacity="0.12"/>
<stop offset="1" stop-color="#3B82F6" stop-opacity="0"/>
</linearGradient>
<linearGradient id="paint1_linear_130_2193" x1="2.42848" y1="37.7907" x2="47.7052" y2="38.1279" gradientUnits="userSpaceOnUse">
<stop stop-color="#3B82F6"/>
<stop offset="0.67" stop-color="#2563EB"/>
<stop offset="1" stop-color="#1D4ED8"/>
</linearGradient>
</defs>
</svg>
