<svg width="88" height="88" viewBox="0 0 88 88" fill="none" xmlns="http://www.w3.org/2000/svg">
<rect width="88" height="88" rx="24" fill="white"/>
<path d="M64.1087 24.3796C64.8642 25.1359 65.4342 26.0507 65.7755 27.0548C66.1168 28.059 66.2205 29.1261 66.0787 30.1753C65.937 31.2245 65.5534 32.2284 64.9572 33.1108C64.3609 33.9933 63.5676 34.7312 62.6373 35.2686C55.9308 39.133 48.105 40.7055 40.3881 39.7393C34.703 39.0276 29.3141 36.9677 24.6714 33.7763C21.922 31.8863 21.9242 28.0056 24.2829 25.6459L25.7268 24.2014C28.0529 21.8743 31.7991 21.9488 34.6976 23.506C36.9793 24.7318 39.4881 25.5412 42.1025 25.8756C46.7111 26.465 51.3892 25.5452 55.4092 23.2592C56.7776 22.4689 58.3761 22.1489 59.9511 22.3498C61.5262 22.5508 62.9878 23.2612 64.1042 24.3685L64.1087 24.3796Z" fill="#3B82F6"/>
<path d="M64.1498 24.1771C62.8295 22.9169 61.0392 22.209 59.1724 22.209C57.3057 22.209 55.5153 22.9169 54.195 24.1771L24.3149 52.7111C22.9952 53.972 22.2539 55.6817 22.2539 57.4643C22.2539 59.247 22.9952 60.9566 24.3149 62.2175C24.9683 62.842 25.7443 63.3374 26.5983 63.6754C27.4523 64.0134 28.3678 64.1874 29.2923 64.1874C30.2168 64.1874 31.1322 64.0134 31.9862 63.6754C32.8403 63.3374 33.6162 62.842 34.2697 62.2175L64.1498 33.6834C64.8038 33.0594 65.3226 32.3184 65.6765 31.5029C66.0305 30.6873 66.2126 29.8131 66.2126 28.9303C66.2126 28.0474 66.0305 27.1732 65.6765 26.3577C65.3226 25.5421 64.8038 24.8011 64.1498 24.1771Z" fill="url(#paint0_linear_707_1311)"/>
<path d="M23.8918 52.3656C23.1362 53.1215 22.5661 54.036 22.2246 55.0399C21.8831 56.0438 21.7792 57.1107 21.9208 58.1597C22.0624 59.2088 22.4457 60.2125 23.0417 61.0949C23.6378 61.9772 24.4309 62.715 25.361 63.2524C32.0679 67.1161 39.8937 68.6884 47.6107 67.7227C53.2951 67.0114 58.6837 64.9526 63.3266 61.7625C66.0771 59.8727 66.0752 55.9909 63.7157 53.631L62.2692 52.1842C59.943 49.8576 56.1972 49.9323 53.299 51.4895C51.0171 52.7154 48.5081 53.525 45.8935 53.8594C41.2849 54.4488 36.6068 53.529 32.5868 51.243C31.2168 50.4547 29.6176 50.1371 28.0426 50.3405C26.4675 50.5438 25.0068 51.2565 23.8918 52.3656Z" fill="url(#paint1_linear_707_1311)"/>
<defs>
<linearGradient id="paint0_linear_707_1311" x1="65.7584" y1="26.286" x2="36.398" y2="51.5767" gradientUnits="userSpaceOnUse">
<stop stop-color="#2563EB"/>
<stop offset="0.15" stop-color="#2563EB"/>
<stop offset="0.57" stop-color="#3B82F6" stop-opacity="0.8"/>
<stop offset="0.87" stop-color="#3B82F6" stop-opacity="0.12"/>
<stop offset="1" stop-color="#3B82F6" stop-opacity="0"/>
</linearGradient>
<linearGradient id="paint1_linear_707_1311" x1="22.4295" y1="57.7902" x2="67.7061" y2="58.1274" gradientUnits="userSpaceOnUse">
<stop stop-color="#3B82F6"/>
<stop offset="0.67" stop-color="#2563EB"/>
<stop offset="1" stop-color="#1D4ED8"/>
</linearGradient>
</defs>
</svg>
