<svg width="99" height="32" viewBox="0 0 99 32" fill="none" xmlns="http://www.w3.org/2000/svg">
<path d="M29.4058 2.91972C29.9095 3.4239 30.2895 4.0338 30.517 4.70323C30.7445 5.37265 30.8137 6.08405 30.7192 6.78354C30.6246 7.48303 30.3689 8.15227 29.9714 8.74056C29.5739 9.32886 29.0451 9.82079 28.4248 10.1791C23.9539 12.7553 18.7367 13.8036 13.592 13.1595C9.802 12.685 6.20942 11.3118 3.1143 9.18419C1.28137 7.9242 1.28282 5.33704 2.85526 3.76394L3.81787 2.80093C5.36863 1.24952 7.86605 1.29921 9.79841 2.33733C11.3196 3.15452 12.9921 3.69413 14.735 3.91704C17.8074 4.30999 20.9261 3.69677 23.6061 2.17278C24.5184 1.64593 25.5841 1.43257 26.6341 1.56654C27.6841 1.7005 28.6585 2.17412 29.4028 2.91233L29.4058 2.91972Z" fill="#3B82F6"/>
<path d="M29.4335 2.78473C28.5533 1.9446 27.3598 1.47266 26.1153 1.47266C24.8708 1.47266 23.6772 1.9446 22.797 2.78473L2.8769 21.8074C1.99714 22.648 1.50293 23.7878 1.50293 24.9762C1.50293 26.1646 1.99714 27.3044 2.8769 28.145C3.31254 28.5613 3.82983 28.8916 4.39919 29.1169C4.96856 29.3423 5.57884 29.4583 6.19517 29.4583C6.81149 29.4583 7.42178 29.3423 7.99115 29.1169C8.56051 28.8916 9.0778 28.5613 9.51344 28.145L29.4335 9.12229C29.8695 8.70628 30.2154 8.2123 30.4513 7.66858C30.6873 7.12486 30.8087 6.54207 30.8087 5.95351C30.8087 5.36495 30.6873 4.78216 30.4513 4.23844C30.2154 3.69473 29.8695 3.20075 29.4335 2.78473Z" fill="url(#paint0_linear_958_9659)"/>
<path d="M2.59423 21.5771C2.09051 22.081 1.71042 22.6907 1.48276 23.3599C1.25509 24.0292 1.18583 24.7405 1.28021 25.4398C1.37459 26.1392 1.63014 26.8083 2.02749 27.3966C2.42485 27.9848 2.95359 28.4767 3.57366 28.835C8.04493 31.4107 13.2621 32.4589 18.4068 31.8151C22.1964 31.3409 25.7888 29.9684 28.8841 27.8417C30.7177 26.5818 30.7165 23.9939 29.1435 22.4207L28.1791 21.4561C26.6283 19.905 24.1312 19.9549 22.199 20.993C20.6777 21.8103 19.0051 22.35 17.262 22.5729C14.1896 22.9659 11.0709 22.3526 8.39087 20.8287C7.47754 20.3032 6.41139 20.0914 5.36138 20.227C4.31137 20.3626 3.33754 20.8377 2.59423 21.5771Z" fill="url(#paint1_linear_958_9659)"/>
<path d="M48.8677 21.2909V18.5819H44L48.8677 13.4179V10.7089H40V13.4179H44.7407L40 18.5819V21.2909H48.8677Z" fill="white"/>
<path d="M53.6341 21.5661C55.2214 21.5661 56.6182 20.8676 56.9568 19.8941L57.1685 21.2909H60.0468V15.111C60.0468 12.0846 58.3113 10.3703 55.2426 10.3703C52.2161 10.3703 50.2479 11.9364 50.2479 14.328H52.9568C52.9568 13.3756 53.6976 12.8465 55.0732 12.8465C56.2373 12.8465 56.8722 13.3967 56.8722 14.4338V14.6031L53.9092 14.8359C51.3695 15.0264 49.9939 16.2327 49.9939 18.1798C49.9939 20.2539 51.3907 21.5661 53.6341 21.5661ZM54.777 19.1534C53.7822 19.1534 53.3166 18.7936 53.3166 18.0317C53.3166 17.3544 53.8246 17.037 55.2426 16.91L56.8934 16.7618V17.3333C56.8934 18.5396 56.0256 19.1534 54.777 19.1534Z" fill="white"/>
<path d="M65.2204 21.2909V15.492C65.2204 14.1798 66.0458 13.3333 67.3368 13.3333C68.4585 13.3333 69.1992 14.201 69.1992 15.5343V21.2909H72.4585V14.7512C72.4585 11.9788 70.9982 10.3703 68.4797 10.3703C67.104 10.3703 65.8977 10.8994 65.2416 11.8094L65.0299 10.7089H61.9611V21.2909H65.2204Z" fill="white"/>
<path d="M81.6531 10.7089C81.2087 10.6031 80.7854 10.5608 80.4044 10.5608C78.9864 10.5608 78.0552 11.2592 77.6108 12.2962L77.4415 10.7301H74.3727V21.2909H77.6319V16.6983C77.6319 14.6031 78.7536 13.7777 80.6161 13.7777H81.6531V10.7089Z" fill="white"/>
<path d="M86.1372 21.2909V5.33325H82.878V21.2909H86.1372Z" fill="white"/>
<path d="M87.3125 26.3703C87.9474 26.5608 88.6882 26.6666 89.4712 26.6666C91.3337 26.6666 92.5188 25.7565 93.4077 23.5978L98.7834 10.7089H95.3972L92.8363 17.5026L90.5294 10.7089H87.0374L91.2913 21.6507L91.1009 22.1586C90.6776 23.3015 90.212 23.6401 89.1114 23.6401H87.3125V26.3703Z" fill="white"/>
<defs>
<linearGradient id="paint0_linear_958_9659" x1="30.5059" y1="4.19069" x2="10.9323" y2="21.0511" gradientUnits="userSpaceOnUse">
<stop stop-color="#2563EB"/>
<stop offset="0.15" stop-color="#2563EB"/>
<stop offset="0.57" stop-color="#3B82F6" stop-opacity="0.8"/>
<stop offset="0.87" stop-color="#3B82F6" stop-opacity="0.12"/>
<stop offset="1" stop-color="#3B82F6" stop-opacity="0"/>
</linearGradient>
<linearGradient id="paint1_linear_958_9659" x1="1.61931" y1="25.1934" x2="31.8038" y2="25.4183" gradientUnits="userSpaceOnUse">
<stop stop-color="#3B82F6"/>
<stop offset="0.67" stop-color="#2563EB"/>
<stop offset="1" stop-color="#1D4ED8"/>
</linearGradient>
</defs>
</svg>
