<svg width="161" height="30" viewBox="0 0 161 30" fill="none" xmlns="http://www.w3.org/2000/svg">
<path d="M38.5664 1.27466H42.5611V23.0637H49.1341V26.6953H38.5664V1.27466Z" fill="#726BEA"/>
<path d="M56.6818 27.0584C54.7208 27.0584 53.2198 26.5016 52.1787 25.3879C51.1377 24.2742 50.6172 22.7006 50.6172 20.6669V7.30297C50.6172 5.26932 51.1377 3.69566 52.1787 2.582C53.2198 1.46833 54.7208 0.911499 56.6818 0.911499C58.6428 0.911499 60.1438 1.46833 61.1849 2.582C62.2259 3.69566 62.7464 5.26932 62.7464 7.30297V20.6669C62.7464 22.7006 62.2259 24.2742 61.1849 25.3879C60.1438 26.5016 58.6428 27.0584 56.6818 27.0584ZM56.6818 23.4269C58.0618 23.4269 58.7518 22.5916 58.7518 20.9211V7.04876C58.7518 5.37826 58.0618 4.54301 56.6818 4.54301C55.3018 4.54301 54.6118 5.37826 54.6118 7.04876V20.9211C54.6118 22.5916 55.3018 23.4269 56.6818 23.4269Z" fill="#726BEA"/>
<path d="M71.112 27.0584C69.1752 27.0584 67.6983 26.5137 66.6814 25.4242C65.6646 24.3106 65.1562 22.7248 65.1562 20.6669V7.30297C65.1562 5.24511 65.6646 3.67145 66.6814 2.582C67.6983 1.46833 69.1752 0.911499 71.112 0.911499C73.0488 0.911499 74.5256 1.46833 75.5424 2.582C76.5593 3.67145 77.0676 5.24511 77.0676 7.30297V9.48187H73.2908V7.04876C73.2908 5.37826 72.6008 4.54301 71.2208 4.54301C69.8409 4.54301 69.1509 5.37826 69.1509 7.04876V20.9575C69.1509 22.6038 69.8409 23.4269 71.2208 23.4269C72.6008 23.4269 73.2908 22.6038 73.2908 20.9575V15.9823H71.2935V12.3508H77.0676V20.6669C77.0676 22.7248 76.5593 24.3106 75.5424 25.4242C74.5256 26.5137 73.0488 27.0584 71.112 27.0584Z" fill="#726BEA"/>
<path d="M85.4064 27.0584C83.4454 27.0584 81.9444 26.5016 80.9034 25.3879C79.8623 24.2742 79.3418 22.7006 79.3418 20.6669V7.30297C79.3418 5.26932 79.8623 3.69566 80.9034 2.582C81.9444 1.46833 83.4454 0.911499 85.4064 0.911499C87.3675 0.911499 88.8685 1.46833 89.9095 2.582C90.9506 3.69566 91.4711 5.26932 91.4711 7.30297V20.6669C91.4711 22.7006 90.9506 24.2742 89.9095 25.3879C88.8685 26.5016 87.3675 27.0584 85.4064 27.0584ZM85.4064 23.4269C86.7864 23.4269 87.4764 22.5916 87.4764 20.9211V7.04876C87.4764 5.37826 86.7864 4.54301 85.4064 4.54301C84.0265 4.54301 83.3365 5.37826 83.3365 7.04876V20.9211C83.3365 22.5916 84.0265 23.4269 85.4064 23.4269Z" fill="#726BEA"/>
<path d="M94.1816 1.27466H98.1763V26.6953H94.1816V1.27466Z" fill="#4F46E5"/>
<path d="M101.168 1.27466H107.051C109.036 1.27466 110.525 1.80728 111.518 2.87253C112.511 3.93777 113.007 5.49932 113.007 7.55718V10.0629C113.007 12.1208 112.511 13.6823 111.518 14.7476C110.525 15.8128 109.036 16.3454 107.051 16.3454H105.163V26.6953H101.168V1.27466ZM107.051 12.7139C107.705 12.7139 108.189 12.5323 108.504 12.1692C108.843 11.806 109.012 11.1887 109.012 10.3171V7.30298C109.012 6.43141 108.843 5.81405 108.504 5.4509C108.189 5.08775 107.705 4.90618 107.051 4.90618H105.163V12.7139H107.051Z" fill="#4F46E5"/>
<path d="M120.51 27.0584C118.574 27.0584 117.109 26.5137 116.116 25.4242C115.124 24.3106 114.627 22.7248 114.627 20.6669V19.2143H118.404V20.9575C118.404 22.6038 119.094 23.4269 120.474 23.4269C121.152 23.4269 121.66 23.2332 121.999 22.8459C122.362 22.4343 122.544 21.7806 122.544 20.8848C122.544 19.8196 122.302 18.8875 121.818 18.0886C121.334 17.2654 120.438 16.2849 119.13 15.147C117.484 13.6944 116.334 12.3871 115.68 11.225C115.027 10.0387 114.7 8.70715 114.7 7.23034C114.7 5.2209 115.208 3.67145 116.225 2.582C117.242 1.46833 118.719 0.911499 120.656 0.911499C122.568 0.911499 124.009 1.46833 124.977 2.582C125.97 3.67145 126.466 5.24511 126.466 7.30297V8.35611H122.689V7.04876C122.689 6.1772 122.52 5.54773 122.181 5.16037C121.842 4.7488 121.346 4.54301 120.692 4.54301C119.36 4.54301 118.695 5.35405 118.695 6.97613C118.695 7.89611 118.937 8.75557 119.421 9.5545C119.929 10.3534 120.837 11.3218 122.145 12.4597C123.815 13.9123 124.965 15.2318 125.595 16.4181C126.224 17.6044 126.539 18.9964 126.539 20.5943C126.539 22.6764 126.018 24.2742 124.977 25.3879C123.96 26.5016 122.471 27.0584 120.51 27.0584Z" fill="#4F46E5"/>
<path d="M134.64 27.0584C132.703 27.0584 131.226 26.5137 130.209 25.4242C129.192 24.3106 128.684 22.7248 128.684 20.6669V1.27466H132.679V20.9575C132.679 21.829 132.848 22.4585 133.187 22.8459C133.55 23.2332 134.059 23.4269 134.712 23.4269C135.366 23.4269 135.862 23.2332 136.201 22.8459C136.564 22.4585 136.746 21.829 136.746 20.9575V1.27466H140.595V20.6669C140.595 22.7248 140.087 24.3106 139.07 25.4242C138.053 26.5137 136.576 27.0584 134.64 27.0584Z" fill="#4F46E5"/>
<path d="M143.441 1.27466H149.143L151.685 19.4685H151.757L154.3 1.27466H160.001V26.6953H156.224V7.44824H156.152L153.246 26.6953H149.905L147 7.44824H146.928V26.6953H143.441V1.27466Z" fill="#4F46E5"/>
<path d="M0 26.6953C4.91448 26.6953 8.89841 22.7113 8.89841 17.7969C8.89841 12.8824 4.91448 8.89844 0 8.89844V15.1273C1.47433 15.1273 2.66951 16.3225 2.66951 17.7969C2.66951 19.2712 1.47433 20.4664 0 20.4664V26.6953Z" fill="#726BEA"/>
<path d="M29.6614 11.8646C28.1408 11.3829 26.5215 11.123 24.8414 11.123C16.0363 11.123 8.89844 18.261 8.89844 27.066C8.89844 27.9498 8.97036 28.8168 9.10862 29.6614H19.0145C18.6609 28.8686 18.4643 27.9903 18.4643 27.066C18.4643 23.544 21.3194 20.6888 24.8414 20.6888C26.7664 20.6888 28.4921 21.5417 29.6614 22.8902V11.8646Z" fill="#A5B4FC"/>
<path d="M1.56445 0C2.30219 6.67374 7.96024 11.8646 14.8306 11.8646C21.7009 11.8646 27.359 6.67374 28.0967 0H18.5512C17.9619 1.4773 16.5181 2.52121 14.8306 2.52121C13.143 2.52121 11.6993 1.4773 11.1099 0H1.56445Z" fill="#4F46E5"/>
</svg>
