<svg width="195" height="46" viewBox="0 0 195 46" fill="none" xmlns="http://www.w3.org/2000/svg">
<path d="M58.8516 33.35H72.5964V29.21H63.7368V13.616H58.8516V33.35Z" fill="#2F234F"/>
<path d="M80.7399 30.59C78.7803 30.59 77.7591 28.8788 77.7591 26.312C77.7591 23.7452 78.7803 22.0064 80.7399 22.0064C82.6995 22.0064 83.7483 23.7452 83.7483 26.312C83.7483 28.8788 82.6995 30.59 80.7399 30.59ZM80.7675 33.7916C85.3215 33.7916 88.3023 30.5624 88.3023 26.312C88.3023 22.0616 85.3215 18.8324 80.7675 18.8324C76.2411 18.8324 73.2051 22.0616 73.2051 26.312C73.2051 30.5624 76.2411 33.7916 80.7675 33.7916Z" fill="#2F234F"/>
<path d="M96.186 38.2351C98.2836 38.2351 100.133 37.7659 101.375 36.6619C102.506 35.6407 103.252 34.0951 103.252 31.9699V19.2187H98.946V20.7367H98.8908C98.0628 19.5499 96.7932 18.8047 94.9164 18.8047C91.4112 18.8047 88.9824 21.7303 88.9824 25.8703C88.9824 30.2035 91.9356 32.5771 95.1096 32.5771C96.8208 32.5771 97.8972 31.8871 98.7252 30.9487H98.8356V32.3563C98.8356 34.0675 98.0352 35.0611 96.1308 35.0611C94.6404 35.0611 93.8952 34.4263 93.6468 33.6811H89.286C89.7276 36.6343 92.2944 38.2351 96.186 38.2351ZM96.1584 29.2375C94.4748 29.2375 93.3708 27.8575 93.3708 25.7323C93.3708 23.5795 94.4748 22.1995 96.1584 22.1995C98.0352 22.1995 99.0288 23.8003 99.0288 25.7047C99.0288 27.6919 98.118 29.2375 96.1584 29.2375Z" fill="#2F234F"/>
<path d="M112.103 30.59C110.144 30.59 109.122 28.8788 109.122 26.312C109.122 23.7452 110.144 22.0064 112.103 22.0064C114.063 22.0064 115.111 23.7452 115.111 26.312C115.111 28.8788 114.063 30.59 112.103 30.59ZM112.131 33.7916C116.684 33.7916 119.665 30.5624 119.665 26.312C119.665 22.0616 116.684 18.8324 112.131 18.8324C107.604 18.8324 104.568 22.0616 104.568 26.312C104.568 30.5624 107.604 33.7916 112.131 33.7916Z" fill="#2F234F"/>
<path d="M120.98 33.35H125.479V19.2188H120.98V33.35ZM120.98 17.2592H125.479V13.616H120.98V17.2592Z" fill="#2F234F"/>
<path d="M127.432 38.0143H131.93V31.8871H131.986C132.869 33.0739 134.166 33.7915 135.988 33.7915C139.686 33.7915 142.142 30.8659 142.142 26.2843C142.142 22.0339 139.852 18.8047 136.098 18.8047C134.166 18.8047 132.786 19.6603 131.82 20.9299H131.737V19.2187H127.432V38.0143ZM134.828 30.3139C132.896 30.3139 131.792 28.7407 131.792 26.4499C131.792 24.1591 132.786 22.4203 134.746 22.4203C136.678 22.4203 137.588 24.0211 137.588 26.4499C137.588 28.8511 136.54 30.3139 134.828 30.3139Z" fill="#2F234F"/>
<path d="M149.466 33.7915C153.165 33.7915 155.897 32.1907 155.897 29.0995C155.897 25.4839 152.971 24.8491 150.487 24.4351C148.693 24.1039 147.093 23.9659 147.093 22.9723C147.093 22.0891 147.948 21.6751 149.052 21.6751C150.294 21.6751 151.15 22.0615 151.315 23.3311H155.455C155.235 20.5435 153.082 18.8047 149.08 18.8047C145.74 18.8047 142.98 20.3503 142.98 23.3311C142.98 26.6431 145.602 27.3055 148.059 27.7195C149.935 28.0507 151.647 28.1887 151.647 29.4583C151.647 30.3691 150.791 30.8659 149.439 30.8659C147.948 30.8659 147.01 30.1759 146.844 28.7683H142.594C142.732 31.8871 145.326 33.7915 149.466 33.7915Z" fill="#2F234F"/>
<path d="M162.009 33.764C163.969 33.764 165.211 32.9912 166.232 31.6112H166.315V33.35H170.62V19.2188H166.121V27.1124C166.121 28.796 165.183 29.9552 163.637 29.9552C162.202 29.9552 161.512 29.0996 161.512 27.554V19.2188H157.041V28.4924C157.041 31.6388 158.752 33.764 162.009 33.764Z" fill="#2F234F"/>
<path d="M172.576 33.3499H177.075V25.4287C177.075 23.7451 177.903 22.5583 179.311 22.5583C180.663 22.5583 181.298 23.4415 181.298 24.9595V33.3499H185.797V25.4287C185.797 23.7451 186.597 22.5583 188.032 22.5583C189.385 22.5583 190.019 23.4415 190.019 24.9595V33.3499H194.518V24.1591C194.518 20.9851 192.917 18.8047 189.716 18.8047C187.894 18.8047 186.376 19.5775 185.272 21.2887H185.217C184.499 19.7707 183.092 18.8047 181.243 18.8047C179.2 18.8047 177.848 19.7707 176.965 21.2335H176.882V19.2187H172.576V33.3499Z" fill="#2F234F"/>
<path fill-rule="evenodd" clip-rule="evenodd" d="M23 46C35.7026 46 46 35.7025 46 23C46 10.2974 35.7026 0 23 0C10.2974 0 0 10.2974 0 23C0 35.7025 10.2974 46 23 46ZM26.55 17.7704C28.5105 15.8098 28.5105 12.6311 26.55 10.6705C24.5894 8.70985 21.4107 8.70985 19.45 10.6705C17.4895 12.6311 17.4895 15.8098 19.45 17.7704L23 21.3204L26.55 17.7704ZM28.2296 26.55C30.1902 28.5106 33.3689 28.5106 35.3296 26.55C37.2901 24.5894 37.2901 21.4107 35.3296 19.45C33.3689 17.4895 30.1902 17.4895 28.2296 19.45L24.6796 23.0001L28.2296 26.55ZM26.55 35.3296C28.5105 33.3689 28.5105 30.1902 26.55 28.2296L23 24.6796L19.45 28.2296C17.4895 30.1902 17.4895 33.3689 19.45 35.3296C21.4107 37.2902 24.5894 37.2902 26.55 35.3296ZM10.6704 26.55C8.70986 24.5894 8.70986 21.4107 10.6704 19.45C12.6311 17.4895 15.8098 17.4895 17.7704 19.45L21.3204 23.0001L17.7704 26.55C15.8098 28.5106 12.6311 28.5106 10.6704 26.55Z" fill="#7F57F1"/>
</svg>
