<svg width="180" height="42" viewBox="0 0 180 42" fill="none" xmlns="http://www.w3.org/2000/svg">
<path d="M51.4883 30.4497H63.4086V27.0554H55.1232V11.2061H51.4883V30.4497Z" fill="white"/>
<path d="M70.572 30.8508C72.0153 30.8508 73.2848 30.53 74.3806 29.8885C75.4853 29.2382 76.3451 28.3428 76.9598 27.2025C77.5834 26.0532 77.8953 24.7302 77.8953 23.2335C77.8953 21.7457 77.5878 20.4316 76.9732 19.2912C76.3584 18.142 75.4987 17.2421 74.394 16.5918C73.2982 15.9414 72.0242 15.6162 70.572 15.6162C69.1465 15.6162 67.8858 15.937 66.7901 16.5784C65.6943 17.2199 64.8345 18.1152 64.2108 19.2645C63.5872 20.4048 63.2754 21.7278 63.2754 23.2335C63.2754 24.7213 63.5783 26.0399 64.1842 27.1891C64.7988 28.3295 65.6542 29.2248 66.7499 29.8752C67.8458 30.5256 69.1198 30.8508 70.572 30.8508ZM70.572 27.4564C69.4405 27.4564 68.5808 27.0778 67.9928 26.3205C67.4136 25.5544 67.1242 24.5254 67.1242 23.2335C67.1242 21.9773 67.4003 20.9617 67.9527 20.1865C68.5139 19.4026 69.387 19.0105 70.572 19.0105C71.7213 19.0105 72.5854 19.3937 73.1645 20.1599C73.7525 20.9261 74.0465 21.9505 74.0465 23.2335C74.0465 24.4719 73.757 25.4875 73.1778 26.2804C72.6077 27.0644 71.739 27.4564 70.572 27.4564Z" fill="white"/>
<path d="M85.0827 30.8508C85.7599 30.8508 86.3835 30.7705 86.9537 30.6102C87.5328 30.4499 88.0584 30.2227 88.5306 29.9287V31.3853C88.5485 31.9199 88.4103 32.3653 88.1163 32.7217C87.8312 33.087 87.4482 33.3587 86.9671 33.5369C86.486 33.724 85.9737 33.8175 85.4303 33.8175C84.9224 33.8175 84.4502 33.7061 84.0137 33.4834C83.5861 33.2607 83.2564 32.9355 83.0247 32.5079L79.6572 34.1382C80.2095 35.0737 80.9979 35.8265 82.0225 36.3967C83.0471 36.9757 84.1741 37.2653 85.4035 37.2653C86.4637 37.2653 87.4482 37.1227 88.3568 36.8377C89.2656 36.5615 90.0318 36.1384 90.6554 35.5681C91.2879 34.998 91.7201 34.2719 91.9517 33.3899C92.0318 33.078 92.0853 32.7618 92.1121 32.441C92.1477 32.1292 92.1655 31.7951 92.1655 31.4388V16.0171H88.985V16.819C88.4949 16.4358 87.9381 16.1418 87.3145 15.937C86.6997 15.7231 86.0183 15.6162 85.2698 15.6162C83.889 15.6162 82.6862 15.9459 81.6617 16.6051C80.6371 17.2644 79.8398 18.1687 79.2696 19.318C78.7083 20.4583 78.4277 21.7635 78.4277 23.2335C78.4277 24.6768 78.7039 25.973 79.2563 27.1223C79.8175 28.2715 80.597 29.1803 81.5948 29.8485C82.5927 30.5167 83.7553 30.8508 85.0827 30.8508ZM85.6707 27.6168C84.8868 27.6168 84.2454 27.4207 83.7464 27.0288C83.2475 26.6368 82.8777 26.1112 82.6373 25.4519C82.3967 24.7837 82.2764 24.0442 82.2764 23.2335C82.2764 22.4317 82.4011 21.7012 82.6506 21.0419C82.9001 20.3737 83.2831 19.8436 83.7998 19.4515C84.3255 19.0507 84.9937 18.8502 85.8044 18.8502C86.9448 18.8502 87.7599 19.2556 88.25 20.0663C88.74 20.8681 88.985 21.9239 88.985 23.2335C88.985 24.5431 88.7355 25.6033 88.2366 26.414C87.7466 27.2159 86.8914 27.6168 85.6707 27.6168Z" fill="white"/>
<path d="M100.8 30.8508C102.244 30.8508 103.513 30.53 104.609 29.8885C105.714 29.2382 106.574 28.3428 107.188 27.2025C107.812 26.0532 108.123 24.7302 108.123 23.2335C108.123 21.7457 107.817 20.4316 107.201 19.2912C106.587 18.142 105.727 17.2421 104.622 16.5918C103.527 15.9414 102.253 15.6162 100.8 15.6162C99.375 15.6162 98.1144 15.937 97.0186 16.5784C95.9228 17.2199 95.0631 18.1152 94.4394 19.2645C93.8158 20.4048 93.5039 21.7278 93.5039 23.2335C93.5039 24.7213 93.8068 26.0399 94.4127 27.1891C95.0274 28.3295 95.8827 29.2248 96.9785 29.8752C98.0744 30.5256 99.3483 30.8508 100.8 30.8508ZM100.8 27.4564C99.669 27.4564 98.8092 27.0778 98.2212 26.3205C97.6422 25.5544 97.3527 24.5254 97.3527 23.2335C97.3527 21.9773 97.6288 20.9617 98.1812 20.1865C98.7425 19.4026 99.6155 19.0105 100.8 19.0105C101.95 19.0105 102.814 19.3937 103.393 20.1599C103.981 20.9261 104.275 21.9505 104.275 23.2335C104.275 24.4719 103.985 25.4875 103.406 26.2804C102.836 27.0644 101.968 27.4564 100.8 27.4564Z" fill="white"/>
<path d="M109.725 14.0129H113.36V10.8057H109.725V14.0129ZM109.725 30.4502H113.36V16.0174H109.725V30.4502Z" fill="white"/>
<path d="M115.736 36.8644H119.398V29.9287C119.87 30.2227 120.391 30.4499 120.961 30.6102C121.541 30.7705 122.169 30.8508 122.846 30.8508C124.173 30.8508 125.336 30.5167 126.334 29.8485C127.331 29.1803 128.106 28.2715 128.659 27.1223C129.22 25.973 129.501 24.6768 129.501 23.2335C129.501 21.7635 129.216 20.4583 128.646 19.318C128.084 18.1687 127.292 17.2644 126.267 16.6051C125.242 15.9459 124.04 15.6162 122.659 15.6162C121.91 15.6162 121.225 15.7231 120.601 15.937C119.986 16.1418 119.433 16.4358 118.944 16.819V16.0171H115.736V36.8644ZM122.258 27.6168C121.046 27.6168 120.191 27.2159 119.692 26.414C119.193 25.6033 118.944 24.5431 118.944 23.2335C118.944 21.9239 119.189 20.8681 119.679 20.0663C120.178 19.2556 120.993 18.8502 122.125 18.8502C122.935 18.8502 123.599 19.0507 124.115 19.4515C124.641 19.8436 125.029 20.3737 125.278 21.0419C125.528 21.7012 125.653 22.4317 125.653 23.2335C125.653 24.0442 125.532 24.7837 125.291 25.4519C125.051 26.1112 124.681 26.6368 124.183 27.0288C123.684 27.4207 123.042 27.6168 122.258 27.6168Z" fill="white"/>
<path d="M136.086 30.8508C137.974 30.8508 139.454 30.4276 140.523 29.5812C141.591 28.7348 142.126 27.5722 142.126 26.0933C142.126 24.9708 141.778 24.0844 141.084 23.434C140.398 22.7836 139.231 22.2445 137.583 21.817C136.46 21.5318 135.622 21.3002 135.07 21.122C134.527 20.9439 134.166 20.7701 133.987 20.6009C133.818 20.4316 133.734 20.2222 133.734 19.9728C133.734 19.554 133.934 19.2334 134.335 19.0105C134.745 18.7878 135.284 18.6988 135.952 18.7433C137.368 18.8502 138.144 19.4561 138.278 20.5608L141.993 19.8925C141.806 18.583 141.164 17.5451 140.068 16.7789C138.973 16.0038 137.574 15.6162 135.872 15.6162C134.126 15.6162 132.732 16.026 131.689 16.8457C130.647 17.6653 130.125 18.77 130.125 20.1599C130.125 21.2646 130.487 22.1377 131.208 22.7791C131.929 23.4117 133.173 23.9551 134.937 24.4095C135.979 24.6857 136.745 24.9084 137.235 25.0777C137.734 25.2469 138.055 25.4207 138.197 25.5989C138.34 25.7681 138.411 25.9954 138.411 26.2804C138.411 26.7348 138.232 27.0911 137.877 27.3495C137.521 27.5989 137.012 27.7237 136.353 27.7237C135.551 27.7237 134.887 27.5321 134.362 27.149C133.846 26.766 133.511 26.2359 133.359 25.5588L129.645 26.12C129.885 27.6257 130.562 28.7928 131.676 29.6213C132.799 30.441 134.269 30.8508 136.086 30.8508Z" fill="white"/>
<path d="M148.831 30.8775C149.874 30.8775 150.782 30.7038 151.558 30.3563C152.333 30.0089 152.983 29.5456 153.509 28.9665V30.4499H156.715V16.0171H153.054V23.3404C153.054 24.2313 152.951 24.9529 152.746 25.5053C152.551 26.0488 152.297 26.463 151.985 26.7481C151.673 27.0243 151.339 27.2113 150.982 27.3094C150.626 27.4074 150.293 27.4564 149.981 27.4564C149.206 27.4564 148.604 27.2826 148.177 26.9352C147.758 26.5878 147.454 26.1557 147.268 25.639C147.081 25.1222 146.969 24.61 146.934 24.1021C146.898 23.5854 146.88 23.1622 146.88 22.8325V16.0171H143.191V24.1155C143.191 24.356 143.209 24.7391 143.245 25.2648C143.281 25.7904 143.384 26.374 143.553 27.0154C143.722 27.6479 144.002 28.2582 144.395 28.8462C144.796 29.4342 145.352 29.9197 146.065 30.3029C146.777 30.6859 147.7 30.8775 148.831 30.8775Z" fill="white"/>
<path d="M158.82 30.4501H162.482V21.7103C162.482 20.8818 162.708 20.2092 163.163 19.6924C163.626 19.1667 164.236 18.9039 164.994 18.9039C165.787 18.9039 166.407 19.1713 166.852 19.7058C167.305 20.2314 167.533 20.9708 167.533 21.9241V30.4501H171.168V21.7103C171.168 20.8818 171.395 20.2092 171.85 19.6924C172.313 19.1667 172.923 18.9039 173.68 18.9039C174.474 18.9039 175.092 19.1713 175.537 19.7058C175.992 20.2314 176.22 20.9708 176.22 21.9241V30.4501H179.854V20.9619C179.854 19.385 179.431 18.1111 178.584 17.1399C177.748 16.16 176.504 15.6699 174.856 15.6699C173.93 15.6699 173.079 15.8704 172.303 16.2713C171.528 16.6723 170.91 17.2201 170.446 17.915C170.072 17.238 169.538 16.6945 168.843 16.2847C168.147 15.8749 167.283 15.6699 166.25 15.6699C165.377 15.6699 164.575 15.8437 163.845 16.1911C163.114 16.5297 162.508 16.9974 162.027 17.5943V16.0174H158.82V30.4501Z" fill="white"/>
<path d="M21 0C9.40201 0 0 9.40201 0 21C11.598 21 21 11.598 21 0Z" fill="#45D2B0"/>
<path d="M21 42C32.598 42 42 32.598 42 21C30.402 21 21 30.402 21 42Z" fill="#45D2B0"/>
<path d="M21 0C32.598 0 42 9.40201 42 21C30.402 21 21 11.598 21 0Z" fill="#23216E"/>
<path d="M21 42C9.40201 42 -1.01393e-06 32.598 0 21C11.598 21 21 30.402 21 42Z" fill="#23216E"/>
</svg>
