<svg width="88" height="88" viewBox="0 0 88 88" fill="none" xmlns="http://www.w3.org/2000/svg">
<rect width="88" height="88" rx="24" fill="#111827"/>
<path d="M64.1087 24.3796C64.8642 25.1359 65.4342 26.0507 65.7755 27.0548C66.1168 28.059 66.2205 29.1261 66.0787 30.1753C65.937 31.2245 65.5534 32.2284 64.9572 33.1108C64.3609 33.9933 63.5676 34.7312 62.6373 35.2686C55.9308 39.133 48.105 40.7055 40.3881 39.7393C34.703 39.0276 29.3141 36.9677 24.6714 33.7763C21.922 31.8863 21.9242 28.0056 24.2829 25.6459L25.7268 24.2014C28.0529 21.8743 31.7991 21.9488 34.6976 23.506C36.9793 24.7318 39.4881 25.5412 42.1025 25.8756C46.7111 26.465 51.3892 25.5452 55.4092 23.2592C56.7776 22.4689 58.3761 22.1489 59.9511 22.3498C61.5262 22.5508 62.9878 23.2612 64.1042 24.3685L64.1087 24.3796Z" fill="#3B82F6"/>
<path d="M64.1488 24.1771C62.8285 22.9169 61.0382 22.209 59.1714 22.209C57.3047 22.209 55.5144 22.9169 54.194 24.1771L24.3139 52.7111C22.9942 53.972 22.2529 55.6817 22.2529 57.4643C22.2529 59.247 22.9942 60.9566 24.3139 62.2175C24.9673 62.842 25.7433 63.3374 26.5973 63.6754C27.4514 64.0134 28.3668 64.1874 29.2913 64.1874C30.2158 64.1874 31.1312 64.0134 31.9853 63.6754C32.8393 63.3374 33.6152 62.842 34.2687 62.2175L64.1488 33.6834C64.8028 33.0594 65.3216 32.3184 65.6755 31.5029C66.0295 30.6873 66.2117 29.8131 66.2117 28.9303C66.2117 28.0474 66.0295 27.1732 65.6755 26.3577C65.3216 25.5421 64.8028 24.8011 64.1488 24.1771Z" fill="url(#paint0_linear_951_2198)"/>
<path d="M23.8928 52.3656C23.1372 53.1215 22.5671 54.036 22.2256 55.0399C21.8841 56.0438 21.7802 57.1107 21.9218 58.1597C22.0633 59.2088 22.4467 60.2125 23.0427 61.0949C23.6387 61.9772 24.4319 62.715 25.362 63.2524C32.0689 67.1161 39.8946 68.6884 47.6117 67.7227C53.2961 67.0114 58.6846 64.9526 63.3276 61.7625C66.0781 59.8727 66.0761 55.9909 63.7166 53.631L62.2702 52.1842C59.9439 49.8576 56.1982 49.9323 53.3 51.4895C51.0181 52.7154 48.5091 53.525 45.8945 53.8594C41.2859 54.4488 36.6078 53.529 32.5878 51.243C31.2178 50.4547 29.6186 50.1371 28.0435 50.3405C26.4685 50.5438 25.0078 51.2565 23.8928 52.3656Z" fill="url(#paint1_linear_951_2198)"/>
<defs>
<linearGradient id="paint0_linear_951_2198" x1="65.7574" y1="26.286" x2="36.397" y2="51.5767" gradientUnits="userSpaceOnUse">
<stop stop-color="#2563EB"/>
<stop offset="0.15" stop-color="#2563EB"/>
<stop offset="0.57" stop-color="#3B82F6" stop-opacity="0.8"/>
<stop offset="0.87" stop-color="#3B82F6" stop-opacity="0.12"/>
<stop offset="1" stop-color="#3B82F6" stop-opacity="0"/>
</linearGradient>
<linearGradient id="paint1_linear_951_2198" x1="22.4304" y1="57.7902" x2="67.7071" y2="58.1274" gradientUnits="userSpaceOnUse">
<stop stop-color="#3B82F6"/>
<stop offset="0.67" stop-color="#2563EB"/>
<stop offset="1" stop-color="#1D4ED8"/>
</linearGradient>
</defs>
</svg>
