<svg width="99" height="32" viewBox="0 0 99 32" fill="none" xmlns="http://www.w3.org/2000/svg">
<path d="M29.4058 2.91972C29.9095 3.4239 30.2895 4.0338 30.517 4.70323C30.7445 5.37265 30.8137 6.08405 30.7192 6.78354C30.6246 7.48303 30.3689 8.15227 29.9714 8.74056C29.5739 9.32886 29.0451 9.82079 28.4248 10.1791C23.9539 12.7553 18.7367 13.8036 13.592 13.1595C9.802 12.685 6.20942 11.3118 3.1143 9.18419C1.28137 7.9242 1.28282 5.33704 2.85526 3.76394L3.81787 2.80093C5.36863 1.24952 7.86605 1.29921 9.79841 2.33733C11.3196 3.15452 12.9921 3.69413 14.735 3.91704C17.8074 4.30999 20.9261 3.69677 23.6061 2.17278C24.5184 1.64593 25.5841 1.43257 26.6341 1.56654C27.6841 1.7005 28.6585 2.17412 29.4028 2.91233L29.4058 2.91972Z" fill="#3B82F6"/>
<path d="M29.4335 2.78497C28.5533 1.94484 27.3598 1.4729 26.1153 1.4729C24.8708 1.4729 23.6772 1.94484 22.797 2.78497L2.8769 21.8077C1.99714 22.6482 1.50293 23.788 1.50293 24.9765C1.50293 26.1649 1.99714 27.3047 2.8769 28.1452C3.31254 28.5616 3.82983 28.8918 4.39919 29.1172C4.96856 29.3425 5.57884 29.4585 6.19517 29.4585C6.81149 29.4585 7.42178 29.3425 7.99115 29.1172C8.56051 28.8918 9.0778 28.5616 9.51344 28.1452L29.4335 9.12254C29.8695 8.70652 30.2154 8.21254 30.4513 7.66882C30.6873 7.12511 30.8087 6.54232 30.8087 5.95376C30.8087 5.3652 30.6873 4.7824 30.4513 4.23869C30.2154 3.69497 29.8695 3.20099 29.4335 2.78497Z" fill="url(#paint0_linear_130_2162)"/>
<path d="M2.59423 21.5771C2.09051 22.081 1.71042 22.6907 1.48276 23.3599C1.25509 24.0292 1.18583 24.7405 1.28021 25.4398C1.37459 26.1392 1.63014 26.8083 2.02749 27.3966C2.42485 27.9848 2.95359 28.4767 3.57366 28.835C8.04493 31.4107 13.2621 32.4589 18.4068 31.8151C22.1964 31.3409 25.7888 29.9684 28.8841 27.8417C30.7177 26.5818 30.7165 23.9939 29.1435 22.4207L28.1791 21.4561C26.6283 19.905 24.1312 19.9549 22.199 20.993C20.6777 21.8103 19.0051 22.35 17.262 22.5729C14.1896 22.9659 11.0709 22.3526 8.39087 20.8287C7.47754 20.3032 6.41139 20.0914 5.36138 20.227C4.31137 20.3626 3.33754 20.8377 2.59423 21.5771Z" fill="url(#paint1_linear_130_2162)"/>
<path d="M48.8677 21.291V18.582H44L48.8677 13.418V10.709H40V13.418H44.7407L40 18.582V21.291H48.8677Z" fill="black"/>
<path d="M53.6341 21.5661C55.2214 21.5661 56.6182 20.8677 56.9568 19.8942L57.1685 21.291H60.0468V15.1111C60.0468 12.0847 58.3113 10.3704 55.2426 10.3704C52.2161 10.3704 50.2479 11.9365 50.2479 14.3281H52.9568C52.9568 13.3757 53.6976 12.8466 55.0732 12.8466C56.2373 12.8466 56.8722 13.3968 56.8722 14.4339V14.6032L53.9092 14.836C51.3695 15.0265 49.9939 16.2328 49.9939 18.1799C49.9939 20.254 51.3907 21.5661 53.6341 21.5661ZM54.777 19.1535C53.7822 19.1535 53.3166 18.7937 53.3166 18.0318C53.3166 17.3545 53.8246 17.037 55.2426 16.9101L56.8934 16.7619V17.3333C56.8934 18.5397 56.0256 19.1535 54.777 19.1535Z" fill="black"/>
<path d="M65.2204 21.291V15.4921C65.2204 14.1799 66.0458 13.3333 67.3368 13.3333C68.4585 13.3333 69.1992 14.2011 69.1992 15.5344V21.291H72.4585V14.7513C72.4585 11.9788 70.9982 10.3704 68.4797 10.3704C67.104 10.3704 65.8977 10.8995 65.2416 11.8095L65.0299 10.709H61.9611V21.291H65.2204Z" fill="black"/>
<path d="M81.6531 10.709C81.2087 10.6032 80.7854 10.5609 80.4044 10.5609C78.9864 10.5609 78.0552 11.2593 77.6108 12.2963L77.4415 10.7302H74.3727V21.291H77.6319V16.6984C77.6319 14.6032 78.7536 13.7778 80.6161 13.7778H81.6531V10.709Z" fill="black"/>
<path d="M86.1372 21.291V5.33334H82.878V21.291H86.1372Z" fill="black"/>
<path d="M87.3125 26.3704C87.9474 26.5609 88.6882 26.6667 89.4712 26.6667C91.3337 26.6667 92.5188 25.7566 93.4077 23.5979L98.7834 10.709H95.3972L92.8363 17.5027L90.5294 10.709H87.0374L91.2913 21.6508L91.1009 22.1587C90.6776 23.3016 90.212 23.6402 89.1114 23.6402H87.3125V26.3704Z" fill="black"/>
<defs>
<linearGradient id="paint0_linear_130_2162" x1="30.5059" y1="4.19094" x2="10.9323" y2="21.0514" gradientUnits="userSpaceOnUse">
<stop stop-color="#2563EB"/>
<stop offset="0.15" stop-color="#2563EB"/>
<stop offset="0.57" stop-color="#3B82F6" stop-opacity="0.8"/>
<stop offset="0.87" stop-color="#3B82F6" stop-opacity="0.12"/>
<stop offset="1" stop-color="#3B82F6" stop-opacity="0"/>
</linearGradient>
<linearGradient id="paint1_linear_130_2162" x1="1.61931" y1="25.1934" x2="31.8038" y2="25.4183" gradientUnits="userSpaceOnUse">
<stop stop-color="#3B82F6"/>
<stop offset="0.67" stop-color="#2563EB"/>
<stop offset="1" stop-color="#1D4ED8"/>
</linearGradient>
</defs>
</svg>
