<svg width="62" height="20" viewBox="0 0 62 20" fill="none" xmlns="http://www.w3.org/2000/svg">
<path d="M18.3786 1.82483C18.6934 2.13994 18.9309 2.52113 19.0731 2.93952C19.2153 3.35791 19.2586 3.80253 19.1995 4.23971C19.1404 4.67689 18.9806 5.09517 18.7321 5.46285C18.4837 5.83054 18.1532 6.13799 17.7655 6.36193C14.9712 7.97207 11.7104 8.62727 8.49503 8.22472C6.12625 7.92816 3.88089 7.06989 1.94644 5.74012C0.800854 4.95263 0.801764 3.33565 1.78454 2.35246L2.38617 1.75058C3.35539 0.78095 4.91628 0.812004 6.12401 1.46083C7.07472 1.97158 8.12006 2.30883 9.20936 2.44815C11.1296 2.69374 13.0788 2.31048 14.7538 1.35799C15.324 1.0287 15.99 0.895357 16.6463 0.979086C17.3026 1.06281 17.9116 1.35883 18.3767 1.8202L18.3786 1.82483Z" fill="#3B82F6"/>
<path d="M18.3961 1.74046C17.8459 1.21538 17.1 0.92041 16.3222 0.92041C15.5444 0.92041 14.7984 1.21538 14.2482 1.74046L1.79818 13.6296C1.24833 14.155 0.939453 14.8674 0.939453 15.6101C0.939453 16.3529 1.24833 17.0653 1.79818 17.5906C2.07046 17.8508 2.39376 18.0572 2.74962 18.1981C3.10547 18.3389 3.4869 18.4114 3.8721 18.4114C4.25731 18.4114 4.63873 18.3389 4.99459 18.1981C5.35044 18.0572 5.67374 17.8508 5.94602 17.5906L18.3961 5.70143C18.6686 5.44142 18.8847 5.13268 19.0322 4.79286C19.1797 4.45304 19.2556 4.08879 19.2556 3.72094C19.2556 3.35309 19.1797 2.98885 19.0322 2.64903C18.8847 2.3092 18.6686 2.00047 18.3961 1.74046Z" fill="url(#paint0_linear_129_1758)"/>
<path d="M1.62127 13.4857C1.30645 13.8006 1.06889 14.1817 0.926601 14.6C0.784312 15.0182 0.741021 15.4628 0.800008 15.8999C0.858995 16.337 1.01871 16.7552 1.26706 17.1229C1.51541 17.4905 1.84587 17.7979 2.23342 18.0218C5.02796 19.6317 8.2887 20.2868 11.5041 19.8845C13.8726 19.5881 16.1179 18.7302 18.0524 17.4011C19.1985 16.6136 19.1977 14.9962 18.2145 14.0129L17.6118 13.4101C16.6426 12.4407 15.0819 12.4718 13.8742 13.1206C12.9235 13.6314 11.878 13.9687 10.7886 14.1081C8.8684 14.3537 6.91917 13.9704 5.24417 13.0179C4.67334 12.6895 4.007 12.5571 3.35074 12.6419C2.69448 12.7266 2.08584 13.0236 1.62127 13.4857Z" fill="url(#paint1_linear_129_1758)"/>
<path d="M30.5423 13.307V11.6139H27.5L30.5423 8.38641V6.69328H25V8.38641H27.963L25 11.6139V13.307H30.5423Z" fill="white"/>
<path d="M33.5213 13.479C34.5134 13.479 35.3864 13.0425 35.598 12.434L35.7303 13.307H37.5292V9.44461C37.5292 7.55307 36.4446 6.48164 34.5266 6.48164C32.6351 6.48164 31.4049 7.46048 31.4049 8.95519H33.098C33.098 8.35995 33.561 8.02926 34.4208 8.02926C35.1483 8.02926 35.5451 8.37318 35.5451 9.02133V9.12715L33.6933 9.27265C32.106 9.3917 31.2462 10.1457 31.2462 11.3626C31.2462 12.6589 32.1192 13.479 33.5213 13.479ZM34.2356 11.9711C33.6139 11.9711 33.3229 11.7462 33.3229 11.27C33.3229 10.8467 33.6404 10.6483 34.5266 10.5689L35.5583 10.4764V10.8335C35.5583 11.5875 35.016 11.9711 34.2356 11.9711Z" fill="white"/>
<path d="M40.7628 13.307V9.6827C40.7628 8.8626 41.2786 8.3335 42.0855 8.3335C42.7866 8.3335 43.2495 8.87582 43.2495 9.70916V13.307H45.2866V9.21974C45.2866 7.48694 44.3739 6.48164 42.7998 6.48164C41.94 6.48164 41.186 6.81233 40.776 7.38112L40.6437 6.69328H38.7257V13.307H40.7628Z" fill="white"/>
<path d="M51.0332 6.69328C50.7554 6.62715 50.4909 6.60069 50.2528 6.60069C49.3665 6.60069 48.7845 7.0372 48.5067 7.68535L48.4009 6.70651H46.4829V13.307H48.52V10.4367C48.52 9.12715 49.221 8.61127 50.385 8.61127H51.0332V6.69328Z" fill="white"/>
<path d="M53.8358 13.307V3.3335H51.7987V13.307H53.8358Z" fill="white"/>
<path d="M54.5703 16.4816C54.9671 16.6007 55.4301 16.6668 55.9195 16.6668C57.0835 16.6668 57.8243 16.098 58.3798 14.7488L61.7396 6.69328H59.6232L58.0227 10.9393L56.5809 6.69328H54.3984L57.0571 13.5319L56.938 13.8494C56.6735 14.5637 56.3825 14.7753 55.6947 14.7753H54.5703V16.4816Z" fill="white"/>
<defs>
<linearGradient id="paint0_linear_129_1758" x1="19.0663" y1="2.61918" x2="6.83283" y2="13.1569" gradientUnits="userSpaceOnUse">
<stop stop-color="#2563EB"/>
<stop offset="0.15" stop-color="#2563EB"/>
<stop offset="0.57" stop-color="#3B82F6" stop-opacity="0.8"/>
<stop offset="0.87" stop-color="#3B82F6" stop-opacity="0.12"/>
<stop offset="1" stop-color="#3B82F6" stop-opacity="0"/>
</linearGradient>
<linearGradient id="paint1_linear_129_1758" x1="1.01195" y1="15.7459" x2="19.8772" y2="15.8864" gradientUnits="userSpaceOnUse">
<stop stop-color="#3B82F6"/>
<stop offset="0.67" stop-color="#2563EB"/>
<stop offset="1" stop-color="#1D4ED8"/>
</linearGradient>
</defs>
</svg>
