<svg width="174" height="56" viewBox="0 0 174 56" fill="none" xmlns="http://www.w3.org/2000/svg">
<rect width="173.508" height="56" rx="28" fill="black"/>
<path d="M67.4082 40.8544L65.8224 36.7795H59.3556L57.8109 40.8544H55.6484L61.4563 26.263H63.7835L69.5913 40.8544H67.4082ZM62.5684 28.3622L60.0764 34.9067H65.1016L62.5684 28.3622ZM73.2651 44.7646H71.3497V30.9553H73.2239V32.4988C73.5122 31.9775 73.9447 31.5521 74.5214 31.2229C75.0981 30.8936 75.7708 30.7289 76.5397 30.7289C77.9676 30.7289 79.0798 31.216 79.8761 32.1901C80.6862 33.1643 81.0912 34.3991 81.0912 35.8946C81.0912 37.4038 80.6725 38.6523 79.8349 39.6401C79.0111 40.628 77.8921 41.1219 76.4779 41.1219C75.7502 41.1219 75.1049 40.971 74.542 40.6691C73.9791 40.3673 73.5534 39.9831 73.2651 39.5167V44.7646ZM79.1141 35.8946C79.1141 34.893 78.8464 34.0698 78.3109 33.4249C77.7891 32.7664 77.082 32.4371 76.1896 32.4371C75.3109 32.4371 74.5969 32.7664 74.0477 33.4249C73.5122 34.0698 73.2445 34.893 73.2445 35.8946C73.2445 36.9236 73.5122 37.7673 74.0477 38.4259C74.5969 39.0708 75.3109 39.3932 76.1896 39.3932C77.0683 39.3932 77.7754 39.0708 78.3109 38.4259C78.8464 37.7673 79.1141 36.9236 79.1141 35.8946ZM85.4734 44.7646H83.558V30.9553H85.4322V32.4988C85.7205 31.9775 86.153 31.5521 86.7297 31.2229C87.3063 30.8936 87.9791 30.7289 88.748 30.7289C90.1759 30.7289 91.288 31.216 92.0844 32.1901C92.8945 33.1643 93.2995 34.3991 93.2995 35.8946C93.2995 37.4038 92.8807 38.6523 92.0432 39.6401C91.2194 40.628 90.1004 41.1219 88.6862 41.1219C87.9585 41.1219 87.3132 40.971 86.7503 40.6691C86.1873 40.3673 85.7617 39.9831 85.4734 39.5167V44.7646ZM91.3224 35.8946C91.3224 34.893 91.0546 34.0698 90.5192 33.4249C89.9974 32.7664 89.2903 32.4371 88.3979 32.4371C87.5192 32.4371 86.8052 32.7664 86.256 33.4249C85.7205 34.0698 85.4528 34.893 85.4528 35.8946C85.4528 36.9236 85.7205 37.7673 86.256 38.4259C86.8052 39.0708 87.5192 39.3932 88.3979 39.3932C89.2766 39.3932 89.9837 39.0708 90.5192 38.4259C91.0546 37.7673 91.3224 36.9236 91.3224 35.8946ZM110.43 29.5765L108.618 30.2144C108.522 29.5833 108.213 29.0139 107.691 28.5063C107.17 27.9849 106.449 27.7242 105.529 27.7242C104.719 27.7242 104.046 27.9575 103.51 28.424C102.974 28.8904 102.707 29.4667 102.707 30.1527C102.707 30.6878 102.865 31.1405 103.18 31.511C103.51 31.8814 103.977 32.1352 104.581 32.2724L106.764 32.7458C107.973 33.0065 108.906 33.5004 109.565 34.2276C110.224 34.941 110.554 35.8122 110.554 36.8412C110.554 38.0212 110.087 39.0365 109.154 39.8871C108.22 40.7377 107.005 41.1631 105.508 41.1631C103.874 41.1631 102.59 40.7377 101.656 39.8871C100.736 39.0227 100.201 38.0006 100.05 36.8207L101.986 36.2033C102.068 37.0813 102.412 37.8222 103.016 38.4259C103.62 39.0296 104.444 39.3314 105.488 39.3314C106.449 39.3314 107.19 39.1119 107.712 38.6729C108.234 38.2338 108.494 37.6782 108.494 37.0059C108.494 36.4571 108.309 35.9837 107.938 35.5859C107.568 35.1742 107.025 34.893 106.311 34.7421L104.231 34.2893C103.146 34.0561 102.281 33.5964 101.636 32.9104C100.99 32.2244 100.668 31.3532 100.668 30.2968C100.668 29.1443 101.135 28.1358 102.068 27.2715C103.016 26.3934 104.156 25.9543 105.488 25.9543C106.984 25.9543 108.131 26.3179 108.927 27.0451C109.723 27.7723 110.224 28.616 110.43 29.5765ZM115.517 27.8271V30.9553H117.659V32.7046H115.517V37.8497C115.517 38.3161 115.62 38.6592 115.826 38.8787C116.046 39.0982 116.403 39.208 116.897 39.208C117.186 39.208 117.44 39.1805 117.659 39.1256V40.772C117.33 40.8955 116.89 40.9573 116.341 40.9573C115.49 40.9573 114.817 40.7103 114.323 40.2164C113.829 39.7225 113.581 39.0296 113.581 38.1378V32.7046H111.687V30.9553H112.222C112.73 30.9553 113.108 30.8181 113.355 30.5437C113.616 30.2556 113.746 29.8852 113.746 29.4324V27.8271H115.517ZM122.181 38.5082C122.786 39.1256 123.52 39.4343 124.385 39.4343C125.25 39.4343 125.978 39.1256 126.568 38.5082C127.172 37.8771 127.474 37.0059 127.474 35.8946C127.474 34.7969 127.172 33.9394 126.568 33.322C125.978 32.6909 125.25 32.3753 124.385 32.3753C123.52 32.3753 122.786 32.6909 122.181 33.322C121.591 33.9394 121.296 34.7969 121.296 35.8946C121.296 37.0059 121.591 37.8771 122.181 38.5082ZM120.74 32.149C121.701 31.1474 122.916 30.6466 124.385 30.6466C125.854 30.6466 127.062 31.1474 128.01 32.149C128.971 33.1368 129.451 34.3853 129.451 35.8946C129.451 37.4175 128.978 38.6797 128.03 39.6813C127.083 40.6691 125.868 41.1631 124.385 41.1631C122.902 41.1631 121.687 40.6691 120.74 39.6813C119.792 38.6797 119.319 37.4175 119.319 35.8946C119.319 34.3853 119.792 33.1368 120.74 32.149ZM137.428 30.8524V32.9104C137.139 32.8693 136.858 32.8487 136.583 32.8487C134.771 32.8487 133.865 33.864 133.865 35.8946V40.8544H131.929V30.9553H133.823V32.6841C134.428 31.4218 135.416 30.7907 136.789 30.7907C137.009 30.7907 137.222 30.8113 137.428 30.8524ZM140.646 34.8861H146.063C146.035 34.1452 145.788 33.5416 145.321 33.0751C144.855 32.5949 144.196 32.3548 143.344 32.3548C142.575 32.3548 141.944 32.6086 141.45 33.1162C140.955 33.6102 140.688 34.2001 140.646 34.8861ZM146.351 37.4586L148.019 38.0349C147.731 38.9541 147.196 39.7087 146.413 40.2987C145.63 40.8749 144.683 41.1631 143.571 41.1631C142.184 41.1631 141.003 40.6897 140.028 39.743C139.067 38.7826 138.587 37.4929 138.587 35.874C138.587 34.3648 139.054 33.1162 139.987 32.1284C140.921 31.1405 142.033 30.6466 143.324 30.6466C144.82 30.6466 145.987 31.12 146.825 32.0666C147.662 32.9996 148.081 34.255 148.081 35.8328C148.081 36.0798 148.067 36.2856 148.04 36.4502H140.585C140.598 37.3283 140.887 38.0486 141.45 38.6111C142.026 39.1737 142.733 39.4549 143.571 39.4549C144.985 39.4549 145.912 38.7895 146.351 37.4586Z" fill="white"/>
<path opacity="0.6" d="M57.1589 17.3105V13.759H58.0298C58.9399 13.759 59.6931 14.3313 59.6931 15.5387C59.6931 16.7461 58.932 17.3105 58.0219 17.3105H57.1589ZM58.0611 18.3141C59.646 18.3141 60.815 17.2949 60.815 15.5387C60.815 13.7825 59.6538 12.7555 58.069 12.7555H56.0762V18.3141H58.0611ZM63.5268 15.5309C63.5268 14.2764 64.4055 13.6806 65.2607 13.6806C66.1237 13.6806 67.0025 14.2764 67.0025 15.5309C67.0025 16.7853 66.1237 17.3811 65.2607 17.3811C64.4055 17.3811 63.5268 16.7853 63.5268 15.5309ZM62.4048 15.5387C62.4048 17.3262 63.7543 18.4317 65.2607 18.4317C66.7749 18.4317 68.1244 17.3262 68.1244 15.5387C68.1244 13.7433 66.7749 12.6379 65.2607 12.6379C63.7543 12.6379 62.4048 13.7433 62.4048 15.5387ZM75.0773 16.5971L73.8377 12.7555H72.7157L71.484 16.5814L70.464 12.7555H69.3185L70.8641 18.3141H71.9939L73.2649 14.3548L74.5359 18.3141H75.65L77.1878 12.7555H76.0816L75.0773 16.5971ZM83.6475 18.3141V12.7555H82.5648V16.4325L80.2503 12.7555H78.9008V18.3141H79.9835V14.3705L82.5099 18.3141H83.6475ZM89.4582 18.3141V17.2792H86.9789V12.7555H85.8962V18.3141H89.4582ZM91.8756 15.5309C91.8756 14.2764 92.7544 13.6806 93.6095 13.6806C94.4726 13.6806 95.3513 14.2764 95.3513 15.5309C95.3513 16.7853 94.4726 17.3811 93.6095 17.3811C92.7544 17.3811 91.8756 16.7853 91.8756 15.5309ZM90.7537 15.5387C90.7537 17.3262 92.1032 18.4317 93.6095 18.4317C95.1238 18.4317 96.4733 17.3262 96.4733 15.5387C96.4733 13.7433 95.1238 12.6379 93.6095 12.6379C92.1032 12.6379 90.7537 13.7433 90.7537 15.5387ZM101.898 18.3141H103.075L100.957 12.7555H99.7015L97.5674 18.3141H98.7129L99.1758 17.044H101.435L101.898 18.3141ZM100.306 13.955L101.074 16.0561H99.5367L100.306 13.955ZM105.85 17.3105V13.759H106.72C107.631 13.759 108.384 14.3313 108.384 15.5387C108.384 16.7461 107.623 17.3105 106.713 17.3105H105.85ZM106.752 18.3141C108.337 18.3141 109.506 17.2949 109.506 15.5387C109.506 13.7825 108.345 12.7555 106.76 12.7555H104.767V18.3141H106.752ZM115.137 15.5309C115.137 14.2764 116.016 13.6806 116.871 13.6806C117.734 13.6806 118.613 14.2764 118.613 15.5309C118.613 16.7853 117.734 17.3811 116.871 17.3811C116.016 17.3811 115.137 16.7853 115.137 15.5309ZM114.015 15.5387C114.015 17.3262 115.365 18.4317 116.871 18.4317C118.385 18.4317 119.735 17.3262 119.735 15.5387C119.735 13.7433 118.385 12.6379 116.871 12.6379C115.365 12.6379 114.015 13.7433 114.015 15.5387ZM126.401 18.3141V12.7555H125.318V16.4325L123.003 12.7555H121.654V18.3141H122.737V14.3705L125.263 18.3141H126.401ZM135.664 13.7825V12.7555H131.059V13.7825H132.816V18.3141H133.907V13.7825H135.664ZM142.005 18.3141V12.7555H140.914V14.9899H138.49V12.7555H137.407V18.3141H138.49V16.0091H140.914V18.3141H142.005ZM147.74 18.3141V17.2949H145.339V16.0091H147.513V15.0448H145.339V13.7747H147.74V12.7555H144.257V18.3141H147.74Z" fill="white"/>
<path d="M42.5684 34.9909C41.9316 36.4003 41.6275 37.0293 40.8075 38.2745C39.6649 40.0135 38.0528 42.1793 36.0552 42.1976C34.2808 42.2142 33.8247 41.0436 31.4158 41.0577C29.007 41.0719 28.5049 42.2185 26.7304 42.2019C24.7328 42.1842 23.2066 40.2284 22.0628 38.4883C18.8656 33.625 18.5316 27.9183 20.5034 24.8846C21.9047 22.7273 24.1162 21.4668 26.1948 21.4668C28.3112 21.4668 29.642 22.6263 31.3926 22.6263C33.0904 22.6263 34.1245 21.465 36.5719 21.465C38.4219 21.465 40.382 22.4713 41.779 24.2102C37.202 26.7159 37.9462 33.2446 42.5684 34.9909Z" fill="white"/>
<path d="M34.9724 18.4216C35.8618 17.2811 36.536 15.6721 36.2908 14.0263C34.8382 14.1256 33.1403 15.0492 32.1486 16.2528C31.2482 17.3449 30.5046 18.965 30.7939 20.5396C32.3784 20.5893 34.0193 19.6429 34.9724 18.4216Z" fill="white"/>
</svg>
