<svg width="544" height="272" viewBox="0 0 544 272" fill="none" xmlns="http://www.w3.org/2000/svg">
<g clip-path="url(#clip0_421_2547)">
<path d="M518.867 370.144C485.074 325.688 443.127 288.072 395.267 259.304C305.278 205.648 146.334 156.317 55.6936 229.202C27.9636 251.512 -5.03981 294.636 6.02552 329.034C23.0012 381.95 130.884 410.008 210.208 379.699C228.391 372.68 245.269 362.666 260.143 350.07" stroke="#F3F4F6" stroke-width="0.4" stroke-miterlimit="10"/>
<path d="M504.944 399.757C476.874 351.486 439.868 309.003 395.905 274.578C313.189 210.255 161.504 141.755 62.6124 202.966C32.3494 221.691 -5.67564 260.43 1.04947 295.925C11.4186 350.544 115.006 391.639 197.455 371.299C216.368 366.573 234.354 358.706 250.664 348.026" stroke="#F3F4F6" stroke-width="0.4" stroke-miterlimit="10"/>
<path d="M487.479 427.415C465.555 376.052 434.049 329.335 394.645 289.762C320.462 215.781 178.375 129.148 72.6696 177.738C40.3328 192.552 -2.16572 226.373 0.0858604 262.43C3.75949 317.939 101.525 371.462 185.811 361.403C205.162 359.029 223.978 353.431 241.479 344.841" stroke="#F3F4F6" stroke-width="0.4" stroke-miterlimit="10"/>
<path d="M466.739 452.762C451.294 399.098 425.771 348.867 391.533 304.754C326.993 222.21 196.609 118.763 85.763 154.006C51.8412 164.776 5.5061 193.071 3.38784 229.143C0.0993464 284.636 90.5624 349.759 175.485 350.144C194.977 350.179 214.335 346.939 232.753 340.56" stroke="#F3F4F6" stroke-width="0.4" stroke-miterlimit="10"/>
<path d="M443.054 475.339C434.314 420.204 415.155 367.239 386.602 319.272C332.697 229.351 216.015 110.675 101.673 132.022C66.6848 138.54 17.2389 160.939 10.6916 196.478C0.618742 251.142 82.3866 326.842 166.613 337.716C185.957 340.135 205.57 339.294 224.636 335.227" stroke="#F3F4F6" stroke-width="0.4" stroke-miterlimit="10"/>
<path d="M416.779 494.834C414.913 439.031 402.435 384.094 380.014 332.96C337.559 237.158 236.327 105.045 120.252 112.23C84.7012 114.408 32.8556 130.555 22.0273 165.013C5.24416 217.958 77.0725 303.199 159.3 324.279C178.199 329.062 197.767 330.639 217.189 328.946" stroke="#F3F4F6" stroke-width="0.4" stroke-miterlimit="10"/>
<path d="M388.306 510.966C393.279 455.343 387.618 399.281 371.626 345.774C341.274 245.483 257.062 101.934 140.958 94.7347C105.407 92.5422 52.0797 102.142 37 135.044C13.9065 185.604 74.7288 279.022 153.771 310.058C171.938 317.122 191.16 321.093 210.638 321.805" stroke="#F3F4F6" stroke-width="0.4" stroke-miterlimit="10"/>
<path d="M358.056 523.455C369.829 468.888 371.1 412.579 361.804 357.537C344.013 254.223 278.066 101.401 163.739 79.9947C128.751 73.4468 74.5498 76.4541 55.604 107.223C26.4668 154.628 75.3349 254.742 149.978 295.258C167.139 304.505 185.731 310.804 204.978 313.895" stroke="#F3F4F6" stroke-width="0.4" stroke-miterlimit="10"/>
<path d="M326.504 532.151C344.903 479.427 353.093 423.68 350.634 367.892C345.642 263.215 298.981 103.46 188.15 68.1582C154.243 57.3587 100.042 53.6848 77.497 81.8909C42.7753 125.281 78.9783 230.713 148.066 280.104C163.963 291.386 181.638 299.923 200.356 305.362" stroke="#F3F4F6" stroke-width="0.4" stroke-miterlimit="10"/>
<path d="M294.094 536.891C318.814 486.842 333.784 432.545 338.207 376.899C346.132 272.415 319.454 108.127 213.778 59.4771C181.456 44.589 128.158 34.2932 102.28 59.4771C62.5367 98.2456 85.5116 207.322 148.008 264.83C162.398 277.982 178.892 288.627 196.802 296.325" stroke="#F3F4F6" stroke-width="0.4" stroke-miterlimit="10"/>
<path d="M261.416 537.617C292.119 490.973 313.656 438.907 324.875 384.202C345.613 281.481 339.288 115.163 240.441 53.8477C210.178 35.0931 158.554 18.2939 129.773 40.1743C85.4818 73.8319 94.8733 184.923 149.83 249.646C162.493 264.471 177.555 277.065 194.387 286.903" stroke="#F3F4F6" stroke-width="0.4" stroke-miterlimit="10"/>
<path d="M228.917 534.328C265.12 491.813 292.891 442.788 310.744 389.876C343.91 290.473 358.145 124.704 267.505 51.6997C239.73 29.3748 190.551 6.36854 159.296 24.4714C111.227 52.396 106.902 163.724 153.489 234.832C164.233 251.099 177.633 265.446 193.128 277.274" stroke="#F3F4F6" stroke-width="0.4" stroke-miterlimit="10"/>
<path d="M196.949 527.055C238.108 489.304 271.696 444.055 295.915 393.728C341.035 299.169 375.505 136.333 294.552 52.8108C269.785 27.2565 223.805 -1.60139 190.579 12.6201C139.445 34.4265 121.462 144.466 158.968 220.625C167.622 238.086 179.137 253.974 193.038 267.63" stroke="#F3F4F6" stroke-width="0.4" stroke-miterlimit="10"/>
<path d="M166.185 515.914C211.66 483.512 250.546 442.743 280.764 395.787C337.172 307.421 391.388 150.125 321.322 57.2698C299.873 28.9156 257.804 -5.43829 223.082 4.54641C169.667 19.8938 138.293 126.852 166.156 207.085C172.627 225.483 182.141 242.664 194.301 257.912" stroke="#F3F4F6" stroke-width="0.4" stroke-miterlimit="10"/>
<path d="M137.078 501.085C186.195 474.506 229.797 438.809 265.551 395.905C332.388 315.213 405.534 165.709 347.393 64.9436C329.618 34.1154 292.067 -5.09747 256.367 0.546697C201.47 9.21294 157.209 111.519 174.999 194.611C179.144 213.664 186.454 231.886 196.626 248.52" stroke="#F3F4F6" stroke-width="0.4" stroke-miterlimit="10"/>
<path d="M109.895 482.775C161.899 462.436 209.557 432.381 250.322 394.217C326.55 322.339 417.516 182.982 372.203 75.8171C358.338 43.0335 325.898 -0.4903 289.784 0.768898C234.235 2.62066 177.738 98.7049 185.189 183.308C186.949 202.721 191.956 221.7 200.002 239.454" stroke="#F3F4F6" stroke-width="0.4" stroke-miterlimit="10"/>
<path d="M85.2324 461.265C139.34 447.48 190.326 423.513 235.466 390.646C319.96 328.679 427.413 201.53 395.55 89.6535C385.818 55.4181 358.977 8.17592 322.967 4.99089C267.61 0.0133508 199.722 88.4239 196.715 173.294C196.094 192.781 198.743 212.235 204.551 230.847" stroke="#F3F4F6" stroke-width="0.4" stroke-miterlimit="10"/>
<path d="M63.3789 436.896C118.776 429.866 172.327 412.344 221.167 385.269C312.638 334.16 434.815 221.173 417.04 106.23C411.589 71.047 390.747 20.9309 355.432 13.2868C301.113 1.53923 222.871 80.9428 209.465 164.805C206.446 184.065 206.682 203.695 210.161 222.877" stroke="#F3F4F6" stroke-width="0.4" stroke-miterlimit="10"/>
<path d="M44.7031 410.023C100.547 409.862 155.848 399.057 207.646 378.188C304.686 338.708 439.855 241.587 436.3 125.326C435.219 89.772 420.687 37.4338 386.573 25.5233C334.09 7.18344 246.693 76.3208 223.096 157.947C217.735 176.709 215.557 196.238 216.653 215.722" stroke="#F3F4F6" stroke-width="0.4" stroke-miterlimit="10"/>
<path d="M29.4727 381.062C84.9095 387.761 141.115 383.834 195.082 369.492C296.24 342.234 442.311 262.475 453.08 146.643C456.369 111.208 448.385 57.5069 416.048 41.4632C366.232 16.8274 270.984 74.7357 237.536 152.806C229.914 170.748 225.352 189.842 224.042 209.292" stroke="#F3F4F6" stroke-width="0.4" stroke-miterlimit="10"/>
<path d="M17.9062 350.456C72.1033 363.917 128.368 366.934 183.694 359.344C287.385 344.723 442.21 283.526 467.111 169.901C474.814 135.103 473.406 80.765 443.232 60.9437C396.823 30.397 295.191 76.143 252.396 149.488C242.629 166.362 235.76 184.754 232.073 203.9" stroke="#F3F4F6" stroke-width="0.4" stroke-miterlimit="10"/>
<path d="M10.2031 318.65C62.3348 338.661 117.8 348.56 173.635 347.819C278.393 346.056 439.499 304.339 478.191 194.641C490.041 161.072 495.374 107.045 467.822 83.6094C425.516 47.5519 319.025 80.4836 267.55 148.036C255.806 163.582 246.753 180.988 240.768 199.53" stroke="#F3F4F6" stroke-width="0.4" stroke-miterlimit="10"/>
<path d="M6.45508 286.133C55.728 312.405 109.556 329.047 165.058 335.167C269.238 346.308 434.255 324.694 486.13 220.58C502.01 188.715 513.949 135.77 489.537 109.119C452.001 68.1434 342.266 87.7424 282.866 148.451C269.276 162.449 258.13 178.628 249.892 196.315" stroke="#F3F4F6" stroke-width="0.4" stroke-miterlimit="10"/>
<path d="M6.7207 253.409C52.3931 285.532 103.767 308.659 158.095 321.553C260.127 345.404 426.536 344.249 490.81 247.29C510.482 217.662 528.85 166.539 507.889 137.103C475.671 91.8164 364.366 97.7864 297.959 150.717C282.758 162.922 269.71 177.589 259.357 194.108" stroke="#F3F4F6" stroke-width="0.4" stroke-miterlimit="10"/>
<path d="M11.0332 220.966C52.4151 258.457 100.555 287.727 152.883 307.213C251.212 343.419 416.554 362.722 492.219 274.4C515.372 247.379 539.873 198.937 522.705 167.146C496.278 118.26 385.092 110.482 312.686 154.865C296.099 165.11 281.344 178.058 269.032 193.174" stroke="#F3F4F6" stroke-width="0.4" stroke-miterlimit="10"/>
<path d="M19.2832 189.308C55.7456 231.597 99.9242 266.558 149.46 292.325C242.589 340.338 404.244 379.817 490.248 301.465C516.556 277.496 546.819 232.432 533.68 198.774C513.475 146.984 404.081 125.622 326.772 160.761C309.058 168.869 292.825 179.885 278.748 193.352" stroke="#F3F4F6" stroke-width="0.4" stroke-miterlimit="10"/>
<path d="M31.3574 158.88C62.347 205.338 101.901 245.469 147.906 277.126C234.414 336.234 390.025 395.268 484.976 328.086C514.04 307.524 549.606 266.519 540.703 231.498C527.016 177.634 421.073 142.984 340.016 168.361C321.436 174.236 303.971 183.185 288.348 194.833" stroke="#F3F4F6" stroke-width="0.4" stroke-miterlimit="10"/>
<path d="M47.0898 130.185C72.13 180.1 106.452 224.786 148.218 261.852C226.816 331.138 373.983 408.853 476.475 353.848C507.834 337.019 548.185 300.695 543.652 264.845C536.675 209.648 435.798 162.242 352.253 177.531C333.085 181.088 314.649 187.833 297.711 197.485" stroke="#F3F4F6" stroke-width="0.4" stroke-miterlimit="10"/>
<path d="M66.2285 103.638C84.948 156.235 113.518 204.782 150.411 246.683C219.899 325.198 356.401 420.363 464.876 378.38C498.072 365.522 542.571 334.442 542.467 298.31C542.334 242.728 448.034 183.279 363.23 188.123C343.771 189.294 324.648 193.726 306.659 201.233" stroke="#F3F4F6" stroke-width="0.4" stroke-miterlimit="10"/>
<path d="M88.4727 79.639C100.577 134.158 122.964 185.869 154.435 232.002C213.761 318.368 337.524 429.637 450.34 401.298C484.854 392.616 532.834 367.225 537.189 331.36C543.869 276.178 457.598 205.603 372.868 199.989C353.408 198.762 333.879 200.81 315.097 206.048" stroke="#F3F4F6" stroke-width="0.4" stroke-miterlimit="10"/>
<path d="M113.496 58.5438C118.82 114.135 134.686 168.203 160.246 217.855C208.507 310.858 317.664 436.496 433.102 422.289C468.431 417.919 519.165 398.587 527.905 363.566C541.326 309.628 464.372 228.98 380.975 212.996C361.816 209.394 342.189 209.024 322.908 211.899" stroke="#F3F4F6" stroke-width="0.4" stroke-miterlimit="10"/>
<path d="M140.93 40.767C139.387 96.5885 148.486 152.193 167.741 204.611C204.211 302.799 297.059 440.896 413.415 440.925C448.966 440.925 501.745 428.022 514.707 394.291C534.645 342.441 468.194 252.92 387.389 226.802C368.821 220.86 349.389 218.066 329.899 218.536" stroke="#F3F4F6" stroke-width="0.4" stroke-miterlimit="10"/>
<path d="M170.345 26.3826C161.942 81.5975 164.139 137.908 176.818 192.3C200.949 294.266 276.169 442.659 391.607 457.058C426.936 461.502 480.841 455.103 497.846 423.223C524.021 374.188 469.064 277.2 392.081 241.365C374.385 233.189 355.443 228.041 336.043 226.136" stroke="#F3F4F6" stroke-width="0.4" stroke-miterlimit="10"/>
<path d="M201.308 15.7607C186.187 69.521 181.447 125.67 187.339 181.205C198.76 285.363 255.153 441.933 367.954 470.346C402.469 479.042 456.758 479.383 477.571 449.843C509.567 404.394 466.935 301.391 394.944 256.357C378.384 246.073 360.219 238.637 341.202 234.358" stroke="#F3F4F6" stroke-width="0.4" stroke-miterlimit="10"/>
<path d="M233.364 9.03503C211.744 60.5253 200.13 115.664 199.146 171.501C197.665 276.281 234.401 438.614 342.833 480.657C376.014 493.53 429.844 500.537 454.123 473.768C491.452 432.6 461.811 325.138 395.893 271.6C380.724 259.356 363.61 249.742 345.262 243.157" stroke="#F3F4F6" stroke-width="0.4" stroke-miterlimit="10"/>
<path d="M265.948 6.29431C238.177 54.74 219.887 108.033 212.058 163.324C197.719 267.126 214.236 432.748 316.698 487.753C348.042 504.611 400.613 518.181 427.988 494.597C470.101 458.332 453.881 348.041 395.044 286.799C381.49 272.785 365.683 261.143 348.279 252.357" stroke="#F3F4F6" stroke-width="0.4" stroke-miterlimit="10"/>
<path d="M298.628 7.58325C265.112 52.2501 240.413 102.894 225.851 156.806C198.877 258.045 194.848 424.452 289.829 491.678C318.877 512.255 369.375 532.18 399.445 512.137C445.706 481.323 443.158 369.921 392.29 301.865C380.564 286.293 366.308 272.798 350.118 261.941" stroke="#F3F4F6" stroke-width="0.4" stroke-miterlimit="10"/>
<path d="M330.921 12.8721C292.173 53.082 261.441 100.307 240.369 152.021C201.144 249.187 176.761 413.83 262.707 492.212C289 516.211 336.668 542.18 368.96 526.003C418.658 501.1 429.827 390.187 387.699 316.443C377.975 299.545 365.487 284.398 350.755 271.63" stroke="#F3F4F6" stroke-width="0.4" stroke-miterlimit="10"/>
<path d="M362.327 22.1013C318.929 57.2426 282.622 100.329 255.347 149.058C204.494 240.669 160.055 401.076 235.72 489.427C258.872 516.463 302.986 548.106 337.056 536.002C389.42 517.396 414.083 408.705 381.391 330.338C373.833 312.38 363.318 295.815 350.284 281.333" stroke="#F3F4F6" stroke-width="0.4" stroke-miterlimit="10"/>
<path d="M392.349 35.108C344.965 64.6533 303.641 102.954 270.586 147.962C208.845 232.624 145.046 386.35 209.275 483.338C228.932 512.967 268.808 549.839 304.078 542.017C358.338 529.988 396.23 425.148 373.359 343.36C368.047 324.599 359.625 306.862 348.443 290.888" stroke="#F3F4F6" stroke-width="0.4" stroke-miterlimit="10"/>
<path d="M420.54 51.7147C369.888 75.2119 324.175 108.143 285.845 148.747C214.106 225.188 131.968 369.892 183.784 474.035C199.634 505.915 234.711 547.35 270.662 543.928C326.003 538.654 376.486 439.266 363.836 355.3C360.865 336.031 354.692 317.394 345.571 300.162" stroke="#F3F4F6" stroke-width="0.4" stroke-miterlimit="10"/>
<path d="M446.487 71.6544C393.328 88.7495 343.91 115.813 300.875 151.399C220.367 218.447 121.001 351.967 159.619 461.68C171.469 495.264 201.095 540.698 237.268 541.676C292.817 543.246 355.136 450.821 352.899 365.922C352.295 346.447 348.44 327.21 341.493 309.006" stroke="#F3F4F6" stroke-width="0.4" stroke-miterlimit="10"/>
<path d="M469.793 94.631C414.937 105.067 362.57 125.85 315.486 155.872C227.334 212.522 112.326 332.812 137.167 446.451C144.781 481.235 168.674 529.973 204.389 535.425C259.33 543.809 332.536 459.739 340.757 375.21C342.577 355.799 341.13 336.22 336.476 317.287" stroke="#F3F4F6" stroke-width="0.4" stroke-miterlimit="10"/>
<path d="M490.084 120.304C434.36 123.914 379.835 138.107 329.422 162.124C234.989 207.5 106.057 312.754 116.752 428.585C120.04 464.021 137.756 515.337 172.537 525.143C226.027 540.209 309.01 465.769 327.541 382.928C331.742 363.889 332.718 344.279 330.429 324.916" stroke="#F3F4F6" stroke-width="0.4" stroke-miterlimit="10"/>
<path d="M507.077 148.273C451.331 145.008 395.472 152.393 342.49 170.035C243.242 203.455 102.311 292.058 98.697 408.334C97.6009 443.888 108.874 497.012 142.188 511.011C193.367 532.595 284.911 468.894 313.501 388.898C320.005 370.52 323.38 351.181 323.485 331.686" stroke="#F3F4F6" stroke-width="0.4" stroke-miterlimit="10"/>
<path d="M520.495 178.123C465.575 168.028 409.234 168.491 354.486 179.486C251.832 200.463 101.183 271.082 83.2596 386.024C77.7936 421.193 82.4745 475.279 113.804 493.263C162.006 520.936 260.631 468.983 298.819 393.135C307.537 375.697 313.265 356.918 315.765 337.582" stroke="#F3F4F6" stroke-width="0.4" stroke-miterlimit="10"/>
<path d="M530.157 209.396C476.879 192.632 420.893 186.182 365.199 190.389C260.782 198.537 102.549 250.105 70.6866 361.981C60.9397 396.216 58.9251 450.466 87.8105 472.168C132.25 505.544 236.518 466.109 283.742 395.535C294.546 379.298 302.557 361.367 307.443 342.486" stroke="#F3F4F6" stroke-width="0.4" stroke-miterlimit="10"/>
<path d="M535.89 241.616C485.096 218.423 430.348 205.125 374.576 202.433C269.907 197.737 106.46 229.454 61.162 336.575C47.2822 369.344 38.6166 422.941 64.6135 448.021C104.609 486.538 212.936 460.302 268.47 396.053C281.175 381.265 291.309 364.449 298.452 346.308" stroke="#F3F4F6" stroke-width="0.4" stroke-miterlimit="10"/>
<path d="M537.637 274.282C490.067 245.03 437.361 225.106 382.338 215.573C279.047 198.048 113.007 209.44 54.8218 310.176C37.0462 340.989 21.848 393.135 44.5712 421.208C79.5151 464.421 190.242 451.606 253.257 394.676C267.685 381.568 279.808 366.129 289.119 349.004" stroke="#F3F4F6" stroke-width="0.4" stroke-miterlimit="10"/>
<path d="M535.341 306.932C491.729 272.056 441.874 245.807 388.44 229.587C288.082 199.5 121.895 190.389 51.7849 283.229C30.3208 311.628 8.82713 361.492 27.9507 392.157C57.3398 439.34 168.793 440.229 238.296 391.476C254.223 380.237 268.153 366.406 279.505 350.559" stroke="#F3F4F6" stroke-width="0.4" stroke-miterlimit="10"/>
<path d="M529.06 339.049C490.062 299.083 443.812 266.906 392.781 244.238C296.866 202.048 133.064 172.597 52.0814 256.09C27.2844 281.644 -0.149299 328.486 15.0489 361.27C38.3942 411.638 148.914 426.289 223.912 386.454C241.098 377.251 256.619 365.233 269.833 350.9" stroke="#F3F4F6" stroke-width="0.4" stroke-miterlimit="10"/>
</g>
<defs>
<clipPath id="clip0_421_2547">
<rect width="544" height="272" fill="white"/>
</clipPath>
</defs>
</svg>
