<svg width="793" height="288" viewBox="0 0 793 288" fill="none" xmlns="http://www.w3.org/2000/svg">
<g clip-path="url(#clip0_891_7611)">
<path d="M756.363 431.566C707.102 366.761 645.956 311.928 576.189 269.993C445.01 191.777 213.315 119.866 81.1856 226.113C40.763 258.634 -7.34672 321.497 8.78343 371.64C33.5293 448.777 190.793 489.677 306.425 445.494C332.93 435.264 357.534 420.665 379.215 402.305" stroke="#374151" stroke-width="0.583088" stroke-miterlimit="10"/>
<path d="M736.068 474.734C695.149 404.368 641.206 342.44 577.12 292.258C456.543 198.493 235.428 98.6386 91.2719 187.868C47.1569 215.164 -8.27293 271.635 1.5304 323.376C16.6457 402.996 167.647 462.9 287.835 433.25C315.405 426.361 341.624 414.893 365.398 399.325" stroke="#374151" stroke-width="0.583088" stroke-miterlimit="10"/>
<path d="M710.607 515.051C678.649 440.178 632.722 372.078 575.283 314.392C467.144 206.548 260.021 80.2613 105.932 151.092C58.794 172.687 -3.15701 221.988 0.12516 274.55C5.48028 355.466 147.996 433.488 270.861 418.825C299.068 415.364 326.497 407.204 352.009 394.682" stroke="#374151" stroke-width="0.583088" stroke-miterlimit="10"/>
<path d="M680.376 552C657.861 473.774 620.655 400.551 570.747 336.246C476.665 215.92 286.602 65.1233 125.019 116.497C75.5709 132.197 8.02724 173.443 4.9394 226.026C0.145702 306.92 132.016 401.851 255.81 402.413C284.222 402.463 312.441 397.74 339.289 388.441" stroke="#374151" stroke-width="0.583088" stroke-miterlimit="10"/>
<path d="M645.849 584.911C633.108 504.54 605.18 427.331 563.557 357.409C484.98 226.329 314.89 53.3328 148.211 84.451C97.2081 93.9527 25.1299 126.604 15.5857 178.41C0.90229 258.095 120.097 368.444 242.876 384.295C271.074 387.822 299.664 386.595 327.457 380.667" stroke="#374151" stroke-width="0.583088" stroke-miterlimit="10"/>
<path d="M607.548 613.33C604.827 531.984 586.638 451.902 553.954 377.363C492.068 237.709 344.499 45.1269 175.295 55.6003C123.471 58.7748 47.8947 82.3131 32.11 132.543C7.64487 209.723 112.351 333.979 232.215 364.709C259.765 371.68 288.29 373.979 316.601 371.511" stroke="#374151" stroke-width="0.583088" stroke-miterlimit="10"/>
<path d="M566.04 636.846C573.29 555.763 565.039 474.04 541.726 396.042C497.482 249.845 374.724 40.5917 205.477 30.0966C153.653 26.9006 75.9171 40.894 53.9352 88.8561C20.2713 162.559 108.933 298.736 224.155 343.977C250.637 354.275 278.657 360.063 307.051 361.102" stroke="#374151" stroke-width="0.583088" stroke-miterlimit="10"/>
<path d="M521.946 655.051C539.107 575.508 540.961 493.425 527.41 413.189C501.476 262.587 405.343 39.8144 238.686 8.60985C187.683 -0.935061 108.673 3.44869 81.0557 48.3011C38.5818 117.405 109.818 263.342 218.626 322.404C243.643 335.882 270.745 345.065 298.802 349.57" stroke="#374151" stroke-width="0.583088" stroke-miterlimit="10"/>
<path d="M475.951 667.727C502.772 590.87 514.71 509.607 511.126 428.283C503.849 275.694 435.83 42.816 274.27 -8.64447C224.843 -24.3871 145.833 -29.7426 112.968 11.3739C62.3538 74.6251 115.128 228.315 215.839 300.313C239.011 316.759 264.776 329.204 292.063 337.132" stroke="#374151" stroke-width="0.583088" stroke-miterlimit="10"/>
<path d="M428.707 674.637C464.742 601.679 486.565 522.53 493.011 441.413C504.564 289.105 465.674 49.6183 311.628 -21.2991C264.512 -43.0018 186.819 -58.0102 149.096 -21.2991C91.1612 35.2146 124.652 194.217 215.754 278.048C236.732 297.219 260.774 312.738 286.882 323.959" stroke="#374151" stroke-width="0.583088" stroke-miterlimit="10"/>
<path d="M381.072 675.695C425.83 607.702 457.224 531.803 473.578 452.059C503.808 302.321 494.588 59.8758 350.496 -29.5051C306.381 -56.8442 231.129 -81.3327 189.173 -49.4371C124.61 -0.373715 138.3 161.566 218.411 255.914C236.87 277.524 258.826 295.883 283.363 310.224" stroke="#374151" stroke-width="0.583088" stroke-miterlimit="10"/>
<path d="M333.697 670.901C386.472 608.926 426.954 537.461 452.978 460.33C501.326 315.429 522.077 73.783 389.948 -32.6363C349.46 -65.1797 277.771 -98.7164 232.209 -72.3276C162.139 -31.6213 155.834 130.664 223.744 234.319C239.407 258.032 258.939 278.945 281.528 296.188" stroke="#374151" stroke-width="0.583088" stroke-miterlimit="10"/>
<path d="M287.097 660.298C347.096 605.269 396.057 539.307 431.361 465.945C497.134 328.105 547.382 90.7348 429.375 -31.0167C393.271 -68.2678 326.246 -110.335 277.812 -89.6035C203.272 -57.8159 177.058 102.59 231.732 213.609C244.346 239.062 261.133 262.222 281.396 282.13" stroke="#374151" stroke-width="0.583088" stroke-miterlimit="10"/>
<path d="M242.251 644.059C308.54 596.825 365.225 537.395 409.275 468.947C491.502 340.134 570.533 110.84 468.397 -24.5165C437.13 -65.849 375.805 -115.927 325.191 -101.372C247.326 -79.0003 201.591 76.9143 242.208 193.872C251.641 220.691 265.509 245.737 283.235 267.964" stroke="#374151" stroke-width="0.583088" stroke-miterlimit="10"/>
<path d="M199.822 622.443C271.421 583.697 334.981 531.661 387.1 469.119C484.529 351.492 591.157 133.558 506.403 -13.3304C480.491 -58.2692 425.752 -115.431 373.713 -107.203C293.688 -94.5701 229.167 54.5637 255.101 175.689C261.142 203.462 271.799 230.025 286.627 254.273" stroke="#374151" stroke-width="0.583088" stroke-miterlimit="10"/>
<path d="M160.195 595.751C236.004 566.102 305.475 522.291 364.899 466.657C476.018 361.879 608.622 158.737 542.568 2.52006C522.357 -45.2693 475.068 -108.715 422.424 -106.879C341.449 -104.18 259.092 35.884 269.954 159.212C272.519 187.51 279.819 215.176 291.547 241.056" stroke="#374151" stroke-width="0.583088" stroke-miterlimit="10"/>
<path d="M124.244 564.396C203.118 544.3 277.442 509.363 343.243 461.453C466.411 371.122 623.048 185.774 576.601 22.6896C562.414 -27.216 523.287 -96.0819 470.794 -100.725C390.1 -107.981 291.138 20.8972 286.755 144.614C285.849 173.021 289.71 201.379 298.178 228.51" stroke="#374151" stroke-width="0.583088" stroke-miterlimit="10"/>
<path d="M92.3887 528.872C173.143 518.624 251.205 493.083 322.4 453.614C455.738 379.112 633.839 214.409 607.927 46.8544C599.981 -4.43332 569.599 -77.4886 518.121 -88.6315C438.939 -105.756 324.883 9.992 305.341 132.24C300.941 160.316 301.284 188.93 306.356 216.892" stroke="#374151" stroke-width="0.583088" stroke-miterlimit="10"/>
<path d="M65.1641 489.699C146.569 489.463 227.182 473.713 302.69 443.292C444.147 385.742 641.185 244.166 636.003 74.69C634.427 22.8624 613.244 -53.4321 563.515 -70.7943C487.01 -97.5287 359.61 3.2543 325.212 122.242C317.396 149.593 314.221 178.061 315.818 206.462" stroke="#374151" stroke-width="0.583088" stroke-miterlimit="10"/>
<path d="M42.9629 447.481C123.774 457.247 205.706 451.523 284.375 430.616C431.836 390.881 644.766 274.615 660.465 105.765C665.258 54.1102 653.62 -24.171 606.482 -47.5582C533.864 -83.4704 395.019 0.943733 346.262 114.748C335.15 140.903 328.5 168.736 326.59 197.089" stroke="#374151" stroke-width="0.583088" stroke-miterlimit="10"/>
<path d="M26.1016 402.867C105.106 422.49 187.124 426.887 267.773 415.823C418.926 394.509 644.618 305.301 680.916 139.669C692.145 88.9427 690.094 9.7329 646.108 -19.161C578.457 -63.6895 430.305 2.99533 367.923 109.911C353.685 134.509 343.671 161.32 338.297 189.229" stroke="#374151" stroke-width="0.583088" stroke-miterlimit="10"/>
<path d="M14.873 356.502C90.8664 385.673 171.719 400.104 253.111 399.023C405.819 396.453 640.667 335.642 697.068 175.732C714.343 126.798 722.116 48.0421 681.953 13.8791C620.283 -38.6827 465.049 9.3226 390.012 107.795C372.893 130.457 359.697 155.83 350.972 182.859" stroke="#374151" stroke-width="0.583088" stroke-miterlimit="10"/>
<path d="M9.41016 309.102C81.2363 347.4 159.702 371.658 240.609 380.58C392.474 396.82 633.023 365.313 708.642 213.545C731.79 167.094 749.195 89.9142 713.609 51.0652C658.892 -8.6661 498.929 19.9038 412.34 108.399C392.529 128.805 376.281 152.39 364.273 178.172" stroke="#374151" stroke-width="0.583088" stroke-miterlimit="10"/>
<path d="M9.79688 261.399C76.3745 308.226 151.263 341.939 230.458 360.735C379.192 395.503 621.771 393.818 715.464 252.48C744.14 209.291 770.915 134.767 740.361 91.858C693.396 25.8427 531.144 34.5454 434.342 111.704C412.182 129.495 393.161 150.875 378.07 174.955" stroke="#374151" stroke-width="0.583088" stroke-miterlimit="10"/>
<path d="M16.084 214.106C76.4072 268.758 146.582 311.426 222.861 339.831C366.197 392.609 607.221 420.747 717.519 291.999C751.269 252.61 786.984 181.995 761.958 135.652C723.435 64.3895 561.357 53.0522 455.809 117.75C431.63 132.684 410.121 151.559 392.174 173.594" stroke="#374151" stroke-width="0.583088" stroke-miterlimit="10"/>
<path d="M28.1094 167.958C81.2614 229.604 145.661 280.568 217.871 318.128C353.627 388.117 589.274 445.667 714.645 331.452C752.994 296.512 797.109 230.82 777.956 181.757C748.503 106.262 589.037 75.1218 476.342 126.345C450.519 138.163 426.857 154.221 406.337 173.853" stroke="#374151" stroke-width="0.583088" stroke-miterlimit="10"/>
<path d="M45.7109 123.602C90.8851 191.326 148.544 249.825 215.607 295.972C341.711 382.135 568.548 468.191 706.961 370.258C749.327 340.284 801.172 280.51 788.195 229.46C768.242 150.941 613.808 100.431 495.649 137.423C468.564 145.988 443.106 159.032 420.332 176.013" stroke="#374151" stroke-width="0.583088" stroke-miterlimit="10"/>
<path d="M68.6445 81.7729C105.146 154.535 155.177 219.675 216.062 273.708C330.635 374.707 545.164 487.993 694.568 407.811C740.281 383.28 799.101 330.329 792.493 278.07C782.323 197.608 635.273 128.504 513.487 150.79C485.546 155.976 458.671 165.808 433.981 179.878" stroke="#374151" stroke-width="0.583088" stroke-miterlimit="10"/>
<path d="M96.543 43.0752C123.831 119.747 165.478 190.516 219.257 251.595C320.551 366.047 519.533 504.772 677.66 443.573C726.051 424.828 790.917 379.522 790.766 326.853C790.571 245.829 653.109 159.169 529.487 166.23C501.123 167.938 473.247 174.398 447.023 185.342" stroke="#374151" stroke-width="0.583088" stroke-miterlimit="10"/>
<path d="M128.969 8.09155C146.613 87.565 179.247 162.945 225.123 230.194C311.604 356.092 492.016 518.291 656.47 476.98C706.782 464.325 776.723 427.312 783.071 375.031C792.81 294.59 667.051 191.712 543.537 183.528C515.17 181.739 486.703 184.724 459.324 192.36" stroke="#374151" stroke-width="0.583088" stroke-miterlimit="10"/>
<path d="M165.445 -22.6594C173.206 58.377 196.334 137.193 233.594 209.571C303.944 345.143 463.065 528.289 631.341 507.58C682.841 501.209 756.798 473.028 769.538 421.978C789.101 343.351 676.924 225.789 555.354 202.488C527.426 197.239 498.816 196.699 470.709 200.89" stroke="#374151" stroke-width="0.583088" stroke-miterlimit="10"/>
<path d="M205.436 -48.573C203.187 32.7992 216.451 113.856 244.52 190.266C297.683 333.396 433.029 534.703 602.644 534.746C654.468 534.746 731.404 515.937 750.298 466.766C779.363 391.184 682.496 260.686 564.705 222.615C537.638 213.952 509.312 209.879 480.901 210.565" stroke="#374151" stroke-width="0.583088" stroke-miterlimit="10"/>
<path d="M248.315 -69.5415C236.066 10.9465 239.268 93.0316 257.751 172.32C292.927 320.958 402.577 537.273 570.853 558.263C622.353 564.741 700.931 555.413 725.72 508.94C763.875 437.462 683.764 296.08 571.544 243.842C545.749 231.924 518.136 224.42 489.857 221.643" stroke="#374151" stroke-width="0.583088" stroke-miterlimit="10"/>
<path d="M293.45 -85.0251C271.409 -6.65773 264.498 75.1917 273.088 156.146C289.736 307.979 371.942 536.215 536.374 577.633C586.686 590.31 665.826 590.806 696.164 547.746C742.805 481.493 680.66 331.344 575.717 265.696C551.578 250.705 525.098 239.866 497.377 233.628" stroke="#374151" stroke-width="0.583088" stroke-miterlimit="10"/>
<path d="M340.181 -94.8296C308.664 -19.7711 291.735 60.6055 290.301 142.001C288.141 294.741 341.693 531.377 499.755 592.663C548.124 611.429 626.594 621.643 661.985 582.621C716.4 522.609 673.192 365.961 577.102 287.917C554.99 270.068 530.043 256.053 503.296 246.455" stroke="#374151" stroke-width="0.583088" stroke-miterlimit="10"/>
<path d="M387.678 -98.8245C347.195 -28.2042 320.534 49.4822 309.122 130.081C288.219 281.395 312.296 522.826 461.656 603.007C507.348 627.582 583.982 647.363 623.886 612.984C685.276 560.12 661.631 399.346 575.863 310.073C556.106 289.644 533.063 272.673 507.693 259.865" stroke="#374151" stroke-width="0.583088" stroke-miterlimit="10"/>
<path d="M435.316 -96.9458C386.46 -31.834 350.456 41.9904 329.228 120.579C289.907 268.158 284.034 510.732 422.49 608.73C464.834 638.725 538.445 667.77 582.28 638.552C649.715 593.635 646.001 431.242 571.85 332.035C554.756 309.335 533.976 289.663 510.374 273.837" stroke="#374151" stroke-width="0.583088" stroke-miterlimit="10"/>
<path d="M482.39 -89.2361C425.907 -30.6212 381.109 38.2196 350.391 113.604C293.212 255.244 257.67 495.249 382.954 609.507C421.282 644.491 490.769 682.347 537.842 658.765C610.287 622.464 626.569 460.784 565.157 353.285C550.983 328.653 532.779 306.573 511.304 287.961" stroke="#374151" stroke-width="0.583088" stroke-miterlimit="10"/>
<path d="M528.17 -75.7825C464.908 -24.5563 411.983 38.2522 372.224 109.285C298.094 242.827 233.314 476.656 343.613 605.448C377.363 644.858 441.667 690.985 491.332 673.342C567.664 646.219 603.617 487.778 555.96 373.541C544.943 347.362 529.615 323.216 510.615 302.105" stroke="#374151" stroke-width="0.583088" stroke-miterlimit="10"/>
<path d="M571.936 -56.8223C502.863 -13.7536 442.624 42.0776 394.44 107.687C304.439 231.101 211.437 455.191 305.065 596.572C333.72 639.762 391.849 693.511 443.262 682.109C522.358 664.574 577.594 511.748 544.254 392.523C536.51 365.174 524.233 339.319 507.934 316.034" stroke="#374151" stroke-width="0.583088" stroke-miterlimit="10"/>
<path d="M613.031 -32.6145C539.194 1.63783 472.558 49.642 416.683 108.832C312.107 220.261 192.373 431.199 267.906 583.011C291.011 629.483 342.143 689.883 394.55 684.895C475.223 677.207 548.812 532.328 530.372 409.928C526.041 381.839 517.042 354.672 503.747 329.552" stroke="#374151" stroke-width="0.583088" stroke-miterlimit="10"/>
<path d="M650.853 -3.54785C573.361 21.3719 501.324 60.8231 438.592 112.697C321.232 210.435 176.385 405.069 232.679 565.001C249.953 613.956 293.14 680.187 345.87 681.613C426.845 683.902 517.688 549.172 514.427 425.412C513.547 397.022 507.927 368.98 497.8 342.444" stroke="#374151" stroke-width="0.583088" stroke-miterlimit="10"/>
<path d="M684.827 29.9456C604.863 45.1577 528.525 75.4546 459.89 119.219C331.389 201.797 163.739 377.147 199.951 542.801C211.05 593.506 245.88 664.552 297.941 672.499C378.03 684.722 484.744 562.171 496.728 438.951C499.381 410.655 497.271 382.114 490.488 354.516" stroke="#374151" stroke-width="0.583088" stroke-miterlimit="10"/>
<path d="M714.406 67.3694C633.177 72.6327 553.693 93.3221 480.206 128.332C342.549 194.476 154.601 347.908 170.192 516.758C174.985 568.412 200.811 643.217 251.512 657.512C329.485 679.474 450.45 570.96 477.463 450.202C483.588 422.448 485.011 393.862 481.674 365.637" stroke="#374151" stroke-width="0.583088" stroke-miterlimit="10"/>
<path d="M739.177 108.14C657.914 103.38 576.488 114.147 499.254 139.863C354.579 188.581 149.141 317.739 143.873 487.237C142.275 539.065 158.707 616.504 207.27 636.911C281.875 668.375 415.321 575.517 456.996 458.905C466.477 432.115 471.397 403.924 471.55 375.506" stroke="#374151" stroke-width="0.583088" stroke-miterlimit="10"/>
<path d="M758.738 151.654C678.679 136.938 596.549 137.612 516.742 153.64C367.101 184.219 147.498 287.161 121.37 454.715C113.402 505.981 120.226 584.824 165.895 611.04C236.16 651.379 379.927 575.646 435.595 465.081C448.304 439.661 456.654 412.287 460.297 384.1" stroke="#374151" stroke-width="0.583088" stroke-miterlimit="10"/>
<path d="M772.821 197.24C695.157 172.804 613.545 163.401 532.359 169.534C380.148 181.411 149.489 256.583 103.042 419.667C88.8337 469.573 85.8971 548.653 128.004 580.289C192.784 628.942 344.778 571.457 413.618 468.579C429.367 444.91 441.045 418.772 448.167 391.248" stroke="#374151" stroke-width="0.583088" stroke-miterlimit="10"/>
<path d="M781.178 244.209C707.136 210.4 627.328 191.014 546.027 187.091C393.45 180.245 155.19 226.48 89.1577 382.632C68.9248 430.4 56.2928 508.53 94.1889 545.09C152.491 601.236 310.402 562.992 391.355 469.335C409.875 447.777 424.648 423.265 435.06 396.82" stroke="#374151" stroke-width="0.583088" stroke-miterlimit="10"/>
<path d="M783.725 291.826C714.38 249.186 637.551 220.142 557.342 206.246C406.772 180.699 164.733 197.305 79.915 344.15C54.0031 389.067 31.8485 465.081 64.9725 506.003C115.911 568.995 277.32 550.316 369.178 467.327C390.21 448.22 407.882 425.714 421.455 400.75" stroke="#374151" stroke-width="0.583088" stroke-miterlimit="10"/>
<path d="M780.377 339.421C716.803 288.582 644.128 250.318 566.237 226.674C419.943 182.815 177.688 169.534 75.4873 304.869C44.1987 346.266 12.8669 418.954 40.7438 463.656C83.5848 532.435 246.052 533.731 347.368 462.662C370.585 446.279 390.891 426.118 407.44 403.017" stroke="#374151" stroke-width="0.583088" stroke-miterlimit="10"/>
<path d="M771.223 386.238C714.374 327.979 646.954 281.075 572.565 248.032C432.749 186.529 193.971 143.599 75.9206 265.307C39.7736 302.558 -0.217114 370.841 21.9376 418.631C55.9685 492.053 217.076 513.41 326.402 455.342C351.454 441.927 374.08 424.408 393.341 403.514" stroke="#374151" stroke-width="0.583088" stroke-miterlimit="10"/>
</g>
<defs>
<clipPath id="clip0_891_7611">
<rect width="793" height="288" fill="white"/>
</clipPath>
</defs>
</svg>
