<svg width="16" height="16" viewBox="0 0 16 16" fill="none" xmlns="http://www.w3.org/2000/svg">
<g clip-path="url(#clip0_129_1900)">
<path d="M15.1168 2.82756e-08H0.882446C0.39502 0.000244169 -0.000122042 0.39563 2.82756e-08 0.883179V15.1176C0.000244169 15.605 0.39563 16.0001 0.883179 16H15.1168C15.6045 16.0001 15.9999 15.6049 16 15.1172C16 15.1171 16 15.1169 16 15.1168V0.882446C15.9998 0.39502 15.6044 -0.000122042 15.1168 2.82756e-08V2.82756e-08Z" fill="#1F2937"/>
<path d="M11.0469 16.0001V9.81262H13.1328L13.4453 7.39075H11.0469V5.84827C11.0469 5.14868 11.2411 4.672 12.2443 4.672H13.5156V2.51172C13.2944 2.4823 12.5355 2.4165 11.6525 2.4165C9.80872 2.4165 8.54688 3.5415 8.54688 5.6084V7.39075H6.46875V9.81262H8.54688V16.0001H11.0469Z" fill="#374151"/>
</g>
<defs>
<clipPath id="clip0_129_1900">
<rect width="16" height="16" fill="white"/>
</clipPath>
</defs>
</svg>
