<svg width="1090" height="396" viewBox="0 0 1090 396" fill="none" xmlns="http://www.w3.org/2000/svg">
<path d="M51.0255 592.816C118.692 503.798 202.685 428.477 298.52 370.874C478.712 263.432 796.978 164.653 978.476 310.597C1034 355.271 1100.09 441.621 1077.93 510.5C1043.94 616.458 827.915 672.64 669.078 611.949C632.67 597.896 598.873 577.843 569.09 552.622" stroke="white" stroke-width="0.800953" stroke-miterlimit="10"/>
<path d="M78.9002 652.113C135.107 555.456 209.206 470.389 297.237 401.457C462.866 272.658 766.598 135.494 964.617 258.063C1025.22 295.558 1101.36 373.128 1087.89 444.202C1067.13 553.571 859.705 635.857 694.61 595.13C656.739 585.666 620.724 569.914 588.067 548.528" stroke="white" stroke-width="0.800953" stroke-miterlimit="10"/>
<path d="M113.876 707.495C157.775 604.646 220.862 511.102 299.763 431.862C448.307 283.722 732.819 110.25 944.482 207.546C1009.23 237.21 1094.33 304.932 1089.82 377.133C1082.47 488.282 886.701 595.456 717.928 575.314C679.182 570.561 641.505 559.351 606.461 542.151" stroke="white" stroke-width="0.800953" stroke-miterlimit="10"/>
<path d="M155.404 758.249C186.331 650.794 237.439 550.213 305.995 461.881C435.229 296.596 696.308 89.4558 918.264 160.025C986.188 181.591 1078.97 238.248 1083.21 310.479C1089.8 421.598 908.654 551.999 738.605 552.77C699.577 552.839 660.814 546.352 623.934 533.578" stroke="white" stroke-width="0.800953" stroke-miterlimit="10"/>
<path d="M202.829 803.457C220.33 693.056 258.693 586.999 315.868 490.952C423.806 310.894 657.448 73.26 886.404 116.005C956.464 129.057 1055.47 173.908 1068.58 245.071C1088.75 354.529 925.023 506.11 756.368 527.883C717.634 532.727 678.362 531.042 640.185 522.899" stroke="white" stroke-width="0.800953" stroke-miterlimit="10"/>
<path d="M255.442 842.494C259.18 730.755 284.165 620.75 329.061 518.361C414.071 326.527 616.776 61.988 849.203 76.3748C920.39 80.7353 1024.2 113.069 1045.89 182.066C1079.49 288.083 935.665 458.767 771.015 500.978C733.171 510.554 693.988 513.713 655.099 510.322" stroke="white" stroke-width="0.800953" stroke-miterlimit="10"/>
<path d="M312.458 874.797C302.499 763.417 313.834 651.16 345.857 544.019C406.633 343.198 575.258 55.7584 807.743 41.3419C878.93 36.9517 985.711 56.1737 1015.91 122.056C1062.15 223.298 940.359 410.356 782.086 472.501C745.709 486.646 707.22 494.597 668.216 496.024" stroke="white" stroke-width="0.800953" stroke-miterlimit="10"/>
<path d="M373.027 899.804C349.455 790.541 346.908 677.788 365.523 567.572C401.146 360.699 533.199 54.6906 762.125 11.8269C832.185 -1.28438 940.716 4.73732 978.653 66.3484C1037 161.272 939.144 361.737 789.68 442.867C755.316 461.381 718.088 473.996 679.548 480.184" stroke="white" stroke-width="0.800953" stroke-miterlimit="10"/>
<path d="M436.209 917.216C399.367 811.642 382.968 700.017 387.891 588.307C397.887 378.705 491.32 58.8138 713.246 -11.8743C781.141 -33.499 889.671 -40.8555 934.816 15.6238C1004.34 102.508 931.85 313.623 793.509 412.521C761.679 435.112 726.287 452.208 688.805 463.097" stroke="white" stroke-width="0.800953" stroke-miterlimit="10"/>
<path d="M501.105 926.708C451.607 826.49 421.63 717.768 412.774 606.343C396.905 397.126 450.325 68.1577 661.929 -29.2571C726.65 -59.069 833.372 -79.6851 885.19 -29.2571C964.771 48.3722 918.767 266.785 793.625 381.938C764.81 408.272 731.784 429.589 695.921 445.003" stroke="white" stroke-width="0.800953" stroke-miterlimit="10"/>
<path d="M566.539 928.161C505.059 834.763 461.934 730.506 439.47 620.966C397.944 415.28 410.61 82.2477 608.54 -40.5294C669.138 -78.0834 772.508 -111.722 830.14 -67.9088C918.827 -0.513375 900.022 221.933 789.978 351.533C764.621 381.218 734.462 406.437 700.757 426.136" stroke="white" stroke-width="0.800953" stroke-miterlimit="10"/>
<path d="M631.614 921.577C559.121 836.445 503.513 738.278 467.765 632.328C401.353 433.286 372.849 101.351 554.346 -44.8304C609.961 -89.5333 708.437 -135.601 771.022 -99.3519C867.273 -43.4362 875.934 179.485 782.65 321.87C761.135 354.442 734.304 383.17 703.276 406.856" stroke="white" stroke-width="0.800953" stroke-miterlimit="10"/>
<path d="M695.626 907.012C613.209 831.421 545.954 740.814 497.459 640.04C407.11 450.698 338.089 124.637 500.188 -42.6057C549.781 -93.7752 641.85 -151.56 708.381 -123.083C810.771 -79.4181 846.78 140.922 771.678 293.422C754.351 328.385 731.292 360.199 703.457 387.545" stroke="white" stroke-width="0.800953" stroke-miterlimit="10"/>
<path d="M757.229 884.705C666.172 819.822 588.308 738.187 527.799 644.163C414.849 467.221 306.288 152.254 446.586 -33.677C489.536 -90.453 573.774 -159.243 643.3 -139.249C750.259 -108.518 813.082 105.652 757.289 266.31C744.331 303.15 725.281 337.554 700.932 368.085" stroke="white" stroke-width="0.800953" stroke-miterlimit="10"/>
<path d="M815.512 855.012C717.161 801.789 629.853 730.311 558.259 644.401C424.427 482.824 277.96 183.46 394.38 -18.3112C429.974 -80.0409 505.165 -158.56 576.649 -147.258C686.574 -129.905 775.202 74.9509 739.579 241.333C731.28 279.484 716.642 315.972 696.273 349.279" stroke="white" stroke-width="0.800953" stroke-miterlimit="10"/>
<path d="M869.943 818.348C765.81 777.62 670.381 717.439 588.754 641.019C436.117 497.092 253.967 218.047 344.701 3.4618C372.464 -62.1835 437.422 -149.335 509.736 -146.813C620.966 -143.105 734.094 49.2919 719.175 218.7C715.651 257.571 705.624 295.575 689.514 331.125" stroke="white" stroke-width="0.800953" stroke-miterlimit="10"/>
<path d="M919.324 775.276C810.98 747.672 708.886 699.682 618.499 633.87C449.311 509.788 234.148 255.186 297.949 31.1674C317.437 -37.3849 371.183 -131.982 443.29 -138.359C554.134 -148.326 690.072 28.7054 696.093 198.648C697.337 237.669 692.034 276.622 680.402 313.89" stroke="white" stroke-width="0.800953" stroke-miterlimit="10"/>
<path d="M963.086 726.48C852.159 712.403 744.929 677.318 647.133 623.102C463.975 520.763 219.328 294.52 254.922 64.3609C265.837 -6.08986 307.571 -106.441 378.283 -121.748C487.051 -145.271 643.722 13.7254 670.566 181.65C676.61 220.216 676.139 259.522 669.172 297.931" stroke="white" stroke-width="0.800953" stroke-miterlimit="10"/>
<path d="M1000.48 672.67C888.662 672.346 777.928 650.711 674.208 608.923C479.896 529.87 209.237 335.396 216.355 102.597C218.521 31.4048 247.619 -73.3963 315.929 -97.2458C421.019 -133.969 596.02 4.47039 643.271 167.916C654.006 205.487 658.367 244.591 656.174 283.604" stroke="white" stroke-width="0.800953" stroke-miterlimit="10"/>
<path d="M1030.98 614.678C919.971 628.093 807.426 620.23 699.363 591.511C496.806 536.93 204.315 377.222 182.752 145.283C176.167 74.3278 192.154 -33.2024 256.905 -65.3279C356.656 -114.658 547.378 1.2963 614.354 157.623C629.617 193.55 638.751 231.782 641.375 270.73" stroke="white" stroke-width="0.800953" stroke-miterlimit="10"/>
<path d="M1054.14 553.393C945.617 580.348 832.954 586.388 722.171 571.191C514.542 541.913 204.522 419.373 154.661 191.855C139.237 122.175 142.055 13.3693 202.475 -26.3204C295.404 -87.4865 498.91 4.11434 584.602 150.978C604.159 184.767 617.915 221.595 625.297 259.932" stroke="white" stroke-width="0.800953" stroke-miterlimit="10"/>
<path d="M1069.56 489.706C965.177 529.776 854.114 549.598 742.311 548.113C532.546 544.583 209.95 461.051 132.474 241.393C108.745 174.175 98.067 65.9925 153.237 19.0648C237.95 -53.1361 451.185 12.8059 554.258 148.071C577.774 179.201 595.901 214.054 607.886 251.182" stroke="white" stroke-width="0.800953" stroke-miterlimit="10"/>
<path d="M1077.07 424.594C978.403 477.202 870.619 510.525 759.483 522.78C550.874 545.087 220.447 501.808 116.573 293.333C84.7764 229.527 60.8695 123.51 109.751 70.1451C184.913 -11.9042 404.644 27.3407 523.586 148.902C550.799 176.932 573.118 209.329 589.612 244.744" stroke="white" stroke-width="0.800953" stroke-miterlimit="10"/>
<path d="M1076.54 359.068C985.081 423.391 882.211 469.701 773.426 495.52C569.119 543.278 235.903 540.964 107.203 346.817C67.8128 287.49 31.0328 185.121 73.0035 126.18C137.517 35.4983 360.392 47.4527 493.364 153.44C523.803 177.879 549.931 207.247 570.661 240.325" stroke="white" stroke-width="0.800953" stroke-miterlimit="10"/>
<path d="M1067.9 294.105C985.036 369.176 888.641 427.786 783.862 466.806C586.97 539.303 255.89 577.955 104.38 401.101C58.0191 346.995 8.95929 249.995 43.3368 186.337C96.2526 88.4476 318.891 72.8743 463.875 161.746C497.088 182.26 526.633 208.188 551.287 238.456" stroke="white" stroke-width="0.800953" stroke-miterlimit="10"/>
<path d="M1051.38 230.714C978.371 315.393 889.909 385.399 790.719 436.994C604.238 533.133 280.544 612.186 108.331 455.296C55.6521 407.3 -4.94587 317.064 21.3637 249.669C61.8218 145.965 280.871 103.19 435.673 173.552C471.144 189.787 503.647 211.845 531.835 238.812" stroke="white" stroke-width="0.800953" stroke-miterlimit="10"/>
<path d="M1027.2 169.785C965.15 262.813 885.947 343.169 793.828 406.559C620.606 524.916 309.013 643.125 118.884 508.601C60.6887 467.428 -10.5282 385.32 7.29822 315.195C34.7053 207.339 246.843 137.956 409.15 188.769C446.355 200.535 481.326 218.453 512.609 241.778" stroke="white" stroke-width="0.800953" stroke-miterlimit="10"/>
<path d="M995.703 112.327C945.563 212.276 876.838 301.755 793.205 375.976C635.822 514.712 341.137 670.326 135.91 560.186C73.1174 526.488 -7.6801 453.753 1.39627 381.968C15.3668 271.441 217.36 176.518 384.65 207.131C423.031 214.254 459.947 227.76 493.863 247.088" stroke="white" stroke-width="0.800953" stroke-miterlimit="10"/>
<path d="M957.379 59.1698C919.895 164.489 862.686 261.7 788.814 345.601C649.672 502.817 376.343 693.375 159.133 609.309C92.6622 583.561 3.55959 521.327 3.76723 448.978C4.03419 337.68 192.858 218.641 362.669 228.341C401.632 230.686 439.923 239.56 475.946 254.593" stroke="white" stroke-width="0.800953" stroke-miterlimit="10"/>
<path d="M912.836 11.1148C888.599 120.283 843.772 223.828 780.754 316.204C661.96 489.142 414.14 711.944 188.239 655.198C119.128 637.815 23.0554 586.972 14.335 515.157C0.957722 404.66 173.705 263.343 343.368 252.101C382.335 249.644 421.438 253.745 459.047 264.233" stroke="white" stroke-width="0.800953" stroke-miterlimit="10"/>
<path d="M862.732 -31.126C852.073 80.1889 820.302 188.453 769.121 287.875C672.485 474.103 453.91 725.679 222.76 697.231C152.017 688.481 50.4272 649.77 32.9271 579.645C6.05392 471.64 160.145 310.152 327.138 278.146C365.502 270.935 404.802 270.193 443.41 275.95" stroke="white" stroke-width="0.800953" stroke-miterlimit="10"/>
<path d="M807.8 -66.7218C810.89 45.0542 792.67 156.396 754.113 261.356C681.087 457.966 495.17 734.489 262.18 734.548C190.993 734.548 85.3097 708.711 59.356 641.168C19.4319 537.345 152.493 358.089 314.295 305.792C351.475 293.893 390.384 288.299 429.411 289.24" stroke="white" stroke-width="0.800953" stroke-miterlimit="10"/>
<path d="M748.899 -95.5251C765.725 15.0363 761.326 127.792 735.937 236.706C687.619 440.88 536.999 738.019 305.848 766.852C235.106 775.751 127.168 762.936 93.1172 699.101C40.7057 600.914 150.749 406.707 304.899 334.951C340.333 318.58 378.262 308.272 417.108 304.457" stroke="white" stroke-width="0.800953" stroke-miterlimit="10"/>
<path d="M686.898 -116.794C717.175 -9.14546 726.668 103.286 714.868 214.488C691.999 423.052 579.079 736.565 353.208 793.46C284.097 810.872 175.388 811.555 133.714 752.406C69.6455 661.398 155.011 455.148 299.165 364.971C332.323 344.378 368.697 329.489 406.776 320.92" stroke="white" stroke-width="0.800953" stroke-miterlimit="10"/>
<path d="M622.707 -130.262C666 -27.1583 689.254 83.2502 691.225 195.058C694.191 404.868 620.631 729.92 403.51 814.105C337.069 839.883 229.279 853.914 180.664 800.312C105.918 717.877 165.27 502.698 297.263 395.494C327.637 370.976 361.906 351.725 398.645 338.54" stroke="white" stroke-width="0.800953" stroke-miterlimit="10"/>
<path d="M557.465 -135.749C613.074 -38.7426 649.696 67.9706 665.372 178.684C694.085 386.536 661.012 718.174 455.845 828.314C393.081 862.071 287.813 889.243 232.999 842.019C148.672 769.402 181.151 548.558 298.966 425.929C326.106 397.867 357.758 374.554 392.607 356.961" stroke="white" stroke-width="0.800953" stroke-miterlimit="10"/>
<path d="M492.026 -133.168C559.136 -43.7283 608.593 57.6798 637.752 165.632C691.765 368.352 699.833 701.562 509.644 836.175C451.479 877.378 350.363 917.275 290.151 877.14C197.518 815.44 202.62 592.371 304.477 456.097C327.958 424.915 356.503 397.892 388.923 376.154" stroke="white" stroke-width="0.800953" stroke-miterlimit="10"/>
<path d="M427.364 -122.578C504.951 -42.0626 566.489 52.4999 608.683 156.051C687.227 350.614 736.049 680.294 563.954 837.243C511.305 885.298 415.855 937.298 351.193 904.906C251.68 855.041 229.315 632.951 313.672 485.286C333.143 451.451 358.148 421.12 387.647 395.554" stroke="white" stroke-width="0.800953" stroke-miterlimit="10"/>
<path d="M364.478 -104.098C451.377 -33.7317 524.077 52.5447 578.692 150.118C680.519 333.557 769.503 654.754 617.993 831.667C571.633 885.802 483.301 949.164 415.08 924.929C310.227 887.671 260.841 670.03 326.304 513.11C341.438 477.15 362.493 443.982 388.593 414.984" stroke="white" stroke-width="0.800953" stroke-miterlimit="10"/>
<path d="M304.361 -78.0535C399.242 -18.8927 481.988 57.7993 548.177 147.923C671.805 317.45 799.556 625.268 670.945 819.475C631.584 878.802 551.736 952.634 481.112 936.972C372.463 912.885 296.589 702.957 342.386 539.184C353.023 501.618 369.887 466.102 392.277 434.116" stroke="white" stroke-width="0.800953" stroke-miterlimit="10"/>
<path d="M247.913 -44.8005C349.337 2.24987 440.872 68.1903 517.623 149.495C661.273 302.559 825.745 592.312 721.99 800.846C690.252 864.682 620.014 947.651 548.026 940.799C437.211 930.239 336.125 731.226 361.456 563.093C367.405 524.509 379.766 487.191 398.029 452.686" stroke="white" stroke-width="0.800953" stroke-miterlimit="10"/>
<path d="M195.956 -4.87356C302.402 29.3573 401.355 83.5489 487.527 154.805C648.736 289.062 847.704 556.419 770.377 776.107C746.648 843.354 687.325 934.332 614.892 936.29C503.662 939.434 378.877 754.364 383.356 584.362C384.565 545.366 392.284 506.846 406.195 470.395" stroke="white" stroke-width="0.800953" stroke-miterlimit="10"/>
<path d="M149.287 41.1342C259.129 62.0302 363.989 103.647 458.268 163.763C634.783 277.196 865.073 518.064 815.331 745.613C800.085 815.262 752.242 912.855 680.728 923.771C570.714 940.561 424.128 772.221 407.666 602.961C404.023 564.092 406.92 524.887 416.238 486.977" stroke="white" stroke-width="0.800953" stroke-miterlimit="10"/>
<path d="M108.658 92.5411C220.238 99.771 329.419 128.191 430.365 176.281C619.456 267.14 877.628 477.9 856.212 709.839C849.627 780.794 814.152 883.548 744.508 903.185C637.401 933.353 471.238 784.294 434.132 618.416C425.719 580.291 423.764 541.025 428.348 502.253" stroke="white" stroke-width="0.800953" stroke-miterlimit="10"/>
<path d="M74.6324 148.546C186.258 142.008 298.108 156.796 404.199 192.121C602.93 259.042 885.128 436.459 892.365 669.288C894.56 740.481 871.988 846.854 805.28 874.886C702.8 918.106 519.493 790.553 462.247 630.37C449.223 593.57 442.465 554.846 442.255 515.809" stroke="white" stroke-width="0.800953" stroke-miterlimit="10"/>
<path d="M47.7656 208.318C157.738 188.104 270.554 189.03 380.18 211.047C585.733 253.05 887.389 394.456 923.279 624.615C934.224 695.036 924.851 803.338 862.117 839.349C765.599 894.761 568.114 790.731 491.647 638.854C474.189 603.935 462.719 566.333 457.715 527.616" stroke="white" stroke-width="0.800953" stroke-miterlimit="10"/>
<path d="M28.4142 270.937C135.097 237.37 247.202 224.454 358.723 232.879C567.805 249.194 884.648 352.453 948.449 576.471C967.966 645.024 972 753.651 914.161 797.108C825.177 863.94 616.391 784.976 521.83 643.659C500.196 611.146 484.155 575.242 474.372 537.434" stroke="white" stroke-width="0.800953" stroke-miterlimit="10"/>
<path d="M16.9371 335.455C118.644 289.013 228.271 262.385 339.949 256.996C549.536 247.592 876.819 311.102 967.523 525.599C995.316 591.214 1012.67 698.537 960.612 748.757C880.526 825.882 663.613 773.348 552.413 644.697C526.973 615.084 506.68 581.414 492.378 545.087" stroke="white" stroke-width="0.800953" stroke-miterlimit="10"/>
<path d="M13.4375 400.863C108.692 342.291 214.228 302.395 324.407 283.307C531.235 248.215 863.709 271.026 980.219 472.738C1015.81 534.438 1046.24 638.854 1000.74 695.066C930.773 781.594 709.055 755.936 582.876 641.939C553.985 615.693 529.71 584.778 511.065 550.486" stroke="white" stroke-width="0.800953" stroke-miterlimit="10"/>
<path d="M18.0368 466.242C105.365 396.407 205.194 343.846 312.188 311.368C513.144 251.122 845.914 232.879 986.301 418.78C1029.28 475.645 1072.32 575.492 1034.03 636.896C975.178 731.374 752.006 733.154 612.835 635.531C580.943 613.026 553.05 585.332 530.318 553.601" stroke="white" stroke-width="0.800953" stroke-miterlimit="10"/>
<path d="M30.6126 530.552C108.703 450.525 201.313 386.096 303.497 340.706C495.554 256.224 823.549 197.253 985.707 364.437C1035.36 415.606 1090.29 509.402 1059.86 575.047C1013.11 675.903 791.811 705.24 641.636 625.475C607.224 607.048 576.144 582.984 549.686 554.283" stroke="white" stroke-width="0.800953" stroke-miterlimit="10"/>
</svg>
