<svg width="1361" height="688" viewBox="0 0 1361 688" fill="none" xmlns="http://www.w3.org/2000/svg">
<g clip-path="url(#clip0_421_775)">
<path d="M143.698 0.740723C485.321 0.740723 826.943 0.740723 1168.57 0.740723C1417.86 229.661 1667.29 458.51 1916.84 687.286C1076.37 687.767 235.897 687.767 -604.572 687.286C-354.928 458.582 -105.504 229.733 143.698 0.740723Z" stroke="#374151" stroke-width="0.892411" stroke-miterlimit="10"/>
<path d="M-567.559 653.362C-159.963 658.661 248.344 650.082 656.13 650.082C1063.92 650.082 1472.08 658.661 1879.82 653.362" stroke="#374151" stroke-width="0.892411" stroke-miterlimit="10"/>
<path d="M-532.58 621.349C-136.454 628.559 259.862 605.956 656.131 606.641C1052.4 607.326 1448.91 628.704 1844.84 621.349" stroke="#374151" stroke-width="0.892411" stroke-miterlimit="10"/>
<path d="M-499.592 591.176C-113.75 598.133 270.196 556.928 656.133 557.576C1042.07 558.225 1426.3 597.989 1811.86 591.176" stroke="#374151" stroke-width="0.892411" stroke-miterlimit="10"/>
<path d="M-468.361 562.335C-91.5719 567.094 279.198 503.934 656.13 503.934C1033.06 503.934 1403.78 567.166 1780.62 562.335" stroke="#374151" stroke-width="0.892411" stroke-miterlimit="10"/>
<path d="M-438.832 535.298C-69.7207 536.56 286.878 449.39 655.99 449.39C1025.1 449.39 1381.79 536.56 1750.81 535.298" stroke="#374151" stroke-width="0.892411" stroke-miterlimit="10"/>
<path d="M-410.867 509.629C-48.3437 506.529 293.374 393.51 656.134 393.51C1018.89 393.51 1360.56 506.529 1723.14 509.629" stroke="#374151" stroke-width="0.892411" stroke-miterlimit="10"/>
<path d="M-384.186 485.259C-27.4916 477.617 298.822 338.822 656.132 338.822C1013.44 338.822 1339.76 477.617 1696.45 485.259" stroke="#374151" stroke-width="0.892411" stroke-miterlimit="10"/>
<path d="M-359.115 462.116C-7.16069 450.147 303.465 286.802 656.131 286.802C1008.8 286.802 1319.66 450.147 1671.38 462.116" stroke="#374151" stroke-width="0.892411" stroke-miterlimit="10"/>
<path d="M-335.084 440.052C12.5101 424.622 307.496 238.169 656.133 238.169C1004.77 238.169 1299.8 424.622 1647.35 440.052" stroke="#374151" stroke-width="0.892411" stroke-miterlimit="10"/>
<path d="M-308.873 416.006C34.3134 399.603 312 196.098 656.134 196.098C1000.27 196.098 1278.24 399.675 1621.14 416.006" stroke="#374151" stroke-width="0.892411" stroke-miterlimit="10"/>
<path d="M-277.785 387.49C59.2399 367.229 317.258 140.544 656.131 140.544C995.005 140.544 1252.83 367.121 1589.81 387.418" stroke="#374151" stroke-width="0.892411" stroke-miterlimit="10"/>
<path d="M-248.684 360.742C83.9338 337.201 321.382 90.8315 656.132 90.8315C990.882 90.8315 1228.33 337.201 1560.95 360.742" stroke="#374151" stroke-width="0.892411" stroke-miterlimit="10"/>
<path d="M-221.287 335.686C107.681 313.19 324.986 53.4102 656.135 53.4102C987.283 53.4102 1204.59 313.19 1533.56 335.686" stroke="#374151" stroke-width="0.892411" stroke-miterlimit="10"/>
<path d="M-191.383 308.215C123.556 285.431 339.061 44.0374 656.133 44.0374C973.204 44.0374 1188.71 285.576 1503.65 308.215" stroke="#374151" stroke-width="0.892411" stroke-miterlimit="10"/>
<path d="M-163.467 282.584C137.491 260.161 352.663 36.323 656.133 36.323C959.602 36.323 1174.54 260.125 1475.73 282.584" stroke="#374151" stroke-width="0.892411" stroke-miterlimit="10"/>
<path d="M-136.736 258.07C151.235 236.439 366.218 32.8623 656.133 32.8623C946.047 32.8623 1160.89 236.548 1449 258.07" stroke="#374151" stroke-width="0.892411" stroke-miterlimit="10"/>
<path d="M-104.982 228.939C168.96 210.698 380.531 29.5439 656.132 29.5439C931.733 29.5439 1143.59 210.734 1417.25 228.939" stroke="#374151" stroke-width="0.892411" stroke-miterlimit="10"/>
<path d="M-75.6914 202.046C185.265 186.797 393.992 29.0039 656.133 29.0039C918.274 29.0039 1126.86 186.761 1387.96 202.046" stroke="#374151" stroke-width="0.892411" stroke-miterlimit="10"/>
<path d="M-48.584 177.173C199.481 164.555 407.213 27.1666 656.131 28.1039C905.049 29.0412 1112.4 164.519 1360.85 177.173" stroke="#374151" stroke-width="0.892411" stroke-miterlimit="10"/>
<path d="M-23.4141 154.099C213.56 143.284 418.591 27.9224 656.134 27.9224C893.677 27.9224 1098.8 143.284 1335.68 154.099" stroke="#374151" stroke-width="0.892411" stroke-miterlimit="10"/>
<path d="M5.44922 127.602C229.864 118.842 431.245 23.8126 656.134 23.2718C881.022 22.731 1082.69 118.842 1306.82 127.602" stroke="#374151" stroke-width="0.892411" stroke-miterlimit="10"/>
<path d="M34.5918 100.889C246.637 94.5805 443.704 20.3525 656.128 20.3525C868.552 20.3525 1065.57 94.5805 1277.67 100.889" stroke="#374151" stroke-width="0.892411" stroke-miterlimit="10"/>
<path d="M61.3262 76.4466C262.47 72.5171 454.704 18.9821 656.227 18.7658C857.75 18.5495 1049.98 72.5171 1251.13 76.4466" stroke="#374151" stroke-width="0.892411" stroke-miterlimit="10"/>
<path d="M88.7676 51.2112C279.153 49.4808 465.699 15.7014 656.132 15.7014C846.564 15.7014 1033.11 49.4808 1223.5 51.2112" stroke="#374151" stroke-width="0.892411" stroke-miterlimit="10"/>
<path d="M117.631 24.6775C297.4 24.8578 476.315 10.2573 656.132 10.2573C835.948 10.2573 1014.86 25.002 1194.63 24.6775" stroke="#374151" stroke-width="0.892411" stroke-miterlimit="10"/>
<path d="M1129.13 0.776855C1357.96 230.058 1585.31 461.394 1819.68 687.322" stroke="#374151" stroke-width="0.892411" stroke-miterlimit="10"/>
<path d="M1089.79 0.776611C1189.7 107.702 1297.43 210.302 1396.58 317.66C1508.86 439.187 1607.63 567.346 1722.9 687.358" stroke="#374151" stroke-width="0.892411" stroke-miterlimit="10"/>
<path d="M1050.32 0.740723C1139.66 101.322 1242.27 195.413 1328.48 297.472C1435.35 424.01 1516.87 561.614 1625.88 687.359" stroke="#374151" stroke-width="0.892411" stroke-miterlimit="10"/>
<path d="M1010.88 0.704346C1089.84 92.8494 1186.24 177.136 1259.71 271.948C1362.69 405.011 1426.77 553.503 1528.91 687.358" stroke="#374151" stroke-width="0.892411" stroke-miterlimit="10"/>
<path d="M971.305 0.632812C1036.14 85.3154 1129.98 156.083 1190.98 242.387C1290.51 383.165 1337.24 544.022 1431.79 687.359" stroke="#374151" stroke-width="0.892411" stroke-miterlimit="10"/>
<path d="M932.064 0.594727C986.569 74.7866 1076.71 133.044 1126.38 209.255C1222.83 357.567 1250.65 534.214 1334.92 687.321" stroke="#374151" stroke-width="0.892411" stroke-miterlimit="10"/>
<path d="M892.631 0.524902C937.372 64.7669 1022.82 111.02 1062.02 177.389C1101.88 244.839 1115.72 331.937 1137.19 404.182C1165.63 499.932 1196.15 594.421 1238 687.323" stroke="#374151" stroke-width="0.892411" stroke-miterlimit="10"/>
<path d="M853.246 0.48877C890.593 54.2401 966.994 90.2545 997.99 146.421C1036.81 216.359 1042.11 312.938 1058.99 387.96C1081.59 488.685 1105.81 588.544 1141.03 687.179" stroke="#374151" stroke-width="0.892411" stroke-miterlimit="10"/>
<path d="M813.812 0.415283C843.956 48.5066 907.749 74.2107 933.153 124.357C972.254 201.469 970.074 307.457 983.344 389.797C999.458 489.621 1017.66 588.723 1044.06 687.285" stroke="#374151" stroke-width="0.892411" stroke-miterlimit="10"/>
<path d="M774.428 0.380859C797.272 40.8656 848.98 58.0617 868.696 100.421C905.664 179.732 895.095 293.507 904.148 378.01C915.191 481.511 927.845 584.615 947.087 687.431" stroke="#374151" stroke-width="0.892411" stroke-miterlimit="10"/>
<path d="M734.998 0.380859C750.496 33.2589 786.279 46.3452 800.45 80.5571C834.527 162.716 817.323 281.358 822.868 368.096C829.74 474.661 837.513 581.046 850.12 687.287" stroke="#374151" stroke-width="0.892411" stroke-miterlimit="10"/>
<path d="M695.562 0.34375C701.487 24.1371 720.303 42.7752 728.455 66.7488C757.839 153.27 736.843 271.696 739.592 361.606C742.957 470.226 746.702 578.774 753.1 687.322" stroke="#374151" stroke-width="0.892411" stroke-miterlimit="10"/>
<path d="M656.131 0.380859V687.359" stroke="#374151" stroke-width="0.892411" stroke-miterlimit="10"/>
<path d="M616.701 0.34375C610.777 24.1371 591.961 42.7752 583.809 66.7488C554.424 153.27 575.421 271.696 572.672 361.606C569.307 470.226 565.562 578.774 559.164 687.322" stroke="#374151" stroke-width="0.892411" stroke-miterlimit="10"/>
<path d="M577.267 0.380859C561.768 33.2589 525.985 46.3452 511.814 80.5571C477.737 162.716 494.942 281.358 489.397 368.096C482.524 474.661 474.752 581.046 462.145 687.287" stroke="#374151" stroke-width="0.892411" stroke-miterlimit="10"/>
<path d="M537.834 0.380859C514.989 40.8656 463.281 58.0617 443.565 100.421C406.597 179.732 417.166 293.507 408.114 378.01C397.071 481.511 384.416 584.615 365.174 687.431" stroke="#374151" stroke-width="0.892411" stroke-miterlimit="10"/>
<path d="M498.45 0.415283C468.306 48.5066 404.513 74.2107 379.109 124.357C340.008 201.469 342.188 307.457 328.918 389.797C312.804 489.621 294.604 588.723 268.205 687.285" stroke="#374151" stroke-width="0.892411" stroke-miterlimit="10"/>
<path d="M459.02 0.48877C421.673 54.2401 345.272 90.2545 314.276 146.421C275.46 216.359 270.151 312.938 253.279 387.96C230.671 488.685 206.453 588.544 171.238 687.179" stroke="#374151" stroke-width="0.892411" stroke-miterlimit="10"/>
<path d="M419.634 0.524902C374.893 64.7669 289.44 111.02 250.245 177.389C210.386 244.839 196.546 331.937 175.076 404.182C146.64 499.932 116.117 594.421 74.2676 687.323" stroke="#374151" stroke-width="0.892411" stroke-miterlimit="10"/>
<path d="M380.2 0.594727C325.696 74.7866 235.551 133.044 185.881 209.255C89.4327 357.567 61.6119 534.214 -22.6562 687.321" stroke="#374151" stroke-width="0.892411" stroke-miterlimit="10"/>
<path d="M340.956 0.632812C276.119 85.3154 182.277 156.083 121.28 242.387C21.751 383.165 -24.9804 544.022 -119.533 687.359" stroke="#374151" stroke-width="0.892411" stroke-miterlimit="10"/>
<path d="M301.38 0.704346C222.42 92.8494 126.019 177.136 52.5564 271.948C-50.4327 405.011 -114.51 553.503 -216.646 687.358" stroke="#374151" stroke-width="0.892411" stroke-miterlimit="10"/>
<path d="M261.948 0.740723C172.609 101.322 69.999 195.413 -16.2123 297.472C-123.088 424.01 -204.607 561.614 -313.615 687.359" stroke="#374151" stroke-width="0.892411" stroke-miterlimit="10"/>
<path d="M222.468 0.776855C122.56 107.703 14.8311 210.302 -84.319 317.661C-196.597 439.187 -295.368 567.346 -410.633 687.359" stroke="#374151" stroke-width="0.892411" stroke-miterlimit="10"/>
<path d="M183.128 0.776855C-45.6949 230.058 -273.048 461.394 -507.416 687.322" stroke="#374151" stroke-width="0.892411" stroke-miterlimit="10"/>
</g>
<defs>
<clipPath id="clip0_421_775">
<rect width="1361" height="688" rx="35.2765" fill="white"/>
</clipPath>
</defs>
</svg>
