<svg width="544" height="272" viewBox="0 0 544 272" fill="none" xmlns="http://www.w3.org/2000/svg">
<g clip-path="url(#clip0_891_8525)">
<path d="M518.867 370.144C485.074 325.688 443.128 288.072 395.268 259.304C305.279 205.648 146.335 156.317 55.694 229.202C27.9641 251.512 -5.03932 294.636 6.02601 329.034C23.0017 381.95 130.885 410.008 210.209 379.699C228.391 372.68 245.269 362.666 260.143 350.07" stroke="#1F2937" stroke-width="0.4" stroke-miterlimit="10"/>
<path d="M504.944 399.757C476.874 351.486 439.869 309.003 395.906 274.578C313.19 210.255 161.505 141.755 62.6129 202.966C32.3499 221.691 -5.67515 260.43 1.04996 295.925C11.4191 350.544 115.006 391.639 197.456 371.299C216.369 366.573 234.355 358.706 250.664 348.026" stroke="#1F2937" stroke-width="0.4" stroke-miterlimit="10"/>
<path d="M487.479 427.415C465.555 376.052 434.049 329.335 394.645 289.762C320.462 215.781 178.375 129.148 72.6696 177.738C40.3328 192.552 -2.16572 226.373 0.0858604 262.43C3.75949 317.939 101.525 371.462 185.811 361.403C205.162 359.029 223.978 353.431 241.479 344.841" stroke="#1F2937" stroke-width="0.4" stroke-miterlimit="10"/>
<path d="M466.74 452.762C451.294 399.098 425.771 348.867 391.534 304.754C326.994 222.21 196.609 118.763 85.7635 154.006C51.8417 164.776 5.50659 193.071 3.38832 229.143C0.0998346 284.636 90.5629 349.759 175.486 350.144C194.977 350.179 214.335 346.939 232.753 340.56" stroke="#1F2937" stroke-width="0.4" stroke-miterlimit="10"/>
<path d="M443.054 475.339C434.314 420.204 415.155 367.239 386.602 319.272C332.697 229.35 216.015 110.675 101.674 132.022C66.6853 138.54 17.2394 160.939 10.6921 196.478C0.61923 251.142 82.3871 326.842 166.614 337.716C185.958 340.135 205.571 339.294 224.636 335.227" stroke="#1F2937" stroke-width="0.4" stroke-miterlimit="10"/>
<path d="M416.778 494.834C414.912 439.031 402.434 384.094 380.013 332.96C337.558 237.158 236.326 105.045 120.251 112.23C84.7002 114.408 32.8546 130.555 22.0263 165.013C5.24318 217.958 77.0715 303.199 159.299 324.279C178.198 329.062 197.766 330.639 217.188 328.946" stroke="#1F2937" stroke-width="0.4" stroke-miterlimit="10"/>
<path d="M388.306 510.966C393.279 455.343 387.618 399.281 371.626 345.774C341.274 245.483 257.062 101.934 140.958 94.7346C105.407 92.5421 52.0797 102.142 37 135.044C13.9065 185.604 74.7288 279.022 153.771 310.057C171.938 317.122 191.16 321.092 210.638 321.805" stroke="#1F2937" stroke-width="0.4" stroke-miterlimit="10"/>
<path d="M358.057 523.455C369.829 468.889 371.101 412.579 361.804 357.537C344.014 254.223 278.066 101.401 163.74 79.9948C128.751 73.447 74.5503 76.4542 55.6045 107.223C26.4673 154.628 75.3354 254.742 149.978 295.258C167.14 304.505 185.732 310.804 204.979 313.895" stroke="#1F2937" stroke-width="0.4" stroke-miterlimit="10"/>
<path d="M326.504 532.151C344.904 479.427 353.093 423.68 350.635 367.892C345.643 263.215 298.982 103.46 188.151 68.1582C154.244 57.3587 100.043 53.6848 77.4975 81.8909C42.7758 125.281 78.9788 230.713 148.067 280.104C163.963 291.386 181.638 299.923 200.357 305.362" stroke="#1F2937" stroke-width="0.4" stroke-miterlimit="10"/>
<path d="M294.094 536.891C318.814 486.842 333.785 432.545 338.207 376.899C346.132 272.415 319.454 108.127 213.778 59.4771C181.456 44.589 128.159 34.2932 102.28 59.4771C62.5371 98.2456 85.5121 207.322 148.008 264.83C162.399 277.982 178.892 288.627 196.802 296.325" stroke="#1F2937" stroke-width="0.4" stroke-miterlimit="10"/>
<path d="M261.417 537.617C292.12 490.973 313.657 438.907 324.875 384.202C345.614 281.481 339.289 115.163 240.441 53.8476C210.178 35.0929 158.555 18.2937 129.773 40.1742C85.4823 73.8318 94.8738 184.923 149.83 249.645C162.493 264.471 177.555 277.065 194.388 286.903" stroke="#1F2937" stroke-width="0.4" stroke-miterlimit="10"/>
<path d="M228.916 534.328C265.12 491.813 292.891 442.788 310.743 389.876C343.91 290.474 358.145 124.704 267.504 51.6998C239.73 29.375 190.55 6.36867 159.295 24.4715C111.227 52.3961 106.901 163.724 153.488 234.832C164.233 251.099 177.632 265.446 193.128 277.274" stroke="#1F2937" stroke-width="0.4" stroke-miterlimit="10"/>
<path d="M196.95 527.054C238.109 489.304 271.697 444.054 295.916 393.728C341.036 299.169 375.506 136.333 294.553 52.8107C269.786 27.2564 223.806 -1.60151 190.58 12.62C139.446 34.4264 121.463 144.466 158.969 220.625C167.622 238.085 179.138 253.974 193.039 267.63" stroke="#1F2937" stroke-width="0.4" stroke-miterlimit="10"/>
<path d="M166.185 515.914C211.659 483.512 250.545 442.743 280.764 395.787C337.172 307.421 391.387 150.125 321.322 57.2698C299.872 28.9156 257.803 -5.43829 223.082 4.54641C169.666 19.8938 138.292 126.852 166.155 207.085C172.626 225.483 182.14 242.664 194.3 257.912" stroke="#1F2937" stroke-width="0.4" stroke-miterlimit="10"/>
<path d="M137.078 501.085C186.195 474.506 229.797 438.809 265.551 395.905C332.388 315.213 405.534 165.709 347.393 64.9436C329.618 34.1154 292.067 -5.09747 256.367 0.546697C201.47 9.21294 157.209 111.519 174.999 194.611C179.144 213.664 186.454 231.886 196.626 248.52" stroke="#1F2937" stroke-width="0.4" stroke-miterlimit="10"/>
<path d="M109.895 482.775C161.9 462.436 209.557 432.381 250.322 394.217C326.55 322.339 417.517 182.982 372.204 75.8171C358.339 43.0335 325.898 -0.4903 289.784 0.768898C234.235 2.62066 177.739 98.7049 185.19 183.308C186.95 202.721 191.957 221.7 200.003 239.454" stroke="#1F2937" stroke-width="0.4" stroke-miterlimit="10"/>
<path d="M85.2319 461.265C139.339 447.48 190.326 423.513 235.466 390.646C319.959 328.679 427.413 201.53 395.55 89.6535C385.818 55.4181 358.977 8.17592 322.966 4.99089C267.61 0.0133508 199.722 88.4239 196.715 173.294C196.093 192.781 198.742 212.235 204.551 230.847" stroke="#1F2937" stroke-width="0.4" stroke-miterlimit="10"/>
<path d="M63.3794 436.896C118.777 429.866 172.328 412.344 221.168 385.269C312.638 334.16 434.816 221.173 417.04 106.23C411.589 71.047 390.747 20.9309 355.433 13.2868C301.114 1.53923 222.871 80.9428 209.465 164.805C206.447 184.065 206.682 203.695 210.162 222.877" stroke="#1F2937" stroke-width="0.4" stroke-miterlimit="10"/>
<path d="M44.7031 410.023C100.547 409.861 155.848 399.057 207.646 378.188C304.686 338.708 439.855 241.587 436.3 125.326C435.219 89.7719 420.687 37.4337 386.573 25.5232C334.09 7.18331 246.693 76.3207 223.096 157.946C217.735 176.709 215.557 196.238 216.653 215.721" stroke="#1F2937" stroke-width="0.4" stroke-miterlimit="10"/>
<path d="M29.4731 381.062C84.91 387.761 141.116 383.834 195.083 369.492C296.241 342.234 442.312 262.475 453.081 146.643C456.369 111.208 448.385 57.5068 416.048 41.4631C366.232 16.8273 270.985 74.7356 237.537 152.806C229.914 170.748 225.353 189.841 224.042 209.292" stroke="#1F2937" stroke-width="0.4" stroke-miterlimit="10"/>
<path d="M17.9062 350.456C72.1033 363.917 128.368 366.934 183.694 359.344C287.385 344.723 442.21 283.526 467.111 169.902C474.814 135.103 473.406 80.7651 443.232 60.9438C396.823 30.3972 295.191 76.1431 252.396 149.488C242.629 166.362 235.76 184.754 232.073 203.9" stroke="#1F2937" stroke-width="0.4" stroke-miterlimit="10"/>
<path d="M10.2031 318.65C62.3348 338.661 117.8 348.56 173.635 347.819C278.393 346.056 439.499 304.339 478.191 194.641C490.041 161.072 495.374 107.045 467.822 83.6094C425.516 47.5519 319.025 80.4836 267.55 148.036C255.806 163.582 246.753 180.988 240.768 199.53" stroke="#1F2937" stroke-width="0.4" stroke-miterlimit="10"/>
<path d="M6.45557 286.133C55.7285 312.405 109.556 329.047 165.059 335.167C269.238 346.308 434.255 324.694 486.131 220.58C502.01 188.715 513.95 135.77 489.538 109.119C452.001 68.1432 342.267 87.7423 282.866 148.45C269.276 162.449 258.13 178.628 249.893 196.315" stroke="#1F2937" stroke-width="0.4" stroke-miterlimit="10"/>
<path d="M6.72119 253.409C52.3936 285.532 103.768 308.66 158.095 321.554C260.127 345.404 426.537 344.249 490.811 247.29C510.482 217.662 528.85 166.539 507.89 137.103C475.672 91.8165 364.367 97.7866 297.96 150.717C282.758 162.922 269.71 177.589 259.357 194.108" stroke="#1F2937" stroke-width="0.4" stroke-miterlimit="10"/>
<path d="M11.0337 220.966C52.4156 258.457 100.556 287.727 152.883 307.213C251.212 343.419 416.555 362.722 492.22 274.4C515.373 247.379 539.873 198.937 522.705 167.146C496.279 118.259 385.092 110.482 312.686 154.865C296.099 165.11 281.344 178.058 269.032 193.174" stroke="#1F2937" stroke-width="0.4" stroke-miterlimit="10"/>
<path d="M19.2837 189.308C55.7461 231.597 99.9247 266.559 149.46 292.325C242.59 340.338 404.244 379.817 490.249 301.466C516.557 277.496 546.82 232.432 533.68 198.774C513.476 146.984 404.081 125.622 326.772 160.761C309.058 168.869 292.826 179.885 278.748 193.352" stroke="#1F2937" stroke-width="0.4" stroke-miterlimit="10"/>
<path d="M31.3569 158.88C62.3466 205.338 101.901 245.469 147.906 277.126C234.414 336.234 390.025 395.268 484.976 328.086C514.039 307.524 549.605 266.519 540.703 231.498C527.015 177.634 421.073 142.984 340.016 168.361C321.435 174.236 303.971 183.185 288.348 194.833" stroke="#1F2937" stroke-width="0.4" stroke-miterlimit="10"/>
<path d="M47.0894 130.185C72.1295 180.1 106.451 224.786 148.218 261.853C226.816 331.138 373.983 408.853 476.474 353.848C507.833 337.019 548.184 300.695 543.651 264.845C536.674 209.648 435.798 162.243 352.252 177.531C333.085 181.088 314.649 187.833 297.711 197.485" stroke="#1F2937" stroke-width="0.4" stroke-miterlimit="10"/>
<path d="M66.2275 103.638C84.947 156.235 113.517 204.782 150.41 246.683C219.898 325.198 356.4 420.363 464.875 378.38C498.071 365.522 542.57 334.442 542.466 298.31C542.333 242.728 448.033 183.279 363.229 188.123C343.771 189.294 324.647 193.726 306.658 201.233" stroke="#1F2937" stroke-width="0.4" stroke-miterlimit="10"/>
<path d="M88.4731 79.6389C100.577 134.158 122.964 185.869 154.436 232.002C213.762 318.368 337.524 429.637 450.34 401.297C484.855 392.616 532.834 367.225 537.189 331.36C543.87 276.178 457.599 205.603 372.868 199.989C353.408 198.761 333.88 200.81 315.097 206.048" stroke="#1F2937" stroke-width="0.4" stroke-miterlimit="10"/>
<path d="M113.496 58.5437C118.819 114.135 134.685 168.203 160.245 217.855C208.506 310.857 317.663 436.496 433.101 422.289C468.43 417.919 519.165 398.587 527.905 363.566C541.325 309.628 464.372 228.98 380.974 212.996C361.815 209.394 342.189 209.024 322.907 211.899" stroke="#1F2937" stroke-width="0.4" stroke-miterlimit="10"/>
<path d="M140.929 40.7671C139.386 96.5886 148.485 152.194 167.741 204.611C204.21 302.799 297.058 440.896 413.415 440.926C448.966 440.926 501.745 428.022 514.706 394.291C534.644 342.441 468.193 252.92 387.388 226.803C368.82 220.86 349.389 218.066 329.899 218.536" stroke="#1F2937" stroke-width="0.4" stroke-miterlimit="10"/>
<path d="M170.345 26.3826C161.942 81.5975 164.139 137.908 176.818 192.3C200.948 294.266 276.169 442.659 391.607 457.058C426.936 461.502 480.84 455.103 497.846 423.223C524.02 374.188 469.064 277.2 392.081 241.365C374.385 233.189 355.443 228.041 336.043 226.136" stroke="#1F2937" stroke-width="0.4" stroke-miterlimit="10"/>
<path d="M201.307 15.7607C186.186 69.521 181.446 125.67 187.338 181.205C198.759 285.363 255.152 441.933 367.953 470.346C402.468 479.042 456.757 479.383 477.57 449.843C509.566 404.394 466.934 301.391 394.943 256.357C378.383 246.073 360.218 238.637 341.201 234.358" stroke="#1F2937" stroke-width="0.4" stroke-miterlimit="10"/>
<path d="M233.363 9.03491C211.743 60.5252 200.129 115.664 199.145 171.501C197.664 276.281 234.4 438.614 342.832 480.657C376.013 493.53 429.843 500.537 454.122 473.768C491.451 432.6 461.81 325.138 395.892 271.6C380.723 259.356 363.609 249.741 345.261 243.157" stroke="#1F2937" stroke-width="0.4" stroke-miterlimit="10"/>
<path d="M265.949 6.29443C238.177 54.7401 219.888 108.033 212.059 163.324C197.72 267.126 214.236 432.748 316.698 487.753C348.042 504.611 400.614 518.181 427.988 494.597C470.102 458.332 453.881 348.041 395.044 286.799C381.491 272.785 365.683 261.143 348.279 252.357" stroke="#1F2937" stroke-width="0.4" stroke-miterlimit="10"/>
<path d="M298.627 7.58325C265.112 52.2501 240.413 102.894 225.851 156.806C198.876 258.045 194.847 424.452 289.828 491.678C318.877 512.255 369.374 532.18 399.445 512.137C445.706 481.323 443.158 369.921 392.29 301.865C380.563 286.293 366.308 272.798 350.117 261.941" stroke="#1F2937" stroke-width="0.4" stroke-miterlimit="10"/>
<path d="M330.921 12.8721C292.173 53.082 261.441 100.307 240.369 152.021C201.144 249.187 176.762 413.83 262.707 492.212C289 516.211 336.668 542.18 368.961 526.003C418.659 501.1 429.828 390.187 387.699 316.443C377.975 299.545 365.488 284.398 350.756 271.63" stroke="#1F2937" stroke-width="0.4" stroke-miterlimit="10"/>
<path d="M362.326 22.1013C318.929 57.2426 282.622 100.329 255.346 149.058C204.493 240.669 160.054 401.076 235.719 489.427C258.872 516.463 302.985 548.106 337.055 536.002C389.419 517.396 414.083 408.705 381.39 330.338C373.832 312.38 363.318 295.815 350.283 281.333" stroke="#1F2937" stroke-width="0.4" stroke-miterlimit="10"/>
<path d="M392.349 35.1079C344.965 64.6531 303.641 102.953 270.587 147.962C208.846 232.624 145.046 386.35 209.275 483.338C228.932 512.966 268.809 549.839 304.079 542.017C358.339 529.988 396.231 425.148 373.359 343.36C368.047 324.599 359.625 306.862 348.444 290.888" stroke="#1F2937" stroke-width="0.4" stroke-miterlimit="10"/>
<path d="M420.54 51.7146C369.888 75.2118 324.175 108.143 285.845 148.747C214.105 225.188 131.967 369.892 183.783 474.035C199.633 505.915 234.71 547.35 270.661 543.928C326.003 538.654 376.486 439.266 363.835 355.3C360.865 336.031 354.691 317.394 345.571 300.162" stroke="#1F2937" stroke-width="0.4" stroke-miterlimit="10"/>
<path d="M446.488 71.6545C393.329 88.7496 343.911 115.813 300.876 151.399C220.368 218.447 121.002 351.967 159.62 461.68C171.47 495.264 201.096 540.699 237.269 541.676C292.818 543.247 355.137 450.821 352.9 365.922C352.296 346.447 348.441 327.21 341.494 309.006" stroke="#1F2937" stroke-width="0.4" stroke-miterlimit="10"/>
<path d="M469.793 94.6311C414.937 105.067 362.569 125.85 315.486 155.873C227.333 212.522 112.325 332.812 137.167 446.451C144.78 481.235 168.674 529.973 204.388 535.425C259.33 543.809 332.535 459.739 340.757 375.21C342.576 355.799 341.129 336.22 336.476 317.287" stroke="#1F2937" stroke-width="0.4" stroke-miterlimit="10"/>
<path d="M490.084 120.304C434.361 123.915 379.835 138.108 329.422 162.124C234.99 207.5 106.057 312.754 116.752 428.585C120.04 464.021 137.757 515.337 172.538 525.144C226.028 540.21 309.01 465.769 327.541 382.928C331.743 363.889 332.719 344.279 330.43 324.916" stroke="#1F2937" stroke-width="0.4" stroke-miterlimit="10"/>
<path d="M507.077 148.273C451.331 145.008 395.472 152.393 342.49 170.035C243.242 203.455 102.311 292.058 98.697 408.334C97.6009 443.888 108.874 497.011 142.188 511.011C193.367 532.595 284.911 468.894 313.501 388.898C320.005 370.52 323.38 351.181 323.485 331.686" stroke="#1F2937" stroke-width="0.4" stroke-miterlimit="10"/>
<path d="M520.496 178.123C465.575 168.028 409.234 168.491 354.486 179.486C251.832 200.463 101.184 271.082 83.2601 386.024C77.7941 421.193 82.475 475.279 113.805 493.264C162.006 520.936 260.631 468.983 298.819 393.135C307.538 375.697 313.266 356.918 315.765 337.582" stroke="#1F2937" stroke-width="0.4" stroke-miterlimit="10"/>
<path d="M530.156 209.396C476.878 192.632 420.893 186.182 365.199 190.389C260.782 198.537 102.549 250.105 70.6861 361.981C60.9392 396.216 58.9246 450.466 87.81 472.168C132.249 505.544 236.518 466.109 283.742 395.535C294.546 379.298 302.557 361.367 307.443 342.486" stroke="#1F2937" stroke-width="0.4" stroke-miterlimit="10"/>
<path d="M535.889 241.617C485.096 218.423 430.348 205.125 374.575 202.433C269.907 197.737 106.46 229.454 61.1616 336.575C47.2818 369.344 38.6161 422.941 64.613 448.021C104.608 486.538 212.936 460.302 268.47 396.054C281.174 381.265 291.309 364.45 298.451 346.308" stroke="#1F2937" stroke-width="0.4" stroke-miterlimit="10"/>
<path d="M537.637 274.281C490.067 245.03 437.361 225.106 382.338 215.573C279.047 198.048 113.007 209.44 54.8218 310.176C37.0462 340.989 21.848 393.135 44.5712 421.208C79.5151 464.42 190.242 451.606 253.257 394.676C267.685 381.568 279.808 366.129 289.119 349.004" stroke="#1F2937" stroke-width="0.4" stroke-miterlimit="10"/>
<path d="M535.341 306.932C491.728 272.056 441.873 245.807 388.44 229.587C288.082 199.5 121.894 190.389 51.7844 283.229C30.3203 311.628 8.82664 361.492 27.9502 392.157C57.3393 439.34 168.792 440.229 238.295 391.476C254.222 380.237 268.152 366.406 279.505 350.559" stroke="#1F2937" stroke-width="0.4" stroke-miterlimit="10"/>
<path d="M529.06 339.049C490.061 299.083 443.811 266.906 392.78 244.238C296.866 202.048 133.064 172.597 52.0809 256.09C27.2839 281.644 -0.149788 328.486 15.0484 361.27C38.3937 411.638 148.914 426.289 223.912 386.454C241.097 377.251 256.619 365.233 269.832 350.9" stroke="#1F2937" stroke-width="0.4" stroke-miterlimit="10"/>
</g>
<defs>
<clipPath id="clip0_891_8525">
<rect width="544" height="272" fill="white"/>
</clipPath>
</defs>
</svg>
