<svg width="1360" height="468" viewBox="0 0 1360 468" fill="none" xmlns="http://www.w3.org/2000/svg">
<g clip-path="url(#clip0_894_11996)">
<path d="M314.792 0.77002C547.212 0.77002 779.631 0.77002 1012.05 0.77002C1181.66 156.514 1351.35 312.209 1521.13 467.855C949.324 468.182 377.519 468.182 -194.286 467.855C-24.4428 312.258 145.25 156.563 314.792 0.77002Z" stroke="#1F2937" stroke-width="0.607143" stroke-miterlimit="10"/>
<path d="M-169.104 444.774C108.2 448.38 385.988 442.542 663.421 442.542C940.853 442.542 1218.54 448.38 1495.95 444.774" stroke="#1F2937" stroke-width="0.607143" stroke-miterlimit="10"/>
<path d="M-145.307 422.995C124.194 427.901 393.824 412.522 663.421 412.988C933.019 413.454 1202.78 427.999 1472.15 422.995" stroke="#1F2937" stroke-width="0.607143" stroke-miterlimit="10"/>
<path d="M-122.864 402.467C139.64 407.2 400.854 379.166 663.422 379.608C925.99 380.049 1187.4 407.102 1449.71 402.467" stroke="#1F2937" stroke-width="0.607143" stroke-miterlimit="10"/>
<path d="M-101.616 382.845C154.729 386.083 406.979 343.112 663.42 343.112C919.862 343.112 1172.08 386.132 1428.46 382.845" stroke="#1F2937" stroke-width="0.607143" stroke-miterlimit="10"/>
<path d="M-81.5259 364.451C169.595 365.309 412.204 306.004 663.325 306.004C914.447 306.004 1157.12 365.309 1408.18 364.451" stroke="#1F2937" stroke-width="0.607143" stroke-miterlimit="10"/>
<path d="M-62.5005 346.987C184.139 344.878 416.623 267.987 663.423 267.987C910.224 267.987 1142.68 344.878 1389.35 346.987" stroke="#1F2937" stroke-width="0.607143" stroke-miterlimit="10"/>
<path d="M-44.3481 330.408C198.325 325.208 420.329 230.781 663.422 230.781C906.514 230.781 1128.52 325.208 1371.19 330.408" stroke="#1F2937" stroke-width="0.607143" stroke-miterlimit="10"/>
<path d="M-27.291 314.662C212.158 306.519 423.489 195.389 663.422 195.389C903.354 195.389 1114.85 306.519 1354.13 314.662" stroke="#1F2937" stroke-width="0.607143" stroke-miterlimit="10"/>
<path d="M-10.9434 299.651C225.539 289.154 426.23 162.302 663.421 162.302C900.613 162.302 1101.34 289.154 1337.79 299.651" stroke="#1F2937" stroke-width="0.607143" stroke-miterlimit="10"/>
<path d="M6.88916 283.292C240.373 272.132 429.294 133.68 663.422 133.68C897.551 133.68 1086.67 272.181 1319.96 283.292" stroke="#1F2937" stroke-width="0.607143" stroke-miterlimit="10"/>
<path d="M28.0396 263.891C257.331 250.107 432.871 95.8838 663.42 95.8838C893.97 95.8838 1069.38 250.034 1298.64 263.842" stroke="#1F2937" stroke-width="0.607143" stroke-miterlimit="10"/>
<path d="M47.8384 245.693C274.131 229.677 435.677 62.0625 663.421 62.0625C891.165 62.0625 1052.71 229.677 1279 245.693" stroke="#1F2937" stroke-width="0.607143" stroke-miterlimit="10"/>
<path d="M66.4771 228.646C290.287 213.342 438.129 36.603 663.422 36.603C888.716 36.603 1036.56 213.342 1260.37 228.646" stroke="#1F2937" stroke-width="0.607143" stroke-miterlimit="10"/>
<path d="M86.8232 209.957C301.089 194.457 447.705 30.2266 663.422 30.2266C879.139 30.2266 1025.76 194.555 1240.02 209.957" stroke="#1F2937" stroke-width="0.607143" stroke-miterlimit="10"/>
<path d="M105.815 192.519C310.569 177.264 456.96 24.978 663.422 24.978C869.884 24.978 1016.11 177.239 1221.03 192.519" stroke="#1F2937" stroke-width="0.607143" stroke-miterlimit="10"/>
<path d="M124.001 175.841C319.92 161.125 466.182 22.6235 663.422 22.6235C860.663 22.6235 1006.83 161.199 1202.84 175.841" stroke="#1F2937" stroke-width="0.607143" stroke-miterlimit="10"/>
<path d="M145.605 156.023C331.979 143.612 475.919 20.3662 663.422 20.3662C850.924 20.3662 995.058 143.637 1181.24 156.023" stroke="#1F2937" stroke-width="0.607143" stroke-miterlimit="10"/>
<path d="M165.531 137.726C343.07 127.351 485.076 19.9985 663.421 19.9985C841.766 19.9985 983.675 127.327 1161.31 137.726" stroke="#1F2937" stroke-width="0.607143" stroke-miterlimit="10"/>
<path d="M183.976 120.804C352.744 112.22 494.072 18.7489 663.421 19.3865C832.77 20.0242 973.841 112.195 1142.87 120.804" stroke="#1F2937" stroke-width="0.607143" stroke-miterlimit="10"/>
<path d="M201.099 105.106C362.322 97.7478 501.813 19.2627 663.423 19.2627C825.033 19.2627 964.588 97.7478 1125.75 105.106" stroke="#1F2937" stroke-width="0.607143" stroke-miterlimit="10"/>
<path d="M220.736 87.0787C373.415 81.1187 510.422 16.4666 663.423 16.0987C816.424 15.7308 953.625 81.1187 1106.11 87.0787" stroke="#1F2937" stroke-width="0.607143" stroke-miterlimit="10"/>
<path d="M240.563 68.9052C384.826 64.6131 518.899 14.1128 663.42 14.1128C807.94 14.1128 941.981 64.6131 1086.28 68.9052" stroke="#1F2937" stroke-width="0.607143" stroke-miterlimit="10"/>
<path d="M258.751 52.2757C395.598 49.6023 526.382 13.1803 663.486 13.0332C800.591 12.886 931.375 49.6023 1068.22 52.2757" stroke="#1F2937" stroke-width="0.607143" stroke-miterlimit="10"/>
<path d="M277.421 35.107C406.948 33.9297 533.863 10.9482 663.422 10.9482C792.981 10.9482 919.896 33.9297 1049.42 35.107" stroke="#1F2937" stroke-width="0.607143" stroke-miterlimit="10"/>
<path d="M297.059 17.0553C419.363 17.1779 541.086 7.24463 663.422 7.24463C785.758 7.24463 907.482 17.276 1029.79 17.0553" stroke="#1F2937" stroke-width="0.607143" stroke-miterlimit="10"/>
<path d="M985.224 0.794434C1140.9 156.784 1295.58 314.171 1455.03 467.879" stroke="#1F2937" stroke-width="0.607143" stroke-miterlimit="10"/>
<path d="M958.46 0.794434C1026.43 73.5403 1099.72 143.343 1167.18 216.383C1243.57 299.062 1310.77 386.254 1389.18 467.904" stroke="#1F2937" stroke-width="0.607143" stroke-miterlimit="10"/>
<path d="M931.601 0.77002C992.382 69.1992 1062.19 133.214 1120.84 202.649C1193.56 288.737 1249.02 382.355 1323.18 467.904" stroke="#1F2937" stroke-width="0.607143" stroke-miterlimit="10"/>
<path d="M904.773 0.745117C958.493 63.4351 1024.08 120.778 1074.06 185.283C1144.12 275.811 1187.72 376.836 1257.21 467.903" stroke="#1F2937" stroke-width="0.607143" stroke-miterlimit="10"/>
<path d="M877.848 0.696777C921.958 58.3098 985.803 106.455 1027.3 165.172C1095.02 260.949 1126.81 370.386 1191.14 467.904" stroke="#1F2937" stroke-width="0.607143" stroke-miterlimit="10"/>
<path d="M851.15 0.670898C888.231 51.1466 949.561 90.7816 983.353 142.631C1048.97 243.533 1067.9 363.714 1125.23 467.878" stroke="#1F2937" stroke-width="0.607143" stroke-miterlimit="10"/>
<path d="M824.322 0.623047C854.761 44.3294 912.898 75.7971 939.564 120.951C966.682 166.84 976.097 226.096 990.704 275.247C1010.05 340.39 1030.82 404.674 1059.29 467.879" stroke="#1F2937" stroke-width="0.607143" stroke-miterlimit="10"/>
<path d="M797.527 0.598633C822.936 37.1678 874.914 61.6699 896.002 99.8823C922.41 147.464 926.022 213.171 937.501 264.211C952.882 332.738 969.359 400.677 993.316 467.781" stroke="#1F2937" stroke-width="0.607143" stroke-miterlimit="10"/>
<path d="M770.699 0.548828C791.206 33.2673 834.608 50.7548 851.891 84.8713C878.493 137.334 877.009 209.442 886.038 265.461C897.001 333.375 909.383 400.798 927.343 467.854" stroke="#1F2937" stroke-width="0.607143" stroke-miterlimit="10"/>
<path d="M743.904 0.525391C759.446 28.0688 794.625 39.768 808.038 68.5867C833.189 122.545 825.999 199.951 832.157 257.442C839.67 327.857 848.28 398.004 861.371 467.953" stroke="#1F2937" stroke-width="0.607143" stroke-miterlimit="10"/>
<path d="M717.078 0.525391C727.622 22.8937 751.967 31.7968 761.608 55.0725C784.792 110.969 773.087 191.686 776.86 250.697C781.535 323.197 786.823 395.575 795.4 467.855" stroke="#1F2937" stroke-width="0.607143" stroke-miterlimit="10"/>
<path d="M690.248 0.5C694.278 16.6876 707.079 29.3678 712.625 45.678C732.617 104.542 718.333 185.112 720.203 246.281C722.492 320.18 725.039 394.029 729.393 467.879" stroke="#1F2937" stroke-width="0.607143" stroke-miterlimit="10"/>
<path d="M663.422 0.525391V467.904" stroke="#1F2937" stroke-width="0.607143" stroke-miterlimit="10"/>
<path d="M636.594 0.5C632.564 16.6876 619.762 29.3678 614.216 45.678C594.225 104.542 608.509 185.112 606.639 246.281C604.35 320.18 601.802 394.029 597.449 467.879" stroke="#1F2937" stroke-width="0.607143" stroke-miterlimit="10"/>
<path d="M609.766 0.525391C599.222 22.8937 574.877 31.7968 565.236 55.0725C542.052 110.969 553.757 191.686 549.985 250.697C545.309 323.197 540.021 395.575 531.444 467.855" stroke="#1F2937" stroke-width="0.607143" stroke-miterlimit="10"/>
<path d="M582.939 0.525391C567.397 28.0688 532.218 39.768 518.804 68.5867C493.654 122.545 500.844 199.951 494.685 257.442C487.172 327.857 478.563 398.004 465.472 467.953" stroke="#1F2937" stroke-width="0.607143" stroke-miterlimit="10"/>
<path d="M556.144 0.548828C535.636 33.2673 492.235 50.7548 474.952 84.8713C448.35 137.334 449.833 209.442 440.805 265.461C429.842 333.375 417.46 400.798 399.5 467.854" stroke="#1F2937" stroke-width="0.607143" stroke-miterlimit="10"/>
<path d="M529.317 0.598633C503.908 37.1678 451.93 61.6699 430.842 99.8823C404.433 147.464 400.822 213.171 389.343 264.211C373.962 332.738 357.485 400.677 333.527 467.781" stroke="#1F2937" stroke-width="0.607143" stroke-miterlimit="10"/>
<path d="M502.522 0.623047C472.083 44.3294 413.946 75.7971 387.279 120.951C360.162 166.84 350.746 226.096 336.14 275.247C316.793 340.39 296.027 404.674 267.555 467.879" stroke="#1F2937" stroke-width="0.607143" stroke-miterlimit="10"/>
<path d="M475.693 0.670898C438.612 51.1466 377.283 90.7816 343.49 142.631C277.872 243.533 258.945 363.714 201.614 467.878" stroke="#1F2937" stroke-width="0.607143" stroke-miterlimit="10"/>
<path d="M448.995 0.696777C404.884 58.3098 341.039 106.455 299.541 165.172C231.827 260.949 200.034 370.386 135.706 467.904" stroke="#1F2937" stroke-width="0.607143" stroke-miterlimit="10"/>
<path d="M422.07 0.745117C368.351 63.4351 302.765 120.778 252.786 185.283C182.718 275.811 139.123 376.836 69.6362 467.903" stroke="#1F2937" stroke-width="0.607143" stroke-miterlimit="10"/>
<path d="M395.243 0.77002C334.461 69.1992 264.652 133.214 205.999 202.649C133.287 288.737 77.8263 382.355 3.66357 467.904" stroke="#1F2937" stroke-width="0.607143" stroke-miterlimit="10"/>
<path d="M368.382 0.794434C300.41 73.5403 227.118 143.343 159.663 216.383C83.275 299.062 16.0772 386.254 -62.3418 467.904" stroke="#1F2937" stroke-width="0.607143" stroke-miterlimit="10"/>
<path d="M341.619 0.794434C185.941 156.784 31.2638 314.171 -128.186 467.879" stroke="#1F2937" stroke-width="0.607143" stroke-miterlimit="10"/>
</g>
<defs>
<clipPath id="clip0_894_11996">
<rect y="0.5" width="1360" height="467.5" rx="24" fill="white"/>
</clipPath>
</defs>
</svg>
