<svg width="105" height="24" viewBox="0 0 105 24" fill="none" xmlns="http://www.w3.org/2000/svg">
<path d="M0 8.50626H9.60667H15.4405V2.72479L0 8.50626Z" fill="#FF9D28"/>
<path d="M15.4404 2.7248V23.1608L22.7415 0L15.4404 2.7248Z" fill="#68C5ED"/>
<path d="M15.4406 8.50629H9.60669L15.4406 23.1434V8.50629Z" fill="#044D80"/>
<path d="M0 8.50629L11.1088 12.2616L9.60667 8.50629H0Z" fill="#E54747"/>
<path d="M35.3874 17.7637C35.3001 17.851 35.1603 17.9558 34.9682 18.0781C34.7761 18.2003 34.5141 18.3401 34.1997 18.4623C33.8853 18.5846 33.501 18.7069 33.0294 18.7942C32.5753 18.8815 32.0513 18.9339 31.4574 18.9339C30.3221 18.9339 29.3264 18.7418 28.488 18.3925C27.6496 18.0257 26.9684 17.5191 26.427 16.8554C25.8855 16.1917 25.4838 15.4231 25.2392 14.5323C24.9772 13.6415 24.855 12.6459 24.855 11.5805C24.855 10.515 24.9947 9.51939 25.2742 8.61112C25.5536 7.70285 25.9554 6.91685 26.5143 6.25312C27.0558 5.58938 27.7544 5.06538 28.5754 4.69858C29.3963 4.33178 30.3744 4.13965 31.4923 4.13965C32.0338 4.13965 32.5403 4.19205 32.977 4.27938C33.4137 4.38418 33.8154 4.48898 34.1473 4.62871C34.4791 4.76845 34.7586 4.90818 34.9682 5.04792C35.1953 5.18765 35.3525 5.32738 35.4573 5.41471C35.5795 5.51951 35.7018 5.65925 35.7891 5.81645C35.8765 5.97365 35.9289 6.14832 35.9289 6.32298C35.9289 6.60245 35.8241 6.88191 35.6145 7.16138C35.4049 7.44085 35.1778 7.70285 34.9158 7.94738C34.7411 7.77271 34.549 7.59805 34.3394 7.42338C34.1298 7.24871 33.8853 7.09152 33.6233 6.95178C33.3613 6.81205 33.0643 6.70725 32.7325 6.61992C32.4006 6.53258 32.0338 6.48018 31.6146 6.48018C30.8984 6.48018 30.2871 6.61992 29.798 6.91685C29.309 7.21378 28.9247 7.58058 28.6278 8.05218C28.3308 8.52378 28.1212 9.04778 27.999 9.64165C27.8767 10.2355 27.8069 10.8469 27.8069 11.4757C27.8069 12.1394 27.8767 12.7682 27.999 13.3795C28.1212 13.9909 28.3483 14.5149 28.6627 14.9865C28.9771 15.4581 29.3788 15.8249 29.8854 16.1043C30.3919 16.3838 31.0033 16.5235 31.7543 16.5235C32.1561 16.5235 32.5054 16.4711 32.8373 16.3838C33.1691 16.279 33.4661 16.1567 33.7106 16.017C33.9726 15.8773 34.1822 15.7201 34.3743 15.5803C34.5665 15.4231 34.7237 15.2834 34.8459 15.1786C34.9333 15.2834 35.0206 15.4057 35.1429 15.5454C35.2651 15.6851 35.3699 15.8423 35.4573 15.9821C35.5621 16.1393 35.6319 16.2965 35.7193 16.4537C35.7891 16.6109 35.8241 16.7506 35.8241 16.8729C35.8241 17.065 35.7891 17.2047 35.7193 17.3445C35.6494 17.4667 35.5271 17.6065 35.3874 17.7637ZM46.2866 16.1393C46.2866 17.2571 46.4438 18.0781 46.7757 18.5846C46.5137 18.6894 46.2866 18.7593 46.0595 18.7942C45.8325 18.8291 45.6054 18.8641 45.3609 18.8641C44.8543 18.8641 44.4701 18.7593 44.2081 18.5671C43.9461 18.375 43.7714 18.0781 43.7015 17.7113C43.3871 18.0431 42.9854 18.3226 42.4614 18.5497C41.9549 18.7767 41.3261 18.8815 40.5925 18.8815C40.2082 18.8815 39.8239 18.8291 39.4397 18.7243C39.0554 18.6195 38.7061 18.4449 38.3917 18.2003C38.0773 17.9558 37.8327 17.6414 37.6231 17.2397C37.431 16.8379 37.3262 16.3489 37.3262 15.7725C37.3262 15.0563 37.5009 14.4625 37.8502 14.0083C38.1995 13.5542 38.6362 13.2049 39.1602 12.9429C39.6842 12.6809 40.2606 12.5062 40.8545 12.4014C41.4658 12.2966 42.0247 12.2442 42.5313 12.2093C42.7059 12.1918 42.8631 12.1918 43.0378 12.1918H43.4919V11.8075C43.4919 11.2661 43.3522 10.8818 43.0553 10.6373C42.7583 10.4102 42.2867 10.2879 41.6405 10.2879C41.0291 10.2879 40.4877 10.3927 40.0161 10.5849C39.5445 10.777 39.0729 11.004 38.6187 11.266C38.4266 11.0215 38.2519 10.7595 38.1471 10.4626C38.0249 10.1657 37.9725 9.95605 37.9725 9.81632C37.9725 9.62418 38.0773 9.43205 38.3043 9.23992C38.5314 9.04779 38.8283 8.89058 39.2126 8.73338C39.5969 8.57618 40.0335 8.47139 40.5401 8.36659C41.0291 8.27925 41.5531 8.22685 42.1121 8.22685C42.8806 8.22685 43.5269 8.29672 44.0509 8.45392C44.5749 8.61112 45.0115 8.85565 45.3434 9.17005C45.6753 9.50192 45.9198 9.90365 46.0595 10.3927C46.1993 10.8818 46.2691 11.4582 46.2691 12.1045L46.2866 16.1393ZM43.5618 13.6765H43.2649C43.1601 13.6765 43.0727 13.6765 42.9679 13.6939C42.6186 13.7289 42.2693 13.7638 41.9199 13.8162C41.5706 13.8686 41.2562 13.9734 40.9942 14.1131C40.7322 14.2529 40.5051 14.445 40.3305 14.6721C40.1558 14.8991 40.0685 15.1961 40.0685 15.5454C40.0685 15.9471 40.1733 16.279 40.4003 16.5585C40.6274 16.8379 41.0117 16.9777 41.5531 16.9777C41.8151 16.9777 42.0771 16.9427 42.3217 16.8729C42.5662 16.803 42.7758 16.7157 42.9679 16.5934C43.1601 16.4711 43.2998 16.3489 43.4046 16.2266C43.5094 16.0869 43.5618 15.9646 43.5618 15.8598V13.6765ZM51.579 9.48445C51.8061 9.22245 52.1554 8.94298 52.6445 8.66352C53.1335 8.38405 53.7274 8.24432 54.461 8.24432C54.985 8.24432 55.4915 8.33165 55.9631 8.50632C56.4347 8.68098 56.8539 8.97792 57.2207 9.36218C57.5875 9.76392 57.8845 10.2879 58.0941 10.9342C58.3211 11.5805 58.4259 12.3839 58.4259 13.3446C58.4259 14.445 58.3037 15.3707 58.0417 16.0869C57.7797 16.803 57.4653 17.3794 57.0635 17.7811C56.6618 18.2003 56.2077 18.4973 55.7186 18.6719C55.2295 18.8466 54.723 18.9339 54.2339 18.9339C53.8322 18.9339 53.4654 18.8815 53.1685 18.7942C52.8715 18.7069 52.6095 18.6021 52.3999 18.4798C52.1903 18.375 52.0331 18.2527 51.9109 18.1479C51.8061 18.0431 51.7187 17.9558 51.7013 17.9209V23.1609H48.8018V8.55871C48.8717 8.54125 48.959 8.52378 49.0638 8.52378C49.1511 8.50632 49.2559 8.50632 49.3607 8.48885C49.483 8.48885 49.6053 8.47138 49.7625 8.47138C50.2341 8.47138 50.6358 8.54125 50.9677 8.69845C51.2821 8.85565 51.4917 9.11765 51.579 9.48445ZM55.4217 13.4145C55.4217 12.9953 55.3867 12.5935 55.3169 12.2267C55.247 11.8599 55.1247 11.5455 54.9675 11.266C54.8103 11.004 54.5833 10.7945 54.3038 10.6373C54.0243 10.4801 53.6925 10.4102 53.2907 10.4102C52.6969 10.4102 52.2777 10.5324 52.0506 10.742C51.8235 10.9691 51.7013 11.2137 51.7013 11.4931V16.017C51.8061 16.1393 52.0157 16.2615 52.3126 16.4187C52.6095 16.5759 52.9414 16.6458 53.3257 16.6458C54.0418 16.6458 54.5658 16.3663 54.9151 15.7899C55.247 15.231 55.4217 14.445 55.4217 13.4145ZM60.6617 17.0825C60.5569 16.803 60.5045 16.5061 60.4695 16.1917C60.4346 15.8773 60.4346 15.5629 60.4346 15.2485V5.37978C60.5394 5.36232 60.6442 5.34485 60.749 5.34485C60.8538 5.32738 60.9586 5.32738 61.0634 5.30992C61.1682 5.30992 61.2905 5.29245 61.3953 5.29245C61.6223 5.29245 61.8494 5.30992 62.0765 5.36232C62.3035 5.39725 62.5131 5.48458 62.6878 5.62432C62.8799 5.74658 63.0197 5.92125 63.1419 6.14832C63.2467 6.37538 63.3166 6.65485 63.3166 7.00418V8.52378H66.3034V10.6722H63.3341V15.2135C63.3341 16.2091 63.7358 16.6982 64.5393 16.6982C64.7314 16.6982 64.9235 16.6633 65.0982 16.6109C65.2729 16.541 65.4301 16.4711 65.5698 16.4013C65.7095 16.3314 65.8318 16.2441 65.9366 16.1567C66.0414 16.0694 66.1113 15.9995 66.1637 15.9646C66.3733 16.279 66.5479 16.541 66.6527 16.7681C66.7575 16.9951 66.8274 17.2047 66.8274 17.4143C66.8274 17.6065 66.7575 17.7811 66.6003 17.9558C66.4431 18.1305 66.2335 18.3051 65.9715 18.4449C65.7095 18.6021 65.3777 18.7243 64.9934 18.8117C64.6091 18.899 64.1899 18.9514 63.7358 18.9514C62.8625 18.9514 62.1638 18.7767 61.6747 18.4449C61.2206 18.0781 60.8713 17.6414 60.6617 17.0825ZM73.6394 16.803C73.9887 16.803 74.3031 16.7681 74.5826 16.6807C74.8446 16.6109 75.0891 16.5061 75.3162 16.4013C75.5258 16.2965 75.7179 16.1567 75.8751 16.0345C76.0323 15.8947 76.1721 15.7725 76.2943 15.6677C76.469 15.8773 76.6437 16.1567 76.8358 16.4886C77.0279 16.8205 77.1153 17.0999 77.1153 17.3095C77.1153 17.6239 76.9406 17.9034 76.5913 18.1654C76.2943 18.3925 75.8751 18.5846 75.3162 18.7593C74.7747 18.9165 74.1285 19.0038 73.3949 19.0038C72.7311 19.0038 72.0674 18.9165 71.4211 18.7418C70.7749 18.5671 70.1985 18.2702 69.6919 17.851C69.1854 17.4318 68.7837 16.8554 68.4693 16.1393C68.1549 15.4231 67.9977 14.5149 67.9977 13.4319C67.9977 12.5411 68.1374 11.7726 68.4169 11.1263C68.6963 10.4801 69.0631 9.93858 69.5173 9.51938C69.9714 9.10018 70.4954 8.78578 71.0893 8.57618C71.6657 8.38405 72.2595 8.27925 72.8709 8.27925C73.6569 8.27925 74.3381 8.40152 74.897 8.64605C75.4559 8.89058 75.8926 9.22245 76.2419 9.64165C76.5913 10.0609 76.8358 10.5325 76.993 11.0739C77.1502 11.6154 77.2201 12.1743 77.2201 12.7682V13.0651C77.2201 13.1874 77.2201 13.2922 77.2026 13.4319C77.2026 13.5542 77.1851 13.6765 77.1851 13.7987C77.1851 13.921 77.1677 14.0083 77.1502 14.0782H70.8797C70.9321 14.8642 71.1766 15.5105 71.6133 16.0345C72.0325 16.541 72.7137 16.803 73.6394 16.803ZM74.6175 12.4887C74.6175 11.8075 74.4778 11.2486 74.2158 10.8294C73.9538 10.4102 73.4822 10.1831 72.801 10.1831C72.2071 10.1831 71.753 10.3927 71.4037 10.7945C71.0543 11.1962 70.8797 11.7551 70.8797 12.4887H74.6175ZM82.2679 9.53685C82.3553 9.41458 82.4601 9.27485 82.5998 9.11765C82.7395 8.96045 82.9142 8.82072 83.1238 8.69845C83.3334 8.57618 83.5605 8.47138 83.805 8.38405C84.0495 8.29671 84.3115 8.26178 84.6085 8.26178C84.7831 8.26178 84.9578 8.27925 85.1499 8.29671C85.3421 8.33165 85.5167 8.38405 85.6739 8.45392C85.8311 8.52379 85.9709 8.62858 86.0757 8.76832C86.1805 8.90805 86.2329 9.06525 86.2329 9.25738C86.2329 9.57178 86.163 9.92112 86.0058 10.3229C85.8486 10.7246 85.6914 11.0739 85.5342 11.3534C85.2897 11.1612 85.0451 11.0041 84.8181 10.8993C84.5735 10.7945 84.2941 10.742 83.9622 10.742C83.5255 10.742 83.1587 10.8643 82.8618 11.1263C82.5649 11.3883 82.4077 11.6852 82.4077 12.0521V18.9339H79.5082V8.54125C79.5781 8.52379 79.6654 8.50632 79.7702 8.50632C79.8575 8.48885 79.9623 8.48885 80.0671 8.47138C80.1719 8.47138 80.3117 8.45392 80.4689 8.45392C80.923 8.45392 81.3247 8.54125 81.6566 8.71592C81.971 8.90805 82.1806 9.17005 82.2679 9.53685ZM90.4947 9.53685C90.5821 9.41458 90.6869 9.27485 90.8266 9.11765C90.9663 8.96045 91.141 8.82072 91.3506 8.69845C91.5602 8.57618 91.7873 8.47138 92.0318 8.38405C92.2763 8.29671 92.5383 8.26178 92.8353 8.26178C93.0099 8.26178 93.1846 8.27925 93.3767 8.29671C93.5689 8.33165 93.7435 8.38405 93.9007 8.45392C94.0579 8.52379 94.1977 8.62858 94.3025 8.76832C94.4073 8.90805 94.4597 9.06525 94.4597 9.25738C94.4597 9.57178 94.3898 9.92112 94.2326 10.3229C94.0754 10.7246 93.9182 11.0739 93.761 11.3534C93.5165 11.1612 93.2719 11.0041 93.0449 10.8993C92.8003 10.7945 92.5209 10.742 92.189 10.742C91.7523 10.742 91.3855 10.8643 91.0886 11.1263C90.7917 11.3883 90.6345 11.6852 90.6345 12.0521V18.9339H87.735V8.54125C87.8049 8.52379 87.8922 8.50632 87.997 8.50632C88.0843 8.48885 88.1891 8.48885 88.2939 8.47138C88.3987 8.47138 88.5385 8.45392 88.6957 8.45392C89.1498 8.45392 89.5515 8.54125 89.8834 8.71592C90.1978 8.90805 90.4074 9.17005 90.4947 9.53685ZM104.311 16.1393C104.311 17.2571 104.468 18.0781 104.8 18.5846C104.538 18.6894 104.311 18.7593 104.084 18.7942C103.857 18.8291 103.63 18.8641 103.385 18.8641C102.879 18.8641 102.494 18.7593 102.232 18.5671C101.97 18.375 101.796 18.0781 101.726 17.7113C101.411 18.0431 101.01 18.3226 100.486 18.5497C99.9791 18.7767 99.3503 18.8815 98.6167 18.8815C98.2325 18.8815 97.8482 18.8291 97.464 18.7243C97.0797 18.6195 96.7303 18.4449 96.4159 18.2003C96.1015 17.9558 95.857 17.6414 95.6474 17.2397C95.4553 16.8379 95.3505 16.3489 95.3505 15.7725C95.3505 15.0563 95.5251 14.4625 95.8745 14.0083C96.2238 13.5542 96.6605 13.2049 97.1845 12.9429C97.7085 12.6809 98.2849 12.5062 98.8787 12.4014C99.4901 12.2966 100.049 12.2442 100.556 12.2093C100.73 12.1918 100.887 12.1918 101.062 12.1918H101.516V11.8075C101.516 11.2661 101.376 10.8818 101.08 10.6373C100.783 10.4102 100.311 10.2879 99.6647 10.2879C99.0534 10.2879 98.5119 10.3927 98.0403 10.5849C97.5687 10.777 97.0971 11.004 96.643 11.266C96.4509 11.0215 96.2762 10.7595 96.1714 10.4626C96.0491 10.1657 95.9967 9.95605 95.9967 9.81632C95.9967 9.62418 96.1015 9.43205 96.3286 9.23992C96.5557 9.04779 96.8526 8.89058 97.2369 8.73338C97.6211 8.57618 98.0578 8.47139 98.5643 8.36659C99.0534 8.27925 99.5774 8.22685 100.136 8.22685C100.905 8.22685 101.551 8.29672 102.075 8.45392C102.599 8.61112 103.036 8.85565 103.368 9.17005C103.7 9.50192 103.944 9.90365 104.084 10.3927C104.224 10.8818 104.293 11.4582 104.293 12.1045L104.311 16.1393ZM101.586 13.6765H101.289C101.184 13.6765 101.097 13.6765 100.992 13.6939C100.643 13.7289 100.294 13.7638 99.9442 13.8162C99.5949 13.8686 99.2805 13.9734 99.0185 14.1131C98.7565 14.2529 98.5294 14.445 98.3547 14.6721C98.1801 14.8991 98.0927 15.1961 98.0927 15.5454C98.0927 15.9471 98.1975 16.279 98.4246 16.5585C98.6517 16.8379 99.0359 16.9777 99.5774 16.9777C99.8394 16.9777 100.101 16.9427 100.346 16.8729C100.59 16.803 100.8 16.7157 100.992 16.5934C101.184 16.4711 101.324 16.3489 101.429 16.2266C101.534 16.0869 101.586 15.9646 101.586 15.8598V13.6765Z" fill="#044D80"/>
</svg>
