<svg width="122" height="30" viewBox="0 0 122 30" fill="none" xmlns="http://www.w3.org/2000/svg">
<path d="M32.0657 10.6133H44.4081V12.9109H39.5484V25.8633H36.8847V12.9109H32.0454L32.0657 10.6133ZM43.8794 14.8223H46.1567V16.9573H46.1974C46.2787 16.6523 46.4211 16.3676 46.6244 16.0829C46.8277 15.7983 47.0717 15.5339 47.3767 15.3103C47.6614 15.0663 47.9867 14.8833 48.3527 14.7409C48.6984 14.5986 49.0644 14.5173 49.4304 14.5173C49.7151 14.5173 49.9184 14.5376 50.0201 14.5376C50.1217 14.5579 50.2437 14.5783 50.3454 14.5783V16.9166C50.1827 16.8759 49.9997 16.8556 49.8167 16.8353C49.6337 16.8149 49.4711 16.7946 49.2881 16.7946C48.8814 16.7946 48.4951 16.8759 48.1291 17.0386C47.7631 17.2013 47.4581 17.4453 47.1734 17.7503C46.9091 18.0756 46.6854 18.4619 46.5227 18.9296C46.3601 19.3973 46.2787 19.9463 46.2787 20.5563V25.8023H43.8387L43.8794 14.8223ZM61.5287 25.8633H59.1294V24.3179H59.0887C58.7837 24.8873 58.3364 25.3143 57.7467 25.6599C57.1571 26.0056 56.5471 26.1683 55.9371 26.1683C54.4934 26.1683 53.4361 25.8226 52.7854 25.0906C52.1347 24.3789 51.8094 23.2809 51.8094 21.8373V14.8223H54.2494V21.5933C54.2494 22.5693 54.4324 23.2606 54.8187 23.6469C55.1847 24.0536 55.7134 24.2569 56.3844 24.2569C56.8927 24.2569 57.3197 24.1756 57.6654 24.0129C58.0111 23.8503 58.2957 23.6469 58.4991 23.3826C58.7227 23.1183 58.8651 22.7929 58.9667 22.4269C59.0684 22.0609 59.1091 21.6543 59.1091 21.2273V14.8223H61.5491V25.8633H61.5287ZM65.6767 22.3253C65.7581 23.0369 66.0224 23.5249 66.4901 23.8299C66.9577 24.1146 67.5271 24.2569 68.1777 24.2569C68.4014 24.2569 68.6657 24.2366 68.9504 24.1959C69.2351 24.1553 69.5197 24.0943 69.7637 23.9926C70.0281 23.8909 70.2314 23.7486 70.3941 23.5453C70.5567 23.3419 70.6381 23.0979 70.6177 22.7929C70.5974 22.4879 70.4957 22.2236 70.2721 22.0203C70.0484 21.8169 69.7841 21.6746 69.4587 21.5323C69.1334 21.4103 68.7471 21.3086 68.3201 21.2273C67.8931 21.1459 67.4661 21.0443 67.0187 20.9426C66.5714 20.8409 66.1241 20.7189 65.6971 20.5766C65.2701 20.4343 64.9041 20.2513 64.5584 19.9869C64.2331 19.7429 63.9484 19.4379 63.7654 19.0516C63.5621 18.6653 63.4604 18.2179 63.4604 17.6486C63.4604 17.0386 63.6027 16.5506 63.9077 16.1439C64.1924 15.7373 64.5787 15.4119 65.0261 15.1679C65.4734 14.9239 65.9817 14.7409 66.5307 14.6393C67.0797 14.5376 67.6084 14.4969 68.0964 14.4969C68.6657 14.4969 69.2147 14.5579 69.7231 14.6799C70.2314 14.8019 70.7194 14.9849 71.1261 15.2696C71.5531 15.5339 71.8987 15.8999 72.1631 16.3269C72.4477 16.7539 72.6104 17.2826 72.6917 17.8926H70.1501C70.0281 17.3029 69.7637 16.9166 69.3571 16.7133C68.9301 16.5099 68.4624 16.4083 67.9134 16.4083C67.7507 16.4083 67.5271 16.4286 67.3034 16.4489C67.0594 16.4896 66.8561 16.5303 66.6324 16.6116C66.4291 16.6929 66.2461 16.8149 66.1037 16.9573C65.9614 17.0996 65.8801 17.3029 65.8801 17.5469C65.8801 17.8519 65.9817 18.0756 66.1851 18.2586C66.3884 18.4416 66.6527 18.5839 66.9984 18.7263C67.3237 18.8483 67.7101 18.9499 68.1371 19.0313C68.5641 19.1126 69.0114 19.2143 69.4587 19.3159C69.9061 19.4176 70.3331 19.5396 70.7601 19.6819C71.1871 19.8243 71.5734 20.0073 71.8987 20.2716C72.2241 20.5156 72.5087 20.8206 72.7121 21.1866C72.9154 21.5526 73.0171 22.0203 73.0171 22.5489C73.0171 23.1996 72.8747 23.7486 72.5697 24.2163C72.2647 24.6636 71.8784 25.0499 71.4107 25.3346C70.9431 25.6193 70.3941 25.8226 69.8247 25.9649C69.2351 26.0869 68.6657 26.1683 68.0964 26.1683C67.4051 26.1683 66.7544 26.0869 66.1647 25.9243C65.5751 25.7616 65.0464 25.5176 64.6194 25.2126C64.1924 24.8873 63.8467 24.5009 63.6027 24.0129C63.3587 23.5453 63.2164 22.9759 63.1961 22.3049H65.6564V22.3253H65.6767ZM73.7084 14.8223H75.5587V11.4876H77.9987V14.8019H80.1947V16.6116H77.9987V22.5083C77.9987 22.7726 78.0191 22.9759 78.0394 23.1793C78.0597 23.3623 78.1207 23.5249 78.1817 23.6469C78.2631 23.7689 78.3851 23.8706 78.5274 23.9316C78.6901 23.9926 78.8934 24.0333 79.1781 24.0333C79.3407 24.0333 79.5237 24.0333 79.6864 24.0129C79.8491 23.9926 80.0321 23.9723 80.1947 23.9316V25.8226C79.9304 25.8633 79.6661 25.8836 79.4017 25.9039C79.1374 25.9446 78.8934 25.9446 78.6087 25.9446C77.9581 25.9446 77.4497 25.8836 77.0634 25.7616C76.6771 25.6396 76.3721 25.4566 76.1484 25.2329C75.9247 24.9889 75.7824 24.7043 75.7011 24.3586C75.6197 24.0129 75.5791 23.5859 75.5587 23.1386V16.6319H73.7084V14.7816V14.8223ZM81.9027 14.8223H84.2004V16.3269H84.2411C84.5867 15.6763 85.0544 15.2289 85.6644 14.9443C86.2744 14.6596 86.9251 14.5173 87.6571 14.5173C88.5314 14.5173 89.2837 14.6596 89.9344 14.9849C90.5851 15.2899 91.1137 15.6966 91.5407 16.2456C91.9677 16.7743 92.2931 17.4046 92.4964 18.1163C92.6997 18.8279 92.8217 19.6006 92.8217 20.3936C92.8217 21.1459 92.7201 21.8576 92.5371 22.5489C92.3337 23.2403 92.0491 23.8706 91.6627 24.3993C91.2764 24.9279 90.7884 25.3549 90.1784 25.6803C89.5684 26.0056 88.8771 26.1683 88.0637 26.1683C87.7181 26.1683 87.3521 26.1276 87.0064 26.0666C86.6607 26.0056 86.3151 25.9039 85.9897 25.7616C85.6644 25.6193 85.3594 25.4363 85.0951 25.2126C84.8104 24.9889 84.5867 24.7246 84.4037 24.4399H84.3631V29.9503H81.9231V14.8223H81.9027ZM90.4224 20.3529C90.4224 19.8649 90.3614 19.3769 90.2191 18.9093C90.0971 18.4416 89.8937 18.0349 89.6294 17.6689C89.3651 17.3029 89.0397 17.0183 88.6737 16.7946C88.2874 16.5709 87.8401 16.4693 87.3521 16.4693C86.3354 16.4693 85.5627 16.8149 85.0341 17.5266C84.5257 18.2383 84.2614 19.1939 84.2614 20.3733C84.2614 20.9426 84.3224 21.4509 84.4647 21.9186C84.6071 22.3863 84.7901 22.7929 85.0747 23.1386C85.3391 23.4843 85.6644 23.7486 86.0507 23.9519C86.4371 24.1553 86.8641 24.2569 87.3724 24.2569C87.9417 24.2569 88.3891 24.1349 88.7754 23.9113C89.1617 23.6876 89.4667 23.3826 89.7311 23.0369C89.9751 22.6709 90.1581 22.2643 90.2597 21.7966C90.3614 21.3086 90.4224 20.8409 90.4224 20.3529ZM94.7127 10.6133H97.1527V12.9109H94.7127V10.6133ZM94.7127 14.8223H97.1527V25.8633H94.7127V14.8223ZM99.3284 10.6133H101.768V25.8633H99.3284V10.6133ZM109.21 26.1683C108.336 26.1683 107.543 26.0259 106.852 25.7209C106.16 25.4159 105.591 25.0296 105.103 24.5213C104.635 24.0129 104.269 23.3826 104.025 22.6709C103.781 21.9593 103.639 21.1663 103.639 20.3326C103.639 19.4989 103.761 18.7263 104.025 18.0146C104.269 17.3029 104.635 16.6929 105.103 16.1643C105.571 15.6559 106.16 15.2493 106.852 14.9646C107.543 14.6799 108.336 14.5173 109.21 14.5173C110.085 14.5173 110.878 14.6596 111.569 14.9646C112.26 15.2493 112.83 15.6559 113.318 16.1643C113.785 16.6726 114.151 17.3029 114.395 18.0146C114.639 18.7263 114.782 19.4989 114.782 20.3326C114.782 21.1866 114.66 21.9593 114.395 22.6709C114.131 23.3826 113.785 23.9926 113.318 24.5213C112.85 25.0296 112.26 25.4363 111.569 25.7209C110.878 26.0056 110.105 26.1683 109.21 26.1683ZM109.21 24.2366C109.739 24.2366 110.227 24.1146 110.613 23.8909C111.02 23.6673 111.325 23.3623 111.589 22.9963C111.854 22.6303 112.037 22.2033 112.159 21.7559C112.281 21.2883 112.342 20.8206 112.342 20.3326C112.342 19.8649 112.281 19.3973 112.159 18.9296C112.037 18.4619 111.854 18.0553 111.589 17.6893C111.325 17.3233 111 17.0386 110.613 16.8149C110.207 16.5913 109.739 16.4693 109.21 16.4693C108.682 16.4693 108.194 16.5913 107.807 16.8149C107.401 17.0386 107.096 17.3436 106.831 17.6893C106.567 18.0553 106.384 18.4619 106.262 18.9296C106.14 19.3973 106.079 19.8649 106.079 20.3326C106.079 20.8206 106.14 21.2883 106.262 21.7559C106.384 22.2236 106.567 22.6303 106.831 22.9963C107.096 23.3623 107.421 23.6673 107.807 23.8909C108.214 24.1349 108.682 24.2366 109.21 24.2366ZM115.514 14.8223H117.364V11.4876H119.804V14.8019H122V16.6116H119.804V22.5083C119.804 22.7726 119.824 22.9759 119.845 23.1793C119.865 23.3623 119.926 23.5249 119.987 23.6469C120.068 23.7689 120.19 23.8706 120.333 23.9316C120.495 23.9926 120.699 24.0333 120.983 24.0333C121.146 24.0333 121.329 24.0333 121.492 24.0129C121.654 23.9926 121.837 23.9723 122 23.9316V25.8226C121.736 25.8633 121.471 25.8836 121.207 25.9039C120.943 25.9446 120.699 25.9446 120.414 25.9446C119.763 25.9446 119.255 25.8836 118.869 25.7616C118.482 25.6396 118.177 25.4566 117.954 25.2329C117.73 24.9889 117.588 24.7043 117.506 24.3586C117.425 24.0129 117.384 23.5859 117.364 23.1386V16.6319H115.514V14.7816V14.8223Z" fill="white"/>
<path d="M29.219 10.614H18.056L14.6197 0L11.163 10.614L0 10.5937L9.028 17.1613L5.57133 27.7753L14.5993 21.2077L23.6273 27.7753L20.191 17.1613L29.219 10.614Z" fill="#00B67A"/>
<path d="M20.9639 19.5614L20.1912 17.1621L14.6199 21.2084L20.9639 19.5614Z" fill="#005128"/>
</svg>
