<svg width="105" height="24" viewBox="0 0 105 24" fill="none" xmlns="http://www.w3.org/2000/svg">
<path d="M0 8.50608H9.60667H15.4405V2.72461L0 8.50608Z" fill="#FF9D28"/>
<path d="M15.4404 2.7248V23.1608L22.7415 0L15.4404 2.7248Z" fill="#68C5ED"/>
<path d="M15.4406 8.50586H9.60669L15.4406 23.1429V8.50586Z" fill="#044D80"/>
<path d="M0 8.50586L11.1088 12.2612L9.60667 8.50586H0Z" fill="#E54747"/>
<path d="M35.3874 17.7646C35.3001 17.852 35.1603 17.9568 34.9682 18.079C34.7761 18.2013 34.5141 18.341 34.1997 18.4633C33.8853 18.5856 33.501 18.7078 33.0294 18.7952C32.5753 18.8825 32.0513 18.9349 31.4574 18.9349C30.3221 18.9349 29.3264 18.7428 28.488 18.3934C27.6496 18.0266 26.9684 17.5201 26.427 16.8564C25.8855 16.1926 25.4838 15.4241 25.2392 14.5333C24.9772 13.6425 24.855 12.6469 24.855 11.5814C24.855 10.516 24.9947 9.52036 25.2742 8.61209C25.5536 7.70383 25.9554 6.91783 26.5143 6.25409C27.0558 5.59036 27.7544 5.06636 28.5754 4.69956C29.3963 4.33276 30.3744 4.14062 31.4923 4.14062C32.0338 4.14062 32.5403 4.19302 32.977 4.28036C33.4137 4.38516 33.8154 4.48996 34.1473 4.62969C34.4791 4.76942 34.7586 4.90916 34.9682 5.04889C35.1953 5.18863 35.3525 5.32836 35.4573 5.41569C35.5795 5.52049 35.7018 5.66023 35.7891 5.81743C35.8765 5.97463 35.9289 6.14929 35.9289 6.32396C35.9289 6.60343 35.8241 6.88289 35.6145 7.16236C35.4049 7.44182 35.1778 7.70382 34.9158 7.94836C34.7411 7.77369 34.549 7.59902 34.3394 7.42436C34.1298 7.24969 33.8853 7.09249 33.6233 6.95276C33.3613 6.81303 33.0643 6.70823 32.7325 6.62089C32.4006 6.53356 32.0338 6.48116 31.6146 6.48116C30.8984 6.48116 30.2871 6.62089 29.798 6.91783C29.309 7.21476 28.9247 7.58156 28.6278 8.05316C28.3308 8.52476 28.1212 9.04876 27.999 9.64263C27.8767 10.2365 27.8069 10.8478 27.8069 11.4766C27.8069 12.1404 27.8767 12.7692 27.999 13.3805C28.1212 13.9918 28.3483 14.5158 28.6627 14.9874C28.9771 15.459 29.3788 15.8258 29.8854 16.1053C30.3919 16.3848 31.0033 16.5245 31.7543 16.5245C32.1561 16.5245 32.5054 16.4721 32.8373 16.3848C33.1691 16.28 33.4661 16.1577 33.7106 16.018C33.9726 15.8782 34.1822 15.721 34.3743 15.5813C34.5665 15.4241 34.7237 15.2844 34.8459 15.1796C34.9333 15.2844 35.0206 15.4066 35.1429 15.5464C35.2651 15.6861 35.3699 15.8433 35.4573 15.983C35.5621 16.1402 35.6319 16.2974 35.7193 16.4546C35.7891 16.6118 35.8241 16.7516 35.8241 16.8738C35.8241 17.066 35.7891 17.2057 35.7193 17.3454C35.6494 17.4677 35.5271 17.6074 35.3874 17.7646ZM46.2866 16.1402C46.2866 17.2581 46.4438 18.079 46.7757 18.5856C46.5137 18.6904 46.2866 18.7602 46.0595 18.7952C45.8325 18.8301 45.6054 18.865 45.3609 18.865C44.8543 18.865 44.4701 18.7602 44.2081 18.5681C43.9461 18.376 43.7714 18.079 43.7015 17.7122C43.3871 18.0441 42.9854 18.3236 42.4614 18.5506C41.9549 18.7777 41.3261 18.8825 40.5925 18.8825C40.2082 18.8825 39.8239 18.8301 39.4397 18.7253C39.0554 18.6205 38.7061 18.4458 38.3917 18.2013C38.0773 17.9568 37.8327 17.6424 37.6231 17.2406C37.431 16.8389 37.3262 16.3498 37.3262 15.7734C37.3262 15.0573 37.5009 14.4634 37.8502 14.0093C38.1995 13.5552 38.6362 13.2058 39.1602 12.9438C39.6842 12.6818 40.2606 12.5072 40.8545 12.4024C41.4658 12.2976 42.0247 12.2452 42.5313 12.2102C42.7059 12.1928 42.8631 12.1928 43.0378 12.1928H43.4919V11.8085C43.4919 11.267 43.3522 10.8828 43.0553 10.6382C42.7583 10.4112 42.2867 10.2889 41.6405 10.2889C41.0291 10.2889 40.4877 10.3937 40.0161 10.5858C39.5445 10.778 39.0729 11.005 38.6187 11.267C38.4266 11.0225 38.2519 10.7605 38.1471 10.4636C38.0249 10.1666 37.9725 9.95703 37.9725 9.81729C37.9725 9.62516 38.0773 9.43303 38.3043 9.2409C38.5314 9.04876 38.8283 8.89156 39.2126 8.73436C39.5969 8.57716 40.0335 8.47236 40.5401 8.36756C41.0291 8.28023 41.5531 8.22783 42.1121 8.22783C42.8806 8.22783 43.5269 8.2977 44.0509 8.4549C44.5749 8.6121 45.0115 8.85663 45.3434 9.17103C45.6753 9.50289 45.9198 9.90463 46.0595 10.3937C46.1993 10.8828 46.2691 11.4592 46.2691 12.1054L46.2866 16.1402ZM43.5618 13.6774H43.2649C43.1601 13.6774 43.0727 13.6774 42.9679 13.6949C42.6186 13.7298 42.2693 13.7648 41.9199 13.8172C41.5706 13.8696 41.2562 13.9744 40.9942 14.1141C40.7322 14.2538 40.5051 14.446 40.3305 14.673C40.1558 14.9001 40.0685 15.197 40.0685 15.5464C40.0685 15.9481 40.1733 16.28 40.4003 16.5594C40.6274 16.8389 41.0117 16.9786 41.5531 16.9786C41.8151 16.9786 42.0771 16.9437 42.3217 16.8738C42.5662 16.804 42.7758 16.7166 42.9679 16.5944C43.1601 16.4721 43.2998 16.3498 43.4046 16.2276C43.5094 16.0878 43.5618 15.9656 43.5618 15.8608V13.6774ZM51.579 9.48543C51.8061 9.22343 52.1554 8.94396 52.6445 8.66449C53.1335 8.38503 53.7274 8.24529 54.461 8.24529C54.985 8.24529 55.4915 8.33263 55.9631 8.50729C56.4347 8.68196 56.8539 8.97889 57.2207 9.36316C57.5875 9.76489 57.8845 10.2889 58.0941 10.9352C58.3211 11.5814 58.4259 12.3849 58.4259 13.3456C58.4259 14.446 58.3037 15.3717 58.0417 16.0878C57.7797 16.804 57.4653 17.3804 57.0635 17.7821C56.6618 18.2013 56.2077 18.4982 55.7186 18.6729C55.2295 18.8476 54.723 18.9349 54.2339 18.9349C53.8322 18.9349 53.4654 18.8825 53.1685 18.7952C52.8715 18.7078 52.6095 18.603 52.3999 18.4808C52.1903 18.376 52.0331 18.2537 51.9109 18.1489C51.8061 18.0441 51.7187 17.9568 51.7013 17.9218V23.1618H48.8018V8.55969C48.8717 8.54222 48.959 8.52476 49.0638 8.52476C49.1511 8.50729 49.2559 8.50729 49.3607 8.48983C49.483 8.48983 49.6053 8.47236 49.7625 8.47236C50.2341 8.47236 50.6358 8.54223 50.9677 8.69943C51.2821 8.85663 51.4917 9.11863 51.579 9.48543ZM55.4217 13.4154C55.4217 12.9962 55.3867 12.5945 55.3169 12.2277C55.247 11.8609 55.1247 11.5465 54.9675 11.267C54.8103 11.005 54.5833 10.7954 54.3038 10.6382C54.0243 10.481 53.6925 10.4112 53.2907 10.4112C52.6969 10.4112 52.2777 10.5334 52.0506 10.743C51.8235 10.9701 51.7013 11.2146 51.7013 11.4941V16.018C51.8061 16.1402 52.0157 16.2625 52.3126 16.4197C52.6095 16.5769 52.9414 16.6468 53.3257 16.6468C54.0418 16.6468 54.5658 16.3673 54.9151 15.7909C55.247 15.232 55.4217 14.446 55.4217 13.4154ZM60.6617 17.0834C60.5569 16.804 60.5045 16.507 60.4695 16.1926C60.4346 15.8782 60.4346 15.5638 60.4346 15.2494V5.38076C60.5394 5.36329 60.6442 5.34582 60.749 5.34582C60.8538 5.32836 60.9586 5.32836 61.0634 5.31089C61.1682 5.31089 61.2905 5.29343 61.3953 5.29343C61.6223 5.29343 61.8494 5.31089 62.0765 5.36329C62.3035 5.39823 62.5131 5.48556 62.6878 5.62529C62.8799 5.74756 63.0197 5.92223 63.1419 6.14929C63.2467 6.37636 63.3166 6.65583 63.3166 7.00516V8.52476H66.3034V10.6732H63.3341V15.2145C63.3341 16.2101 63.7358 16.6992 64.5393 16.6992C64.7314 16.6992 64.9235 16.6642 65.0982 16.6118C65.2729 16.542 65.4301 16.4721 65.5698 16.4022C65.7095 16.3324 65.8318 16.245 65.9366 16.1577C66.0414 16.0704 66.1113 16.0005 66.1637 15.9656C66.3733 16.28 66.5479 16.542 66.6527 16.769C66.7575 16.9961 66.8274 17.2057 66.8274 17.4153C66.8274 17.6074 66.7575 17.7821 66.6003 17.9568C66.4431 18.1314 66.2335 18.3061 65.9715 18.4458C65.7095 18.603 65.3777 18.7253 64.9934 18.8126C64.6091 18.9 64.1899 18.9524 63.7358 18.9524C62.8625 18.9524 62.1638 18.7777 61.6747 18.4458C61.2206 18.079 60.8713 17.6424 60.6617 17.0834ZM73.6394 16.804C73.9887 16.804 74.3031 16.769 74.5826 16.6817C74.8446 16.6118 75.0891 16.507 75.3162 16.4022C75.5258 16.2974 75.7179 16.1577 75.8751 16.0354C76.0323 15.8957 76.1721 15.7734 76.2943 15.6686C76.469 15.8782 76.6437 16.1577 76.8358 16.4896C77.0279 16.8214 77.1153 17.1009 77.1153 17.3105C77.1153 17.6249 76.9406 17.9044 76.5913 18.1664C76.2943 18.3934 75.8751 18.5856 75.3162 18.7602C74.7747 18.9174 74.1285 19.0048 73.3949 19.0048C72.7311 19.0048 72.0674 18.9174 71.4211 18.7428C70.7749 18.5681 70.1985 18.2712 69.6919 17.852C69.1854 17.4328 68.7837 16.8564 68.4693 16.1402C68.1549 15.4241 67.9977 14.5158 67.9977 13.4329C67.9977 12.5421 68.1374 11.7736 68.4169 11.1273C68.6963 10.481 69.0631 9.93956 69.5173 9.52036C69.9714 9.10116 70.4954 8.78676 71.0893 8.57716C71.6657 8.38503 72.2595 8.28023 72.8709 8.28023C73.6569 8.28023 74.3381 8.40249 74.897 8.64703C75.4559 8.89156 75.8926 9.22343 76.2419 9.64263C76.5913 10.0618 76.8358 10.5334 76.993 11.0749C77.1502 11.6164 77.2201 12.1753 77.2201 12.7692V13.0661C77.2201 13.1884 77.2201 13.2932 77.2026 13.4329C77.2026 13.5552 77.1851 13.6774 77.1851 13.7997C77.1851 13.922 77.1677 14.0093 77.1502 14.0792H70.8797C70.9321 14.8652 71.1766 15.5114 71.6133 16.0354C72.0325 16.542 72.7137 16.804 73.6394 16.804ZM74.6175 12.4897C74.6175 11.8085 74.4778 11.2496 74.2158 10.8304C73.9538 10.4112 73.4822 10.1841 72.801 10.1841C72.2071 10.1841 71.753 10.3937 71.4037 10.7954C71.0543 11.1972 70.8797 11.7561 70.8797 12.4897H74.6175ZM82.2679 9.53783C82.3553 9.41556 82.4601 9.27583 82.5998 9.11863C82.7395 8.96143 82.9142 8.82169 83.1238 8.69943C83.3334 8.57716 83.5605 8.47236 83.805 8.38503C84.0495 8.29769 84.3115 8.26276 84.6085 8.26276C84.7831 8.26276 84.9578 8.28022 85.1499 8.29769C85.3421 8.33262 85.5167 8.38503 85.6739 8.4549C85.8311 8.52476 85.9709 8.62956 86.0757 8.76929C86.1805 8.90903 86.2329 9.06623 86.2329 9.25836C86.2329 9.57276 86.163 9.92209 86.0058 10.3238C85.8486 10.7256 85.6914 11.0749 85.5342 11.3544C85.2897 11.1622 85.0451 11.005 84.8181 10.9002C84.5735 10.7954 84.2941 10.743 83.9622 10.743C83.5255 10.743 83.1587 10.8653 82.8618 11.1273C82.5649 11.3893 82.4077 11.6862 82.4077 12.053V18.9349H79.5082V8.54223C79.5781 8.52476 79.6654 8.50729 79.7702 8.50729C79.8575 8.48983 79.9623 8.48982 80.0671 8.47236C80.1719 8.47236 80.3117 8.4549 80.4689 8.4549C80.923 8.4549 81.3247 8.54223 81.6566 8.7169C81.971 8.90903 82.1806 9.17103 82.2679 9.53783ZM90.4947 9.53783C90.5821 9.41556 90.6869 9.27583 90.8266 9.11863C90.9663 8.96143 91.141 8.82169 91.3506 8.69943C91.5602 8.57716 91.7873 8.47236 92.0318 8.38503C92.2763 8.29769 92.5383 8.26276 92.8353 8.26276C93.0099 8.26276 93.1846 8.28022 93.3767 8.29769C93.5689 8.33262 93.7435 8.38503 93.9007 8.4549C94.0579 8.52476 94.1977 8.62956 94.3025 8.76929C94.4073 8.90903 94.4597 9.06623 94.4597 9.25836C94.4597 9.57276 94.3898 9.92209 94.2326 10.3238C94.0754 10.7256 93.9182 11.0749 93.761 11.3544C93.5165 11.1622 93.2719 11.005 93.0449 10.9002C92.8003 10.7954 92.5209 10.743 92.189 10.743C91.7523 10.743 91.3855 10.8653 91.0886 11.1273C90.7917 11.3893 90.6345 11.6862 90.6345 12.053V18.9349H87.735V8.54223C87.8049 8.52476 87.8922 8.50729 87.997 8.50729C88.0843 8.48983 88.1891 8.48982 88.2939 8.47236C88.3987 8.47236 88.5385 8.4549 88.6957 8.4549C89.1498 8.4549 89.5515 8.54223 89.8834 8.7169C90.1978 8.90903 90.4074 9.17103 90.4947 9.53783ZM104.311 16.1402C104.311 17.2581 104.468 18.079 104.8 18.5856C104.538 18.6904 104.311 18.7602 104.084 18.7952C103.857 18.8301 103.63 18.865 103.385 18.865C102.879 18.865 102.494 18.7602 102.232 18.5681C101.97 18.376 101.796 18.079 101.726 17.7122C101.411 18.0441 101.01 18.3236 100.486 18.5506C99.9791 18.7777 99.3503 18.8825 98.6167 18.8825C98.2325 18.8825 97.8482 18.8301 97.464 18.7253C97.0797 18.6205 96.7303 18.4458 96.4159 18.2013C96.1015 17.9568 95.857 17.6424 95.6474 17.2406C95.4553 16.8389 95.3505 16.3498 95.3505 15.7734C95.3505 15.0573 95.5251 14.4634 95.8745 14.0093C96.2238 13.5552 96.6605 13.2058 97.1845 12.9438C97.7085 12.6818 98.2849 12.5072 98.8787 12.4024C99.4901 12.2976 100.049 12.2452 100.556 12.2102C100.73 12.1928 100.887 12.1928 101.062 12.1928H101.516V11.8085C101.516 11.267 101.376 10.8828 101.08 10.6382C100.783 10.4112 100.311 10.2889 99.6647 10.2889C99.0534 10.2889 98.5119 10.3937 98.0403 10.5858C97.5687 10.778 97.0971 11.005 96.643 11.267C96.4509 11.0225 96.2762 10.7605 96.1714 10.4636C96.0491 10.1666 95.9967 9.95703 95.9967 9.81729C95.9967 9.62516 96.1015 9.43303 96.3286 9.2409C96.5557 9.04876 96.8526 8.89156 97.2369 8.73436C97.6211 8.57716 98.0578 8.47236 98.5643 8.36756C99.0534 8.28023 99.5774 8.22783 100.136 8.22783C100.905 8.22783 101.551 8.2977 102.075 8.4549C102.599 8.6121 103.036 8.85663 103.368 9.17103C103.7 9.50289 103.944 9.90463 104.084 10.3937C104.224 10.8828 104.293 11.4592 104.293 12.1054L104.311 16.1402ZM101.586 13.6774H101.289C101.184 13.6774 101.097 13.6774 100.992 13.6949C100.643 13.7298 100.294 13.7648 99.9442 13.8172C99.5949 13.8696 99.2805 13.9744 99.0185 14.1141C98.7565 14.2538 98.5294 14.446 98.3547 14.673C98.1801 14.9001 98.0927 15.197 98.0927 15.5464C98.0927 15.9481 98.1975 16.28 98.4246 16.5594C98.6517 16.8389 99.0359 16.9786 99.5774 16.9786C99.8394 16.9786 100.101 16.9437 100.346 16.8738C100.59 16.804 100.8 16.7166 100.992 16.5944C101.184 16.4721 101.324 16.3498 101.429 16.2276C101.534 16.0878 101.586 15.9656 101.586 15.8608V13.6774Z" fill="white"/>
</svg>
