<svg width="17" height="16" viewBox="0 0 17 16" fill="none" xmlns="http://www.w3.org/2000/svg">
<path d="M7.707 1.21267C8.02812 0.224357 9.42632 0.224357 9.74744 1.21267L10.8948 4.74387C11.0384 5.18586 11.4503 5.48511 11.915 5.48511H15.6279C16.6671 5.48511 17.0992 6.81488 16.2585 7.42569L13.2547 9.60809C12.8787 9.88126 12.7214 10.3654 12.865 10.8074L14.0123 14.3386C14.3335 15.327 13.2023 16.1488 12.3616 15.538L9.35775 13.3556C8.98178 13.0824 8.47266 13.0824 8.09669 13.3556L5.09287 15.538C4.25216 16.1488 3.12099 15.327 3.44211 14.3386L4.58947 10.8074C4.73308 10.3654 4.57575 9.88126 4.19978 9.60809L1.19596 7.42569C0.355248 6.81488 0.787317 5.48511 1.82649 5.48511H5.53942C6.00415 5.48511 6.41603 5.18586 6.55964 4.74387L7.707 1.21267Z" fill="#FF9D28"/>
</svg>
