<svg width="122" height="30" viewBox="0 0 122 30" fill="none" xmlns="http://www.w3.org/2000/svg">
<path d="M32.0657 10.6141H44.4081V12.9117H39.5484V25.8641H36.8847V12.9117H32.0454L32.0657 10.6141ZM43.8794 14.8231H46.1567V16.9581H46.1974C46.2787 16.6531 46.4211 16.3684 46.6244 16.0837C46.8277 15.7991 47.0717 15.5347 47.3767 15.3111C47.6614 15.0671 47.9867 14.8841 48.3527 14.7417C48.6984 14.5994 49.0644 14.5181 49.4304 14.5181C49.7151 14.5181 49.9184 14.5384 50.0201 14.5384C50.1217 14.5587 50.2437 14.5791 50.3454 14.5791V16.9174C50.1827 16.8767 49.9997 16.8564 49.8167 16.8361C49.6337 16.8157 49.4711 16.7954 49.2881 16.7954C48.8814 16.7954 48.4951 16.8767 48.1291 17.0394C47.7631 17.2021 47.4581 17.4461 47.1734 17.7511C46.9091 18.0764 46.6854 18.4627 46.5227 18.9304C46.3601 19.3981 46.2787 19.9471 46.2787 20.5571V25.8031H43.8387L43.8794 14.8231ZM61.5287 25.8641H59.1294V24.3187H59.0887C58.7837 24.8881 58.3364 25.3151 57.7467 25.6607C57.1571 26.0064 56.5471 26.1691 55.9371 26.1691C54.4934 26.1691 53.4361 25.8234 52.7854 25.0914C52.1347 24.3797 51.8094 23.2817 51.8094 21.8381V14.8231H54.2494V21.5941C54.2494 22.5701 54.4324 23.2614 54.8187 23.6477C55.1847 24.0544 55.7134 24.2577 56.3844 24.2577C56.8927 24.2577 57.3197 24.1764 57.6654 24.0137C58.0111 23.8511 58.2957 23.6477 58.4991 23.3834C58.7227 23.1191 58.8651 22.7937 58.9667 22.4277C59.0684 22.0617 59.1091 21.6551 59.1091 21.2281V14.8231H61.5491V25.8641H61.5287ZM65.6767 22.3261C65.7581 23.0377 66.0224 23.5257 66.4901 23.8307C66.9577 24.1154 67.5271 24.2577 68.1777 24.2577C68.4014 24.2577 68.6657 24.2374 68.9504 24.1967C69.2351 24.1561 69.5197 24.0951 69.7637 23.9934C70.0281 23.8917 70.2314 23.7494 70.3941 23.5461C70.5567 23.3427 70.6381 23.0987 70.6177 22.7937C70.5974 22.4887 70.4957 22.2244 70.2721 22.0211C70.0484 21.8177 69.7841 21.6754 69.4587 21.5331C69.1334 21.4111 68.7471 21.3094 68.3201 21.2281C67.8931 21.1467 67.4661 21.0451 67.0187 20.9434C66.5714 20.8417 66.1241 20.7197 65.6971 20.5774C65.2701 20.4351 64.9041 20.2521 64.5584 19.9877C64.2331 19.7437 63.9484 19.4387 63.7654 19.0524C63.5621 18.6661 63.4604 18.2187 63.4604 17.6494C63.4604 17.0394 63.6027 16.5514 63.9077 16.1447C64.1924 15.7381 64.5787 15.4127 65.0261 15.1687C65.4734 14.9247 65.9817 14.7417 66.5307 14.6401C67.0797 14.5384 67.6084 14.4977 68.0964 14.4977C68.6657 14.4977 69.2147 14.5587 69.7231 14.6807C70.2314 14.8027 70.7194 14.9857 71.1261 15.2704C71.5531 15.5347 71.8987 15.9007 72.1631 16.3277C72.4477 16.7547 72.6104 17.2834 72.6917 17.8934H70.1501C70.0281 17.3037 69.7637 16.9174 69.3571 16.7141C68.9301 16.5107 68.4624 16.4091 67.9134 16.4091C67.7507 16.4091 67.5271 16.4294 67.3034 16.4497C67.0594 16.4904 66.8561 16.5311 66.6324 16.6124C66.4291 16.6937 66.2461 16.8157 66.1037 16.9581C65.9614 17.1004 65.8801 17.3037 65.8801 17.5477C65.8801 17.8527 65.9817 18.0764 66.1851 18.2594C66.3884 18.4424 66.6527 18.5847 66.9984 18.7271C67.3237 18.8491 67.7101 18.9507 68.1371 19.0321C68.5641 19.1134 69.0114 19.2151 69.4587 19.3167C69.9061 19.4184 70.3331 19.5404 70.7601 19.6827C71.1871 19.8251 71.5734 20.0081 71.8987 20.2724C72.2241 20.5164 72.5087 20.8214 72.7121 21.1874C72.9154 21.5534 73.0171 22.0211 73.0171 22.5497C73.0171 23.2004 72.8747 23.7494 72.5697 24.2171C72.2647 24.6644 71.8784 25.0507 71.4107 25.3354C70.9431 25.6201 70.3941 25.8234 69.8247 25.9657C69.2351 26.0877 68.6657 26.1691 68.0964 26.1691C67.4051 26.1691 66.7544 26.0877 66.1647 25.9251C65.5751 25.7624 65.0464 25.5184 64.6194 25.2134C64.1924 24.8881 63.8467 24.5017 63.6027 24.0137C63.3587 23.5461 63.2164 22.9767 63.1961 22.3057H65.6564V22.3261H65.6767ZM73.7084 14.8231H75.5587V11.4884H77.9987V14.8027H80.1947V16.6124H77.9987V22.5091C77.9987 22.7734 78.0191 22.9767 78.0394 23.1801C78.0597 23.3631 78.1207 23.5257 78.1817 23.6477C78.2631 23.7697 78.3851 23.8714 78.5274 23.9324C78.6901 23.9934 78.8934 24.0341 79.1781 24.0341C79.3407 24.0341 79.5237 24.0341 79.6864 24.0137C79.8491 23.9934 80.0321 23.9731 80.1947 23.9324V25.8234C79.9304 25.8641 79.6661 25.8844 79.4017 25.9047C79.1374 25.9454 78.8934 25.9454 78.6087 25.9454C77.9581 25.9454 77.4497 25.8844 77.0634 25.7624C76.6771 25.6404 76.3721 25.4574 76.1484 25.2337C75.9247 24.9897 75.7824 24.7051 75.7011 24.3594C75.6197 24.0137 75.5791 23.5867 75.5587 23.1394V16.6327H73.7084V14.7824V14.8231ZM81.9027 14.8231H84.2004V16.3277H84.2411C84.5867 15.6771 85.0544 15.2297 85.6644 14.9451C86.2744 14.6604 86.9251 14.5181 87.6571 14.5181C88.5314 14.5181 89.2837 14.6604 89.9344 14.9857C90.5851 15.2907 91.1137 15.6974 91.5407 16.2464C91.9677 16.7751 92.2931 17.4054 92.4964 18.1171C92.6997 18.8287 92.8217 19.6014 92.8217 20.3944C92.8217 21.1467 92.7201 21.8584 92.5371 22.5497C92.3337 23.2411 92.0491 23.8714 91.6627 24.4001C91.2764 24.9287 90.7884 25.3557 90.1784 25.6811C89.5684 26.0064 88.8771 26.1691 88.0637 26.1691C87.7181 26.1691 87.3521 26.1284 87.0064 26.0674C86.6607 26.0064 86.3151 25.9047 85.9897 25.7624C85.6644 25.6201 85.3594 25.4371 85.0951 25.2134C84.8104 24.9897 84.5867 24.7254 84.4037 24.4407H84.3631V29.9511H81.9231V14.8231H81.9027ZM90.4224 20.3537C90.4224 19.8657 90.3614 19.3777 90.2191 18.9101C90.0971 18.4424 89.8937 18.0357 89.6294 17.6697C89.3651 17.3037 89.0397 17.0191 88.6737 16.7954C88.2874 16.5717 87.8401 16.4701 87.3521 16.4701C86.3354 16.4701 85.5627 16.8157 85.0341 17.5274C84.5257 18.2391 84.2614 19.1947 84.2614 20.3741C84.2614 20.9434 84.3224 21.4517 84.4647 21.9194C84.6071 22.3871 84.7901 22.7937 85.0747 23.1394C85.3391 23.4851 85.6644 23.7494 86.0507 23.9527C86.4371 24.1561 86.8641 24.2577 87.3724 24.2577C87.9417 24.2577 88.3891 24.1357 88.7754 23.9121C89.1617 23.6884 89.4667 23.3834 89.7311 23.0377C89.9751 22.6717 90.1581 22.2651 90.2597 21.7974C90.3614 21.3094 90.4224 20.8417 90.4224 20.3537ZM94.7127 10.6141H97.1527V12.9117H94.7127V10.6141ZM94.7127 14.8231H97.1527V25.8641H94.7127V14.8231ZM99.3284 10.6141H101.768V25.8641H99.3284V10.6141ZM109.21 26.1691C108.336 26.1691 107.543 26.0267 106.852 25.7217C106.16 25.4167 105.591 25.0304 105.103 24.5221C104.635 24.0137 104.269 23.3834 104.025 22.6717C103.781 21.9601 103.639 21.1671 103.639 20.3334C103.639 19.4997 103.761 18.7271 104.025 18.0154C104.269 17.3037 104.635 16.6937 105.103 16.1651C105.571 15.6567 106.16 15.2501 106.852 14.9654C107.543 14.6807 108.336 14.5181 109.21 14.5181C110.085 14.5181 110.878 14.6604 111.569 14.9654C112.26 15.2501 112.83 15.6567 113.318 16.1651C113.785 16.6734 114.151 17.3037 114.395 18.0154C114.639 18.7271 114.782 19.4997 114.782 20.3334C114.782 21.1874 114.66 21.9601 114.395 22.6717C114.131 23.3834 113.785 23.9934 113.318 24.5221C112.85 25.0304 112.26 25.4371 111.569 25.7217C110.878 26.0064 110.105 26.1691 109.21 26.1691ZM109.21 24.2374C109.739 24.2374 110.227 24.1154 110.613 23.8917C111.02 23.6681 111.325 23.3631 111.589 22.9971C111.854 22.6311 112.037 22.2041 112.159 21.7567C112.281 21.2891 112.342 20.8214 112.342 20.3334C112.342 19.8657 112.281 19.3981 112.159 18.9304C112.037 18.4627 111.854 18.0561 111.589 17.6901C111.325 17.3241 111 17.0394 110.613 16.8157C110.207 16.5921 109.739 16.4701 109.21 16.4701C108.682 16.4701 108.194 16.5921 107.807 16.8157C107.401 17.0394 107.096 17.3444 106.831 17.6901C106.567 18.0561 106.384 18.4627 106.262 18.9304C106.14 19.3981 106.079 19.8657 106.079 20.3334C106.079 20.8214 106.14 21.2891 106.262 21.7567C106.384 22.2244 106.567 22.6311 106.831 22.9971C107.096 23.3631 107.421 23.6681 107.807 23.8917C108.214 24.1357 108.682 24.2374 109.21 24.2374ZM115.514 14.8231H117.364V11.4884H119.804V14.8027H122V16.6124H119.804V22.5091C119.804 22.7734 119.824 22.9767 119.845 23.1801C119.865 23.3631 119.926 23.5257 119.987 23.6477C120.068 23.7697 120.19 23.8714 120.333 23.9324C120.495 23.9934 120.699 24.0341 120.983 24.0341C121.146 24.0341 121.329 24.0341 121.492 24.0137C121.654 23.9934 121.837 23.9731 122 23.9324V25.8234C121.736 25.8641 121.471 25.8844 121.207 25.9047C120.943 25.9454 120.699 25.9454 120.414 25.9454C119.763 25.9454 119.255 25.8844 118.869 25.7624C118.482 25.6404 118.177 25.4574 117.954 25.2337C117.73 24.9897 117.588 24.7051 117.506 24.3594C117.425 24.0137 117.384 23.5867 117.364 23.1394V16.6327H115.514V14.7824V14.8231Z" fill="black"/>
<path d="M29.219 10.6141H18.056L14.6197 6.10352e-05L11.163 10.6141L0 10.5937L9.028 17.1614L5.57133 27.7754L14.5993 21.2077L23.6273 27.7754L20.191 17.1614L29.219 10.6141Z" fill="#00B67A"/>
<path d="M20.9639 19.5607L20.1912 17.1614L14.6199 21.2077L20.9639 19.5607Z" fill="#005128"/>
</svg>
