<svg width="17" height="16" viewBox="0 0 17 16" fill="none" xmlns="http://www.w3.org/2000/svg">
<g clip-path="url(#clip0_130_2154)">
<path d="M16.6016 3.92789C16.0066 4.18889 15.3726 4.36189 14.7116 4.44589C15.3916 4.03989 15.9106 3.40189 16.1546 2.63289C15.5206 3.01089 14.8206 3.27789 14.0746 3.42689C13.4726 2.78589 12.6146 2.38889 11.6786 2.38889C9.86256 2.38889 8.40056 3.86289 8.40056 5.66989C8.40056 5.92989 8.42256 6.17989 8.47656 6.41789C5.74956 6.28489 3.33656 4.97789 1.71556 2.98689C1.43256 3.47789 1.26656 4.03989 1.26656 4.64489C1.26656 5.78089 1.85156 6.78789 2.72356 7.37089C2.19656 7.36089 1.67956 7.20789 1.24156 6.96689C1.24156 6.97689 1.24156 6.98989 1.24156 7.00289C1.24156 8.59689 2.37856 9.92089 3.86956 10.2259C3.60256 10.2989 3.31156 10.3339 3.00956 10.3339C2.79956 10.3339 2.58756 10.3219 2.38856 10.2779C2.81356 11.5769 4.01956 12.5319 5.45356 12.5629C4.33756 13.4359 2.92056 13.9619 1.38656 13.9619C1.11756 13.9619 0.859562 13.9499 0.601562 13.9169C2.05456 14.8539 3.77656 15.3889 5.63356 15.3889C11.6696 15.3889 14.9696 10.3889 14.9696 6.05489C14.9696 5.90989 14.9646 5.76989 14.9576 5.63089C15.6086 5.16889 16.1556 4.59189 16.6016 3.92789Z" fill="#111827"/>
</g>
<defs>
<clipPath id="clip0_130_2154">
<rect width="16" height="16" fill="white" transform="translate(0.601562)"/>
</clipPath>
</defs>
</svg>
