<svg width="160" height="42" viewBox="0 0 160 42" fill="none" xmlns="http://www.w3.org/2000/svg">
<g clip-path="url(#clip0_130_5426)">
<path d="M31.4883 30.45H43.4086V27.0556H35.1232V11.2063H31.4883V30.45Z" fill="#23216E"/>
<path d="M50.572 30.851C52.0153 30.851 53.2848 30.5302 54.3806 29.8888C55.4853 29.2384 56.3451 28.3431 56.9598 27.2028C57.5834 26.0535 57.8953 24.7305 57.8953 23.2338C57.8953 21.7459 57.5878 20.4319 56.9732 19.2915C56.3584 18.1422 55.4987 17.2424 54.394 16.592C53.2982 15.9416 52.0242 15.6165 50.572 15.6165C49.1465 15.6165 47.8858 15.9372 46.7901 16.5787C45.6943 17.2201 44.8345 18.1155 44.2108 19.2648C43.5872 20.4051 43.2754 21.7281 43.2754 23.2338C43.2754 24.7215 43.5783 26.0401 44.1842 27.1893C44.7988 28.3298 45.6542 29.2251 46.7499 29.8755C47.8458 30.5258 49.1198 30.851 50.572 30.851ZM50.572 27.4567C49.4405 27.4567 48.5808 27.078 47.9928 26.3208C47.4136 25.5546 47.1242 24.5256 47.1242 23.2338C47.1242 21.9776 47.4003 20.9619 47.9527 20.1868C48.5139 19.4029 49.387 19.0108 50.572 19.0108C51.7213 19.0108 52.5854 19.3939 53.1645 20.1601C53.7525 20.9263 54.0465 21.9508 54.0465 23.2338C54.0465 24.4722 53.757 25.4877 53.1778 26.2807C52.6077 27.0646 51.739 27.4567 50.572 27.4567Z" fill="#23216E"/>
<path d="M65.0827 30.851C65.7599 30.851 66.3835 30.7708 66.9537 30.6105C67.5328 30.4501 68.0584 30.2229 68.5306 29.9289V31.3856C68.5485 31.9201 68.4103 32.3655 68.1163 32.7219C67.8312 33.0872 67.4482 33.3589 66.9671 33.5371C66.486 33.7242 65.9737 33.8178 65.4303 33.8178C64.9224 33.8178 64.4502 33.7064 64.0137 33.4837C63.5861 33.261 63.2564 32.9358 63.0247 32.5081L59.6572 34.1385C60.2095 35.0739 60.9979 35.8268 62.0225 36.3969C63.0471 36.976 64.1741 37.2656 65.4035 37.2656C66.4637 37.2656 67.4482 37.123 68.3568 36.8379C69.2656 36.5618 70.0318 36.1386 70.6554 35.5683C71.2879 34.9982 71.7201 34.2721 71.9517 33.3901C72.0318 33.0783 72.0853 32.762 72.1121 32.4412C72.1477 32.1295 72.1655 31.7954 72.1655 31.439V16.0173H68.985V16.8192C68.4949 16.4361 67.9381 16.1421 67.3145 15.9372C66.6997 15.7233 66.0183 15.6165 65.2698 15.6165C63.889 15.6165 62.6862 15.9462 61.6617 16.6053C60.6371 17.2646 59.8398 18.1689 59.2696 19.3182C58.7083 20.4585 58.4277 21.7638 58.4277 23.2338C58.4277 24.677 58.7039 25.9732 59.2563 27.1226C59.8175 28.2718 60.597 29.1806 61.5948 29.8488C62.5927 30.5169 63.7553 30.851 65.0827 30.851ZM65.6707 27.617C64.8868 27.617 64.2454 27.421 63.7464 27.029C63.2475 26.637 62.8777 26.1114 62.6373 25.4521C62.3967 24.7839 62.2764 24.0445 62.2764 23.2338C62.2764 22.4319 62.4011 21.7014 62.6506 21.0421C62.9001 20.3739 63.2831 19.8439 63.7998 19.4518C64.3255 19.0509 64.9937 18.8505 65.8044 18.8505C66.9448 18.8505 67.7599 19.2559 68.25 20.0666C68.74 20.8683 68.985 21.9241 68.985 23.2338C68.985 24.5433 68.7355 25.6035 68.2366 26.4142C67.7466 27.2161 66.8914 27.617 65.6707 27.617Z" fill="#23216E"/>
<path d="M80.8005 30.851C82.2438 30.851 83.5133 30.5302 84.6091 29.8888C85.7136 29.2384 86.5736 28.3431 87.1878 27.2028C87.8115 26.0535 88.1234 24.7305 88.1234 23.2338C88.1234 21.7459 87.8168 20.4319 87.2015 19.2915C86.5872 18.1422 85.7273 17.2424 84.6225 16.592C83.5267 15.9416 82.2526 15.6165 80.8005 15.6165C79.375 15.6165 78.1144 15.9372 77.0186 16.5787C75.9228 17.2201 75.0631 18.1155 74.4394 19.2648C73.8158 20.4051 73.5039 21.7281 73.5039 23.2338C73.5039 24.7215 73.8068 26.0401 74.4127 27.1893C75.0274 28.3298 75.8827 29.2251 76.9785 29.8755C78.0744 30.5258 79.3483 30.851 80.8005 30.851ZM80.8005 27.4567C79.669 27.4567 78.8092 27.078 78.2212 26.3208C77.6422 25.5546 77.3527 24.5256 77.3527 23.2338C77.3527 21.9776 77.6288 20.9619 78.1812 20.1868C78.7425 19.4029 79.6155 19.0108 80.8005 19.0108C81.9498 19.0108 82.8139 19.3939 83.393 20.1601C83.981 20.9263 84.275 21.9508 84.275 23.2338C84.275 24.4722 83.9854 25.4877 83.4064 26.2807C82.8362 27.0646 81.9675 27.4567 80.8005 27.4567Z" fill="#23216E"/>
<path d="M89.7246 14.0128H93.3597V10.8055H89.7246V14.0128ZM89.7246 30.4501H93.3597V16.0173H89.7246V30.4501Z" fill="#23216E"/>
<path d="M95.7363 36.8647H99.3977V29.9289C99.8702 30.2229 100.391 30.4501 100.961 30.6105C101.541 30.7708 102.169 30.851 102.846 30.851C104.173 30.851 105.336 30.5169 106.334 29.8488C107.331 29.1806 108.106 28.2718 108.659 27.1226C109.22 25.9732 109.501 24.677 109.501 23.2338C109.501 21.7638 109.216 20.4585 108.646 19.3182C108.084 18.1689 107.292 17.2646 106.267 16.6053C105.242 15.9462 104.04 15.6165 102.659 15.6165C101.91 15.6165 101.225 15.7233 100.601 15.9372C99.9857 16.1421 99.4334 16.4361 98.9441 16.8192V16.0173H95.7363V36.8647ZM102.258 27.617C101.046 27.617 100.191 27.2161 99.6917 26.4142C99.1929 25.6035 98.9441 24.5433 98.9441 23.2338C98.9441 21.9241 99.1887 20.8683 99.6791 20.0666C100.178 19.2559 100.993 18.8505 102.125 18.8505C102.935 18.8505 103.599 19.0509 104.115 19.4518C104.641 19.8439 105.029 20.3739 105.278 21.0421C105.528 21.7014 105.653 22.4319 105.653 23.2338C105.653 24.0445 105.532 24.7839 105.291 25.4521C105.051 26.1114 104.681 26.637 104.183 27.029C103.684 27.421 103.042 27.617 102.258 27.617Z" fill="#23216E"/>
<path d="M116.086 30.851C117.974 30.851 119.454 30.4279 120.523 29.5815C121.591 28.7351 122.126 27.5725 122.126 26.0936C122.126 24.971 121.778 24.0846 121.084 23.4342C120.398 22.7839 119.231 22.2448 117.583 21.8172C116.46 21.5321 115.622 21.3004 115.07 21.1222C114.527 20.9442 114.166 20.7704 113.987 20.6011C113.818 20.4319 113.734 20.2225 113.734 19.973C113.734 19.5543 113.934 19.2336 114.335 19.0108C114.745 18.7881 115.284 18.699 115.952 18.7436C117.368 18.8505 118.144 19.4563 118.278 20.561L121.993 19.8928C121.806 18.5832 121.164 17.5453 120.068 16.7791C118.973 16.004 117.574 15.6165 115.872 15.6165C114.126 15.6165 112.732 16.0263 111.689 16.8459C110.647 17.6655 110.125 18.7702 110.125 20.1601C110.125 21.2648 110.487 22.1379 111.208 22.7793C111.929 23.412 113.173 23.9553 114.937 24.4098C115.979 24.6859 116.745 24.9086 117.235 25.0779C117.734 25.2472 118.055 25.4209 118.197 25.5991C118.34 25.7684 118.411 25.9956 118.411 26.2807C118.411 26.735 118.232 27.0914 117.877 27.3498C117.521 27.5992 117.012 27.7239 116.353 27.7239C115.551 27.7239 114.887 27.5324 114.362 27.1492C113.846 26.7662 113.511 26.2362 113.359 25.559L109.645 26.1202C109.885 27.6259 110.562 28.793 111.676 29.6216C112.799 30.4412 114.269 30.851 116.086 30.851Z" fill="#23216E"/>
<path d="M128.831 30.8775C129.874 30.8775 130.782 30.7038 131.558 30.3563C132.333 30.0089 132.983 29.5456 133.509 28.9665V30.4499H136.715V16.0171H133.054V23.3404C133.054 24.2313 132.951 24.9529 132.746 25.5053C132.551 26.0488 132.297 26.463 131.985 26.7481C131.673 27.0243 131.339 27.2113 130.982 27.3094C130.626 27.4074 130.293 27.4564 129.981 27.4564C129.206 27.4564 128.604 27.2826 128.177 26.9352C127.758 26.5878 127.454 26.1557 127.268 25.639C127.081 25.1222 126.969 24.61 126.934 24.1021C126.898 23.5854 126.88 23.1622 126.88 22.8325V16.0171H123.191V24.1155C123.191 24.356 123.209 24.7391 123.245 25.2648C123.281 25.7904 123.384 26.374 123.553 27.0154C123.722 27.6479 124.002 28.2582 124.395 28.8462C124.796 29.4342 125.352 29.9197 126.065 30.3029C126.777 30.6859 127.7 30.8775 128.831 30.8775Z" fill="#23216E"/>
<path d="M138.82 30.45H142.482V21.7101C142.482 20.8817 142.708 20.2091 143.163 19.6922C143.626 19.1666 144.236 18.9038 144.994 18.9038C145.787 18.9038 146.407 19.1711 146.852 19.7057C147.305 20.2313 147.533 20.9707 147.533 21.924V30.45H151.168V21.7101C151.168 20.8817 151.395 20.2091 151.85 19.6922C152.313 19.1666 152.923 18.9038 153.68 18.9038C154.474 18.9038 155.092 19.1711 155.537 19.7057C155.992 20.2313 156.22 20.9707 156.22 21.924V30.45H159.854V20.9618C159.854 19.3849 159.431 18.1109 158.584 17.1398C157.748 16.1598 156.504 15.6698 154.856 15.6698C153.93 15.6698 153.079 15.8702 152.303 16.2711C151.528 16.6721 150.91 17.22 150.446 17.9149C150.072 17.2379 149.538 16.6944 148.843 16.2846C148.147 15.8748 147.283 15.6698 146.25 15.6698C145.377 15.6698 144.575 15.8436 143.845 16.191C143.114 16.5295 142.508 16.9973 142.027 17.5941V16.0172H138.82V30.45Z" fill="#23216E"/>
<path d="M1 0C-10.598 0 -20 9.40201 -20 21C-8.40202 21 1 11.598 1 0Z" fill="#45D2B0"/>
<path d="M1 42C12.598 42 22 32.598 22 21C10.402 21 1 30.402 1 42Z" fill="#45D2B0"/>
<path d="M1 0C12.598 0 22 9.40201 22 21C10.402 21 1 11.598 1 0Z" fill="#23216E"/>
<path d="M1 42C-10.598 42 -20 32.598 -20 21C-8.40202 21 1 30.402 1 42Z" fill="#23216E"/>
</g>
<defs>
<clipPath id="clip0_130_5426">
<rect width="160" height="42" fill="white"/>
</clipPath>
</defs>
</svg>
