<svg width="180" height="42" viewBox="0 0 180 42" fill="none" xmlns="http://www.w3.org/2000/svg">
<path d="M51.4883 30.45H63.4086V27.0556H55.1232V11.2063H51.4883V30.45Z" fill="#23216E"/>
<path d="M70.572 30.851C72.0153 30.851 73.2848 30.5302 74.3806 29.8888C75.4853 29.2384 76.3451 28.3431 76.9598 27.2028C77.5834 26.0535 77.8953 24.7305 77.8953 23.2338C77.8953 21.7459 77.5878 20.4319 76.9732 19.2915C76.3584 18.1422 75.4987 17.2424 74.394 16.592C73.2982 15.9416 72.0242 15.6165 70.572 15.6165C69.1465 15.6165 67.8858 15.9372 66.7901 16.5787C65.6943 17.2201 64.8345 18.1155 64.2108 19.2648C63.5872 20.4051 63.2754 21.7281 63.2754 23.2338C63.2754 24.7215 63.5783 26.0401 64.1842 27.1893C64.7988 28.3298 65.6542 29.2251 66.7499 29.8755C67.8458 30.5258 69.1198 30.851 70.572 30.851ZM70.572 27.4567C69.4405 27.4567 68.5808 27.078 67.9928 26.3208C67.4136 25.5546 67.1242 24.5256 67.1242 23.2338C67.1242 21.9776 67.4003 20.9619 67.9527 20.1868C68.5139 19.4029 69.387 19.0108 70.572 19.0108C71.7213 19.0108 72.5854 19.3939 73.1645 20.1601C73.7525 20.9263 74.0465 21.9508 74.0465 23.2338C74.0465 24.4722 73.757 25.4877 73.1778 26.2807C72.6077 27.0646 71.739 27.4567 70.572 27.4567Z" fill="#23216E"/>
<path d="M85.0827 30.851C85.7599 30.851 86.3835 30.7708 86.9537 30.6105C87.5328 30.4501 88.0584 30.2229 88.5306 29.9289V31.3856C88.5485 31.9201 88.4103 32.3655 88.1163 32.7219C87.8312 33.0872 87.4482 33.3589 86.9671 33.5371C86.486 33.7242 85.9737 33.8178 85.4303 33.8178C84.9224 33.8178 84.4502 33.7064 84.0137 33.4837C83.5861 33.261 83.2564 32.9358 83.0247 32.5081L79.6572 34.1385C80.2095 35.0739 80.9979 35.8268 82.0225 36.3969C83.0471 36.976 84.1741 37.2656 85.4035 37.2656C86.4637 37.2656 87.4482 37.123 88.3568 36.8379C89.2656 36.5618 90.0318 36.1386 90.6554 35.5683C91.2879 34.9982 91.7201 34.2721 91.9517 33.3901C92.0318 33.0783 92.0853 32.762 92.1121 32.4412C92.1477 32.1295 92.1655 31.7954 92.1655 31.439V16.0173H88.985V16.8192C88.4949 16.4361 87.9381 16.1421 87.3145 15.9372C86.6997 15.7233 86.0183 15.6165 85.2698 15.6165C83.889 15.6165 82.6862 15.9462 81.6617 16.6053C80.6371 17.2646 79.8398 18.1689 79.2696 19.3182C78.7083 20.4585 78.4277 21.7638 78.4277 23.2338C78.4277 24.677 78.7039 25.9732 79.2563 27.1226C79.8175 28.2718 80.597 29.1806 81.5948 29.8488C82.5927 30.5169 83.7553 30.851 85.0827 30.851ZM85.6707 27.617C84.8868 27.617 84.2454 27.421 83.7464 27.029C83.2475 26.637 82.8777 26.1114 82.6373 25.4521C82.3967 24.7839 82.2764 24.0445 82.2764 23.2338C82.2764 22.4319 82.4011 21.7014 82.6506 21.0421C82.9001 20.3739 83.2831 19.8439 83.7998 19.4518C84.3255 19.0509 84.9937 18.8505 85.8044 18.8505C86.9448 18.8505 87.7599 19.2559 88.25 20.0666C88.74 20.8683 88.985 21.9241 88.985 23.2338C88.985 24.5433 88.7355 25.6035 88.2366 26.4142C87.7466 27.2161 86.8914 27.617 85.6707 27.617Z" fill="#23216E"/>
<path d="M100.8 30.851C102.244 30.851 103.513 30.5302 104.609 29.8888C105.714 29.2384 106.574 28.3431 107.188 27.2028C107.812 26.0535 108.123 24.7305 108.123 23.2338C108.123 21.7459 107.817 20.4319 107.201 19.2915C106.587 18.1422 105.727 17.2424 104.622 16.592C103.527 15.9416 102.253 15.6165 100.8 15.6165C99.375 15.6165 98.1144 15.9372 97.0186 16.5787C95.9228 17.2201 95.0631 18.1155 94.4394 19.2648C93.8158 20.4051 93.5039 21.7281 93.5039 23.2338C93.5039 24.7215 93.8068 26.0401 94.4127 27.1893C95.0274 28.3298 95.8827 29.2251 96.9785 29.8755C98.0744 30.5258 99.3483 30.851 100.8 30.851ZM100.8 27.4567C99.669 27.4567 98.8092 27.078 98.2212 26.3208C97.6422 25.5546 97.3527 24.5256 97.3527 23.2338C97.3527 21.9776 97.6288 20.9619 98.1812 20.1868C98.7425 19.4029 99.6155 19.0108 100.8 19.0108C101.95 19.0108 102.814 19.3939 103.393 20.1601C103.981 20.9263 104.275 21.9508 104.275 23.2338C104.275 24.4722 103.985 25.4877 103.406 26.2807C102.836 27.0646 101.968 27.4567 100.8 27.4567Z" fill="#23216E"/>
<path d="M109.725 14.0128H113.36V10.8055H109.725V14.0128ZM109.725 30.4501H113.36V16.0173H109.725V30.4501Z" fill="#23216E"/>
<path d="M115.736 36.8647H119.398V29.9289C119.87 30.2229 120.391 30.4501 120.961 30.6105C121.541 30.7708 122.169 30.851 122.846 30.851C124.173 30.851 125.336 30.5169 126.334 29.8488C127.331 29.1806 128.106 28.2718 128.659 27.1226C129.22 25.9732 129.501 24.677 129.501 23.2338C129.501 21.7638 129.216 20.4585 128.646 19.3182C128.084 18.1689 127.292 17.2646 126.267 16.6053C125.242 15.9462 124.04 15.6165 122.659 15.6165C121.91 15.6165 121.225 15.7233 120.601 15.9372C119.986 16.1421 119.433 16.4361 118.944 16.8192V16.0173H115.736V36.8647ZM122.258 27.617C121.046 27.617 120.191 27.2161 119.692 26.4142C119.193 25.6035 118.944 24.5433 118.944 23.2338C118.944 21.9241 119.189 20.8683 119.679 20.0666C120.178 19.2559 120.993 18.8505 122.125 18.8505C122.935 18.8505 123.599 19.0509 124.115 19.4518C124.641 19.8439 125.029 20.3739 125.278 21.0421C125.528 21.7014 125.653 22.4319 125.653 23.2338C125.653 24.0445 125.532 24.7839 125.291 25.4521C125.051 26.1114 124.681 26.637 124.183 27.029C123.684 27.421 123.042 27.617 122.258 27.617Z" fill="#23216E"/>
<path d="M136.086 30.851C137.974 30.851 139.454 30.4279 140.523 29.5815C141.591 28.7351 142.126 27.5725 142.126 26.0936C142.126 24.971 141.778 24.0846 141.084 23.4342C140.398 22.7839 139.231 22.2448 137.583 21.8172C136.46 21.5321 135.622 21.3004 135.07 21.1222C134.527 20.9442 134.166 20.7704 133.987 20.6011C133.818 20.4319 133.734 20.2225 133.734 19.973C133.734 19.5543 133.934 19.2336 134.335 19.0108C134.745 18.7881 135.284 18.699 135.952 18.7436C137.368 18.8505 138.144 19.4563 138.278 20.561L141.993 19.8928C141.806 18.5832 141.164 17.5453 140.068 16.7791C138.973 16.004 137.574 15.6165 135.872 15.6165C134.126 15.6165 132.732 16.0263 131.689 16.8459C130.647 17.6655 130.125 18.7702 130.125 20.1601C130.125 21.2648 130.487 22.1379 131.208 22.7793C131.929 23.412 133.173 23.9553 134.937 24.4098C135.979 24.6859 136.745 24.9086 137.235 25.0779C137.734 25.2472 138.055 25.4209 138.197 25.5991C138.34 25.7684 138.411 25.9956 138.411 26.2807C138.411 26.735 138.232 27.0914 137.877 27.3498C137.521 27.5992 137.012 27.7239 136.353 27.7239C135.551 27.7239 134.887 27.5324 134.362 27.1492C133.846 26.7662 133.511 26.2362 133.359 25.559L129.645 26.1202C129.885 27.6259 130.562 28.793 131.676 29.6216C132.799 30.4412 134.269 30.851 136.086 30.851Z" fill="#23216E"/>
<path d="M148.831 30.8775C149.874 30.8775 150.782 30.7038 151.558 30.3563C152.333 30.0089 152.983 29.5456 153.509 28.9665V30.4499H156.715V16.0171H153.054V23.3404C153.054 24.2313 152.951 24.9529 152.746 25.5053C152.551 26.0488 152.297 26.463 151.985 26.7481C151.673 27.0243 151.339 27.2113 150.982 27.3094C150.626 27.4074 150.293 27.4564 149.981 27.4564C149.206 27.4564 148.604 27.2826 148.177 26.9352C147.758 26.5878 147.454 26.1557 147.268 25.639C147.081 25.1222 146.969 24.61 146.934 24.1021C146.898 23.5854 146.88 23.1622 146.88 22.8325V16.0171H143.191V24.1155C143.191 24.356 143.209 24.7391 143.245 25.2648C143.281 25.7904 143.384 26.374 143.553 27.0154C143.722 27.6479 144.002 28.2582 144.395 28.8462C144.796 29.4342 145.352 29.9197 146.065 30.3029C146.777 30.6859 147.7 30.8775 148.831 30.8775Z" fill="#23216E"/>
<path d="M158.82 30.45H162.482V21.7101C162.482 20.8817 162.708 20.2091 163.163 19.6922C163.626 19.1666 164.236 18.9038 164.994 18.9038C165.787 18.9038 166.407 19.1711 166.852 19.7057C167.305 20.2313 167.533 20.9707 167.533 21.924V30.45H171.168V21.7101C171.168 20.8817 171.395 20.2091 171.85 19.6922C172.313 19.1666 172.923 18.9038 173.68 18.9038C174.474 18.9038 175.092 19.1711 175.537 19.7057C175.992 20.2313 176.22 20.9707 176.22 21.924V30.45H179.854V20.9618C179.854 19.3849 179.431 18.1109 178.584 17.1398C177.748 16.1598 176.504 15.6698 174.856 15.6698C173.93 15.6698 173.079 15.8702 172.303 16.2711C171.528 16.6721 170.91 17.22 170.446 17.9149C170.072 17.2379 169.538 16.6944 168.843 16.2846C168.147 15.8748 167.283 15.6698 166.25 15.6698C165.377 15.6698 164.575 15.8436 163.845 16.191C163.114 16.5295 162.508 16.9973 162.027 17.5941V16.0172H158.82V30.45Z" fill="#23216E"/>
<path d="M21 0C9.40201 0 0 9.40201 0 21C11.598 21 21 11.598 21 0Z" fill="#45D2B0"/>
<path d="M21 42C32.598 42 42 32.598 42 21C30.402 21 21 30.402 21 42Z" fill="#45D2B0"/>
<path d="M21 0C32.598 0 42 9.40201 42 21C30.402 21 21 11.598 21 0Z" fill="#23216E"/>
<path d="M21 42C9.40201 42 -1.01393e-06 32.598 0 21C11.598 21 21 30.402 21 42Z" fill="#23216E"/>
</svg>
