<svg width="182" height="34" viewBox="0 0 182 34" fill="none" xmlns="http://www.w3.org/2000/svg">
<path d="M12.2667 28.1431C8.76034 31.6494 2.82193 31.6355 1.16349 26.9623C0.83879 26.0474 0.579181 25.1066 0.38824 24.1467C-0.39137 20.2272 0.00875444 16.1648 1.53802 12.4728C3.06727 8.78085 5.65698 5.62528 8.97966 3.40514C12.3024 1.185 16.2088 -1.7118e-07 20.2049 0C24.2011 1.7118e-07 28.1075 1.185 31.4301 3.40514C34.7528 5.62528 37.3425 8.78085 38.8718 12.4729C40.4011 16.1648 40.8011 20.2272 40.0216 24.1467C39.8306 25.1066 39.571 26.0474 39.2462 26.9623C37.5878 31.6355 31.6494 31.6494 28.1431 28.1431L22.7305 22.7305C22.2134 22.2134 22.2668 21.3606 22.4095 20.6434C22.4961 20.2074 22.4516 19.7555 22.2815 19.3447C22.1114 18.934 21.8233 18.5829 21.4537 18.336C21.0841 18.089 20.6495 17.9572 20.2049 17.9572C19.7604 17.9572 19.3258 18.089 18.9562 18.336C18.5864 18.5829 18.2984 18.934 18.1283 19.3447C17.9581 19.7555 17.9136 20.2074 18.0004 20.6434C18.1431 21.3606 18.1964 22.2134 17.6792 22.7305L12.2667 28.1431Z" fill="url(#paint0_linear_130_5560)"/>
<path d="M56.8492 23.292H62.2802V26.4925H52.7031V9.47192H56.8492V23.292Z" fill="white"/>
<path d="M69.6879 26.6867C68.3625 26.6867 67.1663 26.4038 66.0994 25.8381C65.0489 25.2723 64.2164 24.4641 63.6022 23.4135C63.0041 22.3628 62.7051 21.1344 62.7051 19.728C62.7051 18.338 63.0121 17.1176 63.6263 16.0669C64.2407 15.0001 65.0812 14.1838 66.1479 13.6181C67.2148 13.0524 68.411 12.7695 69.7364 12.7695C71.0618 12.7695 72.258 13.0524 73.3247 13.6181C74.3916 14.1838 75.2321 15.0001 75.8463 16.0669C76.4605 17.1176 76.7677 18.338 76.7677 19.728C76.7677 21.1182 76.4524 22.3466 75.8221 23.4135C75.2079 24.4641 74.3593 25.2723 73.2762 25.8381C72.2095 26.4038 71.0133 26.6867 69.6879 26.6867ZM69.6879 23.0982C70.4799 23.0982 71.1507 22.8074 71.7003 22.2254C72.2661 21.6435 72.5489 20.8111 72.5489 19.728C72.5489 18.6451 72.2741 17.8127 71.7245 17.2308C71.1911 16.6488 70.5284 16.3579 69.7364 16.3579C68.9282 16.3579 68.2574 16.6488 67.7239 17.2308C67.1905 17.7965 66.9238 18.6289 66.9238 19.728C66.9238 20.8111 67.1825 21.6435 67.6997 22.2254C68.2332 22.8074 68.8959 23.0982 69.6879 23.0982Z" fill="white"/>
<path d="M83.3785 12.7695C84.3322 12.7695 85.1647 12.9635 85.8759 13.3515C86.6032 13.7393 87.1609 14.2485 87.5489 14.8789V12.9635H91.6948V26.4684C91.6948 27.713 91.4444 28.8365 90.9432 29.8385C90.4583 30.8569 89.7067 31.6651 88.6884 32.2631C87.6863 32.8613 86.4335 33.1603 84.9303 33.1603C82.926 33.1603 81.3015 32.6835 80.0568 31.7298C78.8123 30.7922 78.101 29.5153 77.9232 27.8989H82.0208C82.15 28.4161 82.4572 28.8203 82.9422 29.1113C83.427 29.4183 84.0251 29.5719 84.7363 29.5719C85.593 29.5719 86.2718 29.3213 86.773 28.8203C87.2902 28.3353 87.5489 27.5515 87.5489 26.4684V24.553C87.1447 25.1833 86.5871 25.7007 85.8759 26.1047C85.1647 26.4927 84.3322 26.6867 83.3785 26.6867C82.2632 26.6867 81.253 26.4038 80.3478 25.8381C79.4426 25.2561 78.7233 24.4398 78.19 23.3892C77.6727 22.3224 77.4141 21.094 77.4141 19.7038C77.4141 18.3137 77.6727 17.0934 78.19 16.0427C78.7233 14.992 79.4426 14.1838 80.3478 13.6181C81.253 13.0524 82.2632 12.7695 83.3785 12.7695ZM87.5489 19.728C87.5489 18.6936 87.2579 17.8773 86.676 17.2793C86.1103 16.6812 85.4151 16.3822 84.5908 16.3822C83.7664 16.3822 83.0633 16.6812 82.4814 17.2793C81.9157 17.8612 81.6328 18.6694 81.6328 19.7038C81.6328 20.7383 81.9157 21.5627 82.4814 22.1769C83.0633 22.775 83.7664 23.074 84.5908 23.074C85.4151 23.074 86.1103 22.775 86.676 22.1769C87.2579 21.5788 87.5489 20.7626 87.5489 19.728Z" fill="white"/>
<path d="M100.127 26.6867C98.8019 26.6867 97.6058 26.4038 96.539 25.8381C95.4883 25.2723 94.6558 24.4641 94.0416 23.4135C93.4436 22.3628 93.1445 21.1344 93.1445 19.728C93.1445 18.338 93.4516 17.1176 94.0659 16.0669C94.6801 15.0001 95.5206 14.1838 96.5874 13.6181C97.6543 13.0524 98.8504 12.7695 100.176 12.7695C101.501 12.7695 102.697 13.0524 103.764 13.6181C104.831 14.1838 105.672 15.0001 106.286 16.0669C106.9 17.1176 107.207 18.338 107.207 19.728C107.207 21.1182 106.892 22.3466 106.262 23.4135C105.647 24.4641 104.799 25.2723 103.716 25.8381C102.649 26.4038 101.453 26.6867 100.127 26.6867ZM100.127 23.0982C100.919 23.0982 101.59 22.8074 102.14 22.2254C102.706 21.6435 102.988 20.8111 102.988 19.728C102.988 18.6451 102.714 17.8127 102.164 17.2308C101.631 16.6488 100.968 16.3579 100.176 16.3579C99.3676 16.3579 98.6968 16.6488 98.1634 17.2308C97.6301 17.7965 97.3633 18.6289 97.3633 19.728C97.3633 20.8111 97.622 21.6435 98.1392 22.2254C98.6726 22.8074 99.3353 23.0982 100.127 23.0982Z" fill="white"/>
<path d="M110.764 11.5573C110.037 11.5573 109.439 11.3471 108.97 10.9269C108.517 10.4905 108.291 9.95704 108.291 9.32665C108.291 8.68009 108.517 8.14668 108.97 7.72641C109.439 7.28999 110.037 7.07178 110.764 7.07178C111.475 7.07178 112.057 7.28999 112.51 7.72641C112.979 8.14668 113.213 8.68009 113.213 9.32665C113.213 9.95704 112.979 10.4905 112.51 10.9269C112.057 11.3471 111.475 11.5573 110.764 11.5573ZM112.825 12.9636V26.4927H108.679V12.9636H112.825Z" fill="white"/>
<path d="M119.247 14.8789C119.651 14.2485 120.209 13.7393 120.921 13.3515C121.632 12.9635 122.465 12.7695 123.418 12.7695C124.534 12.7695 125.543 13.0524 126.449 13.6181C127.354 14.1838 128.065 14.992 128.582 16.0427C129.115 17.0934 129.383 18.3137 129.383 19.7038C129.383 21.094 129.115 22.3224 128.582 23.3892C128.065 24.4398 127.354 25.2561 126.449 25.8381C125.543 26.4038 124.534 26.6867 123.418 26.6867C122.48 26.6867 121.649 26.4927 120.921 26.1047C120.209 25.7168 119.651 25.2157 119.247 24.6015V32.9421H115.102V12.9635H119.247V14.8789ZM125.164 19.7038C125.164 18.6694 124.873 17.8612 124.29 17.2793C123.724 16.6812 123.022 16.3822 122.182 16.3822C121.357 16.3822 120.654 16.6812 120.072 17.2793C119.507 17.8773 119.224 18.6936 119.224 19.728C119.224 20.7626 119.507 21.5788 120.072 22.1769C120.654 22.775 121.357 23.074 122.182 23.074C123.006 23.074 123.709 22.775 124.29 22.1769C124.873 21.5627 125.164 20.7383 125.164 19.7038Z" fill="white"/>
<path d="M136.335 26.6867C135.155 26.6867 134.104 26.4846 133.182 26.0805C132.262 25.6764 131.534 25.1269 131.001 24.4317C130.468 23.7205 130.168 22.9285 130.104 22.0556H134.201C134.25 22.5244 134.468 22.9042 134.855 23.1952C135.244 23.4862 135.721 23.6316 136.287 23.6316C136.803 23.6316 137.199 23.5347 137.474 23.3407C137.765 23.1306 137.911 22.8638 137.911 22.5406C137.911 22.1526 137.709 21.8698 137.305 21.692C136.901 21.498 136.246 21.288 135.34 21.0616C134.371 20.8353 133.563 20.6009 132.916 20.3585C132.27 20.0999 131.712 19.7038 131.244 19.1704C130.774 18.6209 130.54 17.8854 130.54 16.9641C130.54 16.1882 130.75 15.4851 131.171 14.8547C131.606 14.2082 132.237 13.6989 133.061 13.3272C133.902 12.9554 134.897 12.7695 136.044 12.7695C137.74 12.7695 139.074 13.1898 140.044 14.0303C141.031 14.8709 141.597 15.9861 141.742 17.3762H137.911C137.846 16.9075 137.636 16.5358 137.28 16.2609C136.941 15.9861 136.489 15.8487 135.923 15.8487C135.438 15.8487 135.066 15.9457 134.807 16.1397C134.549 16.3175 134.42 16.568 134.42 16.8913C134.42 17.2793 134.622 17.5702 135.026 17.7642C135.446 17.9582 136.092 18.1522 136.966 18.346C137.967 18.6047 138.783 18.8634 139.414 19.1219C140.044 19.3644 140.594 19.7684 141.062 20.3343C141.547 20.8838 141.798 21.6273 141.815 22.5649C141.815 23.3569 141.588 24.0681 141.135 24.6985C140.699 25.3127 140.061 25.7977 139.22 26.1532C138.396 26.5089 137.434 26.6867 136.335 26.6867Z" fill="white"/>
<path d="M156.983 12.9634V26.4926H152.837V24.6499C152.416 25.2479 151.842 25.7329 151.115 26.1046C150.404 26.4603 149.612 26.638 148.739 26.638C147.704 26.638 146.791 26.4118 145.999 25.9591C145.207 25.4904 144.593 24.8196 144.157 23.9468C143.72 23.0739 143.502 22.0475 143.502 20.8675V12.9634H147.623V20.3098C147.623 21.215 147.858 21.9181 148.327 22.4193C148.795 22.9203 149.426 23.1709 150.218 23.1709C151.026 23.1709 151.665 22.9203 152.133 22.4193C152.602 21.9181 152.837 21.215 152.837 20.3098V12.9634H156.983Z" fill="white"/>
<path d="M176.497 12.8179C178.178 12.8179 179.512 13.327 180.498 14.3454C181.499 15.3636 182.001 16.778 182.001 18.5883V26.4925H177.879V19.1461C177.879 18.2732 177.645 17.6024 177.176 17.1336C176.723 16.6487 176.093 16.4062 175.284 16.4062C174.477 16.4062 173.838 16.6487 173.369 17.1336C172.917 17.6024 172.691 18.2732 172.691 19.1461V26.4925H168.568V19.1461C168.568 18.2732 168.334 17.6024 167.866 17.1336C167.413 16.6487 166.782 16.4062 165.974 16.4062C165.166 16.4062 164.528 16.6487 164.059 17.1336C163.606 17.6024 163.38 18.2732 163.38 19.1461V26.4925H159.234V12.9634H163.38V14.6605C163.801 14.0948 164.35 13.6503 165.029 13.327C165.708 12.9875 166.476 12.8179 167.332 12.8179C168.351 12.8179 169.256 13.036 170.048 13.4725C170.855 13.9089 171.486 14.5313 171.939 15.3395C172.408 14.5958 173.046 13.9897 173.854 13.521C174.662 13.0522 175.544 12.8179 176.497 12.8179Z" fill="white"/>
<defs>
<linearGradient id="paint0_linear_130_5560" x1="38.5706" y1="10.1025" x2="2.70695" y2="10.1025" gradientUnits="userSpaceOnUse">
<stop stop-color="#64C2DB"/>
<stop offset="0.510417" stop-color="#7476ED"/>
<stop offset="1" stop-color="#E56F8C"/>
</linearGradient>
</defs>
</svg>
