<svg width="190" height="38" viewBox="0 0 190 38" fill="none" xmlns="http://www.w3.org/2000/svg">
<path d="M28.4865 16.3839C27.9559 16.9177 27.5496 17.562 27.2965 18.2706C27.0434 18.9795 26.9497 19.7353 27.0221 20.4844L26.9969 20.4592C27.0714 21.3411 26.9524 22.2284 26.6484 23.0596C26.3445 23.8906 25.8629 24.6453 25.2373 25.2711C24.6115 25.8967 23.8567 26.3785 23.0256 26.6823C22.1945 26.9862 21.3071 27.1052 20.4254 27.0307L20.4506 27.0559C19.3958 26.9578 18.3365 27.1872 17.4168 27.7132C16.4973 28.2392 15.7623 29.0359 15.3122 29.9949C14.8621 30.9539 14.7187 32.0282 14.9015 33.0718C15.0845 34.1152 15.5847 35.0768 16.3341 35.8255C17.0835 36.5742 18.0456 37.0736 19.0891 37.2555C20.1328 37.4375 21.207 37.293 22.1656 36.8421C23.1241 36.391 23.9202 35.6554 24.4453 34.7354C24.9704 33.8153 25.199 32.7558 25.0999 31.7011L25.1265 31.7263C25.052 30.8446 25.1709 29.9571 25.4748 29.1259C25.7788 28.2949 26.2605 27.5402 26.8861 26.9144C27.5119 26.2887 28.2667 25.807 29.0977 25.5032C29.9289 25.1993 30.8162 25.0803 31.698 25.1548L31.6714 25.1296C32.533 25.207 33.4003 25.0657 34.1928 24.7188C34.9852 24.3719 35.6773 23.8305 36.2048 23.1449C36.7323 22.4594 37.0784 21.6516 37.2106 20.7968C37.3429 19.9418 37.2572 19.0674 36.9615 18.2543C36.6658 17.4413 36.1697 16.7161 35.5191 16.1459C34.8685 15.5757 34.0846 15.1789 33.2398 14.9925C32.3951 14.806 31.5169 14.8357 30.6867 15.0788C29.8565 15.3221 29.1012 15.771 28.4907 16.3839H28.4865Z" fill="#11A5F9"/>
<path d="M18.159 23.755L18.1324 23.7298C18.8818 23.8053 19.6386 23.7133 20.3482 23.4604C21.0578 23.2076 21.7023 22.8004 22.2351 22.2679C22.7678 21.7355 23.1758 21.0913 23.429 20.3819C23.6824 19.6725 23.775 18.9158 23.7001 18.1663L23.7267 18.1915C23.6522 17.3096 23.7712 16.4223 24.075 15.5912C24.3789 14.7601 24.8607 14.0054 25.4863 13.3796C26.1121 12.754 26.8668 12.2722 27.6979 11.9684C28.529 11.6644 29.4163 11.5455 30.2982 11.62L30.2716 11.5948C31.3265 11.6939 32.3861 11.4651 33.3062 10.9397C34.2264 10.4144 34.9619 9.61797 35.4127 8.65917C35.8635 7.70038 36.0076 6.62585 35.8253 5.58215C35.643 4.53845 35.1432 3.57642 34.394 2.82723C33.6448 2.07806 32.6828 1.57821 31.6391 1.39591C30.5954 1.21359 29.5209 1.35766 28.5621 1.80848C27.6032 2.25929 26.8069 2.99491 26.2815 3.91499C25.7561 4.83505 25.5273 5.8948 25.6264 6.94965L25.6012 6.92305C25.6759 7.80488 25.5571 8.69239 25.2534 9.52358C24.9496 10.3548 24.4678 11.1096 23.8422 11.7355C23.2164 12.3611 22.4615 12.8429 21.6303 13.1467C20.799 13.4505 19.9116 13.5692 19.0297 13.4946L19.0549 13.5212C18.3055 13.4457 17.5486 13.5377 16.8391 13.7905C16.1295 14.0432 15.485 14.4506 14.9522 14.983C14.4193 15.5154 14.0115 16.1597 13.7581 16.8691C13.5049 17.5784 13.4123 18.3351 13.4872 19.0847L13.462 19.0595C13.5362 19.9412 13.4171 20.8285 13.1132 21.6595C12.8091 22.4904 12.3275 23.2451 11.7018 23.8708C11.0761 24.4964 10.3215 24.978 9.49051 25.2821C8.65954 25.586 7.77225 25.7052 6.89053 25.631L6.91573 25.6562C5.86087 25.5571 4.80113 25.7858 3.88105 26.3112C2.96098 26.8366 2.22536 27.6329 1.77456 28.5918C1.32373 29.5506 1.17965 30.6251 1.36197 31.6688C1.54429 32.7125 2.04414 33.6745 2.79331 34.4237C3.54249 35.1729 4.50453 35.6727 5.54823 35.855C6.59193 36.0373 7.66645 35.8932 8.62526 35.4424C9.58405 34.9917 10.3805 34.2561 10.9058 33.336C11.4312 32.4158 11.66 31.3562 11.5609 30.3013L11.5875 30.3265C11.513 29.4447 11.632 28.5573 11.9359 27.7262C12.2397 26.8952 12.7214 26.1404 13.3471 25.5146C13.9729 24.889 14.7276 24.4072 15.5586 24.1035C16.3898 23.7995 17.2771 23.6805 18.159 23.755Z" fill="#11A5F9"/>
<path d="M8.77773 20.945C9.30835 20.4114 9.71459 19.7671 9.96749 19.0583C10.2204 18.3495 10.3137 17.5935 10.2407 16.8445L10.2673 16.8697C10.1928 15.9877 10.3118 15.1 10.6158 14.2687C10.9199 13.4374 11.4018 12.6825 12.0279 12.0567C12.654 11.431 13.409 10.9494 14.2404 10.6457C15.0719 10.3419 15.9596 10.2233 16.8416 10.2982L16.815 10.273C17.8695 10.3718 18.9288 10.1429 19.8485 9.61759C20.7681 9.09228 21.5033 8.29607 21.9539 7.33757C22.4044 6.37906 22.5483 5.30493 22.3661 4.26162C22.1838 3.21831 21.684 2.25664 20.9351 1.50774C20.1863 0.758831 19.2245 0.259151 18.1812 0.0768455C17.138 -0.105474 16.0638 0.0384721 15.1054 0.489013C14.1468 0.939555 13.3506 1.67478 12.8253 2.59443C12.2999 3.51407 12.071 4.57338 12.1699 5.62787L12.1447 5.60267C12.2192 6.48445 12.1002 7.37186 11.7962 8.20294C11.4923 9.03402 11.0107 9.78877 10.385 10.4145C9.75927 11.0402 9.00451 11.5219 8.17343 11.8257C7.34234 12.1297 6.45495 12.2487 5.57317 12.1742L5.59837 12.1994C4.73679 12.1221 3.86962 12.2636 3.07726 12.6107C2.2849 12.9577 1.59296 13.4993 1.06558 14.185C0.538192 14.8705 0.192426 15.6783 0.0602956 16.5331C-0.0718205 17.3881 0.0139843 18.2625 0.309758 19.0754C0.605531 19.8883 1.10173 20.6134 1.75234 21.1835C2.40295 21.7537 3.18694 22.1503 4.03166 22.3368C4.87636 22.5231 5.75447 22.4933 6.58462 22.2501C7.41475 22.0068 8.17004 21.558 8.78051 20.945H8.77773Z" fill="#11A5F9"/>
<path d="M52.1445 6.98169H56.3025V27.2156H52.1445V6.98169Z" fill="white"/>
<path d="M58.6564 20.2869C58.6507 18.8329 59.0766 17.4097 59.8802 16.1979C60.6838 14.9861 61.8289 14.04 63.1707 13.4795C64.5124 12.919 65.9902 12.7693 67.4171 13.0495C68.844 13.3296 70.1556 14.0268 71.1858 15.053C72.2161 16.079 72.9186 17.3879 73.2045 18.8136C73.4903 20.2393 73.3466 21.7179 72.7915 23.0618C72.2364 24.4057 71.2949 25.5548 70.0863 26.3631C68.8776 27.1716 67.4563 27.6032 66.0021 27.6032C65.037 27.6143 64.0793 27.4327 63.185 27.0693C62.2907 26.7058 61.4778 26.1678 60.7939 25.4867C60.1099 24.8055 59.5687 23.9948 59.2017 23.102C58.8347 22.2093 58.6493 21.2522 58.6564 20.2869ZM69.1899 20.2869C69.1725 19.6602 68.9708 19.0524 68.61 18.5396C68.2491 18.027 67.7451 17.6319 67.161 17.4041C66.5768 17.1762 65.9386 17.1255 65.3258 17.2585C64.713 17.3915 64.153 17.702 63.7158 18.1516C63.2788 18.6009 62.9836 19.1693 62.8679 19.7856C62.7519 20.4017 62.8201 21.0385 63.0641 21.6161C63.3082 22.1937 63.717 22.6865 64.2394 23.033C64.762 23.3795 65.3752 23.5643 66.0021 23.5643C66.4315 23.5758 66.8586 23.4981 67.2567 23.3362C67.6545 23.1744 68.0146 22.9319 68.3141 22.6241C68.6135 22.3161 68.8461 21.9494 68.9967 21.5472C69.1475 21.145 69.2133 20.7159 69.1899 20.2869Z" fill="white"/>
<path d="M89.9198 13.3574V26.5172C89.9198 31.1735 86.2883 33.1419 82.6022 33.1419C81.3044 33.2391 80.0048 32.9769 78.846 32.3843C77.6874 31.7915 76.7143 30.8912 76.0335 29.782L79.581 27.731C79.8672 28.3092 80.3231 28.7862 80.8877 29.0982C81.4525 29.4101 82.099 29.5423 82.7408 29.4768C83.1509 29.5336 83.5687 29.4975 83.9631 29.3711C84.3573 29.2447 84.7182 29.0312 85.0189 28.7465C85.3197 28.4618 85.5525 28.1132 85.7003 27.7262C85.848 27.3394 85.9068 26.9243 85.8725 26.5116V25.2446C85.3856 25.8403 84.766 26.3137 84.063 26.6266C83.3601 26.9395 82.5938 27.0832 81.8252 27.0464C79.9965 26.9887 78.2621 26.2218 76.9889 24.9078C75.7158 23.5939 75.0039 21.8361 75.0039 20.0066C75.0039 18.1771 75.7158 16.4193 76.9889 15.1054C78.2621 13.7914 79.9965 13.0245 81.8252 12.9668C82.5938 12.93 83.3601 13.0738 84.063 13.3867C84.766 13.6996 85.3856 14.1729 85.8725 14.7686V13.3546L89.9198 13.3574ZM85.8739 20.0087C85.9019 19.3387 85.7286 18.6755 85.3765 18.1047C85.0244 17.5338 84.5095 17.0815 83.8981 16.8058C83.2867 16.5301 82.6069 16.4437 81.946 16.5576C81.2851 16.6716 80.6734 16.9807 80.1896 17.4454C79.7059 17.9099 79.3723 18.5085 79.2316 19.1643C79.091 19.82 79.1498 20.5029 79.4007 21.1249C79.6514 21.7469 80.0826 22.2798 80.6387 22.6547C81.1948 23.0296 81.8504 23.2295 82.521 23.2287C82.9579 23.2592 83.3962 23.1979 83.808 23.0486C84.2197 22.8994 84.5956 22.6655 84.9114 22.3622C85.2273 22.0588 85.4762 21.6928 85.6419 21.2873C85.8077 20.882 85.8868 20.4465 85.8739 20.0087Z" fill="white"/>
<path d="M92.2756 20.2869C92.2698 18.8329 92.6956 17.4097 93.4993 16.1979C94.3029 14.9861 95.4481 14.04 96.7898 13.4795C98.1316 12.919 99.6094 12.7693 101.036 13.0495C102.463 13.3296 103.775 14.0268 104.805 15.053C105.835 16.079 106.538 17.3879 106.824 18.8136C107.109 20.2393 106.966 21.7179 106.411 23.0618C105.856 24.4057 104.914 25.5548 103.705 26.3631C102.497 27.1716 101.075 27.6032 99.6213 27.6032C98.6561 27.6143 97.6983 27.4327 96.8041 27.0693C95.9098 26.7058 95.097 26.1678 94.4131 25.4867C93.729 24.8055 93.1878 23.9948 92.8209 23.102C92.4538 22.2093 92.2684 21.2522 92.2756 20.2869ZM102.809 20.2869C102.792 19.6602 102.59 19.0524 102.229 18.5396C101.868 18.027 101.364 17.6319 100.78 17.4041C100.196 17.1762 99.5576 17.1255 98.945 17.2585C98.3322 17.3915 97.7722 17.702 97.335 18.1516C96.8979 18.6009 96.6028 19.1693 96.4869 19.7856C96.3709 20.4017 96.4393 21.0385 96.6833 21.6161C96.9273 22.1937 97.3361 22.6865 97.8586 23.033C98.3812 23.3795 98.9942 23.5643 99.6213 23.5643C100.051 23.5758 100.478 23.4981 100.876 23.3362C101.274 23.1744 101.634 22.9319 101.933 22.6241C102.233 22.3161 102.465 21.9494 102.616 21.5472C102.767 21.145 102.832 20.7159 102.809 20.2869Z" fill="white"/>
<path d="M108.906 9.64296C108.906 9.14954 109.053 8.6672 109.327 8.25695C109.601 7.84669 109.991 7.52692 110.446 7.3381C110.902 7.14927 111.404 7.09987 111.888 7.19613C112.372 7.29239 112.816 7.53 113.165 7.8789C113.514 8.22779 113.752 8.67231 113.848 9.15626C113.944 9.64019 113.895 10.1418 113.706 10.5977C113.517 11.0535 113.197 11.4431 112.787 11.7173C112.377 11.9914 111.895 12.1377 111.401 12.1377C110.741 12.1311 110.111 11.8663 109.644 11.3998C109.178 10.9333 108.913 10.3026 108.906 9.64296ZM109.326 13.3571H113.486V27.2169H109.321L109.326 13.3571Z" fill="white"/>
<path d="M131.439 20.2871C131.487 21.2031 131.353 22.1195 131.046 22.9837C130.738 23.8479 130.263 24.6428 129.648 25.3228C129.032 26.0026 128.288 26.5542 127.458 26.9457C126.629 27.337 125.73 27.5605 124.814 27.6034C124.043 27.6454 123.273 27.5155 122.559 27.223C121.845 26.9304 121.205 26.4827 120.685 25.9122V32.7595H116.527V13.3572H120.685V14.6592C121.205 14.0891 121.845 13.6417 122.559 13.3495C123.273 13.0572 124.043 12.9274 124.814 12.9694C125.73 13.0121 126.629 13.2355 127.459 13.627C128.289 14.0184 129.033 14.57 129.649 15.2501C130.264 15.9302 130.739 16.7254 131.047 17.5899C131.354 18.4542 131.487 19.3709 131.439 20.2871ZM127.281 20.2871C127.264 19.6385 127.057 19.009 126.685 18.4775C126.313 17.946 125.792 17.5361 125.188 17.2992C124.584 17.0622 123.923 17.0086 123.289 17.1452C122.655 17.2817 122.075 17.6023 121.622 18.0669C121.169 18.5315 120.863 19.1192 120.742 19.7569C120.622 20.3945 120.692 21.0533 120.944 21.6512C121.196 22.2491 121.619 22.7593 122.16 23.1181C122.7 23.4768 123.335 23.6682 123.984 23.668C124.429 23.6879 124.874 23.6133 125.288 23.4492C125.703 23.2853 126.078 23.0354 126.389 22.7162C126.701 22.3968 126.941 22.0155 127.095 21.5969C127.248 21.1783 127.312 20.7319 127.281 20.2871Z" fill="white"/>
<path d="M144.27 23.0576C144.27 26.2453 141.5 27.6033 138.507 27.6033C137.297 27.7128 136.083 27.4572 135.02 26.869C133.958 26.281 133.096 25.3879 132.547 24.305L136.149 22.254C136.295 22.7545 136.608 23.19 137.036 23.4875C137.464 23.7852 137.982 23.927 138.501 23.8892C139.498 23.8892 139.998 23.584 139.998 23.031C139.998 21.505 133.178 22.31 133.178 17.5151C133.178 14.4925 135.729 12.9693 138.612 12.9693C139.695 12.935 140.768 13.1921 141.718 13.7136C142.669 14.2352 143.463 15.0021 144.016 15.9345L140.468 17.8469C140.313 17.4839 140.054 17.1746 139.723 16.9577C139.393 16.7409 139.006 16.6261 138.612 16.6275C137.891 16.6275 137.447 16.9075 137.447 17.4031C137.452 18.9837 144.27 17.9295 144.27 23.0576Z" fill="white"/>
<path d="M159.458 13.3572V27.217H155.3V25.9136C154.82 26.4887 154.211 26.9419 153.522 27.2359C152.833 27.5299 152.086 27.6563 151.338 27.6048C148.538 27.6048 146.158 25.6098 146.158 21.8649V13.3572H150.316V21.2559C150.281 21.586 150.319 21.9197 150.427 22.2337C150.533 22.5479 150.708 22.8349 150.938 23.0747C151.167 23.3145 151.446 23.5014 151.755 23.6225C152.063 23.7436 152.395 23.796 152.727 23.7758C154.251 23.7758 155.304 22.8896 155.304 20.9213V13.3614L159.458 13.3572Z" fill="white"/>
<path d="M183.3 18.7066V27.2157H179.142V19.0664C179.142 17.6804 178.477 16.7943 177.147 16.7943C175.761 16.7943 174.984 17.7644 174.984 19.3996V27.2157H170.828V19.0664C170.828 17.6804 170.163 16.7943 168.831 16.7943C167.445 16.7943 166.67 17.7644 166.67 19.3996V27.2157H162.512V13.3559H166.67V14.6299C167.101 14.0647 167.666 13.6165 168.315 13.3262C168.964 13.0359 169.675 12.9128 170.384 12.9681C171.095 12.9333 171.803 13.0835 172.44 13.4039C173.076 13.7242 173.618 14.2042 174.014 14.7965C174.475 14.1767 175.085 13.6839 175.788 13.3642C176.491 13.0444 177.263 12.9082 178.033 12.9681C181.215 12.9695 183.3 15.2417 183.3 18.7066Z" fill="white"/>
<path d="M186.816 13.2719C188.52 13.2719 189.902 11.8904 189.902 10.1864C189.902 8.48227 188.52 7.10083 186.816 7.10083C185.112 7.10083 183.73 8.48227 183.73 10.1864C183.73 11.8904 185.112 13.2719 186.816 13.2719Z" fill="white"/>
</svg>
