<svg width="17" height="16" viewBox="0 0 17 16" fill="none" xmlns="http://www.w3.org/2000/svg">
<g clip-path="url(#clip0_129_1911)">
<path d="M16.6016 3.92767C16.0066 4.18867 15.3726 4.36167 14.7116 4.44567C15.3916 4.03967 15.9106 3.40167 16.1546 2.63267C15.5206 3.01067 14.8206 3.27767 14.0746 3.42667C13.4726 2.78567 12.6146 2.38867 11.6786 2.38867C9.86256 2.38867 8.40056 3.86267 8.40056 5.66967C8.40056 5.92967 8.42256 6.17967 8.47656 6.41767C5.74956 6.28467 3.33656 4.97767 1.71556 2.98667C1.43256 3.47767 1.26656 4.03967 1.26656 4.64467C1.26656 5.78067 1.85156 6.78767 2.72356 7.37067C2.19656 7.36067 1.67956 7.20767 1.24156 6.96667C1.24156 6.97667 1.24156 6.98967 1.24156 7.00267C1.24156 8.59667 2.37856 9.92067 3.86956 10.2257C3.60256 10.2987 3.31156 10.3337 3.00956 10.3337C2.79956 10.3337 2.58756 10.3217 2.38856 10.2777C2.81356 11.5767 4.01956 12.5317 5.45356 12.5627C4.33756 13.4357 2.92056 13.9617 1.38656 13.9617C1.11756 13.9617 0.859562 13.9497 0.601562 13.9167C2.05456 14.8537 3.77656 15.3887 5.63356 15.3887C11.6696 15.3887 14.9696 10.3887 14.9696 6.05467C14.9696 5.90967 14.9646 5.76967 14.9576 5.63067C15.6086 5.16867 16.1556 4.59167 16.6016 3.92767Z" fill="#1F2937"/>
</g>
<defs>
<clipPath id="clip0_129_1911">
<rect width="16" height="16" fill="white" transform="translate(0.601562)"/>
</clipPath>
</defs>
</svg>
