<svg width="591" height="378" viewBox="0 0 591 378" fill="none" xmlns="http://www.w3.org/2000/svg">
<path d="M186.223 392.919C173.864 398.091 169.17 410.768 177.248 418.006C193.866 432.898 262.281 425.541 265.5 415.447C268.671 405.501 212.01 382.125 186.223 392.919Z" stroke="white" stroke-miterlimit="10"/>
<path d="M216.845 359.795C245.074 349.913 292.473 420.274 272.908 436.886C260.878 447.1 231.758 445.824 208.011 442.467C185.717 439.316 153.862 426.432 146.003 405.035C141.842 393.676 144.34 377.492 153.153 371.824C159.974 367.439 169.182 369.412 171.214 368.682C180.898 372.697 182.319 374.257 190.034 375.199C200.119 376.43 209.082 362.512 216.845 359.795Z" stroke="white" stroke-miterlimit="10"/>
<path d="M245.486 325.188C278.272 330.419 313.899 433.191 278.334 456.842C255.685 471.905 216.199 465.254 188.676 457.291C163.394 449.976 121.296 425.565 112.778 390.582C107.827 370.255 113.844 341.659 131.081 333.388C144.822 326.796 162.526 332.464 165.643 332.9C184.069 342.807 185.558 347.847 199.278 351.24C217.443 355.727 231.785 322.991 245.486 325.188Z" stroke="white" stroke-miterlimit="10"/>
<path d="M272.052 290.811C308.251 300.455 333.248 446.254 281.685 477.026C248.406 496.884 198.542 484.972 167.265 472.342C138.97 460.92 86.8053 424.977 77.4775 376.356C71.8502 347.034 81.2409 306.09 106.93 295.179C127.572 286.408 153.934 295.409 157.991 297.346C186.351 310.896 186.71 321.664 206.455 327.508C232.682 335.292 253.094 285.771 272.052 290.811Z" stroke="white" stroke-miterlimit="10"/>
<path d="M297.02 257.998C337.108 271.91 350.935 460.734 283.438 498.776C239.485 523.327 179.264 506.285 144.259 488.962C112.919 473.457 50.7534 425.984 40.5669 363.693C34.3055 325.403 47.0288 272.095 81.1721 258.527C108.728 247.586 143.538 260.419 148.735 263.346C185.292 283.936 186.238 297.089 212.001 305.342C246.297 316.424 273.024 249.673 297.02 257.998Z" stroke="white" stroke-miterlimit="10"/>
<path d="M54.2925 222.312C88.7499 209.204 131.988 225.851 138.357 229.785C183.013 257.37 184.664 272.852 216.438 283.592C258.808 297.914 292.009 213.762 320.845 225.6C365.139 243.784 367.625 475.875 284.048 520.942C229.514 550.347 158.819 528.035 120.108 505.995C85.7283 486.424 13.6065 427.422 2.53754 351.449C-4.34317 304.194 11.6889 238.517 54.2925 222.312Z" stroke="white" stroke-miterlimit="10"/>
<path d="M427.155 198.397C413.582 198.284 397.305 174.761 409.478 170.833C416.508 168.561 435.122 172.155 442.433 178.549C452.73 187.546 436.495 198.478 427.155 198.397Z" stroke="white" stroke-miterlimit="10"/>
<path d="M390.269 174.127C391.597 170.971 397.816 169.569 403.492 165.725C415.003 157.923 416.655 154.216 424.831 149.511C428.02 147.672 432.31 145.257 436.498 146.363C442.912 148.058 444.513 155.394 452.653 168.313C463.207 185.101 467.204 189.442 464.188 198.338C463.485 200.406 462.576 207.105 457.493 211.192C450.454 216.841 442.203 212.477 431.888 216.217C419.5 220.701 413.358 228.682 407.982 225.155C404.195 222.67 404.054 215.867 401.218 204.02C399.058 194.996 397.7 189.074 395.073 184.243C391.923 178.492 388.791 177.637 390.269 174.127Z" stroke="white" stroke-miterlimit="10"/>
<path d="M369.522 180.707C369.752 175.111 378.547 172.403 385.796 164.317C400.661 147.729 393.775 135.877 405.69 123.758C410.746 118.613 418.68 113.63 426.632 114.596C437.916 115.968 441.706 127.617 459.079 151.235C481.791 182.115 491.466 188.162 489.345 204.618C488.911 207.972 488.489 220.85 479.613 228.601C467.775 238.938 453.586 229.534 435.053 237.303C414.345 245.972 406.606 264.506 399.623 260.67C394.774 258.007 396.632 247.281 392.904 226.362C390.266 211.494 388.635 202.804 383.361 195.686C376.705 186.709 369.273 186.784 369.522 180.707Z" stroke="white" stroke-miterlimit="10"/>
<path d="M348.754 187.215C347.857 179.194 359.246 175.162 368.08 162.834C386.269 137.455 370.587 117.618 386.529 97.9305C393.353 89.5067 405.056 81.9707 416.744 82.7569C432.944 83.845 438.93 99.7181 465.508 134.086C500.45 178.991 515.498 186.898 514.51 210.827C514.316 215.493 514.406 234.517 501.742 245.948C485.103 260.963 464.945 246.501 438.23 258.324C409.182 271.178 399.872 300.254 391.262 296.123C385.353 293.265 389.138 278.63 384.588 248.638C381.446 227.926 379.553 216.51 371.643 207.063C361.447 194.891 349.714 195.854 348.754 187.215Z" stroke="white" stroke-miterlimit="10"/>
<path d="M327.938 193.704C325.925 183.269 339.875 177.897 350.316 161.336C371.789 127.151 347.279 99.4072 367.323 72.0881C375.891 60.4 391.393 50.3081 406.812 50.9C427.939 51.7131 436.025 71.8639 471.877 116.921C518.938 175.93 539.419 185.675 539.601 217.021C539.637 222.999 540.229 248.151 523.793 263.277C502.332 282.952 476.245 263.441 441.329 279.329C403.934 296.35 393.054 335.997 382.852 331.561C375.882 328.518 381.596 309.961 376.223 270.9C372.57 244.34 370.425 230.212 359.88 218.426C346.136 203.073 330.104 204.926 327.938 193.704Z" stroke="white" stroke-miterlimit="10"/>
<path d="M307.084 200.191C310.455 214.002 330.78 211.251 348.069 229.785C361.253 243.915 363.649 260.748 367.814 293.158C373.997 341.285 366.363 363.768 374.395 366.993C386.203 371.737 398.651 321.517 444.399 300.332C487.496 280.376 519.566 304.978 545.815 280.603C566.05 261.809 564.925 230.529 564.662 223.209C563.268 184.455 537.387 172.863 478.204 99.751C433.076 44.0037 422.898 19.5812 396.832 19.0402C377.686 18.6426 358.375 31.2963 348.069 46.2427C323.936 81.2174 357.322 116.883 332.513 159.836C320.489 180.65 303.946 187.343 307.084 200.191Z" stroke="white" stroke-miterlimit="10"/>
<path d="M479.565 422.474C476.023 420.681 468.586 424.137 467.928 429.52C467.183 435.627 475.598 440.679 479.296 439.11C483.67 437.25 484.265 424.848 479.565 422.474Z" stroke="white" stroke-miterlimit="10"/>
<path d="M489.545 454.923C495.582 449.282 498.221 438.93 501.24 421.186C504.231 403.591 503.761 390.994 501.132 390.08C499.699 389.586 495.639 393.445 492.157 396.273C485.638 401.552 474.48 400.967 471.62 401.537C461.149 403.63 458.073 407.516 453.697 414.959C451.671 418.397 446.948 426.02 444.869 434.988C441.697 448.568 427.484 452.753 429.216 458.196C430.673 462.74 444.755 463.843 453.885 463.972C466.971 464.157 480.211 463.634 489.545 454.923Z" stroke="white" stroke-miterlimit="10"/>
<path d="M500.01 470.088C509.933 460.008 513.837 443.092 519.85 411.456C525.959 379.668 525.92 357.864 522.911 357.051C520.652 356.429 513.338 364.288 507.121 369.905C495.403 380.538 474.426 378.789 470.103 379.471C450.388 382.514 445.53 389.805 437.889 403.585C434.706 409.325 425.973 423.314 421.995 439.836C415.871 465.147 386.837 471.774 389.239 481.157C391.247 488.971 418.171 490.17 435.113 489.527C459.034 488.598 483.242 487.127 500.01 470.088Z" stroke="white" stroke-miterlimit="10"/>
<path d="M510.418 485.154C524.236 470.638 529.361 447.145 538.401 401.627C547.583 355.637 548.01 324.677 544.63 323.906C541.534 323.188 530.97 335.026 522.037 343.447C505.15 359.46 474.327 356.516 468.538 357.287C439.585 361.149 432.917 371.95 422.034 392.097C417.69 400.136 404.954 420.496 399.07 444.562C390.002 481.606 346.145 490.669 349.212 503.995C351.772 515.08 391.546 516.422 416.293 514.954C451.043 512.996 486.254 510.539 510.418 485.154Z" stroke="white" stroke-miterlimit="10"/>
<path d="M520.793 500.211C538.515 481.259 544.854 451.187 556.922 391.786C569.188 331.6 570.085 291.493 566.322 290.749C562.385 289.962 548.567 305.731 536.923 316.962C514.833 338.32 474.201 334.21 466.947 335.092C428.756 339.722 420.227 354.059 406.148 380.595C400.626 390.926 383.905 417.662 376.121 449.276C364.101 498.05 305.42 509.552 309.16 526.822C312.268 541.17 364.891 542.602 397.445 540.372C443.011 537.302 489.246 533.951 520.793 500.211Z" stroke="white" stroke-miterlimit="10"/>
<path d="M465.34 312.887C417.914 318.268 407.602 336.204 390.251 369.086C383.579 381.727 362.841 414.822 353.155 453.982C338.197 514.491 264.684 528.43 269.09 549.639C272.752 567.276 338.221 568.77 378.583 565.781C434.981 561.596 492.232 557.357 531.156 515.262C552.782 491.871 560.333 455.228 575.432 381.94C590.758 307.554 592.125 258.309 587.996 257.585C583.21 256.748 566.158 276.418 551.798 290.468C524.502 317.168 474.064 311.898 465.34 312.887Z" stroke="white" stroke-miterlimit="10"/>
<path d="M79.7212 169.102C85.1061 189.729 123.758 180.04 169.769 226.497C186.256 243.144 197.31 260.557 219.13 263.265C221.332 263.537 243.192 265.925 258.62 251.906C278.029 234.269 266.182 209.802 288.835 175.679C297.179 163.109 298.567 166.759 304.691 156.846C330.825 114.533 290.965 71.5769 313.965 28.6059C324.552 8.82579 340.291 4.28506 338.795 1.70232C332.339 -9.37897 65.17 113.523 79.7212 169.102Z" stroke="white" stroke-miterlimit="10"/>
<path d="M225.114 235.067C226.436 234.888 240.849 235.964 250.737 226.051C263.239 213.535 254.327 196.302 268.651 173.036C273.922 164.469 274.655 166.792 278.406 160.015C294.411 131.097 265.686 102.005 279.752 73.6963C286.262 60.5913 296.538 57.5871 295.01 56.3076C288.096 50.4725 111.749 136.675 125.601 174.184C130.794 188.252 159.146 183.26 191.587 213.559C203.383 224.569 211.37 236.929 225.114 235.067Z" stroke="white" stroke-miterlimit="10"/>
<path d="M231.097 206.866C231.474 205.919 238.522 205.939 242.854 200.197C248.478 192.748 242.489 182.823 248.466 170.397C250.659 165.835 250.749 166.81 252.125 163.184C258.033 147.589 240.383 132.451 245.543 118.784C247.958 112.351 252.445 111.254 251.248 110.91C242.501 112.151 158.508 159.91 171.465 179.266C176.524 186.829 194.632 186.467 213.389 200.621C220.518 206.002 225.185 209.942 231.097 206.866Z" stroke="white" stroke-miterlimit="10"/>
<path d="M237.08 178.668C232.437 165.112 214.158 160.502 207.463 165.515C197.591 172.917 206.012 182.554 217.335 184.348C225.799 185.678 242.393 194.183 237.08 178.668Z" stroke="white" stroke-miterlimit="10"/>
</svg>
