<svg width="151" height="40" viewBox="0 0 151 40" fill="none" xmlns="http://www.w3.org/2000/svg">
<g clip-path="url(#clip0_130_5833)">
<path d="M28.5977 18.8743C30.0486 17.6592 30.9712 15.8342 30.9712 13.7937C30.9712 11.7532 30.0486 9.92825 28.5977 8.71321C28.7639 8.63268 28.924 8.5453 29.0764 8.45059C30.0388 7.85219 31.1747 7.50659 32.3914 7.50659C35.8637 7.50659 38.6785 10.3215 38.6785 13.7937C38.6785 17.266 35.8637 20.0808 32.3914 20.0808C31.1747 20.0808 30.0388 19.7352 29.0764 19.1369C28.924 19.0422 28.7639 18.9548 28.5977 18.8743Z" fill="url(#paint0_linear_130_5833)"/>
<path d="M26.8501 14.7836C27.4991 13.0059 27.3857 10.9641 26.3654 9.19697C25.3451 7.42984 23.6336 6.31069 21.7695 5.98391C21.8733 5.83106 21.9681 5.67536 22.0527 5.51711C22.587 4.5177 23.398 3.65043 24.4516 3.0421C27.4588 1.30595 31.304 2.33626 33.0401 5.34334C34.7762 8.35044 33.7459 12.1956 30.7388 13.9317C29.6852 14.5401 28.5286 14.8087 27.3959 14.7718C27.2166 14.7658 27.0343 14.7703 26.8501 14.7836Z" fill="url(#paint1_linear_130_5833)"/>
<path d="M23.2919 12.1139C22.9651 10.2499 21.846 8.53828 20.0788 7.51803C18.3117 6.49778 16.2699 6.38436 14.4922 7.03338C14.5057 6.84914 14.51 6.66685 14.504 6.48753C14.4671 5.35485 14.7358 4.19829 15.3441 3.14461C17.0803 0.137527 20.9254 -0.892777 23.9325 0.843366C26.9396 2.57951 27.9699 6.42466 26.2337 9.43178C25.6254 10.4854 24.7582 11.2964 23.7587 11.8307C23.6005 11.9153 23.4448 12.0101 23.2919 12.1139Z" fill="url(#paint2_linear_130_5833)"/>
<path d="M18.8775 11.5809C17.6624 10.13 15.8375 9.2073 13.7969 9.2073C11.7563 9.2073 9.9314 10.13 8.71638 11.5809C8.63589 11.4146 8.54848 11.2546 8.45374 11.1021C7.85536 10.1397 7.50977 9.00383 7.50977 7.78715C7.50977 4.31485 10.3246 1.5 13.7969 1.5C17.2692 1.5 20.084 4.31485 20.084 7.78715C20.084 9.00383 19.7384 10.1397 19.1401 11.1021C19.0453 11.2546 18.9579 11.4146 18.8775 11.5809Z" fill="url(#paint3_linear_130_5833)"/>
<path d="M14.7861 13.3274C13.0084 12.6784 10.9666 12.7918 9.19943 13.8119C7.43229 14.8322 6.31314 16.5438 5.98637 18.4078C5.83352 18.3041 5.67781 18.2092 5.51956 18.1247C4.52015 17.5903 3.65288 16.7793 3.04455 15.7257C1.30839 12.7186 2.3387 8.87348 5.34579 7.13732C8.35289 5.40116 12.198 6.43147 13.9342 9.43859C14.5426 10.4922 14.8112 11.6488 14.7742 12.7814C14.7683 12.9607 14.7726 13.1431 14.7861 13.3274Z" fill="url(#paint4_linear_130_5833)"/>
<path d="M12.114 16.8853C10.2499 17.2121 8.53833 18.3313 7.51808 20.0984C6.49782 21.8655 6.38441 23.9073 7.03343 25.685C6.84918 25.6716 6.66687 25.6673 6.48752 25.6731C5.35485 25.7101 4.19829 25.4415 3.14462 24.8331C0.137527 23.0969 -0.892779 19.2518 0.843366 16.2447C2.57951 13.2377 6.42466 12.2073 9.43176 13.9435C10.4854 14.5518 11.2964 15.4191 11.8307 16.4184C11.9153 16.5767 12.0102 16.7324 12.114 16.8853Z" fill="url(#paint5_linear_130_5833)"/>
<path d="M11.5809 21.3019C10.1299 22.5169 9.20725 24.3419 9.20725 26.3823C9.20725 28.4229 10.1299 30.2479 11.5809 31.4629C11.4146 31.5433 11.2546 31.6308 11.1022 31.7256C10.1398 32.3239 9.00381 32.6695 7.78713 32.6695C4.31485 32.6695 1.5 29.8547 1.5 26.3823C1.5 22.91 4.31485 20.0952 7.78713 20.0952C9.00381 20.0952 10.1398 20.4408 11.1022 21.0393C11.2546 21.134 11.4146 21.2214 11.5809 21.3019Z" fill="url(#paint6_linear_130_5833)"/>
<path d="M13.3264 25.394C12.6773 27.1717 12.7907 29.2136 13.811 30.9807C14.8313 32.7479 16.5428 33.867 18.4069 34.1938C18.3031 34.3467 18.2083 34.5024 18.1237 34.6607C17.5894 35.66 16.7784 36.5273 15.7248 37.1356C12.7176 38.8718 8.87248 37.8414 7.13634 34.8344C5.40018 31.8272 6.4305 27.9822 9.43759 26.2459C10.4913 25.6376 11.6478 25.3689 12.7805 25.406C12.9598 25.4118 13.1421 25.4075 13.3264 25.394Z" fill="url(#paint7_linear_130_5833)"/>
<path d="M16.8847 28.0647C17.2115 29.9287 18.3307 31.6403 20.0978 32.6605C21.8649 33.6807 23.9069 33.7942 25.6846 33.1452C25.6711 33.3295 25.6668 33.5117 25.6726 33.6911C25.7097 34.8237 25.441 35.9803 24.8327 37.0339C23.0965 40.0411 19.2514 41.0714 16.2442 39.3351C13.2371 37.5991 12.2068 33.754 13.943 30.7468C14.5514 29.6932 15.4186 28.8822 16.418 28.3479C16.5762 28.2633 16.7319 28.1684 16.8847 28.0647Z" fill="url(#paint8_linear_130_5833)"/>
<path d="M21.3003 28.5986C22.5153 30.0496 24.3403 30.9722 26.3809 30.9722C28.4214 30.9722 30.2464 30.0496 31.4615 28.5986C31.5419 28.7649 31.6293 28.9249 31.7241 29.0773C32.3224 30.0397 32.668 31.1757 32.668 32.3924C32.668 35.8647 29.8532 38.6795 26.3809 38.6795C22.9086 38.6795 20.0938 35.8647 20.0938 32.3924C20.0938 31.1757 20.4393 30.0397 21.0377 29.0773C21.1325 28.9249 21.2199 28.7649 21.3003 28.5986Z" fill="url(#paint9_linear_130_5833)"/>
<path d="M25.3926 26.8532C27.1703 27.5022 29.2121 27.3888 30.9792 26.3686C32.7464 25.3483 33.8655 23.6367 34.1923 21.7727C34.3451 21.8764 34.5008 21.9713 34.6591 22.0559C35.6586 22.5902 36.5258 23.4012 37.1341 24.4548C38.8703 27.462 37.8399 31.3071 34.8329 33.0433C31.8258 34.7794 27.9807 33.7491 26.2445 30.742C25.6361 29.6883 25.3675 28.5317 25.4044 27.3991C25.4104 27.2198 25.4061 27.0375 25.3926 26.8532Z" fill="url(#paint10_linear_130_5833)"/>
<path d="M32.6621 20.0752C32.6608 20.0774 32.6596 20.0796 32.6583 20.0818C31.6381 21.8489 29.9265 22.9681 28.0625 23.2949C28.1662 23.4478 28.2611 23.6035 28.3457 23.7617C28.88 24.7611 29.691 25.6284 30.7446 26.2367C33.7518 27.9729 37.5969 26.9425 39.3331 23.9355C40.8214 21.3574 40.2765 18.1634 38.1959 16.2104C37.2818 18.404 35.1607 19.9687 32.6621 20.0752Z" fill="url(#paint11_linear_130_5833)"/>
<path d="M54.9193 8.20195V26.9794H50.7578V8.20195H54.9193ZM51.4175 26.9794L51.4936 23.3001H62.278V26.9794H51.4175ZM62.9293 20.6103C62.9293 19.2739 63.2084 18.1066 63.7667 17.1086C64.3249 16.0935 65.1115 15.3069 66.1266 14.7487C67.1415 14.1904 68.3256 13.9113 69.6791 13.9113C71.0324 13.9113 72.208 14.1904 73.2061 14.7487C74.2211 15.3069 75.0077 16.0935 75.566 17.1086C76.1242 18.1066 76.4034 19.2739 76.4034 20.6103C76.4034 21.9467 76.1242 23.114 75.566 24.1121C75.0077 25.1102 74.2211 25.8883 73.2061 26.4465C72.208 27.0048 71.0324 27.2839 69.6791 27.2839C68.3256 27.2839 67.1415 27.0048 66.1266 26.4465C65.1115 25.8883 64.3249 25.1102 63.7667 24.1121C63.2084 23.114 62.9293 21.9467 62.9293 20.6103ZM66.8624 20.5849C66.8624 21.2278 66.9808 21.7945 67.2176 22.2851C67.4544 22.7588 67.7843 23.1309 68.2072 23.4016C68.6302 23.6553 69.1208 23.7822 69.6791 23.7822C70.2373 23.7822 70.7278 23.6553 71.1508 23.4016C71.5737 23.1309 71.8951 22.7588 72.1151 22.2851C72.3519 21.7945 72.4703 21.2278 72.4703 20.5849C72.4703 19.9421 72.3519 19.3838 72.1151 18.9102C71.8951 18.4365 71.5737 18.0728 71.1508 17.819C70.7278 17.5484 70.2373 17.413 69.6791 17.413C69.1208 17.413 68.6302 17.5484 68.2072 17.819C67.7843 18.0728 67.4544 18.4365 67.2176 18.9102C66.9808 19.3838 66.8624 19.9421 66.8624 20.5849ZM77.2858 20.4074C77.2858 19.1047 77.548 17.9629 78.0724 16.9817C78.5968 16.0005 79.3158 15.2393 80.2293 14.6979C81.1428 14.1396 82.1916 13.8605 83.3758 13.8605C84.3738 13.8605 85.2535 14.0635 86.0148 14.4696C86.793 14.8756 87.3173 15.4085 87.588 16.0682L87.2074 16.322L87.5119 14.292H91.039V26.1674C91.039 27.6561 90.7514 28.9418 90.1763 30.0245C89.6011 31.124 88.7807 31.9698 87.7148 32.5619C86.6661 33.154 85.4142 33.4501 83.9593 33.4501C82.7414 33.4501 81.6419 33.2048 80.6606 32.7141C79.6964 32.2405 78.9098 31.5638 78.3007 30.6842C77.7087 29.8045 77.3534 28.7896 77.235 27.6391H81.1935C81.2274 28.3666 81.515 28.9248 82.0562 29.314C82.6145 29.703 83.325 29.8976 84.1878 29.8976C85.1521 29.8976 85.8963 29.6269 86.4208 29.0855C86.9452 28.5611 87.2074 27.8591 87.2074 26.9794V24.2897L87.5626 24.6196C87.292 25.2794 86.7675 25.8122 85.9894 26.2182C85.2112 26.6242 84.3147 26.8272 83.2996 26.8272C82.1324 26.8272 81.092 26.5566 80.1785 26.0152C79.282 25.4739 78.5714 24.7211 78.047 23.7569C77.5395 22.7926 77.2858 21.6761 77.2858 20.4074ZM81.2442 20.3058C81.2442 20.9148 81.3711 21.4561 81.6249 21.9298C81.8787 22.4035 82.217 22.7756 82.6399 23.0463C83.0628 23.3001 83.528 23.427 84.0356 23.427C84.6445 23.427 85.1774 23.3001 85.6342 23.0463C86.1078 22.7756 86.4716 22.4035 86.7252 21.9298C86.9959 21.4561 87.1312 20.9148 87.1312 20.3058C87.1312 19.6799 86.9959 19.147 86.7252 18.7072C86.4546 18.2505 86.0824 17.8951 85.6087 17.6415C85.1521 17.3877 84.6191 17.2608 84.0101 17.2608C83.5026 17.2608 83.0375 17.3877 82.6145 17.6415C82.1916 17.8951 81.8532 18.2505 81.5996 18.7072C81.3626 19.164 81.2442 19.6968 81.2442 20.3058ZM92.4317 20.6103C92.4317 19.2739 92.7108 18.1066 93.2691 17.1086C93.8273 16.0935 94.6139 15.3069 95.6289 14.7487C96.6439 14.1904 97.8281 13.9113 99.1814 13.9113C100.535 13.9113 101.71 14.1904 102.709 14.7487C103.724 15.3069 104.51 16.0935 105.068 17.1086C105.627 18.1066 105.906 19.2739 105.906 20.6103C105.906 21.9467 105.627 23.114 105.068 24.1121C104.51 25.1102 103.724 25.8883 102.709 26.4465C101.71 27.0048 100.535 27.2839 99.1814 27.2839C97.8281 27.2839 96.6439 27.0048 95.6289 26.4465C94.6139 25.8883 93.8273 25.1102 93.2691 24.1121C92.7108 23.114 92.4317 21.9467 92.4317 20.6103ZM96.3647 20.5849C96.3647 21.2278 96.4832 21.7945 96.72 22.2851C96.9568 22.7588 97.2867 23.1309 97.7097 23.4016C98.1326 23.6553 98.6232 23.7822 99.1814 23.7822C99.7397 23.7822 100.23 23.6553 100.653 23.4016C101.076 23.1309 101.397 22.7588 101.617 22.2851C101.854 21.7945 101.973 21.2278 101.973 20.5849C101.973 19.9421 101.854 19.3838 101.617 18.9102C101.397 18.4365 101.076 18.0728 100.653 17.819C100.23 17.5484 99.7397 17.413 99.1814 17.413C98.6232 17.413 98.1326 17.5484 97.7097 17.819C97.2867 18.0728 96.9568 18.4365 96.72 18.9102C96.4832 19.3838 96.3647 19.9421 96.3647 20.5849ZM107.549 26.9794V14.292H111.482V26.9794H107.549ZM109.529 12.3127C108.903 12.3127 108.37 12.1012 107.93 11.6783C107.507 11.2385 107.296 10.7056 107.296 10.0797C107.296 9.45381 107.507 8.92938 107.93 8.5064C108.37 8.08353 108.903 7.87207 109.529 7.87207C110.138 7.87207 110.654 8.08353 111.076 8.5064C111.516 8.92938 111.736 9.45381 111.736 10.0797C111.736 10.7056 111.516 11.2385 111.076 11.6783C110.654 12.1012 110.138 12.3127 109.529 12.3127ZM114.026 33.0695V14.292H117.604L117.806 15.8398C118.162 15.2478 118.729 14.7741 119.506 14.4188C120.285 14.0635 121.123 13.886 122.019 13.886C123.203 13.886 124.235 14.1481 125.114 14.6726C125.994 15.197 126.688 15.9498 127.196 16.931C127.702 17.8951 127.973 19.0624 128.008 20.4327C128.042 21.7691 127.821 22.9618 127.348 24.0105C126.874 25.0424 126.189 25.8545 125.292 26.4465C124.395 27.0387 123.313 27.3347 122.044 27.3347C121.165 27.3347 120.344 27.1825 119.583 26.878C118.822 26.5734 118.255 26.1844 117.883 25.7107V33.0695H114.026ZM117.959 20.6357C117.959 21.2616 118.085 21.8198 118.34 22.3105C118.61 22.7841 118.974 23.1563 119.431 23.427C119.904 23.6807 120.445 23.8075 121.054 23.8075C121.681 23.8075 122.214 23.6723 122.653 23.4016C123.11 23.1309 123.457 22.7588 123.693 22.2851C123.948 21.8114 124.074 21.2616 124.074 20.6357C124.074 20.0097 123.948 19.46 123.693 18.9863C123.457 18.5127 123.11 18.1405 122.653 17.8698C122.214 17.5992 121.681 17.4638 121.054 17.4638C120.445 17.4638 119.904 17.5992 119.431 17.8698C118.974 18.1236 118.61 18.4873 118.34 18.961C118.085 19.4346 117.959 19.9929 117.959 20.6357ZM128.677 22.9702H132.205C132.205 23.41 132.348 23.7569 132.636 24.0105C132.941 24.2643 133.38 24.3912 133.955 24.3912C134.293 24.3912 134.574 24.3489 134.793 24.2643C135.03 24.1797 135.208 24.0613 135.325 23.9091C135.461 23.7399 135.529 23.5538 135.529 23.3508C135.529 23.1309 135.453 22.9448 135.301 22.7926C135.165 22.6404 134.928 22.5219 134.59 22.4374L132.357 21.8537C131.105 21.5154 130.217 21.0163 129.693 20.3566C129.168 19.6968 128.906 18.944 128.906 18.0982C128.906 17.2523 129.118 16.5165 129.541 15.8906C129.98 15.2478 130.573 14.7572 131.316 14.4188C132.061 14.0635 132.898 13.886 133.829 13.886C135.232 13.886 136.383 14.275 137.28 15.0532C138.193 15.8144 138.676 16.8548 138.727 18.1743H135.199C135.216 17.7344 135.089 17.3877 134.819 17.1339C134.548 16.8632 134.192 16.728 133.753 16.728C133.364 16.728 133.042 16.8294 132.789 17.0324C132.552 17.2185 132.433 17.4808 132.433 17.819C132.433 18.1405 132.552 18.3773 132.789 18.5296C133.026 18.6649 133.346 18.7833 133.753 18.8849L136.011 19.4431C137.06 19.6968 137.855 20.1283 138.397 20.7372C138.938 21.3462 139.208 22.1244 139.208 23.0717C139.208 24.3743 138.727 25.4061 137.762 26.1674C136.798 26.9287 135.546 27.3093 134.006 27.3093C132.417 27.3093 131.139 26.9118 130.175 26.1167C129.227 25.3047 128.728 24.2558 128.677 22.9702ZM145.443 27.3093C143.955 27.3093 142.804 26.8441 141.992 25.9137C141.181 24.9833 140.774 23.7652 140.774 22.2597V14.292H144.682V20.8387C144.682 22.0228 144.894 22.8179 145.317 23.2239C145.74 23.63 146.297 23.833 146.991 23.833C147.888 23.833 148.505 23.5792 148.843 23.0717C149.182 22.5642 149.351 21.8368 149.351 20.8894V14.292H153.259V26.9794H149.58L149.326 25.5585C148.936 26.0828 148.387 26.5058 147.677 26.8272C146.966 27.1486 146.222 27.3093 145.443 27.3093ZM159.71 26.9794H155.776V14.292H159.431L159.71 16.4742L159.279 16.0174C159.617 15.3746 160.125 14.8586 160.801 14.4696C161.495 14.0635 162.238 13.8605 163.034 13.8605C164.286 13.8605 165.267 14.1396 165.978 14.6979C166.705 15.2561 167.229 15.9921 167.55 16.9055H166.941C167.145 15.9921 167.635 15.2561 168.413 14.6979C169.192 14.1396 170.122 13.8605 171.205 13.8605C172.846 13.8605 174.055 14.3004 174.834 15.18C175.611 16.0597 176 17.227 176 18.6819V26.9794H172.195V19.6461C172.195 18.8509 172 18.2589 171.61 17.8698C171.238 17.4808 170.74 17.2862 170.114 17.2862C169.742 17.2862 169.386 17.3708 169.048 17.5399C168.71 17.6921 168.43 17.9713 168.21 18.3773C167.99 18.7664 167.88 19.3247 167.88 20.052V26.9794H164.023V19.6461C164.023 18.8509 163.837 18.2674 163.465 17.8951C163.092 17.5061 162.594 17.3116 161.968 17.3116C161.596 17.3116 161.232 17.3962 160.876 17.5654C160.538 17.7176 160.259 17.9967 160.04 18.4027C159.82 18.7918 159.71 19.3415 159.71 20.052V26.9794Z" fill="white"/>
</g>
<defs>
<linearGradient id="paint0_linear_130_5833" x1="29.3848" y1="7.50659" x2="29.3848" y2="20.0808" gradientUnits="userSpaceOnUse">
<stop stop-color="#25136D"/>
<stop offset="1" stop-color="#3D9BA2"/>
</linearGradient>
<linearGradient id="paint1_linear_130_5833" x1="21.848" y1="4.54535" x2="28.1351" y2="15.4351" gradientUnits="userSpaceOnUse">
<stop stop-color="#25136D"/>
<stop offset="1" stop-color="#3D9BA2"/>
</linearGradient>
<linearGradient id="paint2_linear_130_5833" x1="13.8409" y1="5.74835" x2="24.7305" y2="12.0355" gradientUnits="userSpaceOnUse">
<stop stop-color="#25136D"/>
<stop offset="1" stop-color="#3D9BA2"/>
</linearGradient>
<linearGradient id="paint3_linear_130_5833" x1="7.50977" y1="10.7936" x2="20.084" y2="10.7936" gradientUnits="userSpaceOnUse">
<stop stop-color="#25136D"/>
<stop offset="1" stop-color="#3D9BA2"/>
</linearGradient>
<linearGradient id="paint4_linear_130_5833" x1="4.54781" y1="18.3294" x2="15.4375" y2="12.0423" gradientUnits="userSpaceOnUse">
<stop stop-color="#25136D"/>
<stop offset="1" stop-color="#3D9BA2"/>
</linearGradient>
<linearGradient id="paint5_linear_130_5833" x1="5.74837" y1="26.3364" x2="12.0355" y2="15.4467" gradientUnits="userSpaceOnUse">
<stop stop-color="#25136D"/>
<stop offset="1" stop-color="#3D9BA2"/>
</linearGradient>
<linearGradient id="paint6_linear_130_5833" x1="10.7937" y1="32.6695" x2="10.7937" y2="20.0952" gradientUnits="userSpaceOnUse">
<stop stop-color="#25136D"/>
<stop offset="1" stop-color="#3D9BA2"/>
</linearGradient>
<linearGradient id="paint7_linear_130_5833" x1="18.3284" y1="35.6324" x2="12.0413" y2="24.7427" gradientUnits="userSpaceOnUse">
<stop stop-color="#25136D"/>
<stop offset="1" stop-color="#3D9BA2"/>
</linearGradient>
<linearGradient id="paint8_linear_130_5833" x1="26.3359" y1="34.4303" x2="15.4463" y2="28.143" gradientUnits="userSpaceOnUse">
<stop stop-color="#25136D"/>
<stop offset="1" stop-color="#3D9BA2"/>
</linearGradient>
<linearGradient id="paint9_linear_130_5833" x1="32.668" y1="29.3858" x2="20.0938" y2="29.3858" gradientUnits="userSpaceOnUse">
<stop stop-color="#25136D"/>
<stop offset="1" stop-color="#3D9BA2"/>
</linearGradient>
<linearGradient id="paint10_linear_130_5833" x1="35.6309" y1="21.8511" x2="24.7413" y2="28.1383" gradientUnits="userSpaceOnUse">
<stop stop-color="#25136D"/>
<stop offset="1" stop-color="#3D9BA2"/>
</linearGradient>
<linearGradient id="paint11_linear_130_5833" x1="34.4281" y1="13.8438" x2="28.1409" y2="24.7335" gradientUnits="userSpaceOnUse">
<stop stop-color="#25136D"/>
<stop offset="1" stop-color="#3D9BA2"/>
</linearGradient>
<clipPath id="clip0_130_5833">
<rect width="151" height="40" fill="white"/>
</clipPath>
</defs>
</svg>
