<svg width="178" height="42" viewBox="0 0 178 42" fill="none" xmlns="http://www.w3.org/2000/svg">
<path d="M53.5508 29.3003H66.0578V25.5331H57.996V11.3435H53.5508V29.3003Z" fill="white"/>
<path d="M73.4695 26.7886C71.6864 26.7886 70.7572 25.2315 70.7572 22.8958C70.7572 20.5602 71.6864 18.978 73.4695 18.978C75.2526 18.978 76.207 20.5602 76.207 22.8958C76.207 25.2315 75.2526 26.7886 73.4695 26.7886ZM73.4946 29.7019C77.6385 29.7019 80.3509 26.7635 80.3509 22.8958C80.3509 19.0282 77.6385 16.0898 73.4946 16.0898C69.3759 16.0898 66.6133 19.0282 66.6133 22.8958C66.6133 26.7635 69.3759 29.7019 73.4946 29.7019Z" fill="white"/>
<path d="M87.5236 33.7455C89.4323 33.7455 91.115 33.3185 92.2451 32.314C93.2748 31.3847 93.9529 29.9783 93.9529 28.0445V16.4417H90.0351V17.823H89.9848C89.2314 16.743 88.0761 16.0649 86.3684 16.0649C83.1788 16.0649 80.9688 18.7271 80.9688 22.4942C80.9688 26.4372 83.656 28.597 86.5442 28.597C88.1012 28.597 89.0807 27.9692 89.8341 27.1153H89.9346V28.3961C89.9346 29.9532 89.2063 30.8573 87.4734 30.8573C86.1172 30.8573 85.4391 30.2797 85.2131 29.6016H81.245C81.6468 32.2889 83.9825 33.7455 87.5236 33.7455ZM87.4985 25.5582C85.9665 25.5582 84.9619 24.3025 84.9619 22.3687C84.9619 20.4097 85.9665 19.154 87.4985 19.154C89.2063 19.154 90.1104 20.6106 90.1104 22.3435C90.1104 24.1518 89.2816 25.5582 87.4985 25.5582Z" fill="white"/>
<path d="M102.009 26.7886C100.225 26.7886 99.2962 25.2315 99.2962 22.8958C99.2962 20.5602 100.225 18.978 102.009 18.978C103.792 18.978 104.746 20.5602 104.746 22.8958C104.746 25.2315 103.792 26.7886 102.009 26.7886ZM102.034 29.7019C106.178 29.7019 108.89 26.7635 108.89 22.8958C108.89 19.0282 106.178 16.0898 102.034 16.0898C97.9149 16.0898 95.1523 19.0282 95.1523 22.8958C95.1523 26.7635 97.9149 29.7019 102.034 29.7019Z" fill="white"/>
<path d="M110.086 29.3001H114.18V16.4415H110.086V29.3001ZM110.086 14.6584H114.18V11.3433H110.086V14.6584Z" fill="white"/>
<path d="M115.955 33.5446H120.049V27.9692H120.099C120.903 29.0491 122.083 29.7021 123.741 29.7021C127.106 29.7021 129.341 27.0399 129.341 22.8709C129.341 19.0033 127.257 16.0649 123.841 16.0649C122.083 16.0649 120.827 16.8435 119.948 17.9988H119.873V16.4417H115.955V33.5446ZM122.686 26.5376C120.928 26.5376 119.923 25.1061 119.923 23.0216C119.923 20.9371 120.827 19.3549 122.61 19.3549C124.368 19.3549 125.197 20.8116 125.197 23.0216C125.197 25.2066 124.243 26.5376 122.686 26.5376Z" fill="white"/>
<path d="M136.007 29.7021C139.373 29.7021 141.859 28.2454 141.859 25.4326C141.859 22.1426 139.197 21.565 136.937 21.1883C135.304 20.8869 133.848 20.7613 133.848 19.8572C133.848 19.0536 134.626 18.6768 135.631 18.6768C136.761 18.6768 137.539 19.0284 137.69 20.1837H141.457C141.256 17.6471 139.297 16.0649 135.656 16.0649C132.617 16.0649 130.106 17.4713 130.106 20.1837C130.106 23.1974 132.491 23.8002 134.727 24.1769C136.434 24.4783 137.991 24.6038 137.991 25.7591C137.991 26.5879 137.213 27.0399 135.982 27.0399C134.626 27.0399 133.772 26.4121 133.622 25.1312H129.754C129.879 27.9692 132.24 29.7021 136.007 29.7021Z" fill="white"/>
<path d="M147.419 29.6767C149.202 29.6767 150.332 28.9735 151.262 27.7178H151.337V29.3H155.255V16.4414H151.161V23.6241C151.161 25.1561 150.307 26.2109 148.901 26.2109C147.595 26.2109 146.967 25.4324 146.967 24.026V16.4414H142.898V24.8798C142.898 27.7429 144.456 29.6767 147.419 29.6767Z" fill="white"/>
<path d="M157.035 29.3002H161.129V22.0924C161.129 20.5604 161.882 19.4805 163.163 19.4805C164.394 19.4805 164.971 20.2842 164.971 21.6655V29.3002H169.065V22.0924C169.065 20.5604 169.793 19.4805 171.099 19.4805C172.33 19.4805 172.907 20.2842 172.907 21.6655V29.3002H177.001V20.9371C177.001 18.049 175.544 16.0649 172.631 16.0649C170.974 16.0649 169.592 16.7681 168.588 18.3252H168.538C167.885 16.9439 166.604 16.0649 164.921 16.0649C163.063 16.0649 161.832 16.9439 161.028 18.275H160.953V16.4417H157.035V29.3002Z" fill="white"/>
<path fill-rule="evenodd" clip-rule="evenodd" d="M20.9287 41.8573C32.4873 41.8573 41.8574 32.4872 41.8574 20.9286C41.8574 9.37009 32.4873 0 20.9287 0C9.37007 0 0 9.37009 0 20.9286C0 32.4872 9.37007 41.8573 20.9287 41.8573ZM27.4577 9.74946C27.7755 8.62057 26.68 7.95303 25.6795 8.66583L11.7129 18.6156C10.6278 19.3886 10.7985 20.9286 11.9692 20.9286H15.647V20.9002H22.8149L16.9744 22.9609L14.3997 32.1079C14.0819 33.2368 15.1773 33.9043 16.1779 33.1915L30.1445 23.2418C31.2296 22.4688 31.0588 20.9286 29.8882 20.9286H24.3109L27.4577 9.74946Z" fill="#F15757"/>
</svg>
