<svg width="187" height="56" viewBox="0 0 187 56" fill="none" xmlns="http://www.w3.org/2000/svg">
<rect x="0.615234" width="185.443" height="56" rx="28" fill="black"/>
<path d="M72.94 40.8543H71.3124L71.127 38.7963C70.7699 39.4411 70.1862 39.9968 69.3758 40.4633C68.5655 40.9297 67.5903 41.163 66.4503 41.163C65.2005 41.163 64.0468 40.8817 62.9892 40.3192C61.9317 39.7429 61.0595 38.8649 60.3728 37.6849C59.6998 36.505 59.3633 35.1261 59.3633 33.5483C59.3633 31.9705 59.7204 30.5916 60.4346 29.4117C61.1488 28.2318 62.0415 27.3606 63.1128 26.798C64.1979 26.2355 65.3584 25.9543 66.5946 25.9543C68.1603 25.9543 69.52 26.359 70.6737 27.1685C71.8412 27.9642 72.6378 29.0276 73.0636 30.3584L71.23 31.1404C70.9004 30.084 70.3235 29.2677 69.4994 28.6914C68.6891 28.1014 67.7208 27.8065 66.5946 27.8065C65.1799 27.8065 63.9644 28.3073 62.948 29.3088C61.9317 30.3104 61.4235 31.7236 61.4235 33.5483C61.4235 35.3868 61.9179 36.8137 62.9068 37.829C63.9094 38.8306 65.1112 39.3313 66.5122 39.3313C67.2813 39.3313 67.9612 39.2079 68.5517 38.9609C69.1561 38.7139 69.623 38.3915 69.9527 37.9936C70.296 37.582 70.5501 37.1704 70.7149 36.7588C70.8935 36.3472 70.9965 35.9356 71.024 35.524H65.9559V33.713H72.94V40.8543ZM77.8772 38.5081C78.4815 39.1255 79.2163 39.4342 80.0816 39.4342C80.9469 39.4342 81.6748 39.1255 82.2654 38.5081C82.8697 37.877 83.1719 37.0058 83.1719 35.8945C83.1719 34.7969 82.8697 33.9393 82.2654 33.3219C81.6748 32.6908 80.9469 32.3753 80.0816 32.3753C79.2163 32.3753 78.4815 32.6908 77.8772 33.3219C77.2866 33.9393 76.9913 34.7969 76.9913 35.8945C76.9913 37.0058 77.2866 37.877 77.8772 38.5081ZM76.435 32.1489C77.3965 31.1473 78.612 30.6465 80.0816 30.6465C81.5512 30.6465 82.7598 31.1473 83.7075 32.1489C84.6689 33.1367 85.1496 34.3853 85.1496 35.8945C85.1496 37.4174 84.6758 38.6796 83.7281 39.6812C82.7804 40.6691 81.5649 41.163 80.0816 41.163C78.5982 41.163 77.3827 40.6691 76.435 39.6812C75.4873 38.6796 75.0135 37.4174 75.0135 35.8945C75.0135 34.3853 75.4873 33.1367 76.435 32.1489ZM89.667 38.5081C90.2713 39.1255 91.0061 39.4342 91.8714 39.4342C92.7367 39.4342 93.4646 39.1255 94.0552 38.5081C94.6595 37.877 94.9617 37.0058 94.9617 35.8945C94.9617 34.7969 94.6595 33.9393 94.0552 33.3219C93.4646 32.6908 92.7367 32.3753 91.8714 32.3753C91.0061 32.3753 90.2713 32.6908 89.667 33.3219C89.0764 33.9393 88.7811 34.7969 88.7811 35.8945C88.7811 37.0058 89.0764 37.877 89.667 38.5081ZM88.2248 32.1489C89.1863 31.1473 90.4018 30.6465 91.8714 30.6465C93.341 30.6465 94.5496 31.1473 95.4973 32.1489C96.4587 33.1367 96.9395 34.3853 96.9395 35.8945C96.9395 37.4174 96.4656 38.6796 95.5179 39.6812C94.5702 40.6691 93.3547 41.163 91.8714 41.163C90.388 41.163 89.1725 40.6691 88.2248 39.6812C87.2771 38.6796 86.8033 37.4174 86.8033 35.8945C86.8033 34.3853 87.2771 33.1367 88.2248 32.1489ZM98.6961 41.3894L100.571 40.9572C100.64 41.6569 100.921 42.2331 101.416 42.6859C101.91 43.1524 102.528 43.3856 103.27 43.3856C105.289 43.3856 106.298 42.3155 106.298 40.1751V38.7551C106.051 39.2353 105.66 39.6263 105.124 39.9282C104.602 40.23 103.984 40.3809 103.27 40.3809C101.951 40.3809 100.859 39.935 99.994 39.0432C99.1425 38.1377 98.7167 36.9852 98.7167 35.5858C98.7167 34.2275 99.1425 33.0887 99.994 32.1695C100.846 31.2365 101.937 30.77 103.27 30.77C104.781 30.77 105.797 31.2914 106.319 32.3341V30.9552H108.235V40.1134C108.235 40.772 108.146 41.3825 107.967 41.945C107.802 42.5213 107.535 43.0495 107.164 43.5297C106.793 44.0099 106.271 44.3872 105.598 44.6616C104.938 44.936 104.162 45.0732 103.27 45.0732C102.047 45.0732 101.01 44.7233 100.159 44.0236C99.3073 43.3376 98.8197 42.4595 98.6961 41.3894ZM103.558 38.7551C104.396 38.7551 105.076 38.467 105.598 37.8907C106.12 37.3008 106.381 36.5324 106.381 35.5858C106.381 34.6391 106.12 33.8776 105.598 33.3014C105.076 32.7114 104.396 32.4164 103.558 32.4164C102.707 32.4164 102.013 32.7045 101.477 33.2808C100.955 33.857 100.694 34.6254 100.694 35.5858C100.694 36.5599 100.949 37.3351 101.457 37.9113C101.979 38.4738 102.679 38.7551 103.558 38.7551ZM113.264 40.8543H111.327V25.9543H113.264V40.8543ZM117.815 34.886H123.233C123.206 34.1451 122.959 33.5415 122.492 33.075C122.025 32.5948 121.365 32.3547 120.514 32.3547C119.745 32.3547 119.113 32.6085 118.618 33.1161C118.124 33.6101 117.856 34.2 117.815 34.886ZM123.522 37.4586L125.19 38.0348C124.902 38.954 124.366 39.7086 123.583 40.2986C122.801 40.8749 121.853 41.163 120.74 41.163C119.353 41.163 118.172 40.6896 117.197 39.7429C116.235 38.7825 115.755 37.4929 115.755 35.8739C115.755 34.3647 116.222 33.1161 117.156 32.1283C118.09 31.1404 119.202 30.6465 120.493 30.6465C121.99 30.6465 123.158 31.1199 123.995 32.0666C124.833 32.9995 125.252 34.2549 125.252 35.8327C125.252 36.0797 125.238 36.2855 125.211 36.4501H117.753C117.767 37.3282 118.055 38.0485 118.618 38.611C119.195 39.1736 119.903 39.4548 120.74 39.4548C122.155 39.4548 123.082 38.7894 123.522 37.4586ZM135.1 33.075H138.025C138.891 33.075 139.577 32.8555 140.086 32.4164C140.594 31.9637 140.848 31.36 140.848 30.6054C140.848 29.837 140.594 29.2265 140.086 28.7737C139.577 28.3073 138.891 28.074 138.025 28.074H135.1V33.075ZM138.396 34.886H135.1V40.8543H133.081V26.263H138.396C139.729 26.263 140.814 26.6746 141.651 27.4978C142.489 28.321 142.908 29.35 142.908 30.5848C142.908 31.8333 142.489 32.8623 141.651 33.6718C140.814 34.4813 139.729 34.886 138.396 34.886ZM146.903 40.8543H144.966V25.9543H146.903V40.8543ZM149.579 38.1994C149.579 37.3488 149.854 36.6696 150.403 36.162C150.953 35.6406 151.681 35.3182 152.587 35.1947L155.265 34.8037C155.773 34.7351 156.028 34.4882 156.028 34.0628C156.028 33.5415 155.849 33.1161 155.492 32.7869C155.135 32.4576 154.599 32.2929 153.885 32.2929C153.226 32.2929 152.704 32.4782 152.319 32.8486C151.935 33.2053 151.708 33.6855 151.639 34.2892L149.785 33.857C149.881 32.9103 150.314 32.142 151.083 31.5521C151.852 30.9484 152.772 30.6465 153.844 30.6465C155.245 30.6465 156.282 30.9895 156.955 31.6755C157.628 32.3478 157.964 33.2122 157.964 34.2686V39.2284C157.964 39.8184 158.005 40.3604 158.088 40.8543H156.192C156.124 40.4427 156.089 39.9968 156.089 39.5166C155.815 39.9556 155.41 40.3398 154.874 40.6691C154.352 40.9983 153.693 41.163 152.896 41.163C151.921 41.163 151.124 40.8749 150.506 40.2986C149.888 39.7086 149.579 39.0089 149.579 38.1994ZM153.164 39.5371C154.029 39.5371 154.723 39.3039 155.245 38.8374C155.767 38.3709 156.028 37.6301 156.028 36.6148V36.162L152.999 36.6148C152.56 36.6834 152.209 36.8411 151.948 37.0881C151.687 37.3351 151.557 37.6712 151.557 38.0965C151.557 38.4807 151.701 38.8168 151.99 39.105C152.292 39.3931 152.683 39.5371 153.164 39.5371ZM163.253 44.9909H161.131L163.603 39.7635L159.339 30.9552H161.564L164.654 37.7878L167.621 30.9552H169.701L163.253 44.9909Z" fill="white"/>
<path opacity="0.6" d="M65.0909 18.3139V15.4209H62.3126V16.3618H64.0706C64.0079 16.7538 63.6076 17.4437 62.5795 17.4437C61.6455 17.4437 60.8214 16.793 60.8214 15.5385C60.8214 14.2214 61.7318 13.6491 62.5716 13.6491C63.4742 13.6491 63.9372 14.2214 64.0785 14.7153L65.1145 14.3469C64.8398 13.4923 64.0314 12.6377 62.5716 12.6377C61.0647 12.6377 59.7227 13.7432 59.7227 15.5385C59.7227 17.3339 61.0019 18.4315 62.501 18.4315C63.3407 18.4315 63.8901 18.0552 64.1413 17.6789L64.2119 18.3139H65.0909ZM71.1401 18.3139V17.2947H68.7385V16.0089H70.9125V15.0446H68.7385V13.7745H71.1401V12.7553H67.6554V18.3139H71.1401ZM77.8838 13.7824V12.7553H73.2768V13.7824H75.0348V18.3139H76.1257V13.7824H77.8838ZM84.6272 18.3139V12.7553H83.5284V18.3139H84.6272ZM91.4651 13.7824V12.7553H86.8582V13.7824H88.6162V18.3139H89.7071V13.7824H91.4651ZM97.9024 15.5307C97.9024 14.2763 98.7814 13.6805 99.6369 13.6805C100.5 13.6805 101.379 14.2763 101.379 15.5307C101.379 16.7851 100.5 17.381 99.6369 17.381C98.7814 17.381 97.9024 16.7851 97.9024 15.5307ZM96.7801 15.5385C96.7801 17.3261 98.13 18.4315 99.6369 18.4315C101.152 18.4315 102.502 17.3261 102.502 15.5385C102.502 13.7432 101.152 12.6377 99.6369 12.6377C98.13 12.6377 96.7801 13.7432 96.7801 15.5385ZM109.661 18.3139V12.7553H108.578V16.4323L106.262 12.7553H104.912V18.3139H105.995V14.3704L108.523 18.3139H109.661Z" fill="white"/>
<path d="M46.3798 26.1262L41.8058 23.4844L37.123 28.1671L41.8054 32.8495L46.3953 30.1989C47.111 29.764 47.5381 29.0044 47.5381 28.1671C47.5381 27.3298 47.1107 26.5702 46.3798 26.1262Z" fill="#FFCE00"/>
<path d="M37.124 28.1672L24.3693 15.3206C23.9257 15.7642 23.6562 16.3662 23.6562 17.0316V39.2636C23.6562 39.929 23.9257 40.531 24.3693 40.9749L37.124 28.1672Z" fill="url(#paint0_linear_421_4557)"/>
<path d="M37.1239 28.1671L41.8066 23.4844L41.814 23.477L35.5398 19.8645L27.2689 15.0035C26.5241 14.544 25.621 14.5282 24.8604 14.9559C24.6862 15.0667 24.5275 15.1777 24.3691 15.3202L37.1239 28.1671Z" fill="#00F076"/>
<path d="M24.3691 40.9745C24.5275 41.117 24.6862 41.228 24.8604 41.3388C25.2405 41.5447 25.6369 41.6558 26.0329 41.6558C26.4607 41.6558 26.8726 41.5292 27.253 41.3074L35.5395 36.4697L41.8137 32.8572L41.8063 32.8498L37.1239 28.1671L24.3691 40.9745Z" fill="#F63448"/>
<defs>
<linearGradient id="paint0_linear_421_4557" x1="17.956" y1="34.5613" x2="30.783" y2="21.7339" gradientUnits="userSpaceOnUse">
<stop stop-color="#00E2FF"/>
<stop offset="1" stop-color="#00C5FF"/>
</linearGradient>
</defs>
</svg>
