<svg width="1089" height="533" viewBox="0 0 1089 533" fill="none" xmlns="http://www.w3.org/2000/svg">
<g clip-path="url(#clip0_888_4172)">
<path d="M50.024 729.816C117.691 640.798 201.684 565.476 297.518 507.874C477.711 400.432 795.977 301.653 977.474 447.597C1033 492.271 1099.09 578.621 1076.93 647.5C1042.94 753.458 826.913 809.64 668.077 748.949C631.669 734.896 597.872 714.843 568.089 689.622" stroke="#374151" stroke-width="0.800953" stroke-miterlimit="10"/>
<path d="M77.8997 789.113C134.107 692.456 208.206 607.389 296.237 538.457C461.866 409.658 765.598 272.494 963.616 395.063C1024.21 432.558 1100.36 510.128 1086.89 581.202C1066.13 690.571 858.704 772.858 693.609 732.13C655.738 722.666 619.724 706.914 587.066 685.528" stroke="#374151" stroke-width="0.800953" stroke-miterlimit="10"/>
<path d="M112.875 844.495C156.774 741.646 219.861 648.102 298.762 568.862C447.306 420.722 731.818 247.25 943.481 344.546C1008.23 374.21 1093.33 441.932 1088.82 514.133C1081.47 625.282 885.7 732.456 716.928 712.314C678.181 707.561 640.504 696.351 605.46 679.15" stroke="#374151" stroke-width="0.800953" stroke-miterlimit="10"/>
<path d="M154.404 895.249C185.331 787.794 236.438 687.213 304.994 598.881C434.229 433.596 695.308 226.456 917.263 297.025C985.188 318.591 1077.97 375.248 1082.21 447.479C1088.79 558.598 907.653 688.999 737.605 689.77C698.576 689.839 659.813 683.352 622.934 670.578" stroke="#374151" stroke-width="0.800953" stroke-miterlimit="10"/>
<path d="M201.828 940.457C219.33 830.056 257.693 723.999 314.868 627.952C422.805 447.894 656.447 210.26 885.403 253.005C955.463 266.057 1054.47 310.908 1067.58 382.071C1087.75 491.529 924.022 643.11 755.368 664.883C716.634 669.727 677.362 668.042 639.185 659.899" stroke="#374151" stroke-width="0.800953" stroke-miterlimit="10"/>
<path d="M254.441 979.494C258.179 867.755 283.164 757.75 328.06 655.361C413.07 463.527 615.775 198.988 848.202 213.375C919.389 217.735 1023.2 250.068 1044.89 319.066C1078.49 425.083 934.664 595.767 770.014 637.978C732.17 647.554 692.987 650.713 654.098 647.322" stroke="#374151" stroke-width="0.800953" stroke-miterlimit="10"/>
<path d="M311.458 1011.8C301.499 900.417 312.833 788.16 344.856 681.019C405.632 480.198 574.257 192.758 806.742 178.342C877.93 173.952 984.71 193.174 1014.91 259.056C1061.15 360.298 939.358 547.356 781.085 609.501C744.709 623.646 706.219 631.597 667.216 633.024" stroke="#374151" stroke-width="0.800953" stroke-miterlimit="10"/>
<path d="M372.027 1036.8C348.454 927.541 345.907 814.788 364.522 704.573C400.145 497.699 532.198 191.691 761.124 148.827C831.184 135.716 939.715 141.737 977.652 203.348C1036 298.272 938.143 498.738 788.679 579.867C754.315 598.382 717.087 610.996 678.547 617.184" stroke="#374151" stroke-width="0.800953" stroke-miterlimit="10"/>
<path d="M435.208 1054.22C398.366 948.642 381.967 837.017 386.89 725.307C396.886 515.705 490.319 195.814 712.245 125.126C780.14 103.501 888.67 96.1443 933.815 152.624C1003.34 239.508 930.849 450.623 792.508 549.521C760.678 572.112 725.286 589.207 687.804 600.097" stroke="#374151" stroke-width="0.800953" stroke-miterlimit="10"/>
<path d="M500.105 1063.71C450.606 963.491 420.629 854.768 411.773 743.343C395.905 534.126 449.325 205.158 660.929 107.743C725.65 77.9313 832.371 57.3151 884.189 107.743C963.771 185.372 917.766 403.785 792.625 518.938C763.81 545.273 730.784 566.589 694.921 582.003" stroke="#374151" stroke-width="0.800953" stroke-miterlimit="10"/>
<path d="M565.538 1065.16C504.058 971.763 460.933 867.506 438.469 757.966C396.943 552.28 409.609 219.248 607.539 96.4706C668.137 58.9167 771.507 25.2783 829.139 69.0912C917.826 136.487 899.021 358.933 788.977 488.533C763.62 518.218 733.461 543.437 699.756 563.137" stroke="#374151" stroke-width="0.800953" stroke-miterlimit="10"/>
<path d="M630.613 1058.58C558.119 973.444 502.511 875.277 466.763 769.328C400.352 570.286 371.847 238.351 553.345 92.1695C608.96 47.4666 707.435 1.39919 770.021 37.648C866.272 93.5637 874.933 316.485 781.648 458.87C760.134 491.442 733.303 520.17 702.274 543.855" stroke="#374151" stroke-width="0.800953" stroke-miterlimit="10"/>
<path d="M694.625 1044.01C612.208 968.421 544.953 877.814 496.458 777.04C406.109 587.698 337.088 261.637 499.187 94.3945C548.78 43.225 640.849 -14.5595 707.38 13.9175C809.77 57.5821 845.779 277.923 770.677 430.423C753.35 465.385 730.291 497.199 702.456 524.545" stroke="#374151" stroke-width="0.800953" stroke-miterlimit="10"/>
<path d="M756.228 1021.7C665.171 956.823 587.307 875.187 526.798 781.164C413.848 604.221 305.287 289.254 445.585 103.323C488.535 46.5473 572.773 -22.2424 642.299 -2.24917C749.258 28.4822 812.081 242.653 756.288 403.31C743.33 440.151 724.28 474.554 699.931 505.086" stroke="#374151" stroke-width="0.800953" stroke-miterlimit="10"/>
<path d="M814.51 992.012C716.159 938.789 628.851 867.311 557.258 781.401C423.426 619.824 276.958 320.46 393.379 118.689C428.972 56.9591 504.164 -21.5601 575.648 -10.2584C685.572 7.0948 774.201 211.951 738.577 378.333C730.279 416.484 715.64 452.972 695.272 486.279" stroke="#374151" stroke-width="0.800953" stroke-miterlimit="10"/>
<path d="M868.943 955.348C764.81 914.62 669.381 854.439 587.753 778.019C435.116 634.092 252.966 355.048 343.7 140.462C371.463 74.8167 436.421 -12.3346 508.736 -9.81325C619.966 -6.1053 733.094 186.292 718.174 355.7C714.65 394.572 704.624 432.575 688.513 468.125" stroke="#374151" stroke-width="0.800953" stroke-miterlimit="10"/>
<path d="M918.324 912.276C809.98 884.672 707.886 836.682 617.499 770.87C448.311 646.788 233.148 392.186 296.949 168.167C316.437 99.6149 370.183 5.01806 442.29 -1.35958C553.134 -11.3265 689.072 165.705 695.093 335.647C696.337 374.669 691.034 413.622 679.402 450.89" stroke="#374151" stroke-width="0.800953" stroke-miterlimit="10"/>
<path d="M962.085 863.48C851.158 849.403 743.928 814.318 646.132 760.102C462.974 657.763 218.327 431.52 253.921 201.361C264.836 130.91 306.57 30.5585 377.282 15.2521C486.05 -8.27102 642.721 150.725 669.565 318.65C675.609 357.216 675.138 396.522 668.171 434.931" stroke="#374151" stroke-width="0.800953" stroke-miterlimit="10"/>
<path d="M999.481 809.67C887.661 809.346 776.927 787.711 673.206 745.923C478.895 666.87 208.235 472.396 215.354 239.597C217.519 168.405 246.617 63.6035 314.927 39.7541C420.017 3.03066 595.019 141.47 642.269 304.916C653.005 342.487 657.366 381.591 655.172 420.604" stroke="#374151" stroke-width="0.800953" stroke-miterlimit="10"/>
<path d="M1029.98 751.678C918.97 765.093 806.425 757.23 698.362 728.511C495.805 673.93 203.314 514.222 181.751 282.283C175.166 211.328 191.153 103.798 255.904 71.6722C355.655 22.3419 546.377 138.296 613.353 294.623C628.616 330.55 637.75 368.783 640.374 407.73" stroke="#374151" stroke-width="0.800953" stroke-miterlimit="10"/>
<path d="M1053.14 690.393C944.616 717.348 831.953 723.388 721.17 708.191C513.541 678.913 203.521 556.373 153.66 328.854C138.236 259.175 141.054 150.369 201.474 110.68C294.403 49.5134 497.909 141.114 583.601 287.978C603.158 321.767 616.914 358.595 624.296 396.932" stroke="#374151" stroke-width="0.800953" stroke-miterlimit="10"/>
<path d="M1068.56 626.706C964.176 666.776 853.114 686.598 741.31 685.113C531.546 681.583 208.949 598.051 131.474 378.393C107.745 311.175 97.0666 202.993 152.237 156.065C236.949 83.8641 450.185 149.806 553.258 285.072C576.773 316.201 594.901 351.055 606.885 388.182" stroke="#374151" stroke-width="0.800953" stroke-miterlimit="10"/>
<path d="M1076.07 561.594C977.402 614.202 869.618 647.525 758.482 659.78C549.873 682.087 219.446 638.808 115.572 430.333C83.7755 366.527 59.8685 260.51 108.75 207.145C183.912 125.096 403.643 164.341 522.585 285.902C549.798 313.932 572.117 346.329 588.611 381.744" stroke="#374151" stroke-width="0.800953" stroke-miterlimit="10"/>
<path d="M1075.54 496.068C984.081 560.391 881.211 606.701 772.426 632.52C568.119 680.278 234.903 677.964 106.203 483.817C66.8128 424.49 30.0328 322.121 72.0035 263.18C136.517 172.498 359.392 184.453 492.364 290.44C522.803 314.879 548.931 344.247 569.661 377.325" stroke="#374151" stroke-width="0.800953" stroke-miterlimit="10"/>
<path d="M1066.9 431.105C984.035 506.176 887.64 564.786 782.861 603.805C585.969 676.303 254.889 714.954 103.379 538.101C57.0181 483.994 7.95831 386.995 42.3358 323.337C95.2516 225.447 317.89 209.874 462.874 298.746C496.087 319.259 525.632 345.188 550.286 375.456" stroke="#374151" stroke-width="0.800953" stroke-miterlimit="10"/>
<path d="M1050.38 367.714C977.37 452.393 888.907 522.399 789.718 573.994C603.237 670.133 279.543 749.186 107.329 592.296C54.6507 544.301 -5.94734 454.064 20.3623 386.669C60.8203 282.965 279.869 240.19 434.672 310.552C470.142 326.787 502.646 348.845 530.834 375.812" stroke="#374151" stroke-width="0.800953" stroke-miterlimit="10"/>
<path d="M1026.2 306.785C964.15 399.813 884.946 480.169 792.827 543.559C619.605 661.916 308.013 780.125 117.884 645.601C59.6882 604.428 -11.5287 522.32 6.29773 452.195C33.7048 344.339 245.843 274.956 408.149 325.769C445.355 337.535 480.325 355.453 511.608 378.778" stroke="#374151" stroke-width="0.800953" stroke-miterlimit="10"/>
<path d="M994.702 249.327C944.562 349.276 875.837 438.755 792.204 512.976C634.821 651.712 340.136 807.327 134.909 697.186C72.1159 663.488 -8.68156 590.753 0.394809 518.968C14.3653 408.442 216.359 313.518 383.649 344.131C422.03 351.254 458.945 364.76 492.862 384.088" stroke="#374151" stroke-width="0.800953" stroke-miterlimit="10"/>
<path d="M956.377 196.17C918.893 301.489 861.685 398.7 787.812 482.601C648.67 639.817 375.341 830.375 158.131 746.309C91.6603 720.561 2.55764 658.327 2.76528 585.978C3.03224 474.68 191.856 355.641 361.667 365.341C400.63 367.686 438.921 376.56 474.944 391.593" stroke="#374151" stroke-width="0.800953" stroke-miterlimit="10"/>
<path d="M911.834 148.115C887.598 257.283 842.77 360.828 779.753 453.204C660.959 626.142 413.138 848.944 187.238 792.198C118.127 774.815 22.0539 723.972 13.3335 652.157C-0.0437428 541.66 172.704 400.343 342.367 389.101C381.334 386.644 420.436 390.745 458.046 401.233" stroke="#374151" stroke-width="0.800953" stroke-miterlimit="10"/>
<path d="M861.731 105.874C851.071 217.189 819.301 325.453 768.12 424.875C671.483 611.103 452.909 862.679 221.758 834.231C151.016 825.481 49.4258 786.77 31.9256 716.645C5.05245 608.64 159.143 447.152 326.136 415.146C364.5 407.935 403.8 407.193 442.409 412.95" stroke="#374151" stroke-width="0.800953" stroke-miterlimit="10"/>
<path d="M806.799 70.2783C809.889 182.054 791.669 293.397 753.112 398.357C680.086 594.966 494.169 871.489 261.179 871.548C189.992 871.548 84.3087 845.712 58.3551 778.168C18.4309 674.346 151.492 495.089 313.294 442.792C350.474 430.893 389.383 425.299 428.41 426.24" stroke="#374151" stroke-width="0.800953" stroke-miterlimit="10"/>
<path d="M747.899 41.4751C764.725 152.037 760.326 264.792 734.937 373.706C686.619 577.88 535.998 875.019 304.848 903.852C234.105 912.751 126.168 899.937 92.1167 836.101C39.7052 737.915 149.749 543.708 303.899 471.952C339.332 455.58 377.262 445.272 416.107 441.458" stroke="#374151" stroke-width="0.800953" stroke-miterlimit="10"/>
<path d="M685.897 20.2061C716.174 127.855 725.667 240.286 713.868 351.488C690.999 560.052 578.078 873.565 352.207 930.46C283.096 947.872 174.388 948.555 132.713 889.406C68.645 798.398 154.01 592.148 298.164 501.971C331.322 481.379 367.696 466.489 405.776 457.92" stroke="#374151" stroke-width="0.800953" stroke-miterlimit="10"/>
<path d="M621.706 6.73828C664.999 109.842 688.253 220.25 690.223 332.058C693.189 541.868 619.629 866.92 402.508 951.105C336.067 976.883 228.278 990.914 179.663 937.312C104.916 854.877 164.269 639.698 296.262 532.494C326.635 507.976 360.904 488.725 397.644 475.54" stroke="#374151" stroke-width="0.800953" stroke-miterlimit="10"/>
<path d="M556.464 1.25048C612.073 98.2572 648.695 204.97 664.371 315.683C693.084 523.536 660.011 855.173 454.844 965.314C392.08 999.071 286.812 1026.24 231.998 979.018C147.671 906.402 180.15 685.558 297.965 562.929C325.105 534.867 356.757 511.554 391.606 493.961" stroke="#374151" stroke-width="0.800953" stroke-miterlimit="10"/>
<path d="M491.025 3.83153C558.135 93.2717 607.592 194.68 636.751 302.632C690.764 505.352 698.832 838.562 508.644 973.175C450.478 1014.38 349.362 1054.27 289.15 1014.14C196.517 952.44 201.619 729.371 303.476 593.097C326.957 561.915 355.502 534.892 387.922 513.154" stroke="#374151" stroke-width="0.800953" stroke-miterlimit="10"/>
<path d="M426.364 14.4219C503.951 94.9375 565.489 189.5 607.683 293.051C686.227 487.614 735.049 817.294 562.954 974.243C510.305 1022.3 414.855 1074.3 350.193 1041.91C250.68 992.042 228.315 769.951 312.672 622.286C332.143 588.451 357.148 558.12 386.647 532.554" stroke="#374151" stroke-width="0.800953" stroke-miterlimit="10"/>
<path d="M363.477 32.9023C450.375 103.269 523.075 189.545 577.691 287.118C679.518 470.557 768.502 791.754 616.992 968.667C570.631 1022.8 482.3 1086.16 414.079 1061.93C309.226 1024.67 259.84 807.03 325.302 650.111C340.437 614.151 361.491 580.982 387.591 551.984" stroke="#374151" stroke-width="0.800953" stroke-miterlimit="10"/>
<path d="M303.361 58.9463C398.242 118.107 480.988 194.799 547.177 284.923C670.805 454.45 798.556 762.268 669.945 956.475C630.584 1015.8 550.736 1089.63 480.112 1073.97C371.463 1049.88 295.589 839.956 341.386 676.184C352.023 638.617 368.887 603.102 391.277 571.116" stroke="#374151" stroke-width="0.800953" stroke-miterlimit="10"/>
<path d="M246.912 92.1997C348.336 139.25 439.871 205.19 516.622 286.496C660.272 439.559 824.744 729.312 720.989 937.847C689.251 1001.68 619.013 1084.65 547.025 1077.8C436.21 1067.24 335.124 868.226 360.455 700.094C366.404 661.509 378.765 624.191 397.028 589.686" stroke="#374151" stroke-width="0.800953" stroke-miterlimit="10"/>
<path d="M194.954 132.126C301.4 166.357 400.353 220.549 486.525 291.805C647.735 426.062 846.703 693.419 769.376 913.107C745.647 980.354 686.324 1071.33 613.891 1073.29C502.661 1076.43 377.876 891.364 382.355 721.362C383.563 682.366 391.283 643.846 405.194 607.395" stroke="#374151" stroke-width="0.800953" stroke-miterlimit="10"/>
<path d="M148.286 178.134C258.128 199.03 362.988 240.647 457.267 300.763C633.782 414.196 864.072 655.064 814.33 882.613C799.085 952.262 751.241 1049.86 679.727 1060.77C569.713 1077.56 423.127 909.221 406.665 739.961C403.022 701.092 405.919 661.887 415.237 623.977" stroke="#374151" stroke-width="0.800953" stroke-miterlimit="10"/>
<path d="M107.658 229.541C219.238 236.771 328.419 265.191 429.365 313.281C618.456 404.14 876.628 614.899 855.212 846.838C848.627 917.793 813.152 1020.55 743.508 1040.18C636.401 1070.35 470.238 921.294 433.132 755.415C424.719 717.291 422.764 678.025 427.348 639.253" stroke="#374151" stroke-width="0.800953" stroke-miterlimit="10"/>
<path d="M73.6314 285.546C185.257 279.008 297.107 293.796 403.198 329.121C601.929 396.042 884.127 573.46 891.364 806.288C893.559 877.481 870.987 983.854 804.279 1011.89C701.799 1055.11 518.492 927.553 461.246 767.37C448.222 730.57 441.464 691.846 441.254 652.809" stroke="#374151" stroke-width="0.800953" stroke-miterlimit="10"/>
<path d="M46.7636 345.317C156.736 325.104 269.552 326.03 379.178 348.047C584.731 390.05 886.387 531.456 922.277 761.615C933.222 832.036 923.849 940.338 861.115 976.349C764.597 1031.76 567.112 927.73 490.645 775.853C473.188 740.935 461.717 703.333 456.713 664.615" stroke="#374151" stroke-width="0.800953" stroke-miterlimit="10"/>
<path d="M27.4142 407.937C134.097 374.37 246.202 361.453 357.723 369.879C566.805 386.194 883.648 489.452 947.449 713.471C966.966 782.023 971 890.651 913.161 934.108C824.177 1000.94 615.391 921.976 520.83 780.659C499.196 748.146 483.155 712.242 473.372 674.434" stroke="#374151" stroke-width="0.800953" stroke-miterlimit="10"/>
<path d="M15.9366 472.455C117.644 426.013 227.271 399.385 338.948 393.996C548.535 384.592 875.818 448.102 966.523 662.598C994.315 728.214 1011.67 835.537 959.612 885.757C879.526 962.882 662.613 910.348 551.412 781.697C525.973 752.084 505.68 718.414 491.378 682.087" stroke="#374151" stroke-width="0.800953" stroke-miterlimit="10"/>
<path d="M12.4365 537.863C107.691 479.291 213.227 439.395 323.406 420.307C530.234 385.215 862.708 408.026 979.218 609.738C1014.81 671.438 1045.24 775.854 999.743 832.066C929.772 918.594 708.054 892.935 581.875 778.939C552.984 752.693 528.709 721.778 510.065 687.486" stroke="#374151" stroke-width="0.800953" stroke-miterlimit="10"/>
<path d="M17.0359 603.242C104.364 533.407 204.193 480.846 311.187 448.368C512.143 388.122 844.913 369.879 985.3 555.78C1028.28 612.645 1071.32 712.492 1033.03 773.896C974.177 868.374 751.005 870.154 611.834 772.531C579.942 750.026 552.049 722.332 529.317 690.601" stroke="#374151" stroke-width="0.800953" stroke-miterlimit="10"/>
<path d="M29.6126 667.552C107.703 587.524 200.313 523.095 302.497 477.705C494.554 393.224 822.549 334.253 984.707 501.436C1034.36 552.606 1089.29 646.402 1058.86 712.047C1012.11 812.903 790.811 842.24 640.636 762.475C606.224 744.048 575.144 719.984 548.686 691.283" stroke="#374151" stroke-width="0.800953" stroke-miterlimit="10"/>
</g>
<defs>
<clipPath id="clip0_888_4172">
<rect width="1089" height="533" fill="white" transform="matrix(-1 -8.74228e-08 -8.74228e-08 1 1089 0)"/>
</clipPath>
</defs>
</svg>
