<svg width="793" height="397" viewBox="0 0 793 397" fill="none" xmlns="http://www.w3.org/2000/svg">
<g clip-path="url(#clip0_891_7673)">
<path d="M36.6371 540.566C85.8981 475.762 147.044 420.928 216.811 378.994C347.99 300.777 579.685 228.866 711.814 335.113C752.237 367.635 800.347 430.497 784.217 480.64C759.471 557.777 602.207 598.678 486.575 554.495C460.07 544.264 435.466 529.666 413.785 511.305" stroke="#374151" stroke-width="0.583088" stroke-miterlimit="10"/>
<path d="M56.9323 583.734C97.8507 513.368 151.794 451.44 215.88 401.258C336.457 307.493 557.572 207.639 701.728 296.868C745.843 324.164 801.273 380.635 791.47 432.376C776.354 511.996 625.353 571.9 505.165 542.25C477.595 535.361 451.376 523.893 427.602 508.325" stroke="#374151" stroke-width="0.583088" stroke-miterlimit="10"/>
<path d="M82.3925 624.051C114.351 549.178 160.278 481.079 217.717 423.392C325.856 315.548 532.979 189.261 687.068 260.092C734.206 281.687 796.157 330.988 792.875 383.55C787.52 464.466 645.004 542.488 522.139 527.825C493.932 524.364 466.503 516.204 440.991 503.682" stroke="#374151" stroke-width="0.583088" stroke-miterlimit="10"/>
<path d="M112.624 661C135.139 582.774 172.345 509.551 222.253 445.246C316.335 324.92 506.398 174.123 667.981 225.497C717.429 241.197 784.973 282.443 788.061 335.026C792.854 415.921 660.984 510.851 537.19 511.413C508.778 511.463 480.559 506.74 453.711 497.441" stroke="#374151" stroke-width="0.583088" stroke-miterlimit="10"/>
<path d="M147.151 693.911C159.892 613.54 187.82 536.331 229.443 466.41C308.02 335.329 478.11 162.333 644.789 193.451C695.792 202.953 767.87 235.604 777.414 287.41C792.098 367.095 672.903 477.445 550.124 493.295C521.926 496.822 493.336 495.595 465.543 489.667" stroke="#374151" stroke-width="0.583088" stroke-miterlimit="10"/>
<path d="M185.452 722.33C188.173 640.985 206.362 560.902 239.046 486.363C300.932 346.71 448.501 154.127 617.705 164.6C669.529 167.775 745.105 191.313 760.89 241.543C785.355 318.723 680.649 442.979 560.785 473.709C533.235 480.68 504.71 482.979 476.399 480.511" stroke="#374151" stroke-width="0.583088" stroke-miterlimit="10"/>
<path d="M226.959 745.846C219.709 664.763 227.961 583.04 251.274 505.042C295.518 358.846 418.276 149.592 587.523 139.097C639.347 135.901 717.083 149.894 739.065 197.856C772.729 271.559 684.067 407.736 568.845 452.977C542.363 463.275 514.343 469.063 485.949 470.102" stroke="#374151" stroke-width="0.583088" stroke-miterlimit="10"/>
<path d="M271.053 764.051C253.893 684.508 252.039 602.425 265.59 522.189C291.524 371.587 387.657 148.814 554.314 117.61C605.317 108.065 684.327 112.449 711.944 157.301C754.418 226.405 683.182 372.342 574.374 431.404C549.357 444.883 522.255 454.066 494.198 458.571" stroke="#374151" stroke-width="0.583088" stroke-miterlimit="10"/>
<path d="M317.049 776.727C290.228 699.87 278.29 618.608 281.874 537.284C289.151 384.695 357.17 151.816 518.73 100.356C568.157 84.613 647.167 79.2575 680.032 120.374C730.646 183.625 677.872 337.316 577.161 409.313C553.989 425.759 528.224 438.204 500.937 446.132" stroke="#374151" stroke-width="0.583088" stroke-miterlimit="10"/>
<path d="M364.293 783.637C328.258 710.679 306.435 631.53 299.989 550.413C288.436 398.105 327.326 158.618 481.372 87.701C528.488 65.9983 606.181 50.9899 643.904 87.7011C701.839 144.215 668.348 303.217 577.246 387.048C556.268 406.219 532.226 421.738 506.118 432.959" stroke="#374151" stroke-width="0.583088" stroke-miterlimit="10"/>
<path d="M411.927 784.695C367.17 716.702 335.776 640.803 319.422 561.059C289.192 411.321 298.412 168.876 442.504 79.495C486.619 52.156 561.871 27.6674 603.827 59.563C668.39 108.626 654.7 270.566 574.589 364.914C556.13 386.524 534.174 404.883 509.637 419.225" stroke="#374151" stroke-width="0.583088" stroke-miterlimit="10"/>
<path d="M459.303 779.902C406.528 717.926 366.046 646.461 340.022 569.33C291.674 424.429 270.923 182.783 403.052 76.3639C443.54 43.8206 515.229 10.2838 560.791 36.6727C630.861 77.3789 637.166 239.664 569.255 343.319C553.593 367.032 534.061 387.946 511.472 405.188" stroke="#374151" stroke-width="0.583088" stroke-miterlimit="10"/>
<path d="M505.903 769.298C445.904 714.269 396.943 648.308 361.639 574.945C295.866 437.105 245.618 199.735 363.625 77.9835C399.729 40.7324 466.754 -1.33428 515.188 19.3968C589.728 51.1843 615.942 211.591 561.268 322.61C548.654 348.062 531.867 371.223 511.604 391.13" stroke="#374151" stroke-width="0.583088" stroke-miterlimit="10"/>
<path d="M550.749 753.059C484.46 705.825 427.775 646.395 383.725 577.947C301.498 449.133 222.467 219.84 324.603 84.4834C355.87 43.151 417.195 -6.9274 467.809 7.62751C545.674 29.9997 591.409 185.914 550.792 302.872C541.359 329.691 527.491 354.737 509.765 376.964" stroke="#374151" stroke-width="0.583088" stroke-miterlimit="10"/>
<path d="M593.178 731.443C521.579 692.697 458.019 640.661 405.9 578.12C308.471 460.493 201.843 242.558 286.597 95.6697C312.509 50.7309 367.248 -6.43059 419.287 1.79704C499.312 14.43 563.833 163.564 537.899 284.689C531.858 312.462 521.201 339.025 506.373 363.273" stroke="#374151" stroke-width="0.583088" stroke-miterlimit="10"/>
<path d="M632.805 704.751C556.996 675.102 487.525 631.291 428.101 575.658C316.982 470.88 184.378 267.737 250.432 111.52C270.643 63.7309 317.932 0.285381 370.576 2.12095C451.551 4.8203 533.908 144.884 523.046 268.212C520.481 296.51 513.181 324.176 501.453 350.057" stroke="#374151" stroke-width="0.583088" stroke-miterlimit="10"/>
<path d="M668.756 673.396C589.882 653.3 515.558 618.364 449.757 570.453C326.589 480.122 169.952 294.774 216.399 131.69C230.586 81.7842 269.713 12.9183 322.206 8.27542C402.9 1.01957 501.862 129.897 506.245 253.614C507.151 282.021 503.29 310.379 494.822 337.51" stroke="#374151" stroke-width="0.583088" stroke-miterlimit="10"/>
<path d="M700.611 637.872C619.857 627.624 541.795 602.083 470.6 562.614C337.262 488.112 159.161 323.409 185.073 155.854C193.019 104.567 223.401 31.5115 274.879 20.3686C354.061 3.24389 468.117 118.992 487.659 241.24C492.059 269.316 491.716 297.93 486.644 325.892" stroke="#374151" stroke-width="0.583088" stroke-miterlimit="10"/>
<path d="M727.836 598.699C646.431 598.464 565.818 582.714 490.31 552.292C348.853 494.742 151.815 353.166 156.997 183.69C158.573 131.863 179.756 55.5681 229.485 38.2059C305.99 11.4715 433.39 112.255 467.788 231.242C475.604 258.593 478.779 287.061 477.182 315.462" stroke="#374151" stroke-width="0.583088" stroke-miterlimit="10"/>
<path d="M750.037 556.482C669.226 566.247 587.293 560.524 508.625 539.616C361.164 499.881 148.233 383.615 132.535 214.765C127.742 163.11 139.38 84.829 186.518 61.4418C259.136 25.5297 397.981 109.944 446.738 223.749C457.85 249.903 464.5 277.736 466.41 306.09" stroke="#374151" stroke-width="0.583088" stroke-miterlimit="10"/>
<path d="M766.898 511.867C687.894 531.49 605.876 535.887 525.227 524.823C374.074 503.509 148.382 414.301 112.084 248.669C100.855 197.943 102.906 118.733 146.892 89.839C214.543 45.3105 362.695 111.995 425.077 218.911C439.315 243.509 449.329 270.32 454.703 298.229" stroke="#374151" stroke-width="0.583088" stroke-miterlimit="10"/>
<path d="M778.127 465.503C702.134 494.673 621.28 509.104 539.889 508.023C387.181 505.453 152.333 444.642 95.9317 284.732C78.6571 235.798 70.8835 157.042 111.047 122.879C172.717 70.3174 327.951 118.323 402.988 216.795C420.107 239.457 433.303 264.83 442.028 291.859" stroke="#374151" stroke-width="0.583088" stroke-miterlimit="10"/>
<path d="M783.59 418.102C711.764 456.4 633.298 480.659 552.391 489.581C400.526 505.82 159.977 474.313 84.3575 322.545C61.2096 276.094 43.8055 198.914 79.3911 160.065C134.108 100.334 294.071 128.904 380.66 217.399C400.471 237.805 416.719 261.39 428.727 287.172" stroke="#374151" stroke-width="0.583088" stroke-miterlimit="10"/>
<path d="M783.203 370.399C716.625 417.226 641.737 450.939 562.542 469.735C413.808 504.503 171.229 502.818 77.5361 361.48C48.8603 318.291 22.0846 243.767 52.6391 200.858C99.6044 134.843 261.856 143.545 358.658 220.704C380.818 238.495 399.839 259.875 414.93 283.955" stroke="#374151" stroke-width="0.583088" stroke-miterlimit="10"/>
<path d="M776.916 323.106C716.593 377.758 646.418 420.426 570.139 448.831C426.803 501.609 185.779 529.747 75.4811 400.999C41.7308 361.61 6.01564 290.995 31.0422 244.652C69.5646 173.389 231.643 162.052 337.191 226.75C361.37 241.684 382.879 260.559 400.826 282.594" stroke="#374151" stroke-width="0.583088" stroke-miterlimit="10"/>
<path d="M764.891 276.958C711.739 338.604 647.339 389.568 575.129 427.128C439.373 497.117 203.725 554.667 78.3551 440.452C40.0056 405.512 -4.10937 339.821 15.0438 290.757C44.497 215.262 203.963 184.122 316.658 235.345C342.481 247.163 366.143 263.221 386.663 282.853" stroke="#374151" stroke-width="0.583088" stroke-miterlimit="10"/>
<path d="M747.289 232.602C702.115 300.326 644.456 358.825 577.393 404.972C451.289 491.135 224.452 577.191 86.0392 479.258C43.6732 449.284 -8.1722 389.51 4.80534 338.46C24.7575 259.941 179.192 209.431 297.351 246.423C324.436 254.988 349.894 268.032 372.668 285.013" stroke="#374151" stroke-width="0.583088" stroke-miterlimit="10"/>
<path d="M724.355 190.773C687.854 263.535 637.823 328.675 576.938 382.708C462.365 483.707 247.836 596.993 98.4322 516.812C52.7193 492.28 -6.10065 439.329 0.506881 387.07C10.6773 306.608 157.727 237.504 279.513 259.79C307.454 264.976 334.328 274.808 359.019 288.878" stroke="#374151" stroke-width="0.583088" stroke-miterlimit="10"/>
<path d="M696.457 152.075C669.169 228.747 627.522 299.516 573.743 360.595C472.449 475.047 273.467 613.773 115.34 552.573C66.9492 533.828 2.08313 488.523 2.23429 435.853C2.42863 354.829 139.891 268.169 263.513 275.231C291.877 276.938 319.753 283.398 345.977 294.342" stroke="#374151" stroke-width="0.583088" stroke-miterlimit="10"/>
<path d="M664.031 117.092C646.387 196.565 613.753 271.945 567.877 339.194C481.396 465.092 300.984 627.291 136.53 585.98C86.2176 573.325 16.2772 536.312 9.92878 484.031C0.190232 403.59 125.949 300.712 249.463 292.528C277.83 290.739 306.297 293.724 333.676 301.36" stroke="#374151" stroke-width="0.583088" stroke-miterlimit="10"/>
<path d="M627.555 86.3406C619.794 167.377 596.666 246.193 559.406 318.571C489.056 454.143 329.935 637.289 161.659 616.58C110.159 610.209 36.2021 582.028 23.4621 530.978C3.89863 452.351 116.076 334.789 237.646 311.488C265.574 306.239 294.184 305.698 322.291 309.89" stroke="#374151" stroke-width="0.583088" stroke-miterlimit="10"/>
<path d="M587.564 60.427C589.813 141.799 576.549 222.856 548.48 299.266C495.317 442.396 359.971 643.703 190.356 643.746C138.532 643.746 61.5956 624.937 42.7015 575.766C13.637 500.184 110.504 369.686 228.295 331.615C255.362 322.952 283.688 318.879 312.099 319.565" stroke="#374151" stroke-width="0.583088" stroke-miterlimit="10"/>
<path d="M544.685 39.4585C556.934 119.946 553.732 202.032 535.249 281.32C500.073 429.958 390.423 646.273 222.147 667.263C170.647 673.741 92.0692 664.412 67.2802 617.94C29.1249 546.462 109.236 405.08 221.456 352.842C247.251 340.924 274.864 333.42 303.143 330.643" stroke="#374151" stroke-width="0.583088" stroke-miterlimit="10"/>
<path d="M499.55 23.9749C521.591 102.342 528.502 184.192 519.912 265.146C503.264 416.979 421.058 645.215 256.626 686.633C206.314 699.31 127.174 699.806 96.8358 656.746C50.1945 590.493 112.34 440.344 217.283 374.696C241.422 359.705 267.902 348.866 295.623 342.628" stroke="#374151" stroke-width="0.583088" stroke-miterlimit="10"/>
<path d="M452.819 14.1706C484.336 89.2291 501.265 169.606 502.699 251.001C504.859 403.741 451.307 640.377 293.245 701.663C244.876 720.429 166.406 730.644 131.015 691.622C76.5999 631.61 119.808 474.961 215.898 396.917C238.01 379.068 262.957 365.053 289.704 355.455" stroke="#374151" stroke-width="0.583088" stroke-miterlimit="10"/>
<path d="M405.322 10.1755C445.805 80.7958 472.466 158.482 483.878 239.081C504.781 390.395 480.704 631.826 331.344 712.007C285.652 736.582 209.018 756.363 169.113 721.984C107.724 669.12 131.369 508.346 217.137 419.073C236.894 398.644 259.937 381.673 285.307 368.865" stroke="#374151" stroke-width="0.583088" stroke-miterlimit="10"/>
<path d="M357.684 12.0544C406.54 77.1663 442.544 150.991 463.771 229.579C503.093 377.158 508.966 619.733 370.51 717.73C328.166 747.725 254.555 776.77 210.72 747.552C143.285 702.635 146.999 540.242 221.15 441.035C238.244 418.335 259.024 398.663 282.626 382.837" stroke="#374151" stroke-width="0.583088" stroke-miterlimit="10"/>
<path d="M310.61 19.764C367.093 78.3789 411.891 147.22 442.609 222.604C499.788 364.245 535.33 604.249 410.046 718.507C371.718 753.491 302.231 791.347 255.158 767.765C182.713 731.464 166.431 569.784 227.843 462.285C242.017 437.654 260.221 415.573 281.696 396.961" stroke="#374151" stroke-width="0.583088" stroke-miterlimit="10"/>
<path d="M264.83 33.2176C328.092 84.4438 381.017 147.252 420.776 218.285C494.906 351.828 559.686 585.656 449.387 714.448C415.637 753.858 351.332 799.985 301.668 782.342C225.336 755.219 189.383 596.778 237.039 482.541C248.057 456.362 263.385 432.216 282.385 411.105" stroke="#374151" stroke-width="0.583088" stroke-miterlimit="10"/>
<path d="M221.064 52.1777C290.137 95.2464 350.376 151.078 398.56 216.687C488.561 340.101 581.563 564.191 487.935 705.572C459.28 748.762 401.151 802.511 349.738 791.109C270.642 773.574 215.406 620.748 248.746 501.523C256.49 474.174 268.767 448.319 285.066 425.034" stroke="#374151" stroke-width="0.583088" stroke-miterlimit="10"/>
<path d="M179.969 76.3856C253.806 110.638 320.442 158.642 376.317 217.832C480.893 329.261 600.627 540.199 525.094 692.011C501.989 738.483 450.857 798.883 398.45 793.895C317.777 786.207 244.188 641.328 262.628 518.928C266.959 490.839 275.958 463.672 289.253 438.552" stroke="#374151" stroke-width="0.583088" stroke-miterlimit="10"/>
<path d="M142.147 105.452C219.639 130.372 291.676 169.823 354.408 221.697C471.768 319.435 616.615 514.069 560.321 674.001C543.047 722.956 499.86 789.187 447.13 790.613C366.155 792.902 275.312 658.172 278.573 534.412C279.453 506.023 285.072 477.98 295.2 451.444" stroke="#374151" stroke-width="0.583088" stroke-miterlimit="10"/>
<path d="M108.173 138.946C188.137 154.158 264.475 184.455 333.11 228.219C461.611 310.797 629.261 486.147 593.049 651.801C581.95 702.506 547.12 773.553 495.059 781.499C414.969 793.722 308.256 671.172 296.271 547.951C293.619 519.655 295.729 491.115 302.512 463.516" stroke="#374151" stroke-width="0.583088" stroke-miterlimit="10"/>
<path d="M78.5939 176.369C159.823 181.633 239.307 202.322 312.794 237.332C450.451 303.477 638.399 456.908 622.808 625.758C618.015 677.412 592.189 752.217 541.488 766.513C463.515 788.475 342.55 679.961 315.536 559.202C309.412 531.448 307.989 502.863 311.326 474.637" stroke="#374151" stroke-width="0.583088" stroke-miterlimit="10"/>
<path d="M53.8234 217.14C135.086 212.381 216.512 223.147 293.746 248.863C438.421 297.581 643.859 426.74 649.127 596.237C650.725 648.065 634.293 725.504 585.73 745.911C511.125 777.375 377.679 684.517 336.004 567.905C326.523 541.115 321.603 512.924 321.45 484.506" stroke="#374151" stroke-width="0.583088" stroke-miterlimit="10"/>
<path d="M34.2624 260.654C114.321 245.938 196.451 246.613 276.258 262.641C425.899 293.219 645.502 396.161 671.63 563.716C679.598 614.982 672.774 693.824 627.105 720.04C556.84 760.38 413.073 684.646 357.405 574.081C344.696 548.661 336.346 521.287 332.702 493.1" stroke="#374151" stroke-width="0.583088" stroke-miterlimit="10"/>
<path d="M20.1788 306.24C97.8435 281.804 179.455 272.401 260.641 278.534C412.852 290.412 643.511 365.583 689.958 528.667C704.166 578.573 707.103 657.653 664.996 689.289C600.216 737.942 448.222 680.457 379.382 577.579C363.633 553.91 351.955 527.772 344.833 500.248" stroke="#374151" stroke-width="0.583088" stroke-miterlimit="10"/>
<path d="M11.8222 353.209C85.8644 319.4 165.672 300.014 246.973 296.091C399.55 289.246 637.81 335.48 703.842 491.632C724.075 539.4 736.707 617.53 698.811 654.09C640.509 710.237 482.598 671.992 401.645 578.335C383.125 556.777 368.352 532.265 357.94 505.82" stroke="#374151" stroke-width="0.583088" stroke-miterlimit="10"/>
<path d="M9.27487 400.826C78.6195 358.186 155.449 329.142 235.658 315.246C386.228 289.699 628.267 306.305 713.085 453.15C738.997 498.067 761.152 574.081 728.027 615.003C677.089 677.995 515.68 659.316 423.822 576.327C402.79 557.22 385.118 534.714 371.545 509.75" stroke="#374151" stroke-width="0.583088" stroke-miterlimit="10"/>
<path d="M12.623 448.421C76.1972 397.582 148.872 359.318 226.763 335.674C373.057 291.815 615.312 278.534 717.513 413.869C748.801 455.266 780.133 527.954 752.256 572.656C709.415 641.435 546.948 642.731 445.632 571.662C422.415 555.279 402.109 535.118 385.56 512.017" stroke="#374151" stroke-width="0.583088" stroke-miterlimit="10"/>
<path d="M21.777 495.238C78.6262 436.979 146.046 390.075 220.435 357.031C360.251 295.529 599.029 252.599 717.079 374.307C753.226 411.558 793.217 479.841 771.062 527.631C737.031 601.053 575.924 622.41 466.598 564.342C441.546 550.927 418.92 533.408 399.659 512.514" stroke="#374151" stroke-width="0.583088" stroke-miterlimit="10"/>
</g>
<defs>
<clipPath id="clip0_891_7673">
<rect width="793" height="496" fill="white" transform="matrix(-1 -8.74228e-08 -8.74228e-08 1 793 -99)"/>
</clipPath>
</defs>
</svg>
