<svg width="544" height="480" viewBox="0 0 544 480" fill="none" xmlns="http://www.w3.org/2000/svg">
<g clip-path="url(#clip0_421_2355)">
<path d="M-83.7438 0.516602C154.597 0.516602 392.938 0.516602 631.28 0.516602C805.208 160.229 979.224 319.89 1153.33 479.502C566.955 479.837 -19.4191 479.837 -605.793 479.502C-431.622 319.941 -257.606 160.279 -83.7438 0.516602Z" stroke="#60A5FA" stroke-width="0.622612" stroke-miterlimit="10"/>
<path d="M-579.969 455.834C-295.599 459.531 -10.7341 453.545 273.767 453.545C558.269 453.545 843.035 459.531 1127.5 455.834" stroke="#60A5FA" stroke-width="0.622612" stroke-miterlimit="10"/>
<path d="M-555.566 433.499C-279.199 438.53 -2.69957 422.76 273.767 423.238C550.233 423.716 826.865 438.63 1103.1 433.499" stroke="#60A5FA" stroke-width="0.622612" stroke-miterlimit="10"/>
<path d="M-532.551 412.448C-263.359 417.302 4.51044 388.554 273.768 389.007C543.027 389.459 811.094 417.202 1080.09 412.448" stroke="#60A5FA" stroke-width="0.622612" stroke-miterlimit="10"/>
<path d="M-510.762 392.327C-247.885 395.647 10.7915 351.581 273.767 351.581C536.742 351.581 795.386 395.697 1058.3 392.327" stroke="#60A5FA" stroke-width="0.622612" stroke-miterlimit="10"/>
<path d="M-490.16 373.463C-232.641 374.344 16.1495 313.527 273.669 313.527C531.189 313.527 780.045 374.344 1037.5 373.463" stroke="#60A5FA" stroke-width="0.622612" stroke-miterlimit="10"/>
<path d="M-470.65 355.555C-217.727 353.392 20.6803 274.542 273.769 274.542C526.858 274.542 765.232 353.392 1018.19 355.555" stroke="#60A5FA" stroke-width="0.622612" stroke-miterlimit="10"/>
<path d="M-452.035 338.553C-203.179 333.221 24.4819 236.388 273.768 236.388C523.054 236.388 750.715 333.221 999.571 338.553" stroke="#60A5FA" stroke-width="0.622612" stroke-miterlimit="10"/>
<path d="M-434.543 322.407C-188.993 314.056 27.7226 200.095 273.768 200.095C519.814 200.095 736.695 314.056 982.08 322.407" stroke="#60A5FA" stroke-width="0.622612" stroke-miterlimit="10"/>
<path d="M-417.777 307.013C-175.27 296.248 30.5342 166.164 273.769 166.164C517.004 166.164 722.841 296.248 965.316 307.013" stroke="#60A5FA" stroke-width="0.622612" stroke-miterlimit="10"/>
<path d="M-399.49 290.237C-160.058 278.793 33.677 136.813 273.771 136.813C513.864 136.813 707.798 278.843 947.032 290.237" stroke="#60A5FA" stroke-width="0.622612" stroke-miterlimit="10"/>
<path d="M-377.803 270.342C-142.669 256.207 37.3435 98.054 273.767 98.054C510.19 98.054 690.07 256.131 925.171 270.292" stroke="#60A5FA" stroke-width="0.622612" stroke-miterlimit="10"/>
<path d="M-357.498 251.68C-125.439 235.256 40.2223 63.3707 273.769 63.3707C507.315 63.3707 672.977 235.256 905.036 251.68" stroke="#60A5FA" stroke-width="0.622612" stroke-miterlimit="10"/>
<path d="M-338.385 234.199C-108.872 218.505 42.7363 37.2627 273.77 37.2627C504.803 37.2627 656.412 218.505 885.924 234.199" stroke="#60A5FA" stroke-width="0.622612" stroke-miterlimit="10"/>
<path d="M-317.521 215.034C-97.7966 199.138 52.5555 30.7235 273.768 30.7235C494.981 30.7235 645.333 199.239 865.058 215.034" stroke="#60A5FA" stroke-width="0.622612" stroke-miterlimit="10"/>
<path d="M-298.045 197.152C-88.0745 181.507 62.046 25.3416 273.769 25.3416C485.492 25.3416 635.447 181.482 845.583 197.152" stroke="#60A5FA" stroke-width="0.622612" stroke-miterlimit="10"/>
<path d="M-279.396 180.049C-78.4862 164.958 71.5021 22.9272 273.768 22.9272C476.034 22.9272 625.923 165.033 826.932 180.049" stroke="#60A5FA" stroke-width="0.622612" stroke-miterlimit="10"/>
<path d="M-257.242 159.725C-66.1196 146.998 81.4879 20.6119 273.768 20.6119C466.048 20.6119 613.854 147.023 804.778 159.725" stroke="#60A5FA" stroke-width="0.622612" stroke-miterlimit="10"/>
<path d="M-236.807 140.962C-54.7441 130.323 90.8794 20.2352 273.769 20.2352C456.658 20.2352 602.182 130.298 784.344 140.962" stroke="#60A5FA" stroke-width="0.622612" stroke-miterlimit="10"/>
<path d="M-217.895 123.609C-44.826 114.806 100.103 18.9534 273.767 19.6073C447.431 20.2613 592.095 114.781 765.428 123.609" stroke="#60A5FA" stroke-width="0.622612" stroke-miterlimit="10"/>
<path d="M-200.334 107.511C-35.003 99.9654 108.041 19.4806 273.769 19.4806C439.497 19.4806 582.608 99.9654 747.872 107.511" stroke="#60A5FA" stroke-width="0.622612" stroke-miterlimit="10"/>
<path d="M-180.197 89.0246C-23.6288 82.9127 116.869 16.6134 273.769 16.2361C430.668 15.8588 571.364 82.9127 727.734 89.0246" stroke="#60A5FA" stroke-width="0.622612" stroke-miterlimit="10"/>
<path d="M-159.865 70.3878C-11.927 65.9863 125.562 14.1993 273.765 14.1993C421.968 14.1993 559.424 65.9863 707.395 70.3878" stroke="#60A5FA" stroke-width="0.622612" stroke-miterlimit="10"/>
<path d="M-141.213 53.3348C-0.879917 50.5933 133.237 13.2433 273.834 13.0924C414.432 12.9415 548.548 50.5933 688.881 53.3348" stroke="#60A5FA" stroke-width="0.622612" stroke-miterlimit="10"/>
<path d="M-122.068 35.7286C10.7586 34.5213 140.907 10.9543 273.767 10.9543C406.627 10.9543 536.776 34.5213 669.603 35.7286" stroke="#60A5FA" stroke-width="0.622612" stroke-miterlimit="10"/>
<path d="M-101.93 17.2169C23.4904 17.3426 148.315 7.15625 273.768 7.15625C399.222 7.15625 524.047 17.4432 649.467 17.2169" stroke="#60A5FA" stroke-width="0.622612" stroke-miterlimit="10"/>
<path d="M521.27 0.491333C576.358 64.7786 643.614 123.583 694.867 189.731C766.72 282.566 811.426 386.165 882.683 479.552" stroke="#60A5FA" stroke-width="0.622612" stroke-miterlimit="10"/>
<path d="M493.656 0.441406C538.891 59.5223 604.362 108.895 646.918 169.107C716.357 267.324 748.96 379.55 814.927 479.552" stroke="#60A5FA" stroke-width="0.622612" stroke-miterlimit="10"/>
<path d="M466.279 0.414795C504.305 52.1766 567.197 92.8214 601.851 145.992C669.14 249.465 688.55 372.707 747.342 479.526" stroke="#60A5FA" stroke-width="0.622612" stroke-miterlimit="10"/>
<path d="M438.768 0.366211C469.982 45.1862 529.601 77.4556 556.946 123.76C584.755 170.818 594.41 231.584 609.389 281.988C629.229 348.79 650.524 414.712 679.721 479.528" stroke="#60A5FA" stroke-width="0.622612" stroke-miterlimit="10"/>
<path d="M411.289 0.340942C437.345 37.8418 490.648 62.9682 512.273 102.154C539.355 150.948 543.058 218.329 554.829 270.669C570.602 340.943 587.499 410.612 612.067 479.427" stroke="#60A5FA" stroke-width="0.622612" stroke-miterlimit="10"/>
<path d="M383.777 0.289673C404.807 33.8418 449.315 51.7748 467.038 86.7606C494.318 140.56 492.797 214.505 502.055 271.951C513.298 341.596 525.995 410.737 544.413 479.501" stroke="#60A5FA" stroke-width="0.622612" stroke-miterlimit="10"/>
<path d="M356.301 0.265625C372.239 28.5108 408.314 40.508 422.07 70.0611C447.861 125.394 440.487 204.773 446.803 263.728C454.507 335.938 463.336 407.871 476.761 479.603" stroke="#60A5FA" stroke-width="0.622612" stroke-miterlimit="10"/>
<path d="M328.791 0.265625C339.604 23.2038 364.569 32.3338 374.455 56.2026C398.23 113.523 386.227 196.297 390.096 256.811C394.89 331.159 400.313 405.381 409.109 479.502" stroke="#60A5FA" stroke-width="0.622612" stroke-miterlimit="10"/>
<path d="M301.277 0.239746C305.411 16.8397 318.538 29.8431 324.225 46.5689C344.726 106.932 330.078 189.555 331.996 252.283C334.343 328.065 336.956 403.796 341.42 479.527" stroke="#60A5FA" stroke-width="0.622612" stroke-miterlimit="10"/>
<path d="M273.768 0.265625V479.553" stroke="#60A5FA" stroke-width="0.622612" stroke-miterlimit="10"/>
<path d="M246.258 0.239746C242.124 16.8397 228.997 29.8431 223.31 46.5689C202.809 106.932 217.457 189.555 215.539 252.283C213.191 328.065 210.579 403.796 206.115 479.527" stroke="#60A5FA" stroke-width="0.622612" stroke-miterlimit="10"/>
<path d="M218.745 0.265625C207.933 23.2038 182.968 32.3338 173.081 56.2026C149.306 113.523 161.31 196.297 157.441 256.811C152.646 331.159 147.223 405.381 138.428 479.502" stroke="#60A5FA" stroke-width="0.622612" stroke-miterlimit="10"/>
<path d="M191.234 0.265625C175.296 28.5108 139.221 40.508 125.465 70.0611C99.6733 125.394 107.047 204.773 100.732 263.728C93.0271 335.938 84.1983 407.871 70.7734 479.603" stroke="#60A5FA" stroke-width="0.622612" stroke-miterlimit="10"/>
<path d="M163.757 0.289673C142.727 33.8418 98.2195 51.7748 80.496 86.7606C53.2164 140.56 54.7374 214.505 45.4789 271.951C34.2364 341.596 21.539 410.737 3.12109 479.501" stroke="#60A5FA" stroke-width="0.622612" stroke-miterlimit="10"/>
<path d="M136.249 0.340942C110.193 37.8418 56.8898 62.9682 35.2645 102.154C8.18327 150.948 4.47987 218.329 -7.2917 270.669C-23.0643 340.943 -39.9611 410.612 -64.5293 479.427" stroke="#60A5FA" stroke-width="0.622612" stroke-miterlimit="10"/>
<path d="M108.77 0.366211C77.5553 45.1862 17.9369 77.4556 -9.40886 123.76C-37.2175 170.818 -46.8728 231.584 -61.8518 281.988C-81.6915 348.79 -102.986 414.712 -132.184 479.528" stroke="#60A5FA" stroke-width="0.622612" stroke-miterlimit="10"/>
<path d="M81.2581 0.414795C43.2319 52.1766 -19.66 92.8214 -54.3134 145.992C-121.603 249.465 -141.013 372.707 -199.805 479.526" stroke="#60A5FA" stroke-width="0.622612" stroke-miterlimit="10"/>
<path d="M53.8767 0.441406C8.64215 59.5223 -56.829 108.895 -99.3852 169.107C-168.824 267.324 -201.427 379.55 -267.395 479.552" stroke="#60A5FA" stroke-width="0.622612" stroke-miterlimit="10"/>
<path d="M26.2671 0.491333C-28.8212 64.7786 -96.0779 123.583 -147.33 189.731C-219.183 282.566 -263.889 386.165 -335.146 479.552" stroke="#60A5FA" stroke-width="0.622612" stroke-miterlimit="10"/>
<rect width="544" height="479" fill="url(#paint0_radial_421_2355)"/>
</g>
<defs>
<radialGradient id="paint0_radial_421_2355" cx="0" cy="0" r="1" gradientUnits="userSpaceOnUse" gradientTransform="translate(272 239.5) rotate(90) scale(239.5 272)">
<stop stop-color="#3B82F6" stop-opacity="0"/>
<stop offset="1" stop-color="#3B82F6"/>
</radialGradient>
<clipPath id="clip0_421_2355">
<rect width="544" height="480" rx="24" fill="white"/>
</clipPath>
</defs>
</svg>
